<svg width="138" height="22" viewBox="0 0 138 22" fill="none" xmlns="http://www.w3.org/2000/svg">
<g clip-path="url(#clip0_8233_41381)">
<path d="M35.7796 19.2081C34.3169 19.2081 33.0478 18.8868 31.9722 18.2441C30.9018 17.5924 30.0457 16.6404 29.5098 15.5058C28.9386 14.332 28.6526 12.9739 28.6519 11.4317C28.6511 9.88945 28.9371 8.53104 29.5098 7.35647C30.0438 6.22358 30.9007 5.27466 31.9722 4.62947C33.0478 3.97927 34.3169 3.65417 35.7796 3.65417C37.2423 3.65417 38.511 3.97927 39.5859 4.62947C40.6602 5.27289 41.5194 6.22216 42.0539 7.35647C42.6266 8.5318 42.913 9.89021 42.913 11.4317C42.913 12.9732 42.6266 14.3312 42.0539 15.5058C41.5163 16.6424 40.6563 17.5949 39.5814 18.2441C38.5156 18.8875 37.2483 19.2088 35.7796 19.2081ZM35.8416 16.854C36.8067 16.854 37.6204 16.6329 38.2825 16.1907C38.9636 15.7261 39.4868 15.0641 39.7821 14.2932C40.1135 13.4772 40.2793 12.5234 40.2793 11.4317C40.2793 10.3249 40.1068 9.36734 39.7618 8.55892C39.4587 7.78607 38.9237 7.12662 38.2307 6.67161C37.549 6.23011 36.7113 6.00898 35.7176 6.00822C34.745 6.00822 33.9276 6.23614 33.2654 6.69195C32.589 7.15954 32.0698 7.82145 31.776 8.59056C31.4513 9.40501 31.289 10.3622 31.289 11.4622C31.289 12.5622 31.4581 13.516 31.7963 14.3237C32.1065 15.089 32.6402 15.7425 33.3274 16.1986C34.0106 16.6363 34.8487 16.8548 35.8416 16.854ZM50.8367 7.37681C52.0852 7.37681 53.0334 7.69475 53.6813 8.33063C54.2908 8.89848 54.7268 9.62825 54.9384 10.4349C55.1246 11.1564 55.2219 11.898 55.2281 12.6432V18.8962H52.7038V13.5055C52.7038 10.9883 51.8349 9.7301 50.0971 9.73086C49.7479 9.72098 49.4006 9.78513 49.0779 9.91912C48.7552 10.0531 48.4643 10.2539 48.2244 10.5084C47.7268 11.0207 47.4784 11.8984 47.4792 13.1416V18.8973H44.9548V7.69776H47.1793V8.9409C47.6012 8.4429 48.1321 8.0492 48.7306 7.79043C49.3935 7.50439 50.1096 7.36338 50.8311 7.37681H50.8367ZM59.7988 13.9926C59.8958 14.9193 60.1889 15.6312 60.6782 16.1285C61.1675 16.6258 61.8365 16.871 62.6851 16.8642C63.2382 16.8772 63.7842 16.7376 64.2635 16.4608C64.7197 16.1755 65.0801 15.7598 65.2985 15.2673L67.7598 16.0144C67.4881 16.6628 67.0867 17.2486 66.5804 17.7355C66.0855 18.2114 65.5021 18.585 64.8633 18.8351C64.2133 19.0854 63.5224 19.2119 62.826 19.2081C61.7084 19.2081 60.7185 18.9629 59.8563 18.4724C59.0054 17.9929 58.3061 17.2833 57.8382 16.4246C57.3516 15.502 57.1061 14.4709 57.1245 13.4275C57.1245 12.2183 57.3556 11.1608 57.8179 10.2552C58.2562 9.37517 58.9385 8.64058 59.783 8.13964C60.6619 7.62819 61.6633 7.36679 62.6795 7.38359C63.7558 7.38359 64.6871 7.62204 65.4733 8.09896C66.2641 8.58484 66.8922 9.29631 67.2772 10.1422C67.6989 11.02 67.9093 12.0533 67.9086 13.2422C67.9086 13.4772 67.8984 13.7262 67.8781 13.9892L59.7988 13.9926ZM62.7888 9.5749C61.1352 9.5749 60.1581 10.4184 59.8574 12.1053H65.3617C65.2512 11.2343 64.9855 10.5939 64.5646 10.184C64.1436 9.77418 63.5499 9.57114 62.7832 9.5749H62.7888ZM72.5345 18.8973H70.1917V3.96496H72.4364L77.5877 14.5418L82.7391 3.96496H84.985V18.8973H82.6568V9.32627L78.085 18.8973H77.0917L72.5289 9.32627L72.5345 18.8973ZM96.6992 9.47093C96.8745 9.82231 96.9889 10.201 97.0374 10.5909C97.0987 11.0656 97.1265 11.5441 97.1208 12.0228V18.8973H94.9313V17.3931C94.5022 17.9834 93.9335 18.4576 93.2762 18.773C92.6479 19.0638 91.8925 19.2088 91.0101 19.2081C90.2238 19.2081 89.5474 19.0597 88.9806 18.7628C88.4476 18.4826 88.0032 18.0587 87.6976 17.5389C87.4053 17.0167 87.2556 16.4266 87.2635 15.8279C87.2635 15.0052 87.4669 14.3173 87.8735 13.7643C88.2801 13.2113 88.925 12.7826 89.8082 12.4782C90.3619 12.3043 90.927 12.1691 91.4994 12.0736C92.1405 11.9561 93.0545 11.8077 94.2413 11.6283L94.6754 11.5662C94.6265 10.9167 94.4198 10.4398 94.0553 10.1354C93.6908 9.83106 93.1353 9.68038 92.3889 9.6834C91.8611 9.67773 91.3408 9.80976 90.8793 10.0665C90.4284 10.3254 90.0947 10.7489 89.948 11.2486L87.6728 10.5332C87.922 9.59876 88.4937 8.78309 89.2862 8.23118C90.0799 7.66612 91.1145 7.38359 92.3901 7.38359C93.4251 7.38359 94.3116 7.55311 95.0497 7.89215C95.7675 8.2058 96.3503 8.76552 96.6935 9.47093H96.6992ZM94.4037 15.3611C94.554 14.995 94.6367 14.4145 94.6517 13.6196C93.5686 13.7914 92.7892 13.9225 92.3134 14.0129C91.8926 14.0841 91.4779 14.188 91.0732 14.3237C90.6949 14.4473 90.3484 14.6529 90.0585 14.926C89.947 15.0411 89.8596 15.1774 89.8016 15.3268C89.7435 15.4763 89.7158 15.6359 89.7203 15.7962C89.7145 15.9917 89.7535 16.186 89.8342 16.364C89.9149 16.5421 90.0352 16.6993 90.1859 16.8235C90.4933 17.085 90.9353 17.2157 91.5118 17.2157C91.9918 17.2261 92.4683 17.1308 92.9076 16.9365C93.2803 16.7675 93.6148 16.5241 93.8907 16.2212C94.118 15.9732 94.2908 15.6802 94.398 15.3611H94.4037ZM103.132 8.28769C103.454 8.06868 103.811 7.90731 104.188 7.81078C104.581 7.70024 104.989 7.64472 105.397 7.64578C105.633 7.64727 105.868 7.66426 106.101 7.69663V10.0303C105.837 9.96107 105.566 9.92612 105.294 9.92637C104.77 9.91404 104.252 10.0428 103.794 10.2993C103.31 10.5563 102.919 10.9597 102.677 11.452C102.425 12.001 102.301 12.6006 102.315 13.2049V18.8973H99.8109V7.69776H102.015V9.4924C102.283 9.00446 102.666 8.59056 103.132 8.28769ZM110.603 18.8973H108.054L108.075 3.96496H110.603V13.0907L114.689 7.69776H117.803L113.468 13.2975L118.175 18.8973H114.875L110.603 13.5055V18.8973ZM121.058 13.9926C121.153 14.9193 121.446 15.6312 121.937 16.1285C122.428 16.6258 123.097 16.871 123.944 16.8642C124.497 16.8772 125.043 16.7377 125.522 16.4608C125.979 16.1755 126.339 15.7598 126.557 15.2673L129.02 16.0144C128.747 16.6624 128.346 17.248 127.841 17.7355C127.345 18.2112 126.762 18.5848 126.123 18.8351C125.473 19.0854 124.782 19.2119 124.085 19.2081C122.968 19.2081 121.979 18.9629 121.116 18.4724C120.265 17.9916 119.565 17.2799 119.098 16.4189C118.612 15.4964 118.366 14.4653 118.385 13.4218C118.385 12.2126 118.616 11.1552 119.078 10.2496C119.516 9.36951 120.199 8.63493 121.043 8.13399C121.923 7.62566 122.925 7.3674 123.941 7.38698C125.016 7.38698 125.947 7.62543 126.733 8.10235C127.527 8.5873 128.157 9.29884 128.544 10.1456C128.964 11.0233 129.174 12.0567 129.174 13.2455C129.174 13.4806 129.164 13.7296 129.144 13.9926H121.058ZM124.047 9.5749C122.393 9.5749 121.416 10.4184 121.115 12.1053H126.618C126.508 11.2343 126.242 10.5939 125.821 10.184C125.4 9.77418 124.808 9.57114 124.043 9.5749H124.047ZM134.724 9.65853V14.7701C134.72 15.0611 134.734 15.352 134.765 15.6414C134.785 15.8364 134.848 16.0243 134.951 16.1907C135.102 16.4484 135.335 16.6476 135.613 16.7557C135.956 16.8742 136.317 16.9301 136.68 16.9207C137.123 16.9167 137.566 16.8789 138.003 16.8077V18.903C137.38 19.0287 136.746 19.0946 136.11 19.0996C135.393 19.1147 134.679 18.988 134.01 18.7267C133.436 18.4939 132.961 18.0684 132.666 17.5231C132.491 17.2112 132.371 16.8707 132.314 16.5173C132.254 16.1091 132.226 15.6968 132.231 15.2843L132.241 14.3293V9.65853H130.212V7.69776H132.241V4.58766H134.721V7.69776H138V9.65853H134.724Z" fill="#E34D28"/>
<path fill-rule="evenodd" clip-rule="evenodd" d="M1.28787 1.79633C0.46326 2.62289 0 3.74395 0 4.91289V17.0934C0 18.2623 0.46326 19.3834 1.28787 20.21C2.11248 21.0365 3.23089 21.5009 4.39706 21.5009H16.551C17.7172 21.5009 18.8356 21.0365 19.6602 20.21C20.4848 19.3834 20.948 18.2623 20.948 17.0934V4.91289C20.948 3.74395 20.4848 2.62289 19.6602 1.79633C18.8356 0.969763 17.7172 0.505402 16.551 0.505402H4.39706C3.23089 0.505402 2.11248 0.969763 1.28787 1.79633ZM9.98588 4.03549C9.9415 4.01743 9.89397 4.00844 9.84607 4.00904C9.79815 4.00714 9.7505 4.01719 9.70741 4.03829C9.66431 4.0594 9.62712 4.0909 9.59916 4.12996L3.44328 10.314C3.41271 10.342 3.388 10.3758 3.37058 10.4134C3.35316 10.4511 3.34338 10.4918 3.34181 10.5333C3.32768 10.5955 3.32875 10.6603 3.34493 10.722C3.36112 10.7838 3.39194 10.8407 3.43477 10.888C3.4776 10.9352 3.53119 10.9714 3.59096 10.9935C3.65074 11.0156 3.71495 11.0228 3.77813 11.0147C4.1096 11.0147 5.01156 11.0147 6.25176 11C6.29927 10.9994 6.34644 11.0082 6.39052 11.026C6.4346 11.0438 6.47473 11.0702 6.5086 11.1036C6.54246 11.137 6.56938 11.1768 6.5878 11.2207C6.60622 11.2646 6.61578 11.3117 6.61593 11.3594V13.5473C6.61578 13.6738 6.64052 13.7991 6.68875 13.916C6.73697 14.0328 6.80772 14.139 6.89695 14.2285C6.98617 14.3179 7.09213 14.3888 7.20874 14.4372C7.32535 14.4855 7.45033 14.5103 7.57651 14.5102H9.84607C9.89397 14.5108 9.9415 14.5018 9.98588 14.4837C10.0303 14.4657 10.0706 14.4389 10.1045 14.405C10.1384 14.3711 10.1653 14.3308 10.1834 14.2863C10.2016 14.2419 10.2107 14.1943 10.2102 14.1463V4.37294C10.2107 4.32493 10.2016 4.27731 10.1834 4.23288C10.1653 4.18845 10.1384 4.14811 10.1045 4.11421C10.0706 4.08031 10.0303 4.05355 9.98588 4.03549ZM10.8653 11C10.973 10.9045 11.1141 10.8558 11.2576 10.8644C11.3773 10.8644 11.654 10.8656 12.0624 10.8673C13.0934 10.8717 14.9638 10.8797 17.267 10.8813C17.3407 10.885 17.4121 10.9086 17.4736 10.9496C17.5352 10.9905 17.5845 11.0474 17.6165 11.1141C17.6506 11.1974 17.6557 11.2898 17.6311 11.3763C17.6132 11.431 17.5831 11.4808 17.5432 11.5221L11.3738 17.7378C11.3155 17.7956 11.2415 17.835 11.1611 17.8511C11.0807 17.8671 10.9973 17.8591 10.9214 17.8281C10.8454 17.797 10.7803 17.7442 10.734 17.6763C10.6878 17.6085 10.6625 17.5284 10.6612 17.4462C10.6759 15.4798 10.6759 13.4942 10.6759 11.5244C10.6673 11.4284 10.6798 11.3317 10.7125 11.2411C10.7452 11.1505 10.7974 11.0682 10.8653 11Z" fill="#E34D28"/>
</g>
<defs>
<clipPath id="clip0_8233_41381">
<rect width="138" height="21" fill="white" transform="translate(0 0.5)"/>
</clipPath>
</defs>
</svg>
