<svg width="17" height="16" viewBox="0 0 17 16" fill="none" xmlns="http://www.w3.org/2000/svg">
<g clip-path="url(#clip0_7801_40878)">
<path d="M2.97192 2.68445L5.00879 4.72132C4.77863 5.24082 4.63116 5.81129 4.57791 6.40732C4.47223 7.58957 4.74854 8.73875 5.35594 9.64325C5.48979 9.84253 5.63626 10.0248 5.79357 10.1895C5.79032 10.3237 5.79304 10.4576 5.80194 10.5908C5.87732 11.715 6.37738 12.6571 7.21007 13.2435C7.762 13.6322 8.41191 13.8307 9.103 13.8307C9.45453 13.8307 9.81666 13.7794 10.1821 13.6757C11.0458 13.4303 11.8453 12.9126 12.4824 12.195L14.2659 13.9784C12.7999 15.2851 10.9302 16 8.95035 16C6.81347 16 4.80451 15.1678 3.29348 13.6568C1.78251 12.1458 0.950356 10.1368 0.950356 7.99997C0.950356 6.02013 1.66517 4.15035 2.97192 2.68445Z" fill="#795715"/>
<path d="M13.0483 11.4351C13.6094 10.5289 13.8801 9.50481 13.814 8.51859C13.7386 7.39441 13.2385 6.45234 12.4058 5.86594C12.2647 5.7665 12.1169 5.67984 11.9639 5.60544C11.8435 4.96194 11.6037 4.35909 11.2535 3.83769C10.6254 2.90231 9.72082 2.33725 8.70641 2.24656C7.6921 2.15581 6.70154 2.55153 5.91747 3.36066C5.76263 3.52044 5.61979 3.69294 5.48925 3.87603L3.63479 2.02156C5.10072 0.714813 6.97047 0 8.95032 0C11.0872 0 13.0962 0.832156 14.6072 2.34313C16.1182 3.85413 16.9503 5.86312 16.9503 8C16.9503 9.97984 16.2355 11.8496 14.9288 13.3155L13.0483 11.4351Z" fill="#795715"/>
<path d="M10.9238 5.30277C10.4469 5.24645 9.94352 5.28914 9.43383 5.43386C9.1188 5.52333 8.81239 5.64927 8.5192 5.80764C8.33605 5.11086 8.21036 4.32805 8.26952 3.1772C8.26952 3.1772 8.35133 3.15111 8.62295 3.18042C9.69152 3.29564 10.556 4.13108 10.9238 5.30277Z" fill="#795715"/>
<path d="M6.74878 7.4003C6.41534 7.87373 6.16481 8.38592 6.00384 8.91258C5.62288 8.24492 5.43085 7.39489 5.51166 6.49083C5.54457 6.12276 5.62053 5.77164 5.73213 5.4447L7.16571 6.87833C7.01784 7.04195 6.87843 7.2162 6.74878 7.4003Z" fill="#795715"/>
<path d="M7.32107 3.45508C7.29463 4.52655 7.4221 5.30548 7.59601 5.98273L6.16342 4.55014C6.47295 4.07255 6.87176 3.69383 7.32107 3.45508Z" fill="#795715"/>
<path d="M9.01433 12.8911C9.75774 11.6762 10.007 10.7725 10.2055 9.91809L11.8181 11.5307C11.034 12.4356 9.97687 12.9258 9.01433 12.8911Z" fill="#795715"/>
<path d="M10.4623 8.84911C10.6526 8.15586 10.936 7.41667 11.5618 6.45264C11.6675 6.50423 11.7691 6.56417 11.866 6.63245C12.4629 7.05282 12.8225 7.74495 12.8786 8.58136C12.9271 9.30507 12.7455 10.0601 12.3633 10.7501L10.4623 8.84911Z" fill="#795715"/>
<path d="M7.51528 7.94005C7.61375 7.8002 7.7189 7.66755 7.82972 7.54224L9.42334 9.13586C9.39859 9.24146 9.37471 9.34624 9.35093 9.45067C9.1335 10.4057 8.92672 11.3128 8.05412 12.657C7.94909 12.6056 7.8474 12.5458 7.74987 12.4771C6.48565 11.5867 6.38043 9.55142 7.51528 7.94005Z" fill="#795715"/>
<path d="M9.68998 6.33564C9.96888 6.25645 10.3201 6.19529 10.6012 6.21886C10.1628 6.93542 9.89616 7.5438 9.71073 8.09749L8.52338 6.91014C8.8846 6.64808 9.27892 6.45239 9.68998 6.33564Z" fill="#795715"/>
</g>
<defs>
<clipPath id="clip0_7801_40878">
<rect width="16" height="16" fill="white" transform="matrix(-1 0 0 1 16.9503 0)"/>
</clipPath>
</defs>
</svg>
