<svg width="17" height="16" viewBox="0 0 17 16" fill="none" xmlns="http://www.w3.org/2000/svg">
<rect x="0.950317" width="16" height="16" rx="8" fill="#ADC7DA"/>
<path d="M13.3808 8.32174L11.3802 8.85755L10.609 8.41269V7.57786L11.3714 7.14008L13.3808 7.6785C13.4212 7.68928 13.4618 7.6946 13.502 7.6946C13.7084 7.6946 13.8973 7.55675 13.953 7.34795C14.0199 7.09843 13.872 6.84199 13.6225 6.77522L12.5208 6.48005L13.5364 5.89701C13.7602 5.76845 13.8377 5.48267 13.7091 5.25874C13.5801 5.03481 13.2948 4.95723 13.0709 5.0861L12.0533 5.67052L12.3484 4.56853C12.4152 4.31908 12.2674 4.0626 12.0178 3.99582C11.7699 3.93078 11.5124 4.07708 11.4455 4.32637L10.9093 6.32713L10.1422 6.76769L9.41496 6.34722V5.46495L10.8856 3.99435C11.0681 3.81169 11.0681 3.51584 10.8856 3.33316C10.703 3.15053 10.4072 3.15053 10.2244 3.33316L9.41496 4.14262V2.96752C9.41499 2.70935 9.20559 2.5 8.9474 2.5C8.68925 2.5 8.47988 2.70932 8.47988 2.96752V4.13683L7.67629 3.33316C7.49366 3.15053 7.1978 3.15053 7.01513 3.33316C6.83249 3.51582 6.83249 3.81167 7.01513 3.99435L8.47988 5.45909V6.35061L7.75817 6.76698L6.99102 6.32682L6.45522 4.32639C6.38846 4.0771 6.1322 3.9304 5.88293 3.99584C5.63346 4.06262 5.4854 4.3191 5.55224 4.56856L5.84731 5.67036L4.82974 5.0861C4.60541 4.95721 4.31986 5.03462 4.19149 5.25886C4.063 5.48283 4.14049 5.76843 4.36439 5.89699L5.37982 6.48003L4.27819 6.7752C4.02869 6.84197 3.88068 7.0984 3.9475 7.34793C4.00342 7.55673 4.19225 7.69458 4.39868 7.69458C4.43888 7.69458 4.47949 7.68926 4.52 7.67848L6.52968 7.13987L7.2912 7.57708L7.29198 8.41266L6.52056 8.85833L4.52 8.32171C4.27225 8.2567 4.01442 8.40316 3.9475 8.65236C3.88068 8.90179 4.02869 9.15829 4.27819 9.22471L5.37579 9.51909L4.36322 10.1036C4.1397 10.2328 4.063 10.5185 4.19228 10.7421C4.27888 10.8925 4.43598 10.9758 4.59739 10.9758C4.67663 10.9758 4.75706 10.9561 4.83074 10.913L5.84843 10.3257L5.55224 11.4317C5.4854 11.6816 5.63346 11.9373 5.88293 12.0045C5.92332 12.0154 5.96391 12.0206 6.00413 12.0206C6.21046 12.0206 6.39929 11.8825 6.45522 11.6736L6.99368 9.66454L7.75954 9.22264L8.47988 9.6383V10.5412L7.01513 12.006C6.83249 12.1886 6.83249 12.4844 7.01513 12.6672C7.10645 12.7585 7.22587 12.8038 7.3457 12.8038C7.46512 12.8038 7.58496 12.7585 7.67629 12.6672L8.47988 11.8636V13.0325C8.47988 13.2911 8.68925 13.5 8.9474 13.5C9.20559 13.5 9.41499 13.2911 9.41499 13.0325V11.8577L10.2245 12.6672C10.3158 12.7585 10.4352 12.8038 10.555 12.8038C10.6749 12.8038 10.7943 12.7585 10.8856 12.6672C11.0682 12.4845 11.0682 12.1887 10.8856 12.006L9.41499 10.5354V9.64191L10.1415 9.2226L10.9071 9.66449L11.4456 11.6735C11.5015 11.8825 11.6903 12.0205 11.8966 12.0205C11.9367 12.0205 11.9774 12.0154 12.0179 12.0044C12.2675 11.9372 12.4152 11.6815 12.3484 11.4317L12.0519 10.3257L13.07 10.9129C13.1437 10.956 13.2241 10.9758 13.3034 10.9758C13.4648 10.9758 13.6218 10.8925 13.7085 10.742C13.8377 10.5185 13.7611 10.2328 13.5375 10.1036L12.525 9.51914L13.6225 9.22473C13.872 9.15832 14.02 8.90179 13.9531 8.6524C13.8867 8.40316 13.6299 8.25639 13.3808 8.32174ZM9.67391 8.41269L8.95032 8.83059L8.22725 8.41266L8.22644 7.57634L8.95032 7.15872L9.67391 7.57696V8.41269Z" fill="#036EB8"/>
</svg>
