<svg width="672" height="842" viewBox="0 0 672 842" fill="none" xmlns="http://www.w3.org/2000/svg">
<path d="M391.52 737.557C472.505 744.79 550.098 713.865 597.422 662.116C658.558 600.278 678.196 467.361 592.253 243.191C539.691 106.036 434.309 8.52557 269.277 31.6393C109.333 54.0718 7.21103 191.333 26.1355 335.221C34.9919 402.75 80.436 459.181 140.463 509.611C175.767 539.256 201.497 575.892 215.791 616.295C238.558 680.658 305.022 729.796 391.52 737.557Z" fill="#FFF5F0"/>
<path d="M216.381 250.041C216.49 249.806 216.629 249.587 216.794 249.388C216.915 249.24 217.049 249.104 217.196 248.981L217.798 248.368L217.959 248.485C221.054 246.968 227.438 248.58 233.934 252.806C241.741 257.914 246.759 264.95 245.332 268.686L245.555 268.848L244.679 269.718L244.551 269.846C244.323 270.052 244.07 270.228 243.798 270.37V270.37C240.737 271.97 234.269 270.37 227.723 266.099C219.721 260.925 214.642 253.721 216.381 250.041Z" fill="#E34D2B" fill-opacity="0.5"/>
<path d="M234.866 251.87C226.898 246.667 219.036 245.429 217.313 249.082C215.59 252.734 220.658 259.966 228.626 265.174C236.594 270.381 244.456 271.608 246.179 267.928C247.902 264.248 242.839 257.072 234.866 251.87Z" fill="#FFBA08"/>
<path d="M229.066 264.158C225.955 262.178 223.214 259.668 220.97 256.742C219.046 254.082 218.377 251.757 219.096 250.19C219.295 249.782 219.582 249.422 219.937 249.139C220.292 248.855 220.706 248.654 221.148 248.551C224.087 247.704 229.3 249.326 234.424 252.683C237.538 254.66 240.279 257.17 242.521 260.099C244.45 262.753 245.113 265.084 244.394 266.651C244.197 267.059 243.911 267.418 243.557 267.701C243.203 267.983 242.79 268.183 242.348 268.284C241.776 268.441 241.184 268.516 240.591 268.507C237.569 268.507 233.287 266.918 229.066 264.158ZM221.31 249.103C220.951 249.184 220.614 249.345 220.325 249.572C220.036 249.8 219.801 250.089 219.637 250.419C219.018 251.768 219.676 253.943 221.449 256.385C223.653 259.248 226.342 261.702 229.395 263.634C233.477 266.31 237.725 267.888 240.614 267.888C241.145 267.896 241.674 267.828 242.186 267.688C242.545 267.606 242.881 267.446 243.171 267.218C243.46 266.99 243.695 266.701 243.859 266.372C244.478 265.028 243.814 262.853 242.041 260.405C239.84 257.542 237.152 255.089 234.101 253.157C230.014 250.48 225.771 248.902 222.877 248.902C222.355 248.902 221.835 248.973 221.332 249.114L221.31 249.103Z" fill="#E34D2B" fill-opacity="0.5"/>
<path d="M468.981 157.818C468.854 157.544 468.693 157.287 468.502 157.054V157.054C468.36 156.881 468.203 156.72 468.033 156.575L467.325 155.861L467.141 155.995C463.517 154.221 456.034 156.101 448.468 161.046C439.318 167.018 433.446 175.243 435.141 179.614L434.879 179.804L435.9 180.818C435.946 180.871 435.996 180.919 436.05 180.963V180.997C436.316 181.237 436.612 181.441 436.931 181.605V181.605C440.511 183.478 448.083 181.605 455.722 176.62C465.078 170.531 471 162.111 468.981 157.818Z" fill="#E34D2B" fill-opacity="0.5"/>
<path d="M447.376 159.947C456.693 153.859 465.882 152.414 467.895 156.719C469.908 161.024 463.992 169.443 454.669 175.526C445.346 181.61 436.163 183.054 434.15 178.755C432.137 174.456 438.064 166.031 447.376 159.947Z" fill="#FFBA08"/>
<path d="M440.685 179.396C439.992 179.405 439.302 179.319 438.633 179.139C438.116 179.02 437.632 178.786 437.217 178.455C436.802 178.124 436.466 177.704 436.235 177.227C435.393 175.392 436.174 172.671 438.426 169.565C441.052 166.141 444.261 163.205 447.905 160.895C453.9 156.992 459.988 155.079 463.429 156.066C463.946 156.186 464.43 156.419 464.845 156.75C465.26 157.081 465.595 157.501 465.826 157.979C466.668 159.813 465.888 162.534 463.635 165.64C461.01 169.065 457.801 172 454.156 174.311C449.216 177.539 444.198 179.396 440.685 179.396ZM461.382 156.495C458.003 156.495 453.019 158.341 448.262 161.469C444.694 163.736 441.551 166.612 438.978 169.967C436.91 172.822 436.135 175.364 436.854 176.942C437.048 177.328 437.325 177.667 437.665 177.933C438.006 178.199 438.401 178.386 438.822 178.481C439.422 178.643 440.041 178.72 440.662 178.71C444.041 178.71 449.026 176.864 453.782 173.736C457.351 171.47 460.494 168.593 463.066 165.239C465.135 162.384 465.91 159.841 465.191 158.263C464.997 157.877 464.72 157.539 464.379 157.273C464.039 157.006 463.644 156.819 463.223 156.724C462.623 156.562 462.004 156.485 461.382 156.495Z" fill="#E34D2B" fill-opacity="0.5"/>
<path fill-rule="evenodd" clip-rule="evenodd" d="M421.844 477.538L463.862 822.789L459.342 823.238L405.323 477.41L421.844 477.538Z" fill="#FFBA08"/>
<path fill-rule="evenodd" clip-rule="evenodd" d="M271.713 483.021H447.341V502.889H271.713V483.021Z" fill="#FFBA08"/>
<path fill-rule="evenodd" clip-rule="evenodd" d="M372.565 477.538L414.583 822.789L410.063 823.238L356.043 477.41L372.565 477.538Z" fill="#FFBA08"/>
<path fill-rule="evenodd" clip-rule="evenodd" d="M243.704 674.145H441.629V682.139H243.704V674.145Z" fill="#FFBA08"/>
<path fill-rule="evenodd" clip-rule="evenodd" d="M264.305 471.094L222.323 822.276L226.843 821.827L280.863 467.839L264.305 471.094Z" fill="#FFBA08"/>
<path fill-rule="evenodd" clip-rule="evenodd" d="M210.02 262.762L207.315 266.365C206.838 267.005 206.52 267.75 206.389 268.538C206.259 269.326 206.318 270.134 206.563 270.894L226.495 332.184C226.945 333.573 227.824 334.784 229.005 335.642C230.186 336.5 231.609 336.962 233.069 336.961H254.028C255.355 336.961 256.652 336.566 257.755 335.827C258.857 335.087 259.714 334.036 260.216 332.808L261.188 330.442L252.46 319.715L210.02 262.762Z" fill="#1E1B1B"/>
<path fill-rule="evenodd" clip-rule="evenodd" d="M234.398 330.828C233.969 330.806 233.555 330.66 233.207 330.408C232.859 330.156 232.591 329.808 232.436 329.407L210.79 263.927C210.745 263.836 210.721 263.736 210.721 263.634C210.721 263.532 210.745 263.432 210.79 263.341C210.875 263.249 210.979 263.178 211.094 263.132C211.21 263.086 211.335 263.066 211.459 263.075L236.571 262.708C237.01 262.718 237.437 262.858 237.797 263.109C238.157 263.36 238.436 263.712 238.597 264.12L260.244 329.6C260.287 329.693 260.309 329.795 260.309 329.898C260.309 330.001 260.287 330.102 260.244 330.196C260.157 330.286 260.05 330.356 259.933 330.4C259.816 330.444 259.69 330.462 259.565 330.453L234.398 330.828Z" fill="white"/>
<path d="M236.636 261.736V263.671C236.861 263.691 237.077 263.771 237.262 263.901C237.447 264.031 237.595 264.208 237.69 264.413L259.199 329.508L234.398 329.875C234.175 329.851 233.962 329.77 233.779 329.64C233.596 329.51 233.449 329.335 233.353 329.132L211.844 264.037L236.599 263.68V261.745L236.636 261.736ZM236.599 261.745H236.525L211.404 262.112C211.14 262.085 210.873 262.127 210.629 262.234C210.386 262.341 210.175 262.51 210.017 262.724C209.859 262.938 209.759 263.189 209.727 263.453C209.696 263.717 209.733 263.985 209.837 264.23L231.492 329.728C231.719 330.315 232.112 330.823 232.623 331.19C233.135 331.556 233.742 331.765 234.371 331.791H234.444L259.565 331.415C259.831 331.444 260.099 331.403 260.344 331.297C260.588 331.19 260.801 331.022 260.96 330.808C261.119 330.594 261.22 330.342 261.252 330.077C261.284 329.812 261.246 329.543 261.142 329.297L239.514 263.79C239.292 263.199 238.901 262.687 238.388 262.318C237.876 261.95 237.266 261.741 236.636 261.718L236.599 261.745Z" fill="#E34D28"/>
<path opacity="0.8" d="M240.229 292.541L240.962 294.695H241.732L242.704 297.537L244.978 297.418L244.739 296.721H245.473L246.39 299.536L244.153 299.655L243.676 298.262H242.924L243.648 300.37H244.391L244.629 301.076H245.381L245.143 300.389L246.646 300.306L247.123 301.7L246.39 301.746L246.628 302.442L245.885 302.488L246.124 303.194L247.591 303.112L247.829 303.808L243.346 304.074L243.107 303.396L243.841 303.35L243.107 301.214L242.374 301.26L242.86 302.672H242.099L242.576 304.083H241.815L241.338 302.681L240.586 302.727L240.339 302.011H241.072L240.834 301.305H240.091L239.844 300.59L238.322 300.673L238.074 299.958L239.568 299.875L239.073 298.436H238.322L238.074 297.712H238.817L238.331 296.281H237.579L237.341 295.584L235.8 295.658L236.048 296.364H235.259L235.021 295.658L233.472 295.731L233.71 296.437L232.161 296.51L231.913 295.805H232.674L231.931 293.632H232.711L231.491 290.001H232.28L233.013 292.146H233.802L234.553 294.319H233.802L234.04 295.016L235.571 294.952L235.324 294.237H236.103L235.864 293.531H236.635L236.882 294.237H237.643L238.129 295.658H238.89L238.661 294.97L240.192 294.897L239.449 292.742H240.229V292.541ZM242.897 300.379L242.172 298.271L239.926 298.381L240.65 300.508L242.897 300.379ZM241.677 296.795L241.448 296.107L239.183 296.217L239.422 296.905L241.677 296.795ZM244.648 303.148L245.381 303.102L244.904 301.718H244.18L244.648 303.148ZM244.473 298.115L244.712 298.803H245.436L245.207 298.115H244.473Z" fill="#1E1B1B"/>
<path opacity="0.8" d="M234.912 288.387H235.682L234.948 286.241H235.718L236.69 289.102H235.939L236.186 289.826H235.425L235.911 291.238H236.672L236.177 289.817H236.947L237.68 291.962H238.441L238.927 293.393H238.176L237.928 292.659L235.599 292.76L234.618 289.9H233.848L234.591 292.045H233.811L232.821 289.157H233.582L233.344 288.442H232.574L232.326 287.718H231.556L232.042 289.148L230.474 289.212L230.722 289.918H229.942L229.209 287.763H229.979L229.722 287.021L232.069 286.938L231.822 286.223H233.362L233.61 286.929H232.858L233.106 287.653L234.655 287.598L234.902 288.332H234.142L234.38 289.029H235.141L234.912 288.387Z" fill="#1E1B1B"/>
<path opacity="0.8" d="M235.004 300.086L236.554 300.003L237.544 302.873L236.013 302.956L236.251 303.662L237.773 303.57L237.535 302.864L238.296 302.818L237.81 301.406L238.58 301.36L239.066 302.772H239.827L240.313 304.184L234.949 304.505L233.959 301.645L236.26 301.516L236.013 300.801H235.252L235.004 300.068V300.086Z" fill="#1E1B1B"/>
<path opacity="0.8" d="M222.37 286.628L227.871 286.445L229.613 291.506L224.112 291.726L222.37 286.628ZM223.424 287.334L224.68 291.001L228.613 290.855L227.357 287.233L223.424 287.334Z" fill="#1E1B1B"/>
<path opacity="0.8" d="M234.133 304.523L228.678 304.844L226.908 299.774L232.409 299.49L234.133 304.523ZM231.877 300.26L227.972 300.471L229.219 304.065L233.115 303.845L231.877 300.26Z" fill="#1E1B1B"/>
<path opacity="0.8" d="M236.517 286.16L241.835 285.985L243.531 290.945L238.222 291.156L236.517 286.16ZM237.535 286.856L238.745 290.414L242.531 290.258L241.321 286.71L237.535 286.856Z" fill="#1E1B1B"/>
<path opacity="0.8" d="M228.319 294.511L227.512 294.557L227.255 293.824H226.458L226.21 293.09H225.403L225.66 293.824H224.881L224.376 292.375L227.549 292.247L228.291 294.41L228.319 294.511Z" fill="#1E1B1B"/>
<path opacity="0.8" d="M238.358 298.445L238.606 299.151L235.535 299.307L235.296 298.601H236.048L235.801 297.895H235.04L234.792 297.161L236.341 297.079L236.598 297.803H237.368L237.616 298.518H238.377L238.358 298.445Z" fill="#1E1B1B"/>
<path opacity="0.8" d="M230.419 293.696L230.667 294.42H229.897L230.144 295.135H230.905L231.153 295.86L229.603 295.933L229.365 295.218H228.567L228.311 294.475H229.09L228.842 293.76L230.419 293.696V293.696Z" fill="#1E1B1B"/>
<path opacity="0.8" d="M241.734 294.658L241.495 293.952L243.008 293.888L243.246 294.575L244.741 294.511L245.227 295.932H244.484L244.236 295.217L242.714 295.29L242.467 294.575H241.715L241.734 294.658Z" fill="#1E1B1B"/>
<path opacity="0.8" d="M230.878 297.353L231.135 298.077L232.703 298.004L232.959 298.737L230.603 298.857L230.108 297.417L230.906 297.362L230.878 297.353Z" fill="#1E1B1B"/>
<path opacity="0.8" d="M240.239 292.551L240 291.845L242.283 291.753L242.522 292.441L240.23 292.551H240.239Z" fill="#1E1B1B"/>
<path opacity="0.8" d="M230.428 293.705L230.171 292.972H230.951L230.703 292.257H231.482L231.978 293.705L230.41 293.77L230.428 293.705Z" fill="#1E1B1B"/>
<path opacity="0.8" d="M228.53 297.454L226.935 297.546L226.44 296.106H227.219L227.467 296.812H228.264L228.521 297.546L228.53 297.454Z" fill="#1E1B1B"/>
<path opacity="0.8" d="M244.484 295.97L244.732 296.685L243.237 296.758L242.99 296.052L244.493 295.979L244.484 295.97Z" fill="#1E1B1B"/>
<path opacity="0.8" d="M235.004 300.077H234.215L233.977 299.362L234.766 299.316L235.013 300.031L235.004 300.077Z" fill="#1E1B1B"/>
<path opacity="0.8" d="M243.282 292.421L243.044 291.715H243.777L244.016 292.412H243.273L243.282 292.421Z" fill="#1E1B1B"/>
<path opacity="0.8" d="M230.172 292.971H229.402L229.155 292.265H229.925L230.172 292.98V292.971Z" fill="#1E1B1B"/>
<path opacity="0.8" d="M233.72 298.683L233.967 299.417H233.197L232.94 298.692L233.72 298.646V298.683Z" fill="#1E1B1B"/>
<path opacity="0.8" d="M233.481 297.968L234.242 297.922L234.489 298.637L233.719 298.683L233.472 297.959L233.481 297.968Z" fill="#1E1B1B"/>
<path opacity="0.8" d="M228.741 298.188L228.989 298.913H228.237L227.989 298.188H228.75H228.741Z" fill="#1E1B1B"/>
<path opacity="0.8" d="M230.227 290.78H230.978L231.217 291.486H230.465L230.227 290.78Z" fill="#1E1B1B"/>
<path opacity="0.8" d="M229.741 287.103H228.971L228.723 286.397H229.493L229.741 287.113V287.103Z" fill="#1E1B1B"/>
<path opacity="0.8" d="M243.273 292.412L243.511 293.109H242.769L242.521 292.403H243.282L243.273 292.412Z" fill="#1E1B1B"/>
<path opacity="0.8" d="M225.936 294.631L225.679 293.898H226.477L226.734 294.631H225.936Z" fill="#1E1B1B"/>
<path opacity="0.8" d="M238.175 293.356L238.423 294.072H237.653L237.405 293.356H238.175Z" fill="#1E1B1B"/>
<path opacity="0.8" d="M232.703 298.006L232.464 297.291H233.234L233.482 298.006H232.694H232.703Z" fill="#1E1B1B"/>
<path opacity="0.8" d="M225.926 294.631L226.174 295.346H225.404L225.156 294.631H225.936H225.926Z" fill="#1E1B1B"/>
<path opacity="0.8" d="M227.513 294.557L227.761 295.272H226.972L226.725 294.557H227.522H227.513Z" fill="#1E1B1B"/>
<path opacity="0.8" d="M229.31 297.427L229.558 298.142L228.76 298.188C228.677 297.949 228.604 297.702 228.521 297.454H229.31V297.427Z" fill="#1E1B1B"/>
<path opacity="0.8" d="M226.907 297.547L227.155 298.262H226.385L226.137 297.547H226.917H226.907Z" fill="#1E1B1B"/>
<path opacity="0.8" d="M229.319 297.437L229.071 296.722H229.841L230.089 297.446H229.3L229.319 297.437Z" fill="#1E1B1B"/>
<path opacity="0.8" d="M230.886 297.354L230.648 296.648H231.409L231.647 297.354H230.877H230.886Z" fill="#1E1B1B"/>
<path opacity="0.8" d="M234.792 297.162H234.013L233.766 296.438H234.545L234.792 297.162Z" fill="#1E1B1B"/>
<path opacity="0.8" d="M241.898 299.711H241.174L240.936 299.023H241.66L241.898 299.711Z" fill="#1E1B1B"/>
<path opacity="0.8" d="M236.333 297.088L236.085 296.364H236.837L237.094 297.088H236.333Z" fill="#1E1B1B"/>
<path opacity="0.8" d="M224.478 288.039L226.825 287.956L227.568 290.111L225.221 290.202L224.478 288.039Z" fill="#1E1B1B"/>
<path opacity="0.8" d="M229.751 303.295L229.008 301.149L231.337 301.021L232.08 303.166L229.751 303.295Z" fill="#1E1B1B"/>
<path opacity="0.8" d="M239.258 289.671L238.534 287.544L240.798 287.47L241.523 289.579L239.258 289.671Z" fill="#1E1B1B"/>
<path fill-rule="evenodd" clip-rule="evenodd" d="M333.14 378.319L270.677 331.258C265.781 333.037 261.188 330.149 261.188 330.149L257.85 320.293C253.037 316.809 252.221 310.959 251.185 307.329C249.773 302.506 241.329 297.473 237.332 292.66C234.068 288.735 238.249 285.765 240.999 287.25C241.815 287.699 244.776 289.551 248.334 291.77L247.738 290.065C247.738 290.065 254.412 288.956 256.631 289.405C258.465 289.771 347.636 344.415 353.118 347.871L333.14 378.319Z" fill="#FBCBA0"/>
<path fill-rule="evenodd" clip-rule="evenodd" d="M343.959 345.121C347.564 345.121 351.088 346.19 354.086 348.192C357.083 350.195 359.419 353.042 360.799 356.372C362.178 359.703 362.539 363.367 361.836 366.903C361.133 370.439 359.397 373.686 356.848 376.235C354.299 378.784 351.051 380.52 347.515 381.224C343.98 381.927 340.315 381.566 336.985 380.186C333.654 378.807 330.807 376.471 328.805 373.473C326.802 370.476 325.733 366.952 325.733 363.347C325.732 360.953 326.202 358.583 327.118 356.371C328.033 354.159 329.376 352.149 331.069 350.456C332.761 348.764 334.771 347.421 336.983 346.506C339.195 345.59 341.566 345.119 343.959 345.121V345.121Z" fill="#FBCBA0"/>
<path d="M263.636 301.838C263.636 301.838 243.328 288.58 240.807 287.315C237.992 285.912 233.995 288.874 237.332 292.724C241.33 297.474 249.774 302.58 251.185 307.394C252.597 312.207 253.633 320.954 264.159 322.879" stroke="#885946" stroke-width="1.39358" stroke-linecap="round" stroke-linejoin="round"/>
<path fill-rule="evenodd" clip-rule="evenodd" d="M437.412 287.169C437.412 288.085 437.339 288.947 437.265 289.763V289.837C437.255 289.915 437.227 289.99 437.183 290.057C437.04 291.355 436.82 292.644 436.523 293.916C434.597 305.469 429.105 339.263 425.035 369.5C421.771 393.438 393.395 386.764 393.395 386.764L348.562 376.615L324.257 305.322L330.675 292.486C330.344 290.702 330.169 288.892 330.152 287.077C330.152 272.848 340.457 261.406 353.201 261.406H353.715C364.386 259.48 384.887 257.188 412.777 259.93C422.266 260.892 427.895 264.45 431.306 269.098C435.282 274.281 437.429 280.636 437.412 287.169V287.169Z" fill="#1E1B1B"/>
<path fill-rule="evenodd" clip-rule="evenodd" d="M367.311 271.463C341.52 278.348 349.148 261.607 353.558 261.451L346.893 219.359L379.101 205.873L395.256 262.047C386.159 265.799 376.824 268.944 367.311 271.463V271.463Z" fill="#FBCBA0"/>
<path opacity="0.5" fill-rule="evenodd" clip-rule="evenodd" d="M352.413 253.823L346.912 219.36L374.847 207.138L376.626 208.468C379.679 226.199 364.716 244.637 352.413 253.823Z" fill="#1E1B1B"/>
<path fill-rule="evenodd" clip-rule="evenodd" d="M413.18 259.526C403.095 261.158 392.579 262.863 384.199 268.346C356.694 286.059 353.944 298.95 356.483 311.996C359.234 325.703 377.68 329.553 377.68 329.553C377.68 329.553 348.113 345.341 330.005 327.115C313.181 310.071 328.749 283.684 366.834 257.894C391.213 241.391 381.063 213.886 379.578 207.138C379.065 206.918 376.91 211.438 376.91 211.438C376.91 211.438 346.38 230.334 351.046 230.692L353.494 262.331C353.494 262.331 290.728 281.154 331.49 191.864C333.783 187.041 334.672 180.376 335.781 174.004C328.676 174.453 323.175 174.976 323.175 174.976C322.065 154.806 335.259 153.705 344.665 155.411C346.653 154.077 348.792 152.985 351.037 152.156C396.32 136.662 409.879 164.304 406.047 187.051C402.728 206.396 455.565 252.118 413.18 259.526Z" fill="#FFBA08"/>
<path fill-rule="evenodd" clip-rule="evenodd" d="M406.065 254.19C359.307 275.91 352.192 309.915 356.932 333.707C361.305 355.49 376.937 354.454 376.937 354.454C376.937 354.454 370.345 345.341 369.823 323.108C368.906 288.351 381.687 265.898 411.768 259.379C417.993 253.53 408.504 256.785 406.065 254.19Z" fill="#FFBA08"/>
<path fill-rule="evenodd" clip-rule="evenodd" d="M391.542 209.953C389.91 212.254 385.391 215.582 380.944 213.437C380.915 213.712 380.866 213.985 380.797 214.253C377.313 224.035 359.71 237.448 347.003 237.073C337 236.779 325.586 223.659 326.695 202.398C327.511 185.501 331.958 173.976 331.958 173.976C339.961 173.146 348.025 173.072 356.043 173.756L358.491 162.342C358.262 163.451 358.115 166.715 361.159 171.455C363.157 174.563 367.384 177.387 370.565 179.239C371.748 179.826 372.867 180.422 374.049 181.073C374.256 181.153 374.455 181.251 374.645 181.366L374.343 181.219C374.416 181.219 374.416 181.293 374.499 181.293C372.94 187.371 374.792 196.485 378.863 200.335C379.019 200.115 379.78 199.418 379.385 199.748C382.493 196.631 388.058 195.595 391.304 197.814C395.393 200.619 394.357 206.029 391.542 209.953ZM358.537 162.378C358.577 162.232 358.602 162.081 358.61 161.929L358.537 162.378Z" fill="#FBCBA0"/>
<path fill-rule="evenodd" clip-rule="evenodd" d="M358.49 192.092C357.372 192.019 356.336 193.504 356.262 195.356C356.189 197.208 357.005 198.84 358.188 199.024C359.37 199.207 360.342 197.612 360.416 195.76C360.489 193.908 359.6 192.166 358.49 192.092Z" fill="#1E1B1B"/>
<path fill-rule="evenodd" clip-rule="evenodd" d="M334.178 190.314C333.059 190.241 332.023 191.726 331.95 193.578C331.877 195.43 332.692 197.062 333.875 197.245C335.058 197.429 336.03 195.833 336.103 193.981C336.176 192.129 335.296 190.387 334.178 190.314Z" fill="#1E1B1B"/>
<path d="M355.896 212.172C355.896 212.172 349.598 221.954 338.926 217.581" stroke="#E34D28" stroke-width="2.02619" stroke-linecap="round" stroke-linejoin="round"/>
<path fill-rule="evenodd" clip-rule="evenodd" d="M338.632 217.031C338.791 216.586 339.068 216.192 339.433 215.892C339.798 215.592 340.237 215.396 340.704 215.326C341.59 215.204 342.489 215.416 343.226 215.921C343.226 215.921 346.554 209.916 352.779 215.179C351.963 217.361 342.336 220.918 338.632 217.031Z" fill="#E34D28"/>
<path d="M340.705 185.354C340.705 185.354 334.626 181.201 329.813 185.051" stroke="#1E1B1B" stroke-width="2.02619" stroke-linecap="round" stroke-linejoin="round"/>
<path d="M334.772 191.204L330.628 188.985" stroke="#1E1B1B" stroke-width="2.02619" stroke-linecap="round" stroke-linejoin="round"/>
<path d="M358.931 192.615L354.044 190.836" stroke="#1E1B1B" stroke-width="2.02619" stroke-linecap="round" stroke-linejoin="round"/>
<path d="M368.348 188.682C368.568 189.599 361.013 179.568 349.672 186.16" stroke="#1E1B1B" stroke-width="2.02619" stroke-linecap="round" stroke-linejoin="round"/>
<path d="M343.667 188.83C343.988 190.632 343.851 192.486 343.267 194.221C342.684 195.956 341.674 197.517 340.329 198.759C335.745 203.205 337.89 209.504 344.483 207.927" stroke="#1E1B1B" stroke-width="2.02619" stroke-linecap="round" stroke-linejoin="round"/>
<path d="M380.019 209.88C383.2 211.063 387.5 206.396 383.421 202.169" stroke="#885946" stroke-width="2.02619" stroke-linecap="round" stroke-linejoin="round"/>
<path d="M378.185 205.112L386.436 199.996" stroke="#885946" stroke-width="2.02619" stroke-linecap="round" stroke-linejoin="round"/>
<path fill-rule="evenodd" clip-rule="evenodd" d="M240.44 737.872C240.44 737.872 264.818 716.079 273.638 706.15C283.943 695.148 281.495 675.4 289.499 653.469C293.167 643.531 291.498 638.571 291.498 638.571L265.928 625.827L264.497 636.939C264.277 636.511 264.003 636.114 263.681 635.756L264.048 639.9L261.747 657.109L259.446 679.333C259.519 678.077 254.706 686.594 247.371 697.495C244.85 709.13 238.991 725.724 236.993 733.252C235.993 737.056 240.44 737.872 240.44 737.872Z" fill="#FFBA08"/>
<path fill-rule="evenodd" clip-rule="evenodd" d="M237.177 735.351C237.177 735.351 261.564 713.568 270.375 703.629C280.68 692.627 278.232 672.879 286.236 650.948C289.903 641.019 288.235 636.05 288.235 636.05L262.664 623.306L261.179 634.418C260.963 633.988 260.688 633.59 260.363 633.235L260.739 637.388L258.438 654.579L256.146 676.812C256.219 675.547 251.397 684.073 244.062 694.965C241.541 706.6 238.286 721.196 236.278 728.677C235.969 729.792 235.89 730.959 236.044 732.106C236.199 733.253 236.584 734.357 237.177 735.351V735.351Z" fill="#1E1B1B"/>
<path fill-rule="evenodd" clip-rule="evenodd" d="M270.613 629.394C270.613 629.394 269.494 636.27 268.605 651.453C267.129 678.142 264.461 688.062 244.153 695.332C250.892 671.174 242.585 635.83 242.585 635.83L231.868 586.514L210.726 489.055C212.128 486.297 213.158 483.365 213.788 480.336C221.122 480.171 235.012 480.867 241.779 487.909C261.949 508.803 268.66 538.444 266.597 574.32C266.46 576.832 266.405 579.702 266.46 582.736C266.771 602.1 270.613 629.394 270.613 629.394Z" fill="#FBCBA0"/>
<path opacity="0.5" fill-rule="evenodd" clip-rule="evenodd" d="M232.583 589.888L229.099 574.027C232.886 559.128 256.742 556.093 266.818 555.498C267.047 561.576 266.973 567.948 266.597 574.467C266.32 581.437 266.47 588.418 267.047 595.37C255.295 596.104 243.527 594.232 232.583 589.888V589.888Z" fill="#1E1B1B"/>
<path fill-rule="evenodd" clip-rule="evenodd" d="M211.707 463.951C212.798 460.021 214.883 456.438 217.761 453.548C220.638 450.658 224.211 448.557 228.136 447.448L228.301 447.402L369.933 414.983L365.734 494.151L289.848 506.987L306.644 570.496C306.644 573.64 289.271 578.747 266.506 582.754L265.891 582.864C252.221 585.257 239.908 586.531 231.914 586.531C226.761 586.531 223.415 585.999 222.69 584.89L209.855 490.841C209.855 490.841 207.48 479.023 211.707 463.951Z" fill="#E34D28"/>
<path d="M357.299 467.912L258.823 487.166L273.932 580.921" stroke="#FFBA08" stroke-width="1.48526" stroke-linecap="round" stroke-linejoin="round"/>
<path opacity="0.5" fill-rule="evenodd" clip-rule="evenodd" d="M296.688 533.19L306.544 570.469C306.544 573.219 293.278 577.437 274.822 581.141C277.49 564.509 285.87 547.493 296.688 533.19Z" fill="#1E1B1B"/>
<path fill-rule="evenodd" clip-rule="evenodd" d="M426.52 398.691C426.52 398.691 425.603 375.275 425.475 375.202C424.292 373.203 407.248 371.535 386.5 371.535C364.937 371.535 347.443 373.24 347.443 375.385C347.443 375.541 351.377 415.552 351.377 415.552C351.377 415.552 350.707 454.306 390.947 458.019C448.671 463.465 426.52 398.691 426.52 398.691Z" fill="#E34D28"/>
<path d="M350.414 403.368C350.414 401.214 367.897 399.508 389.461 399.508C411.025 399.508 427.693 400.398 427.693 402.552" stroke="#FFBA08" stroke-width="1.48526" stroke-linecap="round" stroke-linejoin="round"/>
<path d="M350.414 403.367C350.414 403.367 350.414 425.967 356.639 436.263" stroke="#FFBA08" stroke-width="1.48526" stroke-linecap="round" stroke-linejoin="round"/>
<path fill-rule="evenodd" clip-rule="evenodd" d="M337.147 779.295L339.742 783.522C339.742 783.522 339.595 788.702 332.847 796.853C317.142 815.978 316.692 837.193 296.091 839.614C281.307 841.315 266.433 842.108 251.552 841.988C251.276 841.574 251.099 841.102 251.033 840.609C250.968 840.116 251.016 839.614 251.173 839.142C251.33 838.67 251.593 838.24 251.941 837.885C252.29 837.53 252.715 837.259 253.184 837.092C267.789 830.39 299.429 804.719 297.503 806.635L337.147 779.295Z" fill="#FFBA08"/>
<path fill-rule="evenodd" clip-rule="evenodd" d="M317.949 759.583L337.845 780.184C337.845 780.184 337.689 785.373 330.95 793.524C315.236 812.64 314.795 833.865 294.194 836.276C279.833 837.965 265.38 838.758 250.92 838.65C251.061 837.49 251.495 836.384 252.182 835.438C252.868 834.491 253.784 833.735 254.844 833.241C269.44 826.493 297.605 801.455 295.606 803.38L317.949 759.583Z" fill="#1E1B1B"/>
<path fill-rule="evenodd" clip-rule="evenodd" d="M342.923 605.812C363.231 622.856 355.3 657.393 332.994 722.157C326.255 741.796 323.367 767.953 323.367 767.953C323.367 767.953 320.03 774.032 314.098 788.123C303.802 812.795 297.054 820.212 275.49 820.286C289.866 799.758 295.202 767.962 295.202 767.962L314.694 607.16C314.694 607.16 325.512 591.142 342.923 605.812Z" fill="#FBCBA0"/>
<path opacity="0.5" fill-rule="evenodd" clip-rule="evenodd" d="M302.61 707.26C316.986 700.668 339.146 703.785 339.146 703.785C339.151 703.841 339.177 703.893 339.219 703.932C337.294 709.708 335.295 715.786 333.067 722.268C329.824 732.266 327.347 742.497 325.659 752.872C314.657 748.654 305.205 742.273 298.979 737.46L302.61 707.26Z" fill="#1E1B1B"/>
<path fill-rule="evenodd" clip-rule="evenodd" d="M443.784 482.655L393.092 540.755C393.092 540.755 360.086 699.706 352.339 737.8C351.303 741.467 332.774 740.312 310.688 735.352C288.601 730.392 271.191 723.342 272.007 719.711C276.233 691.555 286.978 610.186 291.718 573.733C293.269 561.835 297.638 550.478 304.462 540.608L394.128 410.702L425.035 398.252C425.035 398.252 446.892 426.481 449.862 440.71C455.785 467.839 443.784 482.655 443.784 482.655Z" fill="#E34D28"/>
<path d="M396.65 422.777C396.65 422.777 402.06 443.754 431.187 448.201" stroke="#FFBA08" stroke-width="1.48526" stroke-linecap="round" stroke-linejoin="round"/>
<path d="M401.839 391.357C401.839 391.357 425.924 423.895 429.527 437.987C436.348 464.667 422.119 479.043 422.119 479.043L369.356 538.545C369.356 538.545 334.085 698.99 326.375 737.075" stroke="#FFBA08" stroke-width="1.48526" stroke-linecap="round" stroke-linejoin="round"/>
<path fill-rule="evenodd" clip-rule="evenodd" d="M310.614 531.641L312.026 487.917C312.098 485.25 312.699 482.625 313.792 480.192C314.886 477.759 316.452 475.567 318.398 473.743L340.998 452.656C340.998 452.656 349.525 439.316 364.716 412.856C372.638 399.003 385.804 383.884 385.804 383.884C385.804 383.884 388.325 317.112 389.361 286.361C389.654 277.468 428.418 304.89 428.418 304.89C428.189 301.7 426.786 364.768 426.41 385.37C426.336 390.459 424.524 395.369 421.276 399.287L310.614 531.641Z" fill="#FBCBA0"/>
<path fill-rule="evenodd" clip-rule="evenodd" d="M412.511 261.68C425.255 261.68 435.56 273.159 435.56 287.351C435.56 301.544 425.255 313.023 412.511 313.023C399.767 313.023 389.462 301.535 389.462 287.351C389.462 273.168 399.84 261.68 412.511 261.68Z" fill="#FBCBA0"/>
<path d="M311.88 509.032C311.88 509.032 309.129 500.78 316.253 488.861C316.693 488.192 317.069 487.523 317.436 486.863" stroke="#885946" stroke-width="1.39358" stroke-linecap="round" stroke-linejoin="round"/>
<path d="M311.357 522.748C311.357 522.748 308.606 514.496 315.73 502.578C317.949 498.8 319.581 496.16 320.699 494.207" stroke="#885946" stroke-width="1.39358" stroke-linecap="round" stroke-linejoin="round"/>
<path d="M310.99 532.081C310.843 528.597 311.43 522.601 315.876 515.184C322.698 503.705 325.292 499.029 325.292 499.029" stroke="#885946" stroke-width="1.39358" stroke-linecap="round" stroke-linejoin="round"/>
<path d="M360.18 580.095C360.354 579.72 360.575 579.368 360.838 579.047V579.047C361.033 578.811 361.25 578.592 361.484 578.395L362.449 577.413L362.706 577.603C367.663 575.172 377.905 577.748 388.26 584.511C400.783 592.68 408.818 603.938 406.499 609.915L406.855 610.177L405.461 611.566C405.395 611.638 405.328 611.705 405.255 611.772L405.216 611.811C404.851 612.141 404.447 612.424 404.012 612.653C399.122 615.218 388.767 612.653 378.296 605.828C365.533 597.509 357.431 585.983 360.18 580.095Z" fill="#E34D2B" fill-opacity="0.5"/>
<path d="M389.766 583.017C377.008 574.692 364.434 572.719 361.68 578.607C358.925 584.495 367.022 596.02 379.774 604.345C392.526 612.67 405.105 614.649 407.86 608.761C410.614 602.873 402.518 591.348 389.766 583.017Z" fill="#FFBA08"/>
<path d="M380.482 602.678C375.146 599.182 370.546 594.972 367.535 590.812C364.446 586.563 363.381 582.839 364.535 580.329C364.851 579.676 365.31 579.102 365.877 578.65C366.445 578.197 367.106 577.878 367.813 577.714C372.519 576.359 380.855 578.952 389.058 584.322C394.394 587.818 398.994 592.033 402.005 596.187C405.094 600.436 406.159 604.161 405.005 606.67C404.688 607.323 404.23 607.897 403.662 608.35C403.095 608.802 402.433 609.122 401.726 609.285C400.818 609.533 399.879 609.653 398.938 609.642C394.087 609.642 387.234 607.099 380.482 602.678ZM368.07 578.612C367.494 578.742 366.953 578.999 366.489 579.363C366.024 579.728 365.646 580.191 365.382 580.72C364.395 582.878 365.455 586.357 368.287 590.266C371.237 594.33 375.748 598.462 380.995 601.897C387.535 606.179 394.327 608.7 398.949 608.7C399.8 608.713 400.648 608.607 401.47 608.387C402.046 608.259 402.587 608.002 403.052 607.638C403.517 607.273 403.895 606.809 404.157 606.28C405.144 604.122 404.085 600.642 401.252 596.734C398.302 592.669 393.792 588.537 388.545 585.102C382.004 580.82 375.213 578.3 370.59 578.3C369.74 578.287 368.891 578.392 368.07 578.612V578.612Z" fill="#E34D2B" fill-opacity="0.5"/>
<path d="M464.756 363.816C464.881 363.551 465.039 363.302 465.224 363.074V363.074C465.362 362.907 465.515 362.752 465.681 362.611L466.367 361.915L466.551 362.048C470.07 360.325 477.341 362.149 484.695 366.95C493.583 372.754 499.287 380.744 497.642 384.988L497.893 385.177L496.906 386.158C496.856 386.209 496.812 386.259 496.761 386.303C496.505 386.54 496.218 386.74 495.908 386.9V386.9C492.429 388.718 485.086 386.9 477.647 382.055C468.57 376.183 462.799 367.998 464.756 363.816Z" fill="#E34D2B" fill-opacity="0.5"/>
<path d="M485.754 365.895C476.699 359.985 467.772 358.58 465.815 362.762C463.858 366.944 469.607 375.123 478.64 381.034C487.673 386.944 496.622 388.35 498.579 384.168C500.536 379.986 494.804 371.806 485.754 365.895Z" fill="#FFBA08"/>
<path d="M479.164 379.852C475.628 377.605 472.516 374.753 469.969 371.427C467.778 368.41 467.025 365.767 467.839 363.983C468.065 363.52 468.392 363.113 468.795 362.792C469.198 362.471 469.668 362.243 470.17 362.126C473.515 361.167 479.431 363.007 485.253 366.816C488.787 369.062 491.897 371.914 494.442 375.241C496.633 378.257 497.391 380.9 496.572 382.685C496.346 383.147 496.021 383.554 495.619 383.875C495.217 384.197 494.748 384.424 494.247 384.541C493.596 384.716 492.924 384.801 492.25 384.792C488.821 384.792 483.959 383.002 479.164 379.852ZM470.354 362.767C469.943 362.856 469.558 363.037 469.226 363.296C468.895 363.554 468.627 363.885 468.441 364.262C467.744 365.79 468.491 368.26 470.504 371.037C473.003 374.298 476.057 377.093 479.526 379.294C484.171 382.333 489.005 384.129 492.273 384.129C492.877 384.136 493.479 384.059 494.062 383.9C494.472 383.811 494.857 383.63 495.187 383.371C495.517 383.112 495.784 382.782 495.969 382.406C496.672 380.878 495.919 378.408 493.906 375.631C491.409 372.369 488.355 369.573 484.885 367.373C480.245 364.334 475.406 362.544 472.138 362.544C471.536 362.536 470.935 362.611 470.354 362.767V362.767Z" fill="#E34D2B" fill-opacity="0.5"/>
<path d="M514.28 505.042C514.358 504.877 514.455 504.722 514.57 504.58V504.58C514.655 504.473 514.75 504.376 514.854 504.29L515.284 503.849L515.395 503.933C517.626 502.857 522.153 504 526.759 507.005C532.335 510.641 535.892 515.642 534.866 518.302L535.023 518.413L534.404 519.032L534.314 519.121C534.146 519.271 533.959 519.396 533.757 519.495C531.577 520.61 526.977 519.495 522.326 516.462C516.656 512.787 513.054 507.641 514.28 505.042Z" fill="#E34D2B" fill-opacity="0.5"/>
<path d="M527.422 506.341C521.757 502.644 516.164 501.763 514.943 504.384C513.722 507.004 517.318 512.123 522.984 515.825C528.649 519.528 534.241 520.403 535.468 517.782C536.695 515.162 533.093 510.043 527.422 506.341Z" fill="#FFBA08"/>
<path d="M523.302 515.084C521.087 513.677 519.137 511.892 517.542 509.809C516.17 507.919 515.696 506.263 516.209 505.148C516.35 504.857 516.555 504.602 516.808 504.401C517.061 504.2 517.355 504.059 517.67 503.988C519.761 503.386 523.469 504.545 527.11 506.921C529.324 508.329 531.273 510.114 532.87 512.195C534.236 514.086 534.71 515.742 534.203 516.857C534.062 517.147 533.857 517.403 533.605 517.603C533.352 517.804 533.057 517.945 532.742 518.017C532.335 518.129 531.915 518.183 531.493 518.178C529.346 518.178 526.302 517.047 523.302 515.084ZM517.782 504.384C517.525 504.441 517.285 504.554 517.079 504.717C516.872 504.879 516.705 505.085 516.589 505.32C516.148 506.28 516.622 507.824 517.882 509.564C519.446 511.606 521.358 513.355 523.53 514.733C526.436 516.639 529.452 517.76 531.51 517.76C531.886 517.765 532.261 517.718 532.625 517.621C532.881 517.563 533.12 517.448 533.327 517.286C533.533 517.124 533.701 516.919 533.818 516.684C534.258 515.725 533.785 514.175 532.524 512.441C530.961 510.399 529.048 508.649 526.876 507.272C523.971 505.365 520.954 504.244 518.897 504.244C518.521 504.239 518.145 504.286 517.782 504.384Z" fill="#E34D2B" fill-opacity="0.5"/>
<path d="M233.474 401.196C233.367 400.914 233.226 400.646 233.053 400.398V400.398C232.922 400.212 232.774 400.038 232.61 399.88L231.964 399.113L231.771 399.233C228.313 397.19 220.748 398.47 212.857 402.778C203.317 407.986 196.843 415.68 198.188 420.15L197.919 420.317L198.849 421.401L198.986 421.562L199.013 421.593C199.258 421.854 199.536 422.081 199.84 422.268V422.268C203.242 424.408 210.898 423.14 218.865 418.79C228.585 413.509 235.113 405.621 233.474 401.196Z" fill="#E34D2B" fill-opacity="0.5"/>
<path d="M211.854 401.624C221.575 396.319 230.799 395.605 232.458 400.031C234.117 404.458 227.617 412.344 217.877 417.647C208.136 422.95 198.932 423.666 197.273 419.24C195.615 414.813 202.138 406.929 211.854 401.624Z" fill="#FFBA08"/>
<path d="M203.698 420.391C203.011 420.345 202.333 420.204 201.685 419.971C201.182 419.812 200.721 419.543 200.336 419.183C199.95 418.823 199.651 418.381 199.459 417.889C198.771 416.006 199.753 413.37 202.231 410.464C204.651 407.627 208.224 404.836 212.294 402.608C218.543 399.187 224.73 397.783 228.058 399.013C228.561 399.172 229.022 399.442 229.408 399.803C229.793 400.164 230.092 400.607 230.283 401.099C230.972 402.977 229.99 405.619 227.511 408.524C225.091 411.362 221.519 414.152 217.449 416.381C212.31 419.217 207.203 420.667 203.698 420.391ZM226.018 399.297C222.653 399.032 217.6 400.477 212.619 403.204C208.625 405.395 205.115 408.128 202.748 410.906C200.472 413.576 199.504 416.035 200.097 417.654C200.255 418.05 200.499 418.405 200.811 418.696C201.122 418.986 201.494 419.204 201.9 419.335C202.483 419.541 203.092 419.666 203.709 419.705C207.074 419.97 212.122 418.53 217.107 415.802C221.102 413.611 224.607 410.874 226.979 408.1C229.255 405.425 230.223 402.967 229.63 401.348C229.469 400.95 229.221 400.593 228.905 400.303C228.589 400.013 228.213 399.797 227.803 399.67C227.228 399.464 226.627 399.339 226.018 399.297V399.297Z" fill="#E34D2B" fill-opacity="0.5"/>
<path d="M187.809 540.886C187.724 540.702 187.615 540.529 187.485 540.373C187.388 540.259 187.281 540.153 187.167 540.055L186.693 539.576L186.571 539.671C184.145 538.477 179.132 539.738 174.064 543.05C167.93 547.048 164.027 552.529 165.143 555.484L164.97 555.612L165.65 556.287C165.681 556.323 165.714 556.357 165.75 556.387V556.387C165.93 556.546 166.129 556.683 166.341 556.794V556.794C168.733 558.054 173.802 556.794 178.926 553.449C185.193 549.406 189.158 543.763 187.809 540.886Z" fill="#E34D2B" fill-opacity="0.5"/>
<path d="M173.333 542.313C179.578 538.237 185.729 537.295 187.078 540.156C188.427 543.016 184.463 548.676 178.223 552.751C171.984 556.827 165.828 557.77 164.479 554.909C163.13 552.049 167.094 546.389 173.333 542.313Z" fill="#FFBA08"/>
<path d="M168.856 555.339C168.391 555.346 167.928 555.287 167.479 555.166C167.134 555.087 166.81 554.931 166.533 554.71C166.256 554.489 166.033 554.209 165.879 553.889C165.321 552.663 165.834 550.839 167.345 548.76C169.099 546.466 171.243 544.499 173.679 542.949V542.949C177.694 540.323 181.776 539.046 184.079 539.721C184.424 539.801 184.748 539.957 185.026 540.178C185.303 540.399 185.528 540.679 185.684 540.998C186.242 542.225 185.723 544.048 184.212 546.128C182.46 548.421 180.315 550.386 177.878 551.932C174.572 554.101 171.22 555.339 168.856 555.339ZM182.718 540.006C180.454 540.006 177.142 541.238 173.93 543.351C171.54 544.869 169.435 546.796 167.713 549.044C166.325 550.957 165.806 552.657 166.291 553.711C166.42 553.97 166.604 554.198 166.832 554.376C167.06 554.555 167.325 554.68 167.607 554.743C168.009 554.853 168.423 554.905 168.84 554.899C171.103 554.899 174.415 553.661 177.627 551.553C180.016 550.034 182.121 548.107 183.844 545.86C185.233 543.948 185.751 542.247 185.266 541.188C185.137 540.929 184.952 540.702 184.724 540.524C184.497 540.345 184.232 540.22 183.95 540.156C183.548 540.051 183.134 540 182.718 540.006V540.006Z" fill="#E34D2B" fill-opacity="0.5"/>
<path d="M153.336 739.568C153.921 738.676 154.259 737.644 154.313 736.579C154.368 735.513 154.138 734.452 153.647 733.505C151.732 732.733 149.611 732.642 147.637 733.246C146.978 735.755 145.611 738.022 143.699 739.775C146.865 739.058 150.143 738.987 153.336 739.568V739.568Z" fill="#E34D28"/>
<path d="M16.2949 451.41C18.669 454.731 20.279 458.535 21.0098 462.552C27.0665 457.248 33.8111 452.785 41.0611 449.285C41.4371 445.258 40.229 441.243 37.6933 438.092C30.0535 441.659 22.8694 446.13 16.2949 451.41Z" fill="#E34D28"/>
<path d="M143.997 300.33C141.979 298.233 139.278 296.928 136.381 296.651C134.239 305.494 130.498 313.872 125.345 321.37C127.994 322.095 130.327 323.681 131.977 325.878C137.758 318.316 141.856 309.606 143.997 300.33V300.33Z" fill="#FF8E25"/>
<path d="M103.513 612.011C105.482 611.13 106.311 609.627 107.555 607.191C101.665 603.974 96.4008 599.727 92.011 594.65C91.0138 596.429 89.443 597.818 87.5552 598.589C91.8667 604.14 97.3056 608.715 103.513 612.011Z" fill="#FF8E25"/>
<path d="M36.9465 254.852C33.487 254.03 29.8553 254.339 26.5841 255.733C25.6144 258.119 24.3056 260.354 22.6982 262.366C25.237 262.366 26.5841 263.247 28.7084 266.149C30.8363 261.969 33.6173 258.156 36.9465 254.852V254.852Z" fill="#FF8E25"/>
<path d="M640.289 74.2912C639.269 73.3152 638.476 72.1271 637.965 70.8107C637.455 69.4944 637.24 68.0819 637.336 66.6733C630.014 68.7668 623.033 71.9087 616.611 76.0013C616.874 79.4215 618.075 82.7029 620.082 85.4847C625.741 80.0749 632.702 76.2191 640.289 74.2912Z" fill="#FF8E25"/>
<path d="M480.021 67.7876C475.254 69.2904 469.658 68.824 458.985 63.4346C457.386 68.7148 457.549 74.3723 459.451 79.5511C466.704 82.4188 474.57 83.3821 482.3 82.3495C480.011 77.8617 479.212 72.7606 480.021 67.7876V67.7876Z" fill="#E34D28"/>
<path d="M137.927 143.747C138.394 145.664 139.637 146.752 142.02 147.996C143.958 144.933 146.561 142.347 149.637 140.43C147.812 139.217 146.501 137.371 145.958 135.248C142.72 137.492 139.985 140.386 137.927 143.747V143.747Z" fill="#E34D28"/>
<path d="M488.384 263.143C491.557 266.747 493.924 270.987 495.327 275.58C501.735 268.595 509.075 262.527 517.139 257.546C517.038 252.835 515.192 248.329 511.958 244.901C503.394 250.01 495.479 256.135 488.384 263.143V263.143Z" fill="#FF8E25"/>
<path d="M302.894 68.2022C298.991 65.1718 294.207 63.4979 289.267 63.4346C286.788 65.9003 283.938 67.9635 280.822 69.5495C284.034 70.6896 285.226 72.7624 286.003 77.53C291.082 73.5126 296.789 70.361 302.894 68.2022Z" fill="#FF8E25"/>
</svg>
