<svg width="17" height="16" viewBox="0 0 17 16" fill="none" xmlns="http://www.w3.org/2000/svg">
<g clip-path="url(#clip0_7801_40871)">
<path d="M8.95029 0C6.90982 0 5.04817 0.764313 3.63495 2.02175L7.01176 5.39856C7.05339 5.23434 7.07529 5.06472 7.07529 4.89341V2.35938H10.8253V4.89341C10.8253 5.37419 10.9948 5.84237 11.3026 6.21172C11.7505 6.74922 11.9972 7.43053 11.9972 8.13022V10.384L14.9285 13.3154C16.186 11.9021 16.9503 10.0405 16.9503 8C16.9503 3.58172 13.3686 0 8.95029 0V0Z" fill="#036EB8"/>
<path d="M11.0597 8.44325V8.13019C11.0597 7.64941 10.8902 7.18122 10.5824 6.81187C10.1942 6.34603 9.95748 5.77209 9.90116 5.17188H7.99944C7.94313 5.77209 7.70645 6.34603 7.31823 6.81187C7.10723 7.06506 6.96129 7.36472 6.89032 7.683C7.91726 7.72859 8.51041 7.90813 9.08626 8.08263C9.62857 8.24697 10.1453 8.40334 11.0597 8.44325Z" fill="#036EB8"/>
<path d="M11.0597 9.38167C10.0021 9.33973 9.39944 9.1572 8.81438 8.97989C8.27207 8.81554 7.75532 8.65917 6.84094 8.61926V12.2032H11.0597V9.38167Z" fill="#036EB8"/>
<path d="M8.01282 3.29688H9.88782V4.23438H8.01282V3.29688Z" fill="#036EB8"/>
<path d="M8.95032 16C10.9908 16 12.8524 15.2357 14.2657 13.9783L11.9972 11.7098V13.1407H5.90344V8.13022C5.90344 7.45407 6.13441 6.79541 6.55416 6.26679L2.97207 2.68469C1.71463 4.09791 0.950317 5.95957 0.950317 8.00004C0.950317 12.4183 4.53204 16 8.95032 16Z" fill="#036EB8"/>
</g>
<defs>
<clipPath id="clip0_7801_40871">
<rect x="0.950317" width="16" height="16" rx="8" fill="white"/>
</clipPath>
</defs>
</svg>
