<svg width="16" height="16" viewBox="0 0 16 16" fill="none" xmlns="http://www.w3.org/2000/svg">
<path d="M10.6335 11.3292C9.93788 11.9255 8.9441 12.0248 8.34782 12.0248V13.5155C8.34782 13.764 8.14906 13.9627 7.90062 13.9627C7.65217 13.9627 7.45341 13.764 7.45341 13.5155V12.0248C6.80745 12.0248 5.76397 11.9255 5.06832 11.1801C4.02484 10.1366 4.27329 8.34783 4.27329 8.29814C4.32298 8.09938 4.47205 7.90062 4.6708 7.90062C4.6708 7.90062 4.72049 7.90062 4.77018 7.90062C4.07453 6.85714 4.27329 5.41615 4.27329 5.36646C4.27329 5.26708 4.32298 5.1677 4.42236 5.06832L1.98758 2.63354C0.695652 4.07453 0 5.96273 0 7.90062C0 12.2733 3.57764 15.8509 7.95031 15.8509C9.93789 15.8509 11.7764 15.1553 13.2174 13.8634L10.6335 11.3292ZM7.90062 0C5.91304 0 4.07453 0.695652 2.63354 1.98758L5.6149 4.96894C5.81366 4.96894 6.01242 5.01863 6.21118 5.06832C6.16149 4.91925 6.16149 4.7205 6.16149 4.57143C6.16149 3.13043 7.60248 1.98758 7.65217 1.93789C7.80124 1.78882 8.04969 1.78882 8.24844 1.93789C8.29813 1.98758 9.73913 3.08075 9.73913 4.57143C9.73913 4.7205 9.73913 4.91925 9.68944 5.06832C10.4845 4.86957 11.2298 4.96894 11.2795 4.96894C11.4783 5.01863 11.677 5.1677 11.677 5.36646C11.677 5.41615 11.8758 6.85714 11.1801 7.90062C11.2298 7.90062 11.2795 7.90062 11.2795 7.90062C11.4783 7.95031 11.677 8.09938 11.677 8.29814C11.677 8.34783 11.8261 9.59006 11.3292 10.5838L13.9627 13.2174C15.2547 11.7764 15.9503 9.8882 15.9503 7.95031C15.8509 3.57764 12.2733 0 7.90062 0Z" fill="#F8B62D"/>
<path d="M10.6832 8.84473C10.6832 10.3851 9.98758 11.1304 8.39752 11.1304C8.39752 10.6832 8.4969 9.8882 8.94411 9.39131C9.39131 8.89442 10.1863 8.84473 10.6832 8.84473Z" fill="#F8B62D"/>
<path d="M7.40376 11.1304C6.95655 11.1304 6.16152 11.0311 5.66462 10.5839C5.16773 10.087 5.11804 9.34162 5.11804 8.84473C5.56525 8.84473 6.36028 8.94411 6.85717 9.39131C7.35407 9.8882 7.40376 10.6335 7.40376 11.1304Z" fill="#F8B62D"/>
<path d="M7.40376 8.1988C6.90686 8.1988 6.16152 8.09942 5.66462 7.65222C5.16773 7.15532 5.11804 6.40998 5.11804 5.91309C6.75779 5.91309 7.40376 6.65843 7.40376 8.1988Z" fill="#F8B62D"/>
<path d="M8.34784 8.1988C8.84473 8.1988 9.59008 8.09942 10.087 7.65222C10.5839 7.15532 10.6336 6.40998 10.6336 5.91309C9.04349 5.91309 8.39753 6.65843 8.34784 8.1988Z" fill="#F8B62D"/>
<path d="M8.74535 4.57139C8.74535 5.16767 8.34783 5.76394 7.90063 6.21114C7.45342 5.76394 7.05591 5.16767 7.05591 4.57139C7.05591 3.92543 7.5528 3.27947 7.90063 2.93164C8.24845 3.27947 8.74535 3.92543 8.74535 4.57139Z" fill="#F8B62D"/>
</svg>
