<svg width="399" height="180" viewBox="0 0 399 180" fill="none" xmlns="http://www.w3.org/2000/svg">
<path d="M368.771 136.316C405.212 123.499 429.49 99.3537 435.056 74.32C443.656 43.5514 414.653 -1.76482 315.152 -56.016C254.283 -89.2125 182.111 -100.146 118.488 -62.1624C56.8355 -25.3404 52.0137 36.7009 100.483 78.2732C123.22 97.7884 158.384 107.01 198.057 111.635C221.386 114.351 242.612 121.041 260.037 131.041C287.795 146.974 329.84 149.995 368.771 136.316Z" fill="#D9F4EF"/>
<path d="M3.54343 195.394C-7.25742 245.16 9.79875 295.053 44.0096 327.405C84.5749 368.906 179.447 388.842 347.634 348.679C450.534 324.119 528.365 264.508 522.972 160.883C517.722 60.4506 425.372 -10.8572 319.909 -7.53644C270.414 -5.99351 226.44 18.8721 185.808 53.1262C161.922 73.2728 133.633 87.0775 103.402 93.5755C55.2435 103.924 15.1047 142.242 3.54343 195.394Z" fill="#1AAA5D" fill-opacity="0.5"/>
</svg>
