<svg width="17" height="16" viewBox="0 0 17 16" fill="none" xmlns="http://www.w3.org/2000/svg">
<circle opacity="0.25" cx="8.95032" cy="8" r="8" fill="#EA5514"/>
<g clip-path="url(#clip0_7801_40892)">
<path d="M4.02791 9.74494L4.02784 9.74496L4.02881 9.74743L5.02874 12.2889C5.02875 12.2889 5.02876 12.289 5.02877 12.289C5.18224 12.6835 5.57595 12.9458 5.99201 12.9458H11.9087C12.3452 12.9458 12.719 12.6836 12.8515 12.2879L13.851 9.74743L13.8511 9.74746L13.8519 9.74494C13.8959 9.61292 13.8999 9.44924 13.8052 9.32705C13.7306 9.18357 13.5659 9.11663 13.4295 9.11663H4.45034C4.30439 9.11663 4.16648 9.21225 4.07797 9.32289C3.97987 9.44551 3.9834 9.61141 4.02791 9.74494ZM5.89361 11.9425L5.89369 11.9424L5.8926 11.9397L5.12836 10.0291H12.7522L12.0079 11.9401L12.0079 11.9401L12.0071 11.9425C11.9934 11.9835 11.9508 12.0125 11.9087 12.0125H5.99201C5.94988 12.0125 5.90728 11.9835 5.89361 11.9425Z" fill="#EA5514" stroke="#EA5514" stroke-width="0.1"/>
<path d="M5.19207 5.74721L5.19206 5.74721L5.19203 5.74798C5.1705 6.28627 5.45014 6.73568 5.61706 6.98605C5.7101 7.12561 5.85108 7.19581 6.01283 7.19581C6.10634 7.19581 6.17844 7.17188 6.2489 7.12492C6.45703 6.98616 6.5296 6.70583 6.38776 6.49308C6.22204 6.24449 6.10449 6.0051 6.10449 5.77081C6.10449 5.68652 6.12785 5.60506 6.16556 5.51707C6.19158 5.45634 6.22309 5.39532 6.25738 5.32891C6.27358 5.29755 6.2904 5.26498 6.30755 5.23067C6.37071 5.10436 6.43368 4.95742 6.49591 4.81223L6.49629 4.81134L6.49644 4.81141L6.49776 4.80746C6.50127 4.79695 6.50584 4.78488 6.51093 4.77144C6.53227 4.71509 6.56283 4.63442 6.56283 4.54165C6.56283 4.41275 6.54161 4.30403 6.51921 4.23603C6.47754 4.06943 6.41391 3.82555 6.2967 3.60178C6.17926 3.37758 6.00477 3.16733 5.73834 3.078C5.49978 2.98353 5.2452 3.12817 5.1539 3.35641L5.15372 3.35634L5.15243 3.36061C5.08295 3.59224 5.19791 3.84727 5.42938 3.94128C5.4381 3.9461 5.46244 3.96385 5.49965 4.03593C5.53861 4.11143 5.58901 4.24124 5.65033 4.46502V4.46504V4.46514V4.46523V4.46533V4.46542V4.46552V4.46561V4.4657V4.4658V4.46589V4.46598V4.46607V4.46617V4.46626V4.46635V4.46644V4.46653V4.46662V4.46671V4.4668V4.46689V4.46698V4.46707V4.46716V4.46725V4.46733V4.46742V4.46751V4.46759V4.46768V4.46777V4.46785V4.46794V4.46802V4.46811V4.46819V4.46828V4.46836V4.46845V4.46853V4.46861V4.4687V4.46878V4.46886V4.46894V4.46903V4.46911V4.46919V4.46927V4.46935V4.46943V4.46951V4.46959V4.46967V4.46975V4.46983V4.46991V4.46999V4.47006V4.47014V4.47022V4.4703V4.47038V4.47045V4.47053V4.47061V4.47068V4.47076V4.47084V4.47091V4.47099V4.47106V4.47114V4.47121V4.47129V4.47136V4.47143V4.47151V4.47158V4.47166V4.47173V4.4718V4.47187V4.47195V4.47202V4.47209V4.47216V4.47224V4.47231V4.47238V4.47245V4.47252V4.47259V4.47266V4.47273V4.4728V4.47287V4.47294V4.47301V4.47308V4.47315V4.47322V4.47329V4.47336V4.47343V4.4735V4.47356V4.47363V4.4737V4.47377V4.47384V4.4739V4.47397V4.47404V4.4741V4.47417V4.47424V4.47431V4.47437V4.47444V4.4745V4.47457V4.47464V4.4747V4.47477V4.47483V4.4749V4.47496V4.47503V4.47509V4.47516V4.47522V4.47529V4.47535V4.47542V4.47548V4.47555V4.47561V4.47567V4.47574V4.4758V4.47587V4.47593V4.47599V4.47606V4.47612V4.47618V4.47625V4.47631V4.47637V4.47643V4.4765V4.47656V4.47662V4.47669V4.47675V4.47681V4.47687V4.47693V4.477V4.47706V4.47712V4.47718V4.47725V4.47731V4.47737V4.47743V4.47749V4.47755V4.47762V4.47768V4.47774V4.4778V4.47786V4.47792V4.47798V4.47805V4.47811V4.47817V4.47823V4.47829V4.47835V4.47841V4.47847V4.47854V4.4786V4.47866V4.47872V4.47878V4.47884V4.4789V4.47896V4.47902V4.47909V4.47915V4.47921V4.47927V4.47933V4.47939V4.47945V4.47951V4.47957V4.47964V4.4797V4.47976V4.47982V4.47988V4.47994V4.48V4.48006V4.48012V4.48019V4.48025V4.48031V4.48037V4.48043V4.48049V4.48055V4.48062V4.48068V4.48074V4.4808V4.48086V4.48092V4.48099V4.48105V4.48111V4.48117V4.48123V4.4813V4.48136V4.48142V4.48148V4.48155V4.48161V4.48167V4.48173V4.4818V4.48186V4.48192V4.48198V4.48205V4.48211V4.48217V4.48224V4.4823V4.48236V4.48243V4.48249V4.48256V4.48262V4.48268V4.48275V4.48281V4.48288V4.48294V4.483V4.48307V4.48313V4.4832V4.48326V4.48333V4.48339V4.48346V4.48353V4.48359V4.48366V4.48372V4.48379V4.48386V4.48392V4.48399V4.48405V4.48412V4.48419V4.48426V4.48432V4.48439V4.48446V4.48453V4.48459V4.48466V4.48473V4.4848V4.48487V4.48493V4.485V4.48507V4.48514V4.48521V4.48528V4.48535V4.48542V4.48549V4.48556V4.48563V4.4857V4.48577V4.48584V4.48591V4.48599V4.48606V4.48613V4.4862V4.48627V4.48635V4.48642V4.48649V4.48656V4.48664V4.48671V4.48678V4.48686V4.48693V4.48701V4.48708V4.48716V4.48723V4.48731V4.48738V4.48746V4.48753V4.48761V4.48769V4.48776V4.48784V4.48792V4.48799V4.48807V4.48815V4.48823V4.48831V4.48839V4.48846V4.48854V4.48862V4.4887V4.48878V4.48886V4.48894V4.48902V4.4891V4.48919V4.48927V4.48935V4.48943V4.48951V4.4896V4.48968V4.48976V4.48985V4.48993V4.49001V4.4901V4.49018V4.49027V4.49035V4.49044V4.49053V4.49061V4.4907V4.49079V4.49087V4.49096V4.49105V4.49114V4.49122V4.49131V4.4914V4.49149V4.49158V4.49167V4.49176V4.49185V4.49194V4.49203V4.49213V4.49222V4.49231V4.4924V4.4925V4.49259V4.49268V4.49278V4.49287V4.49297V4.49306V4.49316V4.49325V4.49335V4.49345V4.49354V4.49364V4.49374V4.49384V4.49394V4.49403V4.49413V4.49423V4.49433V4.49443V4.49453V4.49464V4.49474V4.49484V4.49487C5.63075 4.58657 5.57451 4.6819 5.49206 4.80558L5.49173 4.80536L5.48894 4.81095L5.4878 4.81322C5.36321 5.0624 5.21348 5.36187 5.19207 5.74721Z" fill="#EA5514" stroke="#EA5514" stroke-width="0.1"/>
<path d="M8.19209 5.74721L8.19208 5.74721L8.19205 5.74798C8.17052 6.28627 8.45016 6.73568 8.61708 6.98605C8.71012 7.12561 8.8511 7.19581 9.01285 7.19581C9.10187 7.19581 9.1779 7.17402 9.23205 7.12225C9.43714 6.98259 9.50788 6.70447 9.36695 6.49308C9.20123 6.24449 9.08368 6.0051 9.08368 5.77081C9.08368 5.68652 9.10704 5.60506 9.14474 5.51707C9.17077 5.45634 9.20228 5.39532 9.23657 5.32891C9.25277 5.29755 9.26958 5.26498 9.28674 5.23067C9.3499 5.10436 9.41287 4.95742 9.47509 4.81223L9.47547 4.81134L9.47563 4.81141L9.47695 4.80746C9.48045 4.79695 9.48502 4.78488 9.49012 4.77144C9.51146 4.71509 9.54202 4.63442 9.54202 4.54165C9.54202 4.41275 9.5208 4.30403 9.4984 4.23603C9.45673 4.06943 9.3931 3.82555 9.27589 3.60178C9.15845 3.37758 8.98396 3.16733 8.71753 3.078C8.47897 2.98353 8.22438 3.12817 8.13309 3.35641L8.1329 3.35634L8.13162 3.36061C8.06213 3.59224 8.1771 3.84727 8.40857 3.94128C8.41729 3.9461 8.44163 3.96385 8.47883 4.03593C8.5178 4.11143 8.5682 4.24124 8.62951 4.46502V4.46504V4.46514V4.46523V4.46533V4.46542V4.46552V4.46561V4.4657V4.4658V4.46589V4.46598V4.46607V4.46617V4.46626V4.46635V4.46644V4.46653V4.46662V4.46671V4.4668V4.46689V4.46698V4.46707V4.46716V4.46725V4.46733V4.46742V4.46751V4.46759V4.46768V4.46777V4.46785V4.46794V4.46802V4.46811V4.46819V4.46828V4.46836V4.46845V4.46853V4.46861V4.4687V4.46878V4.46886V4.46894V4.46903V4.46911V4.46919V4.46927V4.46935V4.46943V4.46951V4.46959V4.46967V4.46975V4.46983V4.46991V4.46999V4.47006V4.47014V4.47022V4.4703V4.47038V4.47045V4.47053V4.47061V4.47068V4.47076V4.47084V4.47091V4.47099V4.47106V4.47114V4.47121V4.47129V4.47136V4.47143V4.47151V4.47158V4.47166V4.47173V4.4718V4.47187V4.47195V4.47202V4.47209V4.47216V4.47224V4.47231V4.47238V4.47245V4.47252V4.47259V4.47266V4.47273V4.4728V4.47287V4.47294V4.47301V4.47308V4.47315V4.47322V4.47329V4.47336V4.47343V4.4735V4.47356V4.47363V4.4737V4.47377V4.47384V4.4739V4.47397V4.47404V4.4741V4.47417V4.47424V4.47431V4.47437V4.47444V4.4745V4.47457V4.47464V4.4747V4.47477V4.47483V4.4749V4.47496V4.47503V4.47509V4.47516V4.47522V4.47529V4.47535V4.47542V4.47548V4.47555V4.47561V4.47567V4.47574V4.4758V4.47587V4.47593V4.47599V4.47606V4.47612V4.47618V4.47625V4.47631V4.47637V4.47643V4.4765V4.47656V4.47662V4.47669V4.47675V4.47681V4.47687V4.47693V4.477V4.47706V4.47712V4.47718V4.47725V4.47731V4.47737V4.47743V4.47749V4.47755V4.47762V4.47768V4.47774V4.4778V4.47786V4.47792V4.47798V4.47805V4.47811V4.47817V4.47823V4.47829V4.47835V4.47841V4.47847V4.47854V4.4786V4.47866V4.47872V4.47878V4.47884V4.4789V4.47896V4.47902V4.47909V4.47915V4.47921V4.47927V4.47933V4.47939V4.47945V4.47951V4.47957V4.47964V4.4797V4.47976V4.47982V4.47988V4.47994V4.48V4.48006V4.48012V4.48019V4.48025V4.48031V4.48037V4.48043V4.48049V4.48055V4.48062V4.48068V4.48074V4.4808V4.48086V4.48092V4.48099V4.48105V4.48111V4.48117V4.48123V4.4813V4.48136V4.48142V4.48148V4.48155V4.48161V4.48167V4.48173V4.4818V4.48186V4.48192V4.48198V4.48205V4.48211V4.48217V4.48224V4.4823V4.48236V4.48243V4.48249V4.48256V4.48262V4.48268V4.48275V4.48281V4.48288V4.48294V4.483V4.48307V4.48313V4.4832V4.48326V4.48333V4.48339V4.48346V4.48353V4.48359V4.48366V4.48372V4.48379V4.48386V4.48392V4.48399V4.48405V4.48412V4.48419V4.48426V4.48432V4.48439V4.48446V4.48453V4.48459V4.48466V4.48473V4.4848V4.48487V4.48493V4.485V4.48507V4.48514V4.48521V4.48528V4.48535V4.48542V4.48549V4.48556V4.48563V4.4857V4.48577V4.48584V4.48591V4.48599V4.48606V4.48613V4.4862V4.48627V4.48635V4.48642V4.48649V4.48656V4.48664V4.48671V4.48678V4.48686V4.48693V4.48701V4.48708V4.48716V4.48723V4.48731V4.48738V4.48746V4.48753V4.48761V4.48769V4.48776V4.48784V4.48792V4.48799V4.48807V4.48815V4.48823V4.48831V4.48839V4.48846V4.48854V4.48862V4.4887V4.48878V4.48886V4.48894V4.48902V4.4891V4.48919V4.48927V4.48935V4.48943V4.48951V4.4896V4.48968V4.48976V4.48985V4.48993V4.49001V4.4901V4.49018V4.49027V4.49035V4.49044V4.49053V4.49061V4.4907V4.49079V4.49087V4.49096V4.49105V4.49114V4.49122V4.49131V4.4914V4.49149V4.49158V4.49167V4.49176V4.49185V4.49194V4.49203V4.49213V4.49222V4.49231V4.4924V4.4925V4.49259V4.49268V4.49278V4.49287V4.49297V4.49306V4.49316V4.49325V4.49335V4.49345V4.49354V4.49364V4.49374V4.49384V4.49394V4.49403V4.49413V4.49423V4.49433V4.49443V4.49453V4.49464V4.49474V4.49484V4.49489C8.60949 4.58943 8.55168 4.70612 8.49081 4.80759L8.49068 4.80751L8.48896 4.81095L8.48782 4.81322C8.36323 5.0624 8.2135 5.36187 8.19209 5.74721Z" fill="#EA5514" stroke="#EA5514" stroke-width="0.1"/>
<path d="M11.1921 5.74721L11.1921 5.74721L11.1921 5.74798C11.1705 6.28627 11.4502 6.73568 11.6171 6.98605C11.7101 7.12561 11.8511 7.19581 12.0129 7.19581C12.1036 7.19581 12.1972 7.17328 12.2698 7.12492C12.4779 6.98616 12.5505 6.70583 12.4086 6.49308C12.2429 6.24449 12.1254 6.0051 12.1254 5.77081C12.1254 5.68652 12.1487 5.60506 12.1864 5.51707C12.2124 5.45634 12.2439 5.39532 12.2782 5.32891C12.2944 5.29755 12.3113 5.26498 12.3284 5.23067C12.3916 5.10436 12.4545 4.95741 12.5168 4.81222L12.5171 4.81134L12.5173 4.81141L12.5186 4.80746C12.5221 4.79695 12.5267 4.78488 12.5318 4.77144C12.5531 4.71509 12.5837 4.63442 12.5837 4.54165C12.5837 4.41275 12.5625 4.30403 12.5401 4.23603C12.4984 4.06943 12.4347 3.82513 12.3119 3.60096C12.1887 3.37601 12.0035 3.16662 11.717 3.07779C11.4786 2.98375 11.2243 3.12835 11.1331 3.35641L11.1329 3.35634L11.1316 3.36061C11.0621 3.59224 11.1771 3.84727 11.4086 3.94128C11.4173 3.9461 11.4416 3.96384 11.4788 4.03593C11.5178 4.11143 11.5682 4.24124 11.6295 4.46502V4.46504V4.46514V4.46523V4.46533V4.46542V4.46552V4.46561V4.4657V4.4658V4.46589V4.46598V4.46607V4.46617V4.46626V4.46635V4.46644V4.46653V4.46662V4.46671V4.4668V4.46689V4.46698V4.46707V4.46716V4.46725V4.46733V4.46742V4.46751V4.46759V4.46768V4.46777V4.46785V4.46794V4.46802V4.46811V4.46819V4.46828V4.46836V4.46845V4.46853V4.46861V4.4687V4.46878V4.46886V4.46894V4.46903V4.46911V4.46919V4.46927V4.46935V4.46943V4.46951V4.46959V4.46967V4.46975V4.46983V4.46991V4.46999V4.47006V4.47014V4.47022V4.4703V4.47038V4.47045V4.47053V4.47061V4.47068V4.47076V4.47084V4.47091V4.47099V4.47106V4.47114V4.47121V4.47129V4.47136V4.47143V4.47151V4.47158V4.47166V4.47173V4.4718V4.47187V4.47195V4.47202V4.47209V4.47216V4.47224V4.47231V4.47238V4.47245V4.47252V4.47259V4.47266V4.47273V4.4728V4.47287V4.47294V4.47301V4.47308V4.47315V4.47322V4.47329V4.47336V4.47343V4.4735V4.47356V4.47363V4.4737V4.47377V4.47384V4.4739V4.47397V4.47404V4.4741V4.47417V4.47424V4.47431V4.47437V4.47444V4.4745V4.47457V4.47464V4.4747V4.47477V4.47483V4.4749V4.47496V4.47503V4.47509V4.47516V4.47522V4.47529V4.47535V4.47542V4.47548V4.47555V4.47561V4.47567V4.47574V4.4758V4.47587V4.47593V4.47599V4.47606V4.47612V4.47618V4.47625V4.47631V4.47637V4.47643V4.4765V4.47656V4.47662V4.47669V4.47675V4.47681V4.47687V4.47693V4.477V4.47706V4.47712V4.47718V4.47725V4.47731V4.47737V4.47743V4.47749V4.47755V4.47762V4.47768V4.47774V4.4778V4.47786V4.47792V4.47798V4.47805V4.47811V4.47817V4.47823V4.47829V4.47835V4.47841V4.47847V4.47854V4.4786V4.47866V4.47872V4.47878V4.47884V4.4789V4.47896V4.47902V4.47909V4.47915V4.47921V4.47927V4.47933V4.47939V4.47945V4.47951V4.47957V4.47964V4.4797V4.47976V4.47982V4.47988V4.47994V4.48V4.48006V4.48012V4.48019V4.48025V4.48031V4.48037V4.48043V4.48049V4.48055V4.48062V4.48068V4.48074V4.4808V4.48086V4.48092V4.48099V4.48105V4.48111V4.48117V4.48123V4.4813V4.48136V4.48142V4.48148V4.48155V4.48161V4.48167V4.48173V4.4818V4.48186V4.48192V4.48198V4.48205V4.48211V4.48217V4.48224V4.4823V4.48236V4.48243V4.48249V4.48256V4.48262V4.48268V4.48275V4.48281V4.48288V4.48294V4.483V4.48307V4.48313V4.4832V4.48326V4.48333V4.48339V4.48346V4.48353V4.48359V4.48366V4.48372V4.48379V4.48386V4.48392V4.48399V4.48405V4.48412V4.48419V4.48426V4.48432V4.48439V4.48446V4.48453V4.48459V4.48466V4.48473V4.4848V4.48487V4.48493V4.485V4.48507V4.48514V4.48521V4.48528V4.48535V4.48542V4.48549V4.48556V4.48563V4.4857V4.48577V4.48584V4.48591V4.48599V4.48606V4.48613V4.4862V4.48627V4.48635V4.48642V4.48649V4.48656V4.48664V4.48671V4.48678V4.48686V4.48693V4.48701V4.48708V4.48716V4.48723V4.48731V4.48738V4.48746V4.48753V4.48761V4.48769V4.48776V4.48784V4.48792V4.48799V4.48807V4.48815V4.48823V4.48831V4.48839V4.48846V4.48854V4.48862V4.4887V4.48878V4.48886V4.48894V4.48902V4.4891V4.48919V4.48927V4.48935V4.48943V4.48951V4.4896V4.48968V4.48976V4.48985V4.48993V4.49001V4.4901V4.49018V4.49027V4.49035V4.49044V4.49053V4.49061V4.4907V4.49079V4.49087V4.49096V4.49105V4.49114V4.49122V4.49131V4.4914V4.49149V4.49158V4.49167V4.49176V4.49185V4.49194V4.49203V4.49213V4.49222V4.49231V4.4924V4.4925V4.49259V4.49268V4.49278V4.49287V4.49297V4.49306V4.49316V4.49325V4.49335V4.49345V4.49354V4.49364V4.49374V4.49384V4.49394V4.49403V4.49413V4.49423V4.49433V4.49443V4.49453V4.49464V4.49474V4.49484V4.49489C11.6095 4.58943 11.5517 4.70613 11.4908 4.80759L11.4907 4.80751L11.489 4.81095L11.4878 4.81323C11.3632 5.06241 11.2135 5.36187 11.1921 5.74721ZM11.5337 4.83332L11.5337 4.83331L12.492 4.24998C12.5129 4.31248 12.5337 4.41665 12.5337 4.54165C12.5337 4.62417 12.5075 4.69361 12.4863 4.74998C12.4807 4.76477 12.4755 4.77866 12.4712 4.79165C12.4087 4.93748 12.3462 5.08331 12.2837 5.20831C12.2673 5.24116 12.2508 5.27297 12.2348 5.304C12.1493 5.46972 12.0754 5.61288 12.0754 5.77081C12.0754 6.02081 12.2004 6.27081 12.367 6.52081C12.492 6.70831 12.4295 6.95831 12.242 7.08331C12.1795 7.12498 12.0962 7.14581 12.0129 7.14581C11.867 7.14581 11.742 7.08331 11.6587 6.95831C11.492 6.70831 11.2212 6.27081 11.242 5.74998C11.2628 5.37498 11.4087 5.08332 11.5337 4.83332Z" fill="#EA5514" stroke="#EA5514" stroke-width="0.1"/>
</g>
<defs>
<clipPath id="clip0_7801_40892">
<rect width="10" height="10" fill="white" transform="translate(3.95032 3)"/>
</clipPath>
</defs>
</svg>
