<svg width="25" height="24" viewBox="0 0 25 24" fill="none" xmlns="http://www.w3.org/2000/svg">
<path opacity="0.25" d="M12.7018 0C6.14283 0 0.776367 5.36646 0.776367 11.9255C0.776367 18.4845 6.14283 23.8509 12.7018 23.8509C19.2608 23.8509 24.6273 18.4845 24.6273 11.9255C24.6273 5.36646 19.2608 0 12.7018 0Z" fill="#036EB8"/>
<path d="M18.739 16.0246C18.9626 16.0246 19.1862 15.8755 19.2607 15.7265C19.3353 15.5774 19.3353 15.2793 19.2607 15.1302L17.3974 11.9252L19.2607 8.72027C19.3353 8.49667 19.3353 8.27306 19.2607 8.124C19.1862 7.97493 18.9626 7.82586 18.739 7.82586H15.0123L13.1489 4.62089C13.0744 4.39729 12.8508 4.32275 12.6272 4.32275C12.4036 4.32275 12.18 4.47182 12.1054 4.62089L10.2421 7.82586H6.51538C6.29178 7.82586 6.06818 7.97493 5.99364 8.124C5.91911 8.27306 5.91911 8.5712 5.99364 8.72027L7.857 11.9252L5.99364 15.1302C5.91911 15.3538 5.91911 15.5774 5.99364 15.7265C6.06818 15.9501 6.29178 16.0246 6.51538 16.0246H10.2421L12.1054 19.2296C12.18 19.4532 12.4036 19.5277 12.6272 19.5277C12.8508 19.5277 13.0744 19.3787 13.1489 19.2296L15.0123 16.0246H18.739ZM17.6955 14.8321H15.7576L16.7266 13.1923L17.6955 14.8321ZM14.3415 14.8321H10.9874L9.34768 11.9252L10.9874 9.01841H14.3415L15.9812 11.9252L14.3415 14.8321ZM17.6955 9.01841L16.7266 10.6582L15.7576 9.01841H17.6955ZM12.7017 6.11157L13.6707 7.75133H11.7328L12.7017 6.11157ZM7.6334 9.01841H9.57128L8.60234 10.6582L7.6334 9.01841ZM7.6334 14.8321L8.60234 13.1923L9.57128 14.8321H7.6334ZM12.7017 17.6644L11.7328 16.0246H13.6707L12.7017 17.6644Z" fill="#036EB8"/>
</svg>
