<svg width="17" height="16" viewBox="0 0 17 16" fill="none" xmlns="http://www.w3.org/2000/svg">
<g clip-path="url(#clip0_7801_40917)">
<rect x="0.652161" width="16" height="16" rx="8" fill="#22AC38"/>
<path fill-rule="evenodd" clip-rule="evenodd" d="M8.65216 0C13.0704 0 16.6522 3.58172 16.6522 8C16.6522 12.4183 13.0704 16 8.65216 16C4.23388 16 0.652161 12.4183 0.652161 8C0.652161 3.58172 4.23388 0 8.65216 0ZM8.65222 13.4688C11.3816 10.5248 12.5997 8.34819 12.5915 6.44387C12.5814 4.04709 10.6348 2.57272 8.75872 2.53231C8.73072 2.5315 8.70254 2.53125 8.67454 2.53125C7.64304 2.53125 6.62904 2.94016 5.88038 3.66084C5.36032 4.16128 4.73569 5.04106 4.71335 6.38953C4.69769 7.33709 4.99207 8.34744 5.61335 9.47822C6.25788 10.6514 7.25385 11.9597 8.65222 13.4688ZM8.65216 3.707C7.20344 3.707 6.02475 4.88566 6.02475 6.33441C6.02475 7.78319 7.20344 8.96184 8.65216 8.96184C10.1009 8.96184 11.2796 7.78319 11.2796 6.33441C11.2796 4.88569 10.1009 3.707 8.65216 3.707ZM8.65216 8.16747C9.66294 8.16747 10.4852 7.34528 10.4852 6.33441C10.4852 5.32381 9.66294 4.50138 8.65216 4.50138C7.64141 4.50138 6.81913 5.32381 6.81913 6.33441C6.81916 7.34528 7.64144 8.16747 8.65216 8.16747Z" fill="#C7EACD"/>
</g>
<defs>
<clipPath id="clip0_7801_40917">
<rect x="0.652161" width="16" height="16" rx="8" fill="white"/>
</clipPath>
</defs>
</svg>
