<svg width="39" height="43" viewBox="0 0 39 43" fill="none" xmlns="http://www.w3.org/2000/svg">
<g filter="url(#filter0_d_421_2559)">
<path d="M33 16.0433C33 8.71789 26.6934 2.72438 19.0073 3.00979C11.7153 3.29519 6 9.09843 6 16.0433C6 21.3708 9.25183 25.9373 13.9818 27.9351C14.8686 28.3157 15.6569 28.9816 16.1496 29.7427L18.3175 33.3578C18.8102 34.2141 20.0912 34.2141 20.6825 33.3578L22.9489 29.6476C23.4416 28.8865 24.2299 28.2206 25.0182 27.84C29.7482 25.9373 33 21.3708 33 16.0433Z" fill="#F7932E"/>
</g>
<path d="M24.9161 14.3335C24.9162 14.2352 24.8894 14.1387 24.8387 14.0545L23.3713 11.6089C23.2746 11.449 23.1384 11.3167 22.9758 11.2247C22.8132 11.1327 22.6297 11.0841 22.4429 11.0835H16.556C16.178 11.0835 15.8221 11.285 15.6276 11.6095L14.1602 14.0545C14.1095 14.1387 14.0827 14.2352 14.0828 14.3335C14.0828 14.8779 14.2919 15.3702 14.6245 15.7516V20.8335C14.6245 20.9772 14.6815 21.1149 14.7831 21.2165C14.8847 21.3181 15.0225 21.3752 15.1661 21.3752H19.4995C19.6431 21.3752 19.7809 21.3181 19.8825 21.2165C19.9841 21.1149 20.0411 20.9772 20.0411 20.8335V18.1252H22.2078V20.8335C22.2078 20.9772 22.2649 21.1149 22.3664 21.2165C22.468 21.3181 22.6058 21.3752 22.7495 21.3752H23.8328C23.9764 21.3752 24.1142 21.3181 24.2158 21.2165C24.3174 21.1149 24.3745 20.9772 24.3745 20.8335V15.7516C24.707 15.3702 24.9161 14.8779 24.9161 14.3335ZM23.8241 14.4695C23.7908 14.731 23.6633 14.9715 23.4655 15.1459C23.2677 15.3202 23.0131 15.4166 22.7495 15.4168C22.152 15.4168 21.6661 14.931 21.6661 14.3335C21.6661 14.2967 21.6526 14.2642 21.645 14.2295L21.6558 14.2273L21.2436 12.1668H22.4429L23.8241 14.4695ZM18.4199 14.3687L18.8597 12.1668H20.1386L20.579 14.3687C20.56 14.9499 20.0845 15.4168 19.4995 15.4168C18.9145 15.4168 18.4389 14.9499 18.4199 14.3687ZM16.556 12.1668H17.7553L17.3436 14.2273L17.3545 14.2295C17.3463 14.2642 17.3328 14.2967 17.3328 14.3335C17.3328 14.931 16.8469 15.4168 16.2495 15.4168C15.9858 15.4166 15.7312 15.3202 15.5334 15.1459C15.3356 14.9715 15.2081 14.731 15.1748 14.4695L16.556 12.1668ZM18.4161 18.6668H16.2495V17.0418H18.4161V18.6668Z" fill="white"/>
<defs>
<filter id="filter0_d_421_2559" x="0" y="0" width="39" height="43" filterUnits="userSpaceOnUse" color-interpolation-filters="sRGB">
<feFlood flood-opacity="0" result="BackgroundImageFix"/>
<feColorMatrix in="SourceAlpha" type="matrix" values="0 0 0 0 0 0 0 0 0 0 0 0 0 0 0 0 0 0 127 0" result="hardAlpha"/>
<feOffset dy="3"/>
<feGaussianBlur stdDeviation="3"/>
<feComposite in2="hardAlpha" operator="out"/>
<feColorMatrix type="matrix" values="0 0 0 0 0 0 0 0 0 0 0 0 0 0 0 0 0 0 0.15 0"/>
<feBlend mode="normal" in2="BackgroundImageFix" result="effect1_dropShadow_421_2559"/>
<feBlend mode="normal" in="SourceGraphic" in2="effect1_dropShadow_421_2559" result="shape"/>
</filter>
</defs>
</svg>
