<svg width="171" height="143" viewBox="0 0 171 143" fill="none" xmlns="http://www.w3.org/2000/svg">
<mask id="mask0_10727_48057" style="mask-type:alpha" maskUnits="userSpaceOnUse" x="0" y="0" width="171" height="143">
<rect width="171" height="143" fill="#C4C4C4"/>
</mask>
<g mask="url(#mask0_10727_48057)">
<path fill-rule="evenodd" clip-rule="evenodd" d="M41.1407 111.347C41.1407 111.347 45.3149 142.461 46.0515 154.893C46.6449 165.214 37.5395 182.624 36.6801 199.84C36.1072 211.346 36.7006 221.689 36.7006 221.689L46.7677 223.133C46.7677 223.133 58.4513 181.676 60.211 163.835C62.605 139.703 57.9602 108.438 57.9602 108.438L41.1407 111.347Z" fill="#19180A"/>
<path fill-rule="evenodd" clip-rule="evenodd" d="M48.9369 122.702L44.8445 141.448L46.0723 156.531C46.0723 156.531 49.1211 154.614 49.1415 147.912C49.1824 137.268 46.1746 134.532 48.9369 122.702Z" fill="#19180A" fill-opacity="0.5"/>
<path fill-rule="evenodd" clip-rule="evenodd" d="M31.1353 106.758C31.1353 106.758 29.6007 138.13 28.066 150.498C26.7974 160.754 15.523 178.272 12.4129 194.346C10.5509 203.956 9.34363 214.816 9.34363 214.816L18.9606 218.263C18.9606 218.263 35.3913 179.285 40.343 162.133C47.0545 138.906 51.7402 107.253 51.7402 107.253L31.1353 106.758Z" fill="#19180A"/>
<path fill-rule="evenodd" clip-rule="evenodd" d="M47.63 132.352C47.6096 132.458 47.5278 132.522 47.4256 132.522C47.4051 132.522 47.4051 132.522 47.3847 132.522C47.2825 132.501 47.2007 132.394 47.2211 132.267L49.2657 119.711C49.2861 119.605 49.3884 119.519 49.5111 119.541C49.6133 119.562 49.6951 119.668 49.6746 119.796L47.63 132.352ZM35.4035 127.755C34.4221 138.353 32.3571 154.505 28.3497 163.825C16.4299 191.596 12.811 215.707 12.7906 215.92C12.7701 216.026 12.6883 216.112 12.5861 216.112H12.5657C12.4634 216.09 12.3817 215.984 12.3817 215.877C12.4021 215.665 16.0005 191.511 27.9817 163.655C34.2381 149.057 35.7511 117.604 35.7511 117.285C35.7511 117.157 35.8533 117.072 35.9556 117.072C36.0782 117.072 36.16 117.179 36.16 117.285C36.16 117.391 35.9556 121.392 35.4444 127.138C39.4518 123.648 39.4518 118.072 39.4518 118.03C39.4518 117.902 39.5335 117.817 39.6562 117.817C39.7584 117.817 39.8607 117.902 39.8607 118.03C39.8811 118.115 39.8811 124.18 35.4035 127.755Z" fill="#1AAA5D"/>
<path fill-rule="evenodd" clip-rule="evenodd" d="M56.4276 116.066C53.522 117.338 49.5115 118.307 45.0509 118.674C36.2319 119.385 29.0908 117.467 29.0908 114.386C29.0908 113.653 29.4796 112.942 30.1958 112.253C32.5284 114.149 38.2986 115.14 45.0509 114.601C49.5115 114.235 53.5425 113.265 56.4276 111.994C58.576 111.046 58.1054 110.163 57.7371 109.128C58.6579 109.775 59.149 110.593 59.149 111.52C59.1694 113.028 59.2717 114.838 56.4276 116.066Z" fill="#FF8E25"/>
<path d="M54.8514 117.769C54.8309 117.769 54.8105 117.769 54.79 117.769C54.6877 117.726 54.6263 117.618 54.6672 117.489C55.6084 114.429 54.8923 112.274 54.8718 112.253C54.8309 112.145 54.8923 112.016 54.9946 111.973C55.0969 111.93 55.2197 111.994 55.2606 112.102C55.3015 112.188 56.0381 114.408 55.056 117.618C55.0151 117.704 54.9332 117.769 54.8514 117.769Z" fill="#19180A"/>
<path d="M43.7823 119.709C43.7618 119.709 43.7414 119.709 43.7209 119.709C43.6186 119.666 43.5572 119.558 43.5981 119.429C44.5394 116.369 43.8232 114.214 43.8028 114.193C43.7618 114.085 43.8232 113.956 43.9255 113.913C44.0278 113.87 44.1506 113.934 44.1915 114.042C44.2324 114.128 44.9691 116.347 43.9869 119.558C43.946 119.644 43.8641 119.709 43.7823 119.709Z" fill="#19180A"/>
<path fill-rule="evenodd" clip-rule="evenodd" d="M56.4266 110.248C53.5211 111.52 49.5106 112.489 45.0499 112.856C36.456 113.567 29.4377 111.735 29.1103 108.783L28.6806 108.805L35.0237 79.6087C35.0237 79.6087 39.423 78.5745 43.6176 78.1004C48.9172 77.4971 55.8946 78.9623 55.8946 78.9623L58.9638 106.758C58.9638 106.758 58.9434 109.15 56.4266 110.248Z" fill="white"/>
<path fill-rule="evenodd" clip-rule="evenodd" d="M45.46 107.878C50.9233 107.426 55.8546 106.025 58.6987 104.28L58.7601 104.754C55.8546 106.499 51.0461 107.856 45.4805 108.309C37.3982 108.977 30.8914 107.469 29.5614 104.84L29.7455 104.021C30.1138 106.801 37.1526 108.546 45.46 107.878ZM29.2953 106.391L29.7046 106.348C29.7046 109.279 36.9275 111.153 45.46 110.442C50.3708 110.033 54.8315 108.869 57.7575 107.382C57.7984 107.533 57.8598 107.663 57.9007 107.792C54.9542 109.3 50.5141 110.464 45.46 110.873C36.3955 111.627 29.2953 109.645 29.2953 106.391ZM58.9647 106.693V106.758H58.842C58.8829 106.758 58.9238 106.714 58.9647 106.693ZM29.9706 102.858L30.0934 102.297C31.6894 104.56 38.0734 105.874 45.46 105.271C50.7596 104.84 55.5476 103.504 58.4327 101.845L58.4941 102.319C55.5681 103.978 50.8824 105.271 45.4805 105.702C38.0529 106.327 31.9554 105.12 29.9706 102.858ZM30.4412 100.724L30.5435 100.229C32.6715 102.168 38.6463 103.245 45.46 102.707C50.5959 102.276 55.2612 101.005 58.1463 99.4316L58.2076 99.9056C55.2816 101.5 50.6982 102.728 45.46 103.159C38.5645 103.698 32.7943 102.685 30.4412 100.724ZM30.9323 98.5051L31.0346 98.031C33.49 99.7333 39.1169 100.638 45.46 100.121C50.4527 99.7117 54.9747 98.5051 57.8803 96.9753L57.9416 97.4493C54.9952 98.9576 50.5345 100.143 45.46 100.552C38.9942 101.069 33.5309 100.207 30.9323 98.5051ZM31.4234 96.1996L31.5257 95.7255C34.1857 97.2338 39.5057 97.988 45.46 97.5139C50.289 97.1261 54.6882 95.9625 57.6143 94.5189L57.6756 94.9929C54.7292 96.4366 50.3913 97.557 45.4805 97.9664C39.3829 98.462 34.1857 97.7294 31.4234 96.1996ZM31.9349 93.8725L32.0372 93.42C34.8405 94.7559 39.874 95.4023 45.4805 94.9283C50.1662 94.5404 54.4427 93.4416 57.3687 92.0625L57.4301 92.5366C54.5041 93.9156 50.2685 94.9714 45.501 95.3592C39.7308 95.8333 34.7995 95.2299 31.9349 93.8725ZM32.4464 91.5239L32.5488 91.0714C35.4338 92.2349 40.2014 92.7951 45.4805 92.3642C50.023 91.9979 54.1767 90.9637 57.0822 89.6277L57.1232 90.0802C54.1972 91.4161 50.0844 92.4073 45.46 92.7951C40.0582 93.2261 35.352 92.709 32.4464 91.5239ZM32.958 89.1322L33.0603 88.6797C35.9658 89.7139 40.4879 90.188 45.46 89.7786C49.8593 89.4123 53.9107 88.4211 56.7958 87.1499L56.8572 87.6239C53.9516 88.8951 49.9616 89.8432 45.46 90.2095C40.3651 90.6189 35.9045 90.1664 32.958 89.1322ZM33.49 86.7189L33.5923 86.2664C36.4978 87.1714 40.7948 87.5808 45.4805 87.1929C49.7365 86.8482 53.6856 85.9001 56.5503 84.6935L56.5912 85.146C53.7061 86.3526 49.8184 87.2576 45.4805 87.6239C40.672 88.0117 36.416 87.6454 33.49 86.7189ZM34.0015 84.2841L34.1038 83.8316C36.9889 84.6289 41.0403 84.9521 45.46 84.6073C49.5933 84.2626 53.3992 83.3791 56.2638 82.2156L56.3047 82.6681C53.4605 83.8101 49.6751 84.672 45.46 85.0167C40.938 85.4046 36.9071 85.1029 34.0015 84.2841ZM34.5335 81.8493L34.6358 81.3968C37.48 82.0863 41.3063 82.3664 45.46 82.0217C49.4501 81.6985 53.1741 80.8582 55.9773 79.7377L56.0183 80.1902C53.1945 81.2891 49.5319 82.1079 45.4396 82.4311C41.2245 82.7974 37.3982 82.5388 34.5335 81.8493ZM52.1305 78.3587C52.5398 78.4018 52.9285 78.4664 53.2764 78.5095C50.9642 79.1559 48.3042 79.6084 45.46 79.8454C41.7156 80.1471 38.2985 79.9963 35.5975 79.4791C35.9045 79.4145 36.3342 79.3283 36.8457 79.2206C39.342 79.5869 42.309 79.6731 45.46 79.4145C47.8336 79.2421 50.0844 78.8543 52.1305 78.3587Z" fill="#7A98D0"/>
<path fill-rule="evenodd" clip-rule="evenodd" d="M80.1833 50.3917C82.1885 51.4475 83.5185 52.9127 83.1707 53.6453C82.8228 54.3779 80.9199 54.1194 78.9146 53.0636C76.9094 52.0078 75.5794 50.5426 75.9272 49.81C76.2751 49.0774 78.178 49.3359 80.1833 50.3917Z" fill="#885946"/>
<path fill-rule="evenodd" clip-rule="evenodd" d="M79.9986 50.3485C81.4104 51.1026 82.3517 52.1154 82.1061 52.654C81.8606 53.1711 80.5101 52.9988 79.0983 52.2446C77.6865 51.4905 76.7452 50.4778 76.9908 49.9391C77.2363 49.422 78.5868 49.6159 79.9986 50.3485Z" fill="#F5B799"/>
<path fill-rule="evenodd" clip-rule="evenodd" d="M60.8261 142.72C60.5806 138.562 60.5601 133.132 60.3964 130.245C60.4987 124.621 62.0948 123.22 62.6677 128.155C63.7317 137.161 62.0948 141.083 60.8261 142.72Z" fill="#FF8E25"/>
<path fill-rule="evenodd" clip-rule="evenodd" d="M73.2866 84.135C69.5012 88.035 60.0684 90.1251 57.7562 90.8792C58.677 97.5157 57.7971 103.786 60.6004 110.853C68.028 129.599 61.9099 136.214 60.6413 138.218C59.4955 116.8 56.1807 106.178 54.8711 94.0466C53.3979 80.4936 51.3926 77.8864 51.3926 77.8864L62.8512 74.6544C62.8512 74.6544 65.6544 65.5616 70.2174 55.6931C71.9157 52.0301 75.0259 52.3318 79.0159 54.1848C81.1848 55.1975 84.4178 55.8655 84.7452 60.8643C85.0112 64.7428 77.0516 80.2781 73.2866 84.135Z" fill="#FFBA08"/>
<path fill-rule="evenodd" clip-rule="evenodd" d="M60.3957 90.1245C59.2294 90.5339 58.2472 90.8571 57.7357 91.0294C57.7357 88.4222 57.7357 86.0736 57.7357 86.0736L57.7562 86.1167C57.5311 84.6084 57.1832 83.8327 57.1832 83.8327C57.1423 83.725 57.1832 83.5957 57.2855 83.5526C57.3878 83.5095 57.5106 83.5526 57.5515 83.6604C57.572 83.725 58.0631 84.7808 58.2677 86.8709C58.2677 86.8493 60.4162 90.1029 60.3957 90.1245Z" fill="#FFBA08"/>
<path fill-rule="evenodd" clip-rule="evenodd" d="M60.3957 90.1245C59.2294 90.5339 58.2472 90.8571 57.7357 91.0294C57.7357 88.4222 57.7357 86.0736 57.7357 86.0736L57.7562 86.1167C57.5311 84.6084 57.1832 83.8327 57.1832 83.8327C57.1423 83.725 57.1832 83.5957 57.2855 83.5526C57.3878 83.5095 57.5106 83.5526 57.5515 83.6604C57.572 83.725 58.0631 84.7808 58.2677 86.8709C58.2677 86.8493 60.4162 90.1029 60.3957 90.1245Z" fill="black" fill-opacity="0.2"/>
<path fill-rule="evenodd" clip-rule="evenodd" d="M48.3237 75.7309V81.5485C48.3237 81.5485 52.3342 83.2723 54.1553 88.5513C54.319 86.5043 54.3599 76.7005 48.3237 75.7309Z" fill="#FF8E25"/>
<path fill-rule="evenodd" clip-rule="evenodd" d="M48.6102 81.6994C48.426 81.5916 48.3237 81.5486 48.3237 81.5486V75.7309C49.4082 75.9032 50.2881 76.3773 51.0042 77.0668L48.6102 81.6994Z" fill="#885946"/>
<path fill-rule="evenodd" clip-rule="evenodd" d="M81.1439 57.8902C80.796 58.6228 78.8931 58.3642 76.8879 57.3084C74.8826 56.2526 73.5526 54.7874 73.9005 54.0549L75.9262 49.8101C75.9057 50.5858 77.2153 51.9002 79.0159 52.8482C80.8165 53.7963 82.5967 54.1195 83.1696 53.6455L81.1439 57.8902Z" fill="#FF8E25"/>
<path fill-rule="evenodd" clip-rule="evenodd" d="M76.3781 79.9324C75.2322 81.7639 74.1477 83.2506 73.2883 84.1341C71.9174 85.5561 69.7689 86.7412 67.4977 87.7108C67.4977 87.6677 67.4977 87.6031 67.4977 87.56C67.4977 83.1644 70.5669 79.5877 74.3523 79.5877C75.0685 79.5877 75.7437 79.6954 76.3781 79.9324Z" fill="#FF8E25"/>
<path fill-rule="evenodd" clip-rule="evenodd" d="M81.3894 57.9976C81.2052 58.3854 80.7755 58.5363 80.2026 58.5363C79.2818 58.5363 77.9927 58.1053 76.8468 57.5236C75.0053 56.554 73.2865 54.981 73.7571 53.9683C73.798 53.8606 73.9208 53.8175 74.0231 53.8821C74.1254 53.9252 74.1664 54.0545 74.105 54.1622C73.839 54.7009 74.9644 56.0584 77.0105 57.1357C79.0362 58.2131 80.7346 58.3423 81.0006 57.8037C81.0415 57.6959 81.1643 57.6528 81.2666 57.7175C81.4098 57.7606 81.4507 57.8899 81.3894 57.9976Z" fill="#FFBA08"/>
<path fill-rule="evenodd" clip-rule="evenodd" d="M81.3894 57.9976C81.2052 58.3854 80.7755 58.5363 80.2026 58.5363C79.2818 58.5363 77.9927 58.1053 76.8468 57.5236C75.0053 56.554 73.2865 54.981 73.7571 53.9683C73.798 53.8606 73.9208 53.8175 74.0231 53.8821C74.1254 53.9252 74.1664 54.0545 74.105 54.1622C73.839 54.7009 74.9644 56.0584 77.0105 57.1357C79.0362 58.2131 80.7346 58.3423 81.0006 57.8037C81.0415 57.6959 81.1643 57.6528 81.2666 57.7175C81.4098 57.7606 81.4507 57.8899 81.3894 57.9976Z" fill="black" fill-opacity="0.2"/>
<path fill-rule="evenodd" clip-rule="evenodd" d="M85.9734 42.2472C87.242 48.7759 83.4157 51.6201 81.8401 52.6974C81.3081 53.3869 80.3669 51.5554 79.3029 51.0598C79.262 51.0383 79.2211 51.0168 79.1597 51.0168C78.464 50.7797 76.9498 50.0471 76.9498 50.0471C76.9294 50.004 77.2772 49.3576 77.5023 48.7759C77.359 48.6035 76.7247 47.6339 76.1927 45.2637C75.497 42.2041 75.538 38.735 75.7835 37.787C76.3769 35.4383 77.4818 40.9974 78.0752 42.0102C78.198 42.2256 78.5049 42.0963 78.464 41.8593L76.6224 31.6676C76.5406 31.3444 76.7452 31.0212 77.0521 30.935C77.359 30.8489 77.666 31.0643 77.7478 31.3875L79.6508 38.9936C79.6508 38.9936 79.6917 39.166 79.8554 39.1444C80.0395 39.1013 79.9781 38.9289 79.9781 38.9289L78.2184 29.9654C78.1366 29.6422 78.3412 29.319 78.6481 29.2328C78.9551 29.1467 79.262 29.3621 79.3438 29.6853L81.3695 37.7008C81.39 37.7654 81.4514 37.8301 81.5332 37.8085C81.6151 37.787 81.656 37.7223 81.6355 37.6361L80.5511 30.0085C80.4897 29.6853 80.6943 29.3621 81.0012 29.2975C81.3081 29.2328 81.6151 29.4483 81.6764 29.7715L83.252 37.8085C83.3134 38.0455 83.518 38.2179 83.6203 37.9809C83.2111 34.9643 82.8428 32.2494 82.8428 32.2494C82.7814 31.9262 82.986 31.603 83.2929 31.5384C83.5998 31.4737 83.9068 31.6892 83.9682 32.0124L85.9734 42.2472Z" fill="#F5B799"/>
<path d="M81.3283 50.5213C81.2669 50.5213 81.185 50.4782 81.1646 50.4135C81.1032 50.3058 81.1441 50.1765 81.2259 50.1119C81.7375 49.7887 82.0444 49.3146 82.1672 48.6898C82.556 46.5351 80.4075 43.3677 80.387 43.3246C80.3256 43.2384 80.3461 43.0876 80.4279 43.0229C80.5098 42.9583 80.6325 42.9798 80.7144 43.066C80.8167 43.1953 83.0061 46.4273 82.5764 48.776C82.4332 49.5085 82.0649 50.0903 81.451 50.4782C81.3896 50.5213 81.3692 50.5213 81.3283 50.5213Z" fill="#97534F"/>
<path fill-rule="evenodd" clip-rule="evenodd" d="M79.9986 50.3485C81.4104 51.1026 82.3517 52.1154 82.1061 52.654C81.8606 53.1711 80.5101 52.9988 79.0983 52.2446C77.6865 51.4905 76.7452 50.4778 76.9908 49.9391C77.2363 49.422 78.5868 49.6159 79.9986 50.3485Z" fill="#F5B799"/>
<path fill-rule="evenodd" clip-rule="evenodd" d="M47.0965 61.9415C47.0965 61.9415 55.7927 67.0697 55.895 71.6376C52.4779 74.7188 47.3011 75.947 47.3011 75.947L47.0965 61.9415Z" fill="#19180A"/>
<path fill-rule="evenodd" clip-rule="evenodd" d="M50.6159 68.0389C50.3704 70.1721 49.7156 71.0339 48.3242 71.4002V80.256C48.3242 80.256 49.6543 84.8671 42.7996 82.4107C40.5488 81.6135 39.935 78.9632 39.935 78.9632V67.4141C38.5845 65.9489 37.5819 64.1174 37.4796 61.9411C37.4387 61.0146 39.5053 61.1008 39.7304 60.0019C41.5105 51.1892 49.6543 57.287 50.6159 59.9588C50.6159 59.9588 51.148 63.5572 50.6159 68.0389Z" fill="#F5B799"/>
<path fill-rule="evenodd" clip-rule="evenodd" d="M41.9422 69.0737C44.2748 70.7544 46.8121 71.4223 47.651 71.4223C48.5309 71.4223 48.9606 71.1638 49.2266 71.0345C48.367 71.9691 48.2851 73.6262 48.367 74.7898C45.6046 73.971 43.2722 71.3577 41.9422 69.0737Z" fill="#97534F"/>
<path fill-rule="evenodd" clip-rule="evenodd" d="M53.8705 60.5622C49.369 60.0881 42.1869 58.7091 42.1869 58.7091C42.1869 58.7091 39.977 59.9804 40.55 62.3721C41.4707 66.2505 43.3123 70.8616 39.9361 75.3002C36.0075 74.0074 27.6591 68.6207 27.6591 68.6207C27.6591 68.6207 27.5977 67.3279 30.1145 65.6041C31.4241 64.6992 35.3936 63.1693 33.7976 60.4329C31.0558 55.7356 36.0689 50.392 40.55 52.0296C48.4891 54.9169 51.3537 56.1235 53.0316 57.8472C54.7299 59.571 53.8705 60.5622 53.8705 60.5622Z" fill="#19180A"/>
<path d="M26.0419 66.897C26.001 66.897 25.9805 66.897 25.9396 66.8754C25.8373 66.8108 25.7964 66.6815 25.8578 66.5738C25.8987 66.4876 27.0445 64.376 30.2775 63.665C32.3236 63.234 33.449 62.7169 33.8378 62.0705C34.1447 61.5534 34.022 60.95 33.7969 60.0666C33.7764 59.9589 33.8378 59.8296 33.9401 59.8081C34.0424 59.7865 34.1652 59.8512 34.1857 59.9589C34.3903 60.7561 34.5949 61.5964 34.1857 62.3075C33.715 63.0832 32.5896 63.6219 30.3593 64.0959C27.3105 64.7423 26.2261 66.7677 26.2056 66.7893C26.1851 66.8539 26.1238 66.897 26.0419 66.897Z" fill="#19180A"/>
<path fill-rule="evenodd" clip-rule="evenodd" d="M48.4471 66.8107C48.4471 66.8322 48.4471 66.8753 48.4267 66.8969C48.263 67.6726 47.5263 68.1466 46.8102 67.9742C46.0736 67.8019 45.6234 67.0262 45.7871 66.272C45.7871 66.2505 45.8076 66.2074 45.8076 66.1858L48.4471 66.8107Z" fill="#FEEAE4"/>
<path d="M42.9029 62.2642L38.1762 61.6394C38.0739 61.6179 37.992 61.5101 37.992 61.4024C38.0125 61.2947 38.1148 61.2085 38.2171 61.2085L42.9233 61.8333C43.0256 61.8549 43.1075 61.9626 43.1075 62.0703C43.1075 62.1996 43.0052 62.2642 42.9029 62.2642Z" fill="#19180A"/>
<path d="M45.1527 65.1085C43.8023 65.1085 42.6973 63.8588 42.6973 62.3074C42.6973 60.756 43.8023 59.5063 45.1527 59.5063C46.5032 59.5063 47.6081 60.756 47.6081 62.3074C47.6081 63.8588 46.5032 65.1085 45.1527 65.1085ZM45.1527 59.9372C44.0273 59.9372 43.1066 60.993 43.1066 62.3074C43.1066 63.6217 44.0273 64.6776 45.1527 64.6776C46.2781 64.6776 47.1989 63.6217 47.1989 62.3074C47.1989 60.993 46.2781 59.9372 45.1527 59.9372Z" fill="#19180A"/>
<path d="M50.4728 65.1085C49.1223 65.1085 48.0174 63.8588 48.0174 62.3074C48.0174 60.756 49.1223 59.5063 50.4728 59.5063C51.8233 59.5063 52.9282 60.756 52.9282 62.3074C52.9282 63.8588 51.8233 65.1085 50.4728 65.1085ZM50.4728 59.9372C49.3474 59.9372 48.4266 60.993 48.4266 62.3074C48.4266 63.6217 49.3474 64.6776 50.4728 64.6776C51.5982 64.6776 52.519 63.6217 52.519 62.3074C52.519 60.993 51.5982 59.9372 50.4728 59.9372Z" fill="#19180A"/>
<path d="M48.8372 65.9707C48.8167 65.9707 48.8167 65.9491 48.8372 65.9707L46.7706 65.7552C46.6683 65.7337 46.5864 65.6475 46.5864 65.5182C46.6069 65.4105 46.6887 65.3027 46.8115 65.3243L48.5712 65.5182L47.8141 61.7044C47.7937 61.5967 47.855 61.4674 47.9778 61.4458C48.0801 61.4243 48.2029 61.4889 48.2234 61.6182L49.0418 65.7121C49.0623 65.7768 49.0418 65.8414 49.0009 65.906C48.9395 65.9276 48.8781 65.9707 48.8372 65.9707Z" fill="#19180A"/>
<path fill-rule="evenodd" clip-rule="evenodd" d="M45.7672 61.9415C46.0536 61.9415 46.2787 62.1785 46.2787 62.4802C46.2787 62.7818 46.0536 63.0189 45.7672 63.0189C45.4807 63.0189 45.2557 62.7818 45.2557 62.4802C45.2557 62.1785 45.4807 61.9415 45.7672 61.9415Z" fill="#19180A"/>
<path fill-rule="evenodd" clip-rule="evenodd" d="M49.6553 61.9415C49.9418 61.9415 50.1668 62.1785 50.1668 62.4802C50.1668 62.7818 49.9418 63.0189 49.6553 63.0189C49.3688 63.0189 49.1437 62.7818 49.1437 62.4802C49.1437 62.1785 49.3688 61.9415 49.6553 61.9415Z" fill="#19180A"/>
<path fill-rule="evenodd" clip-rule="evenodd" d="M29.7035 139.941L29.9081 145.328C29.9081 145.328 20.3935 140.092 21.9281 130.245C23.4627 120.398 29.7035 139.941 29.7035 139.941Z" fill="#FF8E25"/>
<path fill-rule="evenodd" clip-rule="evenodd" d="M29.2532 111.887C26.9615 118.136 24.5061 127.315 19.4725 130.051C18.3267 130.676 16.7716 131.042 15.1961 130.827L13.1703 134.037L13.1294 133.994C13.109 134.081 13.0885 134.167 13.0476 134.231C12.6179 134.921 10.7559 134.425 8.8734 133.111C7.01139 131.818 5.84507 130.202 6.27477 129.513C6.31569 129.448 6.37708 129.383 6.43846 129.34L6.39754 129.297L8.32093 126.237C7.99355 125.763 7.66616 125.225 7.3797 124.665C4.14676 118.351 11.4516 115.055 18.8382 102.687C24.6698 92.9475 26.2863 87.2807 28.4552 84.0702C32.0155 78.8128 34.3277 80.1487 34.3277 80.1487C34.9825 93.2923 40.4253 81.5708 29.2532 111.887Z" fill="#FFBA08"/>
<path fill-rule="evenodd" clip-rule="evenodd" d="M2.79621 141.018C3.53283 143.561 3.90114 144.337 4.57637 146.534C4.74007 147.073 4.80145 147.525 4.80145 147.892C4.80145 148.301 4.26945 148.452 4.0853 148.086C2.65299 145.392 -0.170715 140.587 -0.170715 140.587C-0.109331 140.437 0.177132 139.898 0.238516 139.725C0.627286 139.575 0.422671 138.734 0.852364 138.691C1.5276 138.627 2.16191 138.713 2.77576 138.928C2.57114 139.445 2.53021 140.113 2.79621 141.018Z" fill="#97534F"/>
<path fill-rule="evenodd" clip-rule="evenodd" d="M4.43248 136.71C5.39417 136.71 6.17171 137.528 6.17171 138.541C6.17171 139.554 5.39417 140.372 4.43248 140.372C3.47078 140.372 2.69324 139.554 2.69324 138.541C2.69324 137.528 3.47078 136.71 4.43248 136.71Z" fill="#97534F"/>
<path fill-rule="evenodd" clip-rule="evenodd" d="M3.86033 139.661C4.59696 142.203 4.96527 142.979 5.64051 145.177C5.80421 145.716 5.86559 146.146 5.86559 146.513C5.86559 146.944 5.33358 147.073 5.14943 146.707C3.63525 143.841 0.484131 138.152 0.484131 138.152C0.545516 138.002 0.606901 137.829 0.668286 137.635C1.05706 137.485 1.48676 137.355 1.91646 137.312C2.5917 137.248 3.22601 137.334 3.83987 137.549C3.65571 138.088 3.61479 138.756 3.86033 139.661Z" fill="#97534F"/>
<path fill-rule="evenodd" clip-rule="evenodd" d="M4.43254 138.454C5.43516 140.911 5.86486 141.622 6.78563 143.733C7.01071 144.25 7.11302 144.681 7.15395 145.026C7.19487 145.435 6.68333 145.651 6.45825 145.306C4.65762 142.634 0.933594 137.355 0.933594 137.355C0.974517 137.183 1.01544 137.011 1.07682 136.817C1.44513 136.623 1.85436 136.45 2.28406 136.364C2.93883 136.213 3.59361 136.235 4.22792 136.364C4.04377 136.924 4.08469 137.592 4.43254 138.454Z" fill="#97534F"/>
<path fill-rule="evenodd" clip-rule="evenodd" d="M10.1419 138.153C4.76052 142.419 4.00343 143.884 3.45097 143.841C2.08004 143.755 4.18758 141.019 5.25159 138.864C5.25159 138.864 5.45621 138.175 4.94467 138.002C4.94467 138.002 1.54804 139.338 1.95727 141.988C2.38696 144.617 2.75527 145.393 3.24635 147.655C3.36912 148.194 3.38958 148.646 3.34866 149.013C3.3282 149.422 2.77573 149.53 2.61204 149.142C1.87542 147.375 0.770492 144.876 -0.395823 142.096C-1.3166 139.92 -3.38323 139.08 8.75054 128.263C9.18023 127.875 11.0422 130.03 11.5742 130.094C11.5538 130.568 11.5538 131.043 11.6561 131.452C11.6766 131.495 11.697 131.56 11.7175 131.603C12.0039 132.4 13.1089 131.969 13.1089 131.969C12.5155 131.797 11.8812 132.702 11.0627 134.102C11.0627 134.339 12.1881 136.537 10.1419 138.153Z" fill="#F5B799"/>
<path fill-rule="evenodd" clip-rule="evenodd" d="M37.1307 79.0072C37.1307 79.0072 47.0546 88.4232 36.8647 113.655C28.9869 133.155 29.7031 139.942 29.7031 139.942C29.7031 139.942 16.2393 134.512 21.5184 119.688C28.414 100.274 26.02 86.2685 30.1123 81.9591C33.2021 78.7271 37.1307 79.0072 37.1307 79.0072Z" fill="#FFBA08"/>
<path fill-rule="evenodd" clip-rule="evenodd" d="M31.5446 114.515C24.9764 122.983 25.6108 133.261 22.3983 133.671C21.6207 132.421 20.966 130.956 20.6181 129.275C24.8946 125.871 27.1454 117.64 29.2734 111.887C32.5473 102.988 34.3274 97.7089 35.2073 94.326C36.9261 98.4415 38.2561 105.875 31.5446 114.515Z" fill="#FFBA08"/>
<path fill-rule="evenodd" clip-rule="evenodd" d="M31.5446 114.515C24.9764 122.983 25.6108 133.261 22.3983 133.671C21.6207 132.421 20.966 130.956 20.6181 129.275C24.8946 125.871 27.1454 117.64 29.2734 111.887C32.5473 102.988 34.3274 97.7089 35.2073 94.326C36.9261 98.4415 38.2561 105.875 31.5446 114.515Z" fill="black" fill-opacity="0.2"/>
<path fill-rule="evenodd" clip-rule="evenodd" d="M34.4303 98.1828C34.4098 98.1828 34.3893 98.1829 34.3689 98.1613C34.2666 98.1182 34.2052 98.0105 34.2461 97.8812C37.1926 88.616 35.1055 83.8541 35.085 83.8111C35.0441 83.7033 35.085 83.574 35.1873 83.5309C35.2896 83.4878 35.4124 83.5309 35.4533 83.6387C35.5352 83.8326 37.6632 88.5729 34.6349 98.032C34.6144 98.1182 34.5326 98.1828 34.4303 98.1828Z" fill="#FFBA08"/>
<path fill-rule="evenodd" clip-rule="evenodd" d="M34.4303 98.1828C34.4098 98.1828 34.3893 98.1829 34.3689 98.1613C34.2666 98.1182 34.2052 98.0105 34.2461 97.8812C37.1926 88.616 35.1055 83.8541 35.085 83.8111C35.0441 83.7033 35.085 83.574 35.1873 83.5309C35.2896 83.4878 35.4124 83.5309 35.4533 83.6387C35.5352 83.8326 37.6632 88.5729 34.6349 98.032C34.6144 98.1182 34.5326 98.1828 34.4303 98.1828Z" fill="black" fill-opacity="0.2"/>
<path fill-rule="evenodd" clip-rule="evenodd" d="M8.34139 126.237C10.2853 129.038 12.802 130.503 15.196 130.826L13.1703 134.037C13.1703 134.037 13.0885 134.166 13.0476 134.231C12.6179 134.92 10.7559 134.425 8.8734 133.11C7.01139 131.817 5.84507 130.201 6.27477 129.512C6.31569 129.447 6.39754 129.318 6.39754 129.318L8.34139 126.237Z" fill="#FF8E25"/>
<path fill-rule="evenodd" clip-rule="evenodd" d="M22.5432 101.802C22.5432 105.832 18.9419 109.107 14.4813 109.128C15.8727 107.275 17.3664 105.164 18.8601 102.664C19.8422 101.027 20.6811 99.5185 21.4587 98.1179C22.1544 99.2168 22.5432 100.467 22.5432 101.802Z" fill="#FF8E25"/>
<path fill-rule="evenodd" clip-rule="evenodd" d="M8.11652 126.581L8.3416 126.215C9.36468 127.465 11.7382 129.921 15.1758 130.805L14.9302 131.192C11.5745 130.244 9.22144 127.874 8.11652 126.581Z" fill="#FFBA08"/>
<path fill-rule="evenodd" clip-rule="evenodd" d="M8.11652 126.581L8.3416 126.215C9.36468 127.465 11.7382 129.921 15.1758 130.805L14.9302 131.192C11.5745 130.244 9.22144 127.874 8.11652 126.581Z" fill="black" fill-opacity="0.2"/>
<path fill-rule="evenodd" clip-rule="evenodd" d="M40.1374 75.0851C40.1374 75.0851 38.7051 76.5718 37.1295 79.0066C37.4978 80.795 41.2423 89.306 41.2423 89.306C41.2423 89.306 45.662 84.1348 40.1374 75.0851Z" fill="#FF8E25"/>
<path fill-rule="evenodd" clip-rule="evenodd" d="M129.558 114.515C123.255 134.726 118.979 137.398 119.531 162.78C120.043 167.456 123.787 177.044 124.851 180.449C126.959 187.214 127.205 190.533 126.079 194.454C124.913 198.548 127.082 201.543 127.921 204.797C128.903 208.632 127.921 213.243 122.601 215.57C122.478 215.635 122.355 215.656 122.232 215.699C121.209 216.173 119.163 216.54 116.831 216.626C113.618 216.755 110.958 216.303 110.651 215.613C110.631 215.57 110.61 215.527 110.61 215.484C110.61 215.462 110.61 215.441 110.61 215.441C110.16 212.618 104.287 176.075 104.472 158.837C104.738 134.575 112.472 105.228 112.472 105.228L129.148 108.999C129.148 108.999 131.481 106.37 129.558 114.515Z" fill="#19180A"/>
<path fill-rule="evenodd" clip-rule="evenodd" d="M118.917 131.752L120.758 141.018C120.758 141.018 120.779 141.211 120.82 141.535C119.981 145.822 119.51 150.843 119.469 157.738C117.259 156.467 115.991 150.757 116.441 146.189C117.71 133.907 118.917 131.752 118.917 131.752Z" fill="black" fill-opacity="0.5"/>
<path fill-rule="evenodd" clip-rule="evenodd" d="M118.609 131.472L117.32 125.159C117.299 125.051 117.361 124.922 117.483 124.901C117.586 124.879 117.708 124.944 117.729 125.073L121.044 140.479C120.982 140.824 120.819 141.599 120.757 141.966L118.813 132.442C116.603 141.75 114.762 156.144 117.974 173.403C122.046 195.337 122.067 209.364 121.698 215.872C121.576 215.915 121.432 215.936 121.289 215.979C121.657 209.558 121.678 195.531 117.586 173.489C114.25 155.605 116.296 140.781 118.609 131.472Z" fill="#7A98D0"/>
<path fill-rule="evenodd" clip-rule="evenodd" d="M153.865 206.326C153.824 206.369 153.783 206.391 153.742 206.434C153.108 207.296 151.225 208.588 148.872 209.73C145.803 211.217 143.061 211.864 142.734 211.217L142.652 211.26C142.652 211.26 126.098 177.044 123.418 159.332C119.203 131.451 119.121 109.128 119.121 109.128L142.099 107.296C142.099 107.296 141.383 107.404 140.708 115.743C136.309 139.121 135.49 141.319 140.728 162.004C141.813 167.003 146.212 172.088 147.767 175.277C150.877 181.612 151.757 183.486 151.45 186.697C151.041 190.963 153.169 191.545 155.072 194.26C157.343 197.449 158.019 202.103 153.865 206.326Z" fill="#19180A"/>
<path fill-rule="evenodd" clip-rule="evenodd" d="M151.041 208.503C149.732 201.134 146.744 188.766 139.951 171.636C134.324 157.394 132.953 144.746 132.789 136.666C132.626 127.896 133.792 122.402 133.813 122.337C133.833 122.229 133.956 122.143 134.058 122.186C134.16 122.208 134.242 122.337 134.222 122.445C134.201 122.509 133.035 127.939 133.199 136.687C133.362 144.746 134.713 157.329 140.319 171.486C147.051 188.508 150.059 200.832 151.389 208.266C151.287 208.352 151.164 208.439 151.041 208.503Z" fill="#7A98D0"/>
<path fill-rule="evenodd" clip-rule="evenodd" d="M135.226 136.278L132.014 126.797L148.301 121.066L139.912 96.2438L149.795 92.5593L158.818 119.234C160.251 123.501 158.123 128.198 154.071 129.685L135.226 136.278Z" fill="#FFAB6C"/>
<path fill-rule="evenodd" clip-rule="evenodd" d="M156.587 112.619C152.065 110.701 145.333 111.283 145.333 111.283L154.255 105.681L156.587 112.619Z" fill="black" fill-opacity="0.5"/>
<path fill-rule="evenodd" clip-rule="evenodd" d="M122.621 137.872C124.279 136.407 128.801 132.334 128.801 132.334C128.801 132.334 131.522 129.361 127.021 130.848C124.749 131.602 123.767 130.805 124.483 130.266C125.2 129.749 131.604 126.991 133.302 126.301C135.021 125.612 136.454 126.452 136.454 126.452C136.454 126.452 141.589 132.938 140.403 133.907C137.865 135.997 135.656 137.807 134.1 139.079C132.566 140.35 130.561 140.781 128.678 140.242L123.235 139.229C122.908 139.423 122.499 139.639 122.212 139.833C120.596 140.91 120.698 139.445 122.621 137.872Z" fill="#FFAB6C"/>
<path d="M123.564 139.272L128.454 135.674" stroke="#19180A" stroke-width="2.10853" stroke-miterlimit="10" stroke-linecap="round" stroke-linejoin="round"/>
<path d="M126.06 139.748L129.784 137.162" stroke="#19180A" stroke-width="2.10853" stroke-miterlimit="10" stroke-linecap="round" stroke-linejoin="round"/>
<path d="M128.739 140.242L130.969 138.67" stroke="#19180A" stroke-width="2.10853" stroke-miterlimit="10" stroke-linecap="round" stroke-linejoin="round"/>
<path fill-rule="evenodd" clip-rule="evenodd" d="M109.155 70.5598C109.912 70.9477 109.257 73.9642 107.702 77.304C106.147 80.6438 104.285 83.0355 103.528 82.6476C102.771 82.2598 103.426 79.2432 104.981 75.9034C106.536 72.5637 108.398 70.172 109.155 70.5598Z" fill="#885946"/>
<path fill-rule="evenodd" clip-rule="evenodd" d="M149.199 110.701C144.186 112.167 144.288 110.917 144.288 110.917L143.06 107.254L141.014 121.065C141.014 121.065 140.584 124.448 128.737 123.005C115.376 121.389 109.094 116.11 109.094 116.11L114.005 88.2711L103.549 82.5396C104.347 82.7551 106.147 80.4065 107.682 77.1313C109.032 74.2225 109.708 71.5507 109.38 70.6242L141.648 83.854C145.823 85.5562 149.158 89.0037 150.856 93.3777L156.176 107.038C156.156 107.038 154.212 109.236 149.199 110.701Z" fill="#FF8E25"/>
<path fill-rule="evenodd" clip-rule="evenodd" d="M152.391 105.853C153.291 107.598 154.928 107.555 154.989 107.555C155.091 107.555 155.194 107.641 155.194 107.77C155.194 107.878 155.112 107.986 155.01 107.986C154.948 107.986 153.884 108.029 152.923 107.21C152.595 106.93 152.288 106.564 152.022 106.068C150.999 104.108 149.771 103.87 149.751 103.87C149.649 103.849 149.567 103.741 149.587 103.633C149.608 103.526 149.71 103.44 149.812 103.461C149.874 103.44 151.265 103.677 152.391 105.853ZM148.38 91.6749C148.38 92.386 147.828 92.9678 147.152 92.9678C146.477 92.9678 145.925 92.386 145.925 91.6749C145.925 90.9639 146.477 90.3821 147.152 90.3821C147.828 90.3821 148.38 90.9639 148.38 91.6749ZM147.152 90.8131C146.702 90.8131 146.334 91.2009 146.334 91.6749C146.334 92.149 146.702 92.5368 147.152 92.5368C147.603 92.5368 147.971 92.149 147.971 91.6749C147.971 91.2009 147.603 90.8131 147.152 90.8131ZM111.344 77.0231C110.669 77.0231 110.117 76.4413 110.117 75.7302C110.117 75.0192 110.669 74.4374 111.344 74.4374C112.02 74.4374 112.572 75.0192 112.572 75.7302C112.572 76.4413 112.02 77.0231 111.344 77.0231ZM111.344 74.8684C110.894 74.8684 110.526 75.2562 110.526 75.7302C110.526 76.2043 110.894 76.5921 111.344 76.5921C111.795 76.5921 112.163 76.2043 112.163 75.7302C112.163 75.2562 111.795 74.8684 111.344 74.8684ZM109.339 83.3578C111.201 83.681 112.163 82.302 112.204 82.259C112.265 82.1728 112.388 82.1512 112.49 82.2159C112.572 82.2805 112.593 82.4098 112.531 82.5175C112.49 82.5606 111.856 83.4656 110.669 83.7672C110.26 83.875 109.789 83.8965 109.257 83.8103C107.723 83.5302 106.822 83.9181 106.434 84.1766L106.024 83.9612C106.331 83.6595 107.375 82.9915 109.339 83.3578ZM111.549 104.388C111.999 104.388 112.367 104 112.367 103.526C112.367 103.052 111.999 102.664 111.549 102.664C111.529 102.664 111.488 102.664 111.467 102.664L111.549 102.233C111.549 102.233 111.549 102.233 111.569 102.233C112.245 102.233 112.797 102.815 112.797 103.526C112.797 104.237 112.245 104.819 111.569 104.819C111.406 104.819 111.263 104.775 111.119 104.732L111.201 104.301C111.283 104.345 111.426 104.388 111.549 104.388ZM126.691 117.531C126.691 116.82 127.243 116.238 127.918 116.238C128.594 116.238 129.146 116.82 129.146 117.531C129.146 118.242 128.594 118.824 127.918 118.824C127.243 118.824 126.691 118.242 126.691 117.531ZM128.737 117.531C128.737 117.057 128.369 116.669 127.918 116.669C127.468 116.669 127.1 117.057 127.1 117.531C127.1 118.005 127.468 118.393 127.918 118.393C128.369 118.393 128.737 118.005 128.737 117.531ZM132.215 84.9954C132.891 84.9954 133.443 85.5772 133.443 86.2882C133.443 86.9993 132.891 87.581 132.215 87.581C131.54 87.581 130.988 86.9993 130.988 86.2882C130.988 85.5772 131.54 84.9954 132.215 84.9954ZM132.215 87.1501C132.665 87.1501 133.034 86.7623 133.034 86.2882C133.034 85.8142 132.665 85.4263 132.215 85.4263C131.765 85.4263 131.397 85.8142 131.397 86.2882C131.397 86.7623 131.765 87.1501 132.215 87.1501ZM127.53 94.6053C127.591 94.6053 128.962 94.8423 130.087 97.0186C130.988 98.7639 132.625 98.7208 132.686 98.7208C132.788 98.7208 132.891 98.807 132.891 98.9362C132.891 99.044 132.809 99.1517 132.706 99.1517C132.645 99.1517 131.581 99.1948 130.619 98.376C130.292 98.0959 129.985 97.7296 129.719 97.234C128.696 95.2733 127.468 95.0363 127.448 95.0363C127.345 95.0147 127.264 94.907 127.284 94.7992C127.305 94.67 127.407 94.5838 127.53 94.6053ZM128.532 103.095C128.532 102.384 129.085 101.802 129.76 101.802C130.435 101.802 130.988 102.384 130.988 103.095C130.988 103.806 130.435 104.388 129.76 104.388C129.085 104.388 128.532 103.806 128.532 103.095ZM130.578 103.095C130.578 102.621 130.21 102.233 129.76 102.233C129.31 102.233 128.941 102.621 128.941 103.095C128.941 103.569 129.31 103.957 129.76 103.957C130.21 103.957 130.578 103.569 130.578 103.095ZM127.837 112.101C128.737 113.847 130.374 113.804 130.435 113.804C130.537 113.804 130.64 113.89 130.64 114.019C130.64 114.127 130.558 114.235 130.456 114.235C130.394 114.235 129.33 114.278 128.369 113.459C128.041 113.179 127.734 112.812 127.468 112.317C126.445 110.356 125.217 110.119 125.197 110.119C125.095 110.098 125.013 109.99 125.033 109.882C125.054 109.774 125.156 109.688 125.258 109.71C125.32 109.688 126.711 109.925 127.837 112.101ZM122.23 86.1589C124.092 86.4821 125.054 85.1031 125.095 85.06C125.156 84.9739 125.279 84.9523 125.381 85.017C125.463 85.0816 125.483 85.2109 125.422 85.3186C125.381 85.3617 124.747 86.2667 123.56 86.5683C123.151 86.6761 122.68 86.6976 122.148 86.6114C120.041 86.2451 119.12 87.1286 119.12 87.1286C119.038 87.2147 118.915 87.2147 118.833 87.1286C118.752 87.0424 118.752 86.9131 118.833 86.8269C118.895 86.7407 119.918 85.728 122.23 86.1589ZM114.639 75.2131C114.7 75.2131 116.071 75.4501 117.196 77.6264C118.097 79.3717 119.734 79.3286 119.795 79.3286C119.897 79.3286 120 79.4148 120 79.544C120 79.6518 119.918 79.7595 119.816 79.7595C119.754 79.7595 118.69 79.8026 117.728 78.9838C117.401 78.7037 117.094 78.3374 116.828 77.8418C115.805 75.8811 114.577 75.6441 114.557 75.6441C114.455 75.6225 114.373 75.5148 114.393 75.407C114.414 75.2778 114.516 75.1916 114.639 75.2131ZM115.232 83.4871C115.232 82.7761 115.785 82.1943 116.46 82.1943C117.135 82.1943 117.688 82.7761 117.688 83.4871C117.688 84.1982 117.135 84.7799 116.46 84.7799C115.785 84.7799 115.232 84.1982 115.232 83.4871ZM117.278 83.4871C117.278 83.0131 116.91 82.6253 116.46 82.6253C116.01 82.6253 115.641 83.0131 115.641 83.4871C115.641 83.9612 116.01 84.349 116.46 84.349C116.91 84.349 117.278 83.9612 117.278 83.4871ZM115.56 91.6319C116.46 93.3771 118.097 93.3341 118.158 93.3341C118.26 93.3341 118.363 93.4202 118.363 93.5495C118.363 93.6573 118.281 93.765 118.179 93.765C118.117 93.765 117.053 93.8081 116.092 92.9893C115.764 92.7092 115.457 92.3429 115.191 91.8473C114.68 90.8777 114.127 90.3175 113.697 90.0158L113.779 89.5633C114.291 89.865 114.966 90.4683 115.56 91.6319ZM118.792 115.937C118.731 115.937 117.667 115.98 116.705 115.161C116.378 114.881 116.071 114.515 115.805 114.019C114.782 112.058 113.554 111.821 113.534 111.821C113.431 111.8 113.35 111.692 113.37 111.584C113.391 111.477 113.493 111.39 113.595 111.412C113.657 111.412 115.027 111.649 116.153 113.825C117.053 115.57 118.69 115.527 118.752 115.527C118.854 115.527 118.956 115.614 118.956 115.743C118.997 115.829 118.895 115.937 118.792 115.937ZM117.892 98.7854C117.217 98.7854 116.664 98.2037 116.664 97.4926C116.664 96.7816 117.217 96.1998 117.892 96.1998C118.567 96.1998 119.12 96.7816 119.12 97.4926C119.12 98.2037 118.567 98.7854 117.892 98.7854ZM117.892 96.6307C117.442 96.6307 117.074 97.0186 117.074 97.4926C117.074 97.9666 117.442 98.3545 117.892 98.3545C118.342 98.3545 118.711 97.9666 118.711 97.4926C118.711 97.0186 118.342 96.6307 117.892 96.6307ZM122.189 91.4595C121.514 91.4595 120.961 90.8777 120.961 90.1667C120.961 89.4556 121.514 88.8739 122.189 88.8739C122.864 88.8739 123.417 89.4556 123.417 90.1667C123.417 90.8777 122.864 91.4595 122.189 91.4595ZM122.189 89.3048C121.739 89.3048 121.371 89.6926 121.371 90.1667C121.371 90.6407 121.739 91.0285 122.189 91.0285C122.639 91.0285 123.008 90.6407 123.008 90.1667C123.008 89.6926 122.639 89.3048 122.189 89.3048ZM120.961 109.774C121.637 109.774 122.189 110.356 122.189 111.067C122.189 111.778 121.637 112.36 120.961 112.36C120.286 112.36 119.734 111.778 119.734 111.067C119.734 110.356 120.286 109.774 120.961 109.774ZM120.961 111.929C121.412 111.929 121.78 111.541 121.78 111.067C121.78 110.593 121.412 110.205 120.961 110.205C120.511 110.205 120.143 110.593 120.143 111.067C120.143 111.541 120.511 111.929 120.961 111.929ZM116.89 103.246C116.808 103.332 116.685 103.332 116.603 103.246C116.521 103.159 116.521 103.03 116.603 102.944C116.644 102.901 117.667 101.91 120 102.319C121.862 102.642 122.823 101.263 122.864 101.22C122.926 101.134 123.048 101.112 123.151 101.177C123.233 101.242 123.253 101.371 123.192 101.479C123.151 101.522 122.516 102.427 121.33 102.729C120.92 102.836 120.45 102.858 119.918 102.772C117.831 102.362 116.89 103.246 116.89 103.246ZM133.443 93.8296C133.443 93.1186 133.995 92.5368 134.671 92.5368C135.346 92.5368 135.898 93.1186 135.898 93.8296C135.898 94.5407 135.346 95.1224 134.671 95.1224C133.995 95.1224 133.443 94.5407 133.443 93.8296ZM134.671 94.6915C135.121 94.6915 135.489 94.3037 135.489 93.8296C135.489 93.3556 135.121 92.9678 134.671 92.9678C134.221 92.9678 133.852 93.3556 133.852 93.8296C133.852 94.3037 134.221 94.6915 134.671 94.6915ZM137.351 89.2186C137.413 89.2186 138.784 89.4556 139.909 91.6319C140.809 93.3771 142.446 93.3341 142.508 93.3341C142.61 93.3341 142.712 93.4202 142.712 93.5495C142.712 93.6573 142.63 93.765 142.528 93.765C142.467 93.765 141.403 93.8081 140.441 92.9893C140.114 92.7092 139.807 92.3429 139.541 91.8473C138.518 89.8866 137.29 89.6495 137.269 89.6495C137.167 89.628 137.085 89.5203 137.106 89.4125C137.126 89.2832 137.228 89.1971 137.351 89.2186ZM137.126 109.559C137.126 110.27 136.574 110.852 135.898 110.852C135.223 110.852 134.671 110.27 134.671 109.559C134.671 108.848 135.223 108.266 135.898 108.266C136.574 108.266 137.126 108.848 137.126 109.559ZM135.08 109.559C135.08 110.033 135.448 110.421 135.898 110.421C136.349 110.421 136.717 110.033 136.717 109.559C136.717 109.085 136.349 108.697 135.898 108.697C135.448 108.697 135.08 109.085 135.08 109.559ZM135.305 104.301C135.366 104.301 136.737 104.538 137.863 106.715C138.763 108.46 140.4 108.417 140.461 108.417C140.564 108.417 140.666 108.503 140.666 108.632C140.666 108.74 140.584 108.848 140.482 108.848C140.42 108.848 139.356 108.891 138.395 108.072C138.067 107.792 137.76 107.426 137.494 106.93C136.471 104.969 135.244 104.732 135.223 104.732C135.121 104.711 135.039 104.603 135.059 104.495C135.08 104.366 135.182 104.28 135.305 104.301ZM146.334 102.448C147.009 102.448 147.562 103.03 147.562 103.741C147.562 104.452 147.009 105.034 146.334 105.034C145.659 105.034 145.106 104.452 145.106 103.741C145.106 103.03 145.659 102.448 146.334 102.448ZM146.334 104.603C146.784 104.603 147.152 104.215 147.152 103.741C147.152 103.267 146.784 102.879 146.334 102.879C145.884 102.879 145.515 103.267 145.515 103.741C145.515 104.215 145.884 104.603 146.334 104.603ZM141.157 99.3672C141.075 99.281 141.075 99.1517 141.157 99.0655C141.198 99.0224 142.221 98.0313 144.554 98.4407C146.416 98.7639 147.377 97.3849 147.418 97.3418C147.48 97.2556 147.603 97.234 147.705 97.2987C147.787 97.3633 147.807 97.4926 147.746 97.6003C147.705 97.6434 147.07 98.5484 145.884 98.8501C145.474 98.9578 145.004 98.9793 144.472 98.8932C142.364 98.5269 141.444 99.4103 141.444 99.4103C141.362 99.4534 141.218 99.4534 141.157 99.3672ZM140.195 112.791C140.195 112.08 140.748 111.498 141.423 111.498C141.791 111.498 142.139 111.692 142.364 111.972L142.242 112.791C142.242 112.317 141.873 111.951 141.423 111.951C140.973 111.951 140.605 112.338 140.605 112.812C140.605 113.286 140.973 113.674 141.423 113.674C141.791 113.674 142.098 113.416 142.201 113.071L142.078 113.89C141.894 114.019 141.669 114.084 141.423 114.084C140.748 114.084 140.195 113.502 140.195 112.791ZM137.986 119.988C139.848 120.311 140.809 118.932 140.85 118.889C140.912 118.802 141.034 118.781 141.137 118.846C141.218 118.91 141.239 119.039 141.178 119.147C141.137 119.19 140.502 120.095 139.316 120.397C138.906 120.505 138.436 120.526 137.904 120.44C135.796 120.074 134.875 120.957 134.875 120.957C134.793 121.043 134.671 121.043 134.589 120.957C134.507 120.871 134.507 120.742 134.589 120.656C134.65 120.569 135.673 119.557 137.986 119.988ZM110.526 117.1C110.526 116.389 111.078 115.807 111.754 115.807C112.429 115.807 112.981 116.389 112.981 117.1C112.981 117.553 112.756 117.962 112.408 118.178C112.245 118.091 112.101 118.005 111.938 117.919C112.286 117.833 112.552 117.488 112.552 117.079C112.552 116.605 112.183 116.217 111.733 116.217C111.283 116.217 110.915 116.605 110.915 117.079C110.915 117.165 110.935 117.273 110.956 117.359C110.812 117.273 110.669 117.186 110.526 117.1ZM124.235 78.3159C123.56 78.3159 123.008 77.7341 123.008 77.0231C123.008 76.7645 123.089 76.5059 123.212 76.2905L123.621 76.4628C123.499 76.6137 123.417 76.8076 123.417 77.0231C123.417 77.4971 123.785 77.8849 124.235 77.8849C124.685 77.8849 125.033 77.5186 125.054 77.0446L125.442 77.1954C125.361 77.8418 124.849 78.3159 124.235 78.3159ZM143.858 85.2755C141.75 84.9092 140.83 85.7926 140.83 85.7926C140.748 85.8788 140.625 85.8788 140.543 85.7926C140.461 85.7065 140.461 85.5772 140.543 85.491C140.584 85.4479 141.505 84.5645 143.572 84.8015C143.858 84.9739 144.144 85.1462 144.431 85.3186C144.247 85.3186 144.063 85.3186 143.858 85.2755ZM152.472 100.94C151.797 100.94 151.245 100.358 151.245 99.6473C151.245 98.9363 151.797 98.3545 152.472 98.3545C152.595 98.3545 152.697 98.376 152.8 98.3976L153.045 99.0224C152.902 98.8716 152.697 98.7854 152.472 98.7854C152.022 98.7854 151.654 99.1733 151.654 99.6473C151.654 100.121 152.022 100.509 152.472 100.509C152.923 100.509 153.291 100.121 153.291 99.6688L153.536 100.294C153.332 100.682 152.923 100.94 152.472 100.94Z" fill="#885946"/>
<path d="M143.041 107.62C142.959 107.62 142.877 107.577 142.856 107.491L140.401 100.596C140.36 100.488 140.422 100.359 140.524 100.316C140.626 100.273 140.749 100.337 140.79 100.445L143.245 107.34C143.286 107.448 143.225 107.577 143.122 107.62C143.081 107.62 143.061 107.62 143.041 107.62Z" fill="#885946"/>
<path fill-rule="evenodd" clip-rule="evenodd" d="M114.25 84.586C114.352 84.6075 114.434 84.7153 114.413 84.823L113.922 88.2059L113.534 87.9904L114.004 84.7368C114.045 84.6506 114.147 84.5645 114.25 84.586Z" fill="#885946"/>
<path fill-rule="evenodd" clip-rule="evenodd" d="M143.06 107.62L141.423 103.095C141.423 103.095 140.523 105.637 141.219 107.835C141.812 109.731 141.628 116.885 141.628 116.885L143.06 107.62Z" fill="#885946" fill-opacity="0.5"/>
<path fill-rule="evenodd" clip-rule="evenodd" d="M107.766 75.5153C106.763 78.0363 105.556 80.0401 105.003 79.7815L103.223 78.5965C99.8879 76.3771 97.187 73.2313 95.4273 69.5252C95.4273 69.5252 90.7416 59.5706 88.6136 55.0457C92.0102 53.7745 92.9514 52.654 96.2048 51.8352C98.9262 56.7479 104.922 67.586 104.922 67.586L108.686 70.5379V70.5595C109.096 71.012 108.727 73.1451 107.766 75.5153Z" fill="#FFAB6C"/>
<path fill-rule="evenodd" clip-rule="evenodd" d="M93.0328 55.1748C91.2117 55.972 89.5134 56.3167 88.7154 56.1013L87.4877 53.4941C88.2243 53.7958 90.0045 53.451 91.9279 52.6107C93.974 51.7272 95.3654 50.4344 95.57 49.6587L96.8591 52.2013C96.8387 52.9554 95.1813 54.2482 93.0328 55.1748Z" fill="#FF8E25"/>
<path fill-rule="evenodd" clip-rule="evenodd" d="M91.0287 50.4569C93.2795 49.4226 95.3052 49.0563 95.5507 49.6812C95.7963 50.2845 94.1798 51.6204 91.929 52.6547C89.6782 53.6889 87.6525 54.0552 87.407 53.4304C87.1819 52.8271 88.7984 51.5127 91.0287 50.4569Z" fill="#19180A"/>
<path fill-rule="evenodd" clip-rule="evenodd" d="M91.4778 52.0935C89.6567 52.9338 87.9993 53.257 87.6106 52.8692L86.6284 50.8007C84.5823 48.9261 83.7433 46.3189 83.7638 44.0996C83.7843 40.9537 84.6027 37.6139 85.0529 36.7521C86.1373 34.6405 85.9736 40.2858 86.3215 41.4062C86.4033 41.6432 86.7102 41.6001 86.7307 41.3416L87.2422 30.999C87.2422 30.6543 87.5082 30.3957 87.8152 30.3957C88.1221 30.3957 88.3881 30.6758 88.3881 30.999L88.5313 38.8421C88.5313 38.8421 88.5313 39.0145 88.7155 39.036C88.8996 39.0576 88.8792 38.8637 88.8792 38.8637L89.1861 29.7278C89.1861 29.383 89.4521 29.1245 89.759 29.1245C90.0659 29.1245 90.3319 29.4046 90.3319 29.7278L90.4956 38.0018C90.4956 38.088 90.557 38.1311 90.6184 38.1526C90.7002 38.1526 90.7616 38.1095 90.7616 38.0233L91.4369 30.3526C91.4573 30.0079 91.7233 29.7493 92.0302 29.7709C92.3372 29.7924 92.5827 30.0725 92.5827 30.3957L92.2962 38.5836C92.2962 38.8206 92.4599 39.036 92.6236 38.8421C92.9101 35.804 93.1556 33.0891 93.1556 33.0891C93.1761 32.7443 93.4421 32.4858 93.749 32.5073C94.0559 32.5289 94.3015 32.809 94.3015 33.1322L93.9332 43.5824C93.8718 44.8106 93.5239 45.9526 93.1556 46.9007L94.6493 49.594C94.6493 50.1758 93.2989 51.2531 91.4778 52.0935Z" fill="#FFAB6C"/>
<path fill-rule="evenodd" clip-rule="evenodd" d="M93.1549 50.1541L95.6921 54.8298L94.9145 55.2608L92.5001 50.5204L93.1549 50.1541Z" fill="#19180A"/>
<path fill-rule="evenodd" clip-rule="evenodd" d="M95.2417 52.0287C95.917 53.343 95.8147 54.7651 94.9962 55.2176C94.1982 55.6701 93.0115 54.9806 92.3362 53.6662C91.661 52.3519 91.7633 50.9298 92.5818 50.4773C93.3798 50.0248 94.5665 50.7143 95.2417 52.0287Z" fill="#19180A"/>
<path fill-rule="evenodd" clip-rule="evenodd" d="M95.9172 51.6628C96.5925 52.9771 96.4902 54.3992 95.6717 54.8517C94.8737 55.3042 93.6869 54.6147 93.0117 53.3003C92.3364 51.986 92.4387 50.5639 93.2572 50.1114C94.0552 49.6589 95.242 50.3484 95.9172 51.6628Z" fill="#FEEAE4"/>
<path d="M94.8331 52.8904C94.7512 52.8904 94.6898 52.8473 94.6489 52.7827L93.7077 50.8866C93.6463 50.7788 93.6872 50.6495 93.7895 50.5849C93.8918 50.5203 94.0146 50.5634 94.0555 50.6711L94.8126 52.1794L94.8945 51.9639C94.9354 51.8562 95.0582 51.7915 95.1605 51.8562C95.2628 51.8993 95.3037 52.0286 95.2628 52.1363L95.0172 52.7611C94.9968 52.8473 94.9149 52.8904 94.8331 52.8904Z" fill="#19180A"/>
<path fill-rule="evenodd" clip-rule="evenodd" d="M138.193 67.2207L128.801 70.6467L126.55 80.7091C126.55 80.7091 124.258 84.8676 131.461 84.135C133.814 83.898 135.001 81.4632 135.001 81.4632L138.193 67.2207Z" fill="#FFAB6C"/>
<path fill-rule="evenodd" clip-rule="evenodd" d="M129.19 57.0291C129.19 57.0291 128.064 62.0926 126.837 67.5224C126.305 69.9357 127.348 71.681 129.108 72.4136C130.663 73.0384 139.379 71.7887 141.098 65.5401C141.344 64.6567 139.298 64.2258 139.339 63.1053C139.523 54.0772 130.704 54.6589 129.19 57.0291Z" fill="#FFAB6C"/>
<path fill-rule="evenodd" clip-rule="evenodd" d="M143.677 65.4539V65.4754L137.252 71.4439L138.07 67.7378C138.97 67.587 139.809 66.639 139.4 65.4754C139.236 64.9798 138.868 64.5705 138.397 64.3981C138.09 64.2903 137.784 64.2903 137.497 64.355C137.497 64.1611 138.479 59.55 138.479 59.55C138.316 59.4423 138.009 59.4423 137.804 59.3992C137.17 59.2484 134.551 60.4981 134.551 60.4981L134.53 60.4765C133.875 60.7566 133.098 60.8428 132.32 60.6489C130.704 60.2395 129.046 59.0113 129.026 57.4384L128.126 61.4246C126.427 60.3688 126.509 58.9467 126.898 57.9125C127.184 57.1368 127.778 56.5119 128.514 56.1672L136.208 52.5904C136.208 52.5904 136.863 52.2887 138.111 52.5904C139.543 52.9351 140.607 54.2495 140.75 55.7793C140.812 56.5765 140.689 57.0721 140.505 57.4815C143.861 57.0506 145.682 59.9594 145.027 62.976C144.904 63.8594 144.454 64.6566 143.677 65.4539Z" fill="#19180A"/>
<path d="M130.643 68.5353C130.132 68.406 129.804 68.1475 129.784 68.1259C129.702 68.0613 129.681 67.9104 129.743 67.8243C129.804 67.7381 129.947 67.7165 130.029 67.8027C130.07 67.8458 131.298 68.8154 132.792 67.4795C132.873 67.3933 132.996 67.4149 133.078 67.501C133.16 67.5872 133.139 67.7165 133.058 67.8027C132.116 68.643 131.237 68.6861 130.643 68.5353Z" fill="#19180A"/>
<path d="M137.374 66.3374C137.292 66.3158 137.231 66.2512 137.231 66.1866C137.211 66.0788 137.272 65.9495 137.374 65.928L138.704 65.6048C138.807 65.5832 138.929 65.6479 138.95 65.7556C138.97 65.8633 138.909 65.9926 138.807 66.0142L137.477 66.3374C137.436 66.3589 137.395 66.3589 137.374 66.3374Z" fill="#19180A"/>
<path d="M129.19 66.6813L131.257 66.9614C131.359 66.9829 131.462 66.8967 131.482 66.7674C131.503 66.6597 131.421 66.5304 131.298 66.5304L129.538 66.2934L131.114 62.7812C131.155 62.6735 131.114 62.5442 131.011 62.5011C130.909 62.458 130.786 62.5011 130.745 62.6089L129.068 66.4011C129.047 66.4658 129.047 66.5304 129.068 66.5951C129.088 66.6166 129.129 66.6597 129.19 66.6813Z" fill="#19180A"/>
<path d="M127.757 75.3864C130.56 75.1924 133.445 73.3394 135.184 71.4864C132.545 72.5637 131.112 72.9947 128.493 72.0897L127.757 75.3864Z" fill="#7D5436"/>
<path fill-rule="evenodd" clip-rule="evenodd" d="M133.036 63.5141C133.302 63.5788 133.487 63.8804 133.425 64.1606C133.364 64.4407 133.077 64.6346 132.811 64.5699C132.545 64.5053 132.361 64.2036 132.423 63.9235C132.484 63.6434 132.77 63.4495 133.036 63.5141Z" fill="#19180A"/>
<path fill-rule="evenodd" clip-rule="evenodd" d="M129.251 62.5661C129.517 62.6307 129.701 62.9324 129.64 63.2125C129.578 63.4926 129.292 63.6865 129.026 63.6219C128.76 63.5572 128.576 63.2556 128.637 62.9755C128.698 62.6954 128.985 62.5015 129.251 62.5661Z" fill="#19180A"/>
<g filter="url(#filter0_d_10727_48057)">
<g clip-path="url(#clip0_10727_48057)">
<rect x="1.80817" y="16" width="171.273" height="32.061" rx="16.0305" transform="rotate(5.08315 1.80817 16)" fill="#22AC38"/>
<g clip-path="url(#clip1_10727_48057)">
<path d="M26.44 34.2848C26.1509 37.5345 23.2837 39.9333 20.0339 39.6443C16.7842 39.3552 14.3854 36.488 14.6745 33.2382C14.9635 29.9885 17.8308 27.5897 21.0805 27.8788C24.3302 28.1678 26.729 31.0351 26.44 34.2848ZM19.7583 30.9171L19.5135 33.6687L17.8317 33.5191C17.5779 33.4965 17.4224 33.7935 17.5868 33.9874L20.0712 36.9411C20.1727 37.0625 20.3506 37.0784 20.472 36.9768L23.4387 34.508C23.635 34.3437 23.5342 34.0263 23.2804 34.0038L21.6009 33.8544L21.8457 31.1028C21.8596 30.9462 21.7429 30.8067 21.5864 30.7928L20.0682 30.6577C19.9117 30.6438 19.7722 30.7605 19.7583 30.9171Z" fill="white"/>
</g>
<path d="M29.1862 39.5978L29.3118 38.1859L33.7815 34.8633C34.1298 34.6052 34.378 34.3539 34.5262 34.1096C34.6744 33.8653 34.7591 33.6244 34.7802 33.3868C34.8089 33.0641 34.765 32.7711 34.6484 32.5077C34.5322 32.2399 34.3574 32.021 34.124 31.8512C33.8951 31.6818 33.6216 31.5829 33.3033 31.5546C32.9672 31.5247 32.6622 31.5766 32.3882 31.7104C32.1192 31.84 31.9016 32.0262 31.7355 32.2689C31.5693 32.5117 31.4776 32.7813 31.4602 33.0779L29.7929 32.9296C29.8503 32.2842 30.0437 31.7345 30.3733 31.2804C30.7073 30.8267 31.1392 30.4902 31.6692 30.2708C32.2037 30.0518 32.8049 29.972 33.4727 30.0314C34.0912 30.0864 34.6347 30.2748 35.103 30.5966C35.5717 30.9138 35.9255 31.3293 36.1644 31.843C36.4037 32.3521 36.4953 32.9227 36.4391 33.5547C36.398 34.0164 36.3008 34.3985 36.1474 34.7011C35.9939 35.0036 35.78 35.276 35.5055 35.5181C35.2354 35.7606 34.9023 36.0269 34.5061 36.3169L31.3366 38.6574L31.2246 38.2409L35.9846 38.6643L35.8488 40.1904L29.1862 39.5978Z" fill="white"/>
<path d="M40.9285 40.8591C40.2428 40.7981 39.6507 40.5986 39.1522 40.2607C38.6541 39.9182 38.2804 39.4716 38.0313 38.9209C37.7866 38.3706 37.6947 37.7525 37.7557 37.0668L38.0332 33.9472C38.0942 33.2615 38.2937 32.6693 38.6317 32.1709C38.9742 31.6728 39.4205 31.3014 39.9709 31.0567C40.5216 30.8075 41.1398 30.7134 41.8256 30.7744C42.5113 30.8354 43.101 31.037 43.5946 31.379C44.0931 31.717 44.467 32.1614 44.7161 32.7121C44.9653 33.2628 45.0594 33.881 44.9984 34.5668L44.7209 37.6863C44.6599 38.3721 44.4582 38.964 44.1157 39.4621C43.7732 39.9602 43.3266 40.3338 42.7759 40.583C42.2301 40.8281 41.6143 40.9201 40.9285 40.8591ZM41.0655 39.3195C41.4061 39.3498 41.7226 39.2967 42.0148 39.16C42.3074 39.0189 42.5466 38.8188 42.7323 38.5598C42.9184 38.2962 43.0265 37.9941 43.0568 37.6535L43.3553 34.2987C43.386 33.9535 43.3328 33.6371 43.1958 33.3493C43.0591 33.0571 42.859 32.8179 42.5955 32.6319C42.3324 32.4413 42.0305 32.3309 41.6898 32.3006C41.3492 32.2703 41.0325 32.3257 40.7399 32.4668C40.4477 32.6034 40.2085 32.8035 40.0224 33.0671C39.8368 33.3261 39.7286 33.6282 39.6979 33.9733L39.3995 37.3282C39.3692 37.6688 39.4223 37.9853 39.559 38.2775C39.696 38.5653 39.8961 38.8044 40.1592 38.995C40.4228 39.181 40.7248 39.2892 41.0655 39.3195Z" fill="white"/>
<path d="M47.6589 41.2545L46.6789 40.0831L56.0567 32.2436L57.0361 33.4217L47.6589 41.2545ZM54.2364 42.0429C53.7926 42.0034 53.3966 41.8598 53.0482 41.6119C52.7047 41.36 52.4392 41.0428 52.2519 40.6602C52.065 40.2731 51.9914 39.8555 52.0313 39.4073C52.0704 38.968 52.2183 38.5746 52.4751 38.227C52.7319 37.8794 53.0538 37.6121 53.4409 37.4252C53.828 37.2383 54.2367 37.1639 54.6669 37.2022C55.1107 37.2417 55.5065 37.3876 55.8545 37.6399C56.2029 37.8877 56.4683 38.205 56.6508 38.5916C56.8381 38.9742 56.9118 39.3896 56.872 39.8378C56.8321 40.286 56.686 40.6841 56.4337 41.0321C56.1863 41.3761 55.869 41.6415 55.4819 41.8284C55.0953 42.0109 54.6801 42.0823 54.2364 42.0429ZM54.3595 40.6579C54.5433 40.6743 54.7178 40.6423 54.8831 40.5622C55.0528 40.4824 55.1917 40.3683 55.2998 40.2198C55.4078 40.0713 55.4703 39.9029 55.487 39.7146C55.5038 39.5264 55.472 39.3496 55.3919 39.1844C55.3117 39.0192 55.1951 38.8823 55.0421 38.7738C54.8936 38.6657 54.7275 38.6035 54.5437 38.5872C54.3555 38.5704 54.1787 38.6022 54.0135 38.6823C53.8483 38.7625 53.7094 38.8766 53.5968 39.0247C53.4887 39.1732 53.4263 39.3416 53.4096 39.5299C53.3928 39.7181 53.4245 39.8948 53.5047 40.0601C53.5893 40.2257 53.7059 40.3626 53.8544 40.4707C54.0029 40.5788 54.1713 40.6412 54.3595 40.6579ZM49.0487 36.2959C48.6049 36.2564 48.2089 36.1128 47.8605 35.8649C47.5125 35.6126 47.2448 35.2952 47.0575 34.9126C46.875 34.5259 46.8038 34.1085 46.8436 33.6603C46.8827 33.221 47.0306 32.8276 47.2874 32.48C47.5442 32.1324 47.8662 31.8651 48.2532 31.6782C48.6403 31.4913 49.049 31.417 49.4792 31.4552C49.923 31.4947 50.3166 31.6404 50.6601 31.8923C51.0085 32.1401 51.2762 32.4576 51.4631 32.8447C51.6504 33.2272 51.7241 33.6426 51.6843 34.0908C51.6444 34.5391 51.4983 34.9372 51.246 35.2852C50.9941 35.6287 50.6746 35.8939 50.2875 36.0808C49.9053 36.2637 49.4924 36.3354 49.0487 36.2959ZM49.1719 34.9109C49.3601 34.9277 49.5369 34.896 49.7021 34.8158C49.8673 34.7356 50.004 34.6213 50.1121 34.4728C50.2202 34.3243 50.2826 34.1559 50.2993 33.9677C50.3161 33.7794 50.2843 33.6027 50.2042 33.4374C50.124 33.2722 50.0097 33.1355 49.8612 33.0274C49.7127 32.9193 49.5443 32.8569 49.356 32.8402C49.1678 32.8234 48.9911 32.8552 48.8258 32.9353C48.6606 33.0155 48.5239 33.1298 48.4158 33.2783C48.3077 33.4268 48.2453 33.5952 48.2286 33.7835C48.2118 33.9717 48.2436 34.1485 48.3237 34.3137C48.4039 34.4789 48.5182 34.6156 48.6667 34.7237C48.8152 34.8318 48.9836 34.8942 49.1719 34.9109Z" fill="white"/>
<path d="M64.302 42.9382C63.5759 42.8736 62.9563 42.6536 62.443 42.2782C61.9298 41.9028 61.5486 41.4148 61.2993 40.8144C61.0549 40.2099 60.966 39.5334 61.0326 38.7849C61.1004 38.0229 61.3122 37.3687 61.668 36.8221C62.0238 36.2755 62.4872 35.8649 63.0583 35.5905C63.6293 35.316 64.2711 35.2105 64.9838 35.2739C65.7144 35.3388 66.3363 35.5591 66.8495 35.9345C67.3627 36.3099 67.7438 36.8001 67.9927 37.405C68.2419 38.0054 68.3333 38.6799 68.2667 39.4284C68.1997 40.1814 67.9881 40.8334 67.6319 41.3845C67.2806 41.9315 66.8192 42.3445 66.2477 42.6234C65.6767 42.8979 65.0281 43.0028 64.302 42.9382ZM64.4372 41.4188C65.0826 41.4762 65.5813 41.3037 65.9334 40.9014C66.2854 40.499 66.4917 39.9572 66.5523 39.2759C66.6149 38.5722 66.5056 37.9978 66.2245 37.5526C65.9437 37.103 65.4851 36.8499 64.8486 36.7933C64.4139 36.7546 64.0465 36.8213 63.7466 36.9934C63.4516 37.1614 63.2213 37.4143 63.0557 37.7519C62.8906 38.0851 62.7877 38.4802 62.747 38.9374C62.6844 39.6411 62.7935 40.2177 63.0742 40.6674C63.3599 41.1129 63.8142 41.3634 64.4372 41.4188Z" fill="white"/>
<path d="M74.4472 43.6374L74.7582 40.1413C74.7785 39.9128 74.7854 39.6581 74.7787 39.3774C74.7721 39.0968 74.7218 38.8235 74.628 38.5576C74.5391 38.2877 74.3877 38.0597 74.1739 37.8735C73.9645 37.6877 73.6671 37.5777 73.2817 37.5434C73.0755 37.5251 72.8686 37.5405 72.6609 37.5898C72.4532 37.6391 72.2591 37.7393 72.0785 37.8904C71.9028 38.0374 71.7529 38.2499 71.6287 38.528C71.505 38.8016 71.4234 39.1603 71.384 39.604L70.459 39.1084C70.514 38.4899 70.6827 37.9402 70.9649 37.4593C71.2515 36.9788 71.6411 36.6114 72.1336 36.3571C72.6264 36.0982 73.2135 35.9991 73.8948 36.0597C74.4326 36.1076 74.8684 36.2367 75.202 36.4471C75.5357 36.6574 75.7932 36.9107 75.9747 37.207C76.1561 37.5032 76.2822 37.8126 76.3529 38.1351C76.4236 38.4576 76.4599 38.7613 76.4616 39.046C76.4683 39.3267 76.4638 39.5544 76.4483 39.7292L76.0877 43.7833L74.4472 43.6374ZM69.4116 43.1894L70.0575 35.9285L71.503 36.057L71.3026 38.3093L71.4976 38.3266L71.052 43.3354L69.4116 43.1894Z" fill="white"/>
<path d="M77.9766 43.9513L78.8557 34.0683L80.4759 34.2124L79.5968 44.0954L77.9766 43.9513Z" fill="white"/>
<path d="M82.2784 47.5866L84.0182 43.8721L83.9447 45.004L81.47 36.9436L83.1575 37.0937L84.8911 43.0485L84.4608 43.0102L87.1578 37.4495L88.778 37.5937L83.7978 47.7218L82.2784 47.5866Z" fill="white"/>
<path d="M95.0157 45.6703C94.2896 45.6057 93.67 45.3857 93.1567 45.0102C92.6435 44.6348 92.2623 44.1469 92.013 43.5464C91.7686 42.9419 91.6797 42.2654 91.7463 41.5169C91.8141 40.755 92.0259 40.1007 92.3817 39.5541C92.7375 39.0075 93.2009 38.597 93.772 38.3225C94.343 38.048 94.9848 37.9425 95.6975 38.0059C96.4281 38.0709 97.05 38.2911 97.5632 38.6665C98.0764 39.0419 98.4575 39.5321 98.7064 40.137C98.9556 40.7374 99.047 41.4119 98.9804 42.1604C98.9134 42.9134 98.7018 43.5654 98.3456 44.1165C97.9943 44.6635 97.5329 45.0765 96.9614 45.3554C96.3904 45.6299 95.7418 45.7348 95.0157 45.6703ZM95.1509 44.1508C95.7963 44.2082 96.295 44.0358 96.6471 43.6334C96.9991 43.231 97.2054 42.6892 97.266 42.0079C97.3286 41.3042 97.2193 40.7298 96.9381 40.2847C96.6574 39.835 96.1988 39.5819 95.5623 39.5253C95.1276 39.4866 94.7602 39.5533 94.4603 39.7254C94.1653 39.8935 93.935 40.1463 93.7694 40.4839C93.6043 40.8171 93.5014 41.2122 93.4607 41.6694C93.3981 42.3731 93.5072 42.9498 93.7879 43.3994C94.0736 43.8449 94.5279 44.0954 95.1509 44.1508Z" fill="white"/>
<path d="M105.161 46.3694L105.472 42.8734C105.492 42.6448 105.499 42.3901 105.492 42.1095C105.486 41.8288 105.436 41.5555 105.342 41.2897C105.253 41.0197 105.101 40.7917 104.888 40.6055C104.678 40.4198 104.381 40.3097 103.995 40.2754C103.789 40.2571 103.582 40.2726 103.375 40.3219C103.167 40.3712 102.973 40.4713 102.792 40.6224C102.616 40.7694 102.467 40.982 102.342 41.2601C102.219 41.5337 102.137 41.8923 102.098 42.336L101.173 41.8404C101.228 41.2219 101.396 40.6722 101.679 40.1913C101.965 39.7109 102.355 39.3435 102.847 39.0891C103.34 38.8303 103.927 38.7311 104.608 38.7917C105.146 38.8396 105.582 38.9687 105.916 39.1791C106.249 39.3895 106.507 39.6428 106.688 39.939C106.87 40.2352 106.996 40.5446 107.067 40.8671C107.137 41.1896 107.174 41.4933 107.175 41.778C107.182 42.0587 107.178 42.2865 107.162 42.4613L106.801 46.5153L105.161 46.3694ZM100.125 45.9215L100.771 38.6605L102.217 38.7891L102.016 41.0413L102.211 41.0586L101.766 46.0674L100.125 45.9215Z" fill="white"/>
<path d="M112.928 47.0603L113.632 39.1472L111.718 40.095L111.877 38.3067L113.79 37.379L115.444 37.5261L114.582 47.2074L112.928 47.0603Z" fill="white"/>
<path d="M125.863 48.2109L126.256 43.8005C126.3 43.303 126.211 42.9044 125.989 42.6045C125.768 42.3002 125.447 42.1293 125.025 42.0919C124.765 42.0687 124.527 42.1085 124.31 42.2112C124.093 42.3094 123.914 42.4696 123.773 42.6919C123.631 42.9098 123.546 43.1778 123.518 43.496L122.836 43.0085C122.877 42.5061 123.028 42.0746 123.29 41.7139C123.558 41.3492 123.898 41.0768 124.312 40.8967C124.725 40.7167 125.174 40.6482 125.658 40.6912C126.46 40.7626 127.053 41.0593 127.436 41.5812C127.823 42.0991 127.982 42.7502 127.913 43.5345L127.484 48.355L125.863 48.2109ZM117.13 47.4341L117.776 40.1731L119.208 40.3005L119.008 42.5527L119.209 42.5706L118.764 47.5794L117.13 47.4341ZM121.507 47.8234L121.897 43.4332C121.942 42.9267 121.854 42.5213 121.633 42.217C121.411 41.9127 121.088 41.7416 120.662 41.7037C120.25 41.6671 119.905 41.7788 119.629 42.0388C119.358 42.2992 119.202 42.6558 119.162 43.1085L118.478 42.5598C118.52 42.0892 118.675 41.676 118.941 41.3203C119.208 40.9645 119.548 40.6966 119.961 40.5165C120.38 40.3324 120.835 40.2623 121.328 40.3061C121.871 40.3544 122.313 40.5112 122.655 40.7765C123.003 41.0378 123.248 41.3759 123.392 41.7907C123.541 42.2015 123.593 42.6556 123.549 43.1531L123.12 47.9669L121.507 47.8234Z" fill="white"/>
<path d="M129.506 48.5349L129.654 46.8743L131.315 47.022L131.167 48.6827L129.506 48.5349Z" fill="white"/>
<path d="M135.334 49.2566C134.809 49.2099 134.374 49.0719 134.029 48.8423C133.684 48.6084 133.432 48.3172 133.273 47.9687C133.119 47.6207 133.059 47.2472 133.095 46.8483C133.126 46.4987 133.212 46.1902 133.353 45.9227C133.495 45.6506 133.696 45.4246 133.956 45.2444C134.216 45.0597 134.545 44.9196 134.942 44.8239C135.241 44.7557 135.59 44.7008 135.986 44.6593C136.388 44.6182 136.82 44.5866 137.282 44.5645C137.75 44.5383 138.238 44.5095 138.747 44.478L138.139 44.756C138.189 44.2544 138.109 43.8746 137.902 43.6167C137.695 43.3589 137.32 43.2058 136.777 43.1575C136.45 43.1284 136.127 43.1765 135.809 43.3018C135.491 43.4271 135.254 43.6704 135.1 44.0316L133.663 43.4361C133.896 42.838 134.281 42.3753 134.816 42.048C135.356 41.721 136.053 41.5956 136.909 41.6717C137.555 41.7291 138.113 41.8849 138.582 42.139C139.057 42.3935 139.391 42.7712 139.586 43.2719C139.693 43.5389 139.748 43.8081 139.751 44.0794C139.755 44.3462 139.743 44.6365 139.715 44.9503L139.318 49.4077L137.9 49.2815L138.039 47.7083L138.252 47.9847C137.878 48.48 137.461 48.8314 137 49.0388C136.543 49.2422 135.988 49.3148 135.334 49.2566ZM135.771 47.9944C136.139 48.0271 136.458 47.99 136.73 47.8832C137.001 47.7763 137.222 47.6356 137.391 47.4609C137.564 47.2866 137.685 47.1189 137.754 46.9578C137.857 46.7592 137.925 46.5281 137.958 46.2645C137.995 45.9967 138.021 45.78 138.036 45.6141L138.52 45.8063C138.025 45.839 137.6 45.869 137.245 45.8962C136.89 45.9233 136.585 45.9526 136.329 45.9841C136.074 46.0111 135.847 46.0474 135.649 46.093C135.455 46.1435 135.289 46.2077 135.151 46.2858C135.013 46.3639 134.903 46.458 134.821 46.5682C134.743 46.6787 134.697 46.8124 134.683 46.9693C134.667 47.1486 134.698 47.3117 134.775 47.4586C134.853 47.601 134.973 47.7202 135.136 47.816C135.304 47.9122 135.516 47.9717 135.771 47.9944Z" fill="white"/>
<path d="M144.54 50.0755C143.832 50.0125 143.253 49.7916 142.803 49.4128C142.353 49.034 142.033 48.5447 141.843 47.945C141.652 47.3408 141.589 46.6779 141.654 45.9562C141.719 45.2257 141.898 44.582 142.191 44.0254C142.485 43.4687 142.879 43.0453 143.375 42.7551C143.875 42.4608 144.471 42.3443 145.161 42.4057C145.847 42.4667 146.426 42.6876 146.898 43.0684C147.375 43.4452 147.727 43.935 147.953 44.5379C148.18 45.1363 148.261 45.8031 148.195 46.5381C148.131 47.2642 147.936 47.9042 147.611 48.4581C147.286 49.0119 146.86 49.4348 146.333 49.7267C145.805 50.0186 145.208 50.1349 144.54 50.0755ZM140.768 52.7893L141.701 42.3012L143.133 42.4286L142.68 47.5247L142.881 47.5427L142.402 52.9346L140.768 52.7893ZM144.42 48.6012C144.842 48.6386 145.198 48.5642 145.49 48.3779C145.783 48.1915 146.01 47.9249 146.171 47.5779C146.338 47.2268 146.441 46.8294 146.481 46.3856C146.52 45.9464 146.488 45.5415 146.386 45.171C146.283 44.796 146.1 44.4906 145.837 44.2548C145.574 44.0145 145.225 43.8751 144.79 43.8364C144.378 43.7997 144.032 43.8707 143.754 44.0492C143.477 44.2233 143.26 44.4841 143.102 44.8315C142.95 45.1748 142.852 45.584 142.81 46.0591C142.768 46.5297 142.792 46.9497 142.881 47.319C142.974 47.6888 143.145 47.9862 143.391 48.2114C143.642 48.4326 143.985 48.5625 144.42 48.6012Z" fill="white"/>
<path d="M152.826 50.8125C152.117 50.7495 151.538 50.5286 151.089 50.1498C150.639 49.771 150.319 49.2817 150.128 48.682C149.938 48.0778 149.875 47.4149 149.939 46.6933C150.004 45.9627 150.184 45.3191 150.477 44.7624C150.77 44.2057 151.165 43.7823 151.661 43.4921C152.161 43.1978 152.757 43.0814 153.447 43.1428C154.133 43.2038 154.712 43.4247 155.184 43.8055C155.661 44.1822 156.012 44.672 156.239 45.2749C156.466 45.8733 156.546 46.5401 156.481 47.2752C156.416 48.0013 156.222 48.6412 155.897 49.1951C155.572 49.749 155.146 50.1719 154.618 50.4638C154.091 50.7557 153.493 50.8719 152.826 50.8125ZM149.054 53.5263L149.987 43.0383L151.419 43.1656L150.965 48.2618L151.167 48.2797L150.687 53.6717L149.054 53.5263ZM152.706 49.3382C153.127 49.3757 153.484 49.3012 153.776 49.1149C154.068 48.9286 154.295 48.6619 154.457 48.3149C154.624 47.9638 154.727 47.5664 154.767 47.1227C154.806 46.6834 154.774 46.2785 154.671 45.908C154.569 45.533 154.386 45.2276 154.123 44.9918C153.859 44.7516 153.51 44.6121 153.076 44.5734C152.663 44.5367 152.318 44.6077 152.04 44.7863C151.763 44.9603 151.545 45.2211 151.388 45.5685C151.235 45.9118 151.138 46.321 151.096 46.7961C151.054 47.2667 151.077 47.6867 151.167 48.0561C151.26 48.4258 151.43 48.7233 151.677 48.9485C151.928 49.1696 152.271 49.2995 152.706 49.3382Z" fill="white"/>
</g>
</g>
</g>
<defs>
<filter id="filter0_d_10727_48057" x="-6.09473" y="13.4689" width="183.565" height="57.2345" filterUnits="userSpaceOnUse" color-interpolation-filters="sRGB">
<feFlood flood-opacity="0" result="BackgroundImageFix"/>
<feColorMatrix in="SourceAlpha" type="matrix" values="0 0 0 0 0 0 0 0 0 0 0 0 0 0 0 0 0 0 127 0" result="hardAlpha"/>
<feOffset dy="2.53113"/>
<feGaussianBlur stdDeviation="2.53113"/>
<feComposite in2="hardAlpha" operator="out"/>
<feColorMatrix type="matrix" values="0 0 0 0 0 0 0 0 0 0 0 0 0 0 0 0 0 0 0.07 0"/>
<feBlend mode="normal" in2="BackgroundImageFix" result="effect1_dropShadow_10727_48057"/>
<feBlend mode="normal" in="SourceGraphic" in2="effect1_dropShadow_10727_48057" result="shape"/>
</filter>
<clipPath id="clip0_10727_48057">
<rect x="1.80817" y="16" width="171.273" height="32.061" rx="16.0305" transform="rotate(5.08315 1.80817 16)" fill="white"/>
</clipPath>
<clipPath id="clip1_10727_48057">
<rect width="13.4994" height="13.4994" fill="white" transform="translate(14.4321 26.4404) rotate(5.08315)"/>
</clipPath>
</defs>
</svg>
