<svg width="525" height="180" viewBox="0 0 525 180" fill="none" xmlns="http://www.w3.org/2000/svg">
<path d="M33.6183 117.248C0.881631 156.256 -7.263 208.351 7.94283 252.914C24.5103 308.532 99.1785 370.361 266.715 413.154C369.213 439.346 465.85 422.846 509.341 328.635C551.473 237.316 502.963 131.202 408.09 85.0206C363.573 63.3338 313.079 64.8567 261.169 76.2441C230.648 82.947 199.185 81.9871 169.407 73.6571C121.971 60.3848 68.6046 75.5982 33.6183 117.248Z" fill="#FF8E25" fill-opacity="0.05"/>
<path d="M129.509 149.208C131.956 190.736 152.565 228.038 181.003 248.629C215.321 275.559 280.89 276.785 382.747 218.498C445.068 182.846 484.389 123.022 461.138 40.8827C438.588 -38.7227 364.875 -81.4762 296.84 -62.4338C264.908 -53.5097 241.013 -26.7674 221.082 6.97337C209.367 26.8163 193.577 42.265 175.132 52.1645C145.747 67.9323 126.911 104.851 129.509 149.208Z" fill="#FF8E25" fill-opacity="0.5"/>
</svg>
