<svg width="16" height="16" viewBox="0 0 16 16" fill="none" xmlns="http://www.w3.org/2000/svg">
<rect width="16" height="16" rx="8" transform="matrix(-1 0 0 1 16 0)" fill="#A88845"/>
<path d="M6.44787 13.1444H6.44757C6.41188 13.1444 6.37555 13.1436 6.34019 13.1428L6.33971 13.1428C6.3039 13.142 6.26908 13.1412 6.23519 13.1412V13.1414L6.22995 13.1411C5.59455 13.0966 4.98889 12.8548 4.49755 12.4495C4.00621 12.0441 3.6537 11.4955 3.48926 10.8801C3.32481 10.2647 3.35664 9.61339 3.58029 9.01699C3.80391 8.42066 4.20814 7.90905 4.73655 7.55354C4.73662 7.5535 4.7367 7.55345 4.73677 7.5534L4.7965 7.51253L4.79648 7.5125L4.79833 7.51132C5.49401 7.06455 5.82934 6.84568 6.05252 6.5476C6.2756 6.24966 6.38907 5.8693 6.61642 5.08112L6.61879 5.07294L6.62141 5.06822L6.62141 5.06248L6.62452 5.05202C6.81213 4.42069 7.19756 3.86632 7.72403 3.47059C8.25051 3.07486 8.89017 2.8587 9.54877 2.85396V2.85396H9.54931C9.58705 2.85396 9.62446 2.85603 9.6595 2.85798L9.66045 2.85803C9.69646 2.86003 9.73004 2.86188 9.76327 2.86188V2.86169L9.7686 2.86207C10.4034 2.90727 11.0083 3.14942 11.499 3.55477C11.9897 3.96011 12.3416 4.50846 12.5058 5.12335C12.67 5.73825 12.6382 6.38904 12.4149 6.98503C12.1921 7.57992 11.7894 8.09059 11.2631 8.44615C11.2424 8.46295 11.2206 8.47834 11.1979 8.49222C10.5067 8.93951 10.1714 9.15791 9.94723 9.45587C9.72443 9.752 9.60899 10.13 9.38411 10.9109C9.3843 10.9193 9.38386 10.9277 9.38279 10.9361L9.38377 10.9362L9.38029 10.948C9.19221 11.5804 8.80548 12.1356 8.27734 12.5312C7.74921 12.9268 7.10773 13.1418 6.44787 13.1444ZM10.8041 7.76991L10.8041 7.76988L10.806 7.7686C11.1971 7.51029 11.497 7.13555 11.6634 6.69741C11.8297 6.25926 11.8541 5.7799 11.733 5.32714C11.612 4.87438 11.3516 4.47116 10.9887 4.17453C10.6265 3.87838 10.1804 3.70345 9.71341 3.67439H9.71321H9.71293H9.71265H9.71237H9.71209H9.71181H9.71152H9.71124H9.71096H9.71068H9.7104H9.71012H9.70983H9.70955H9.70927H9.70899H9.7087H9.70842H9.70814H9.70785H9.70757H9.70729H9.707H9.70672H9.70643H9.70615H9.70586H9.70558H9.70529H9.70501H9.70472H9.70444H9.70415H9.70387H9.70358H9.70329H9.70301H9.70272H9.70243H9.70215H9.70186H9.70157H9.70129H9.701H9.70071H9.70042H9.70014H9.69985H9.69956H9.69927H9.69898H9.69869H9.6984H9.69812H9.69783H9.69754H9.69725H9.69696H9.69667H9.69638H9.69609H9.6958H9.69551H9.69522H9.69492H9.69463H9.69434H9.69405H9.69376H9.69347H9.69318H9.69288H9.69259H9.6923H9.69201H9.69172H9.69142H9.69113H9.69084H9.69054H9.69025H9.68996H9.68966H9.68937H9.68908H9.68878H9.68849H9.68819H9.6879H9.6876H9.68731H9.68702H9.68672H9.68642H9.68613H9.68583H9.68554H9.68524H9.68495H9.68465H9.68435H9.68406H9.68376H9.68347H9.68317H9.68287H9.68257H9.68228H9.68198H9.68168H9.68138H9.68109H9.68079H9.68049H9.68019H9.67989H9.6796H9.6793H9.679H9.6787H9.6784H9.6781H9.6778H9.6775H9.6772H9.6769H9.6766H9.6763H9.676H9.6757H9.6754H9.6751H9.6748H9.6745H9.6742H9.6739H9.6736H9.6733H9.673H9.67269H9.67239H9.67209H9.67179H9.67149H9.67119H9.67088H9.67058H9.67028H9.66998H9.66967H9.66937H9.66907H9.66876H9.66846H9.66816H9.66785H9.66755H9.66725H9.66694H9.66664H9.66633H9.66603H9.66573H9.66542H9.66512H9.66481H9.66451H9.6642H9.6639H9.66359H9.66329H9.66298H9.66268H9.66237H9.66206H9.66176H9.66145H9.66115H9.66084H9.66053H9.66023H9.65992H9.65961H9.65931H9.659H9.65869H9.65838H9.65808H9.65777H9.65746H9.65716H9.65685H9.65654H9.65623H9.65592H9.65562H9.65531H9.655H9.65469H9.65438H9.65407H9.65376H9.65346H9.65315H9.65284H9.65253H9.65222H9.65191H9.6516H9.65129H9.65098H9.65067H9.65036H9.65005H9.64974H9.64943H9.64912H9.64881H9.6485H9.64819H9.64788H9.64757H9.64725H9.64694H9.64663H9.64632H9.64601H9.6457H9.64539H9.64507H9.64476H9.64445H9.64414H9.64383H9.64351H9.6432H9.64289H9.64258H9.64227H9.64195H9.64164H9.64133H9.64101H9.6407H9.64039H9.64007H9.63976H9.63945H9.63913H9.63882H9.63851H9.63819H9.63788H9.63757H9.63725H9.63694H9.63662H9.63631H9.63599H9.63568H9.63537H9.63505H9.63474H9.63442H9.63411H9.63379H9.63348H9.63316H9.63285H9.63253H9.63222H9.6319H9.63158H9.63127H9.63095H9.63064H9.63032H9.63001H9.62969H9.62937H9.62906H9.62874H9.62842H9.62811H9.62779H9.62748H9.62716H9.62684H9.62653H9.62621H9.62589H9.62557H9.62526H9.62494H9.62462H9.62431H9.62399H9.62367H9.62335H9.62304H9.62272H9.6224H9.62208H9.62176H9.62145H9.62113H9.62081H9.62049H9.62017H9.61986H9.61954H9.61922H9.6189H9.61858H9.61826H9.61794H9.61762H9.61731H9.61699H9.61667H9.61635H9.61603H9.61571H9.61539H9.61507H9.61475H9.61443H9.61411H9.61379H9.61347H9.61315H9.61283H9.61251H9.6122H9.61188H9.61156H9.61124H9.61091H9.61059H9.61027H9.60995H9.60963H9.60931H9.60899H9.60867H9.60835H9.60803H9.60771H9.60739H9.60707H9.60675H9.60643H9.60611H9.60579H9.60546H9.60514H9.60482H9.6045H9.60418H9.60386H9.60354H9.60322H9.60289H9.60257H9.60225H9.60193H9.60161H9.60129H9.60096H9.60064H9.60032H9.6H9.59968H9.59935H9.59903H9.59871H9.59839H9.59807H9.59774H9.59742H9.5971H9.59678H9.59645H9.59613H9.59581H9.59549H9.59516H9.59484H9.59452H9.5942H9.59387H9.59355H9.59323H9.5929H9.59258H9.59226H9.59194H9.59161H9.59129H9.59097H9.59064H9.59032H9.59H9.58967H9.58935H9.58903H9.5887H9.58838H9.58806H9.58773H9.58741H9.58709H9.58676H9.58644H9.58612H9.58579H9.58547H9.58514H9.58482H9.5845H9.58417H9.58385H9.58353H9.5832H9.58288H9.58255H9.58223H9.58191H9.58158H9.58126H9.58093H9.58061H9.58029H9.57996H9.57964H9.57931H9.57899H9.57866H9.57834H9.57802H9.57769H9.57737H9.57704H9.57672H9.57639H9.57607H9.57575H9.57542H9.5751H9.57477H9.57445H9.57412H9.5738H9.57347H9.57315H9.57282H9.5725H9.57218H9.57185H9.57153H9.5712H9.57088H9.57055H9.57023H9.5699H9.56958H9.56925H9.56893H9.5686H9.56828H9.56795H9.56763H9.5673H9.56698H9.56665H9.56633H9.566H9.56568H9.56535H9.56503H9.5647H9.56438H9.56405H9.56373H9.5634H9.56308H9.56275H9.56243H9.5621H9.56178H9.56145H9.56113H9.5608H9.56048H9.56015H9.55983H9.5595H9.55918H9.55885H9.55853H9.5582H9.55788H9.55755C9.07598 3.67859 8.6085 3.83751 8.22415 4.12771C7.83991 4.41782 7.5591 4.82376 7.42315 5.28563L7.41384 5.31976L7.41385 5.31976L7.41355 5.32081C7.16712 6.17541 7.01061 6.65827 6.71815 7.04788C6.42612 7.43691 6.0021 7.72819 5.2414 8.2146L5.21828 8.23194L5.21836 8.23204L5.21473 8.23445C4.82589 8.49232 4.5276 8.86553 4.36178 9.30164C4.19596 9.73776 4.17093 10.2149 4.29021 10.6659C4.40949 11.117 4.66709 11.5194 5.02681 11.8165C5.38589 12.1131 5.82871 12.29 6.29326 12.3224H6.44899C6.932 12.3213 7.40178 12.1645 7.78858 11.8752C8.17539 11.5859 8.45861 11.1796 8.59618 10.7166L8.59617 10.7166L8.59661 10.7152L8.60738 10.6814C8.85285 9.8274 9.00894 9.34474 9.3011 8.95527C9.59306 8.56606 10.0173 8.2747 10.7786 7.78794L10.8041 7.76991Z" fill="white" stroke="white" stroke-width="0.15"/>
<path d="M9.24696 6.39398C9.14633 6.38543 9.0505 6.34724 8.97157 6.28426C8.91905 6.24235 8.87531 6.19049 8.84287 6.13165C8.81042 6.07281 8.7899 6.00815 8.78248 5.94137C8.77506 5.87459 8.78089 5.807 8.79963 5.74248C8.81837 5.67795 8.84965 5.61776 8.89169 5.56534C8.95487 5.48656 9.03998 5.42827 9.13627 5.39784C9.23256 5.36741 9.33572 5.3662 9.4327 5.39437C9.52968 5.42253 9.61613 5.47881 9.68114 5.55609C9.74615 5.63336 9.7868 5.72817 9.79795 5.82854C9.8091 5.92891 9.79025 6.03033 9.74379 6.11999C9.69733 6.20965 9.62534 6.28354 9.53691 6.3323C9.44848 6.38107 9.34758 6.40253 9.24696 6.39398Z" fill="white" stroke="white" stroke-width="0.15"/>
<path d="M9.46689 4.99727L9.42049 5.0562C9.3676 5.01455 9.32349 4.96283 9.29071 4.90403C9.25794 4.84522 9.23714 4.7805 9.22954 4.71361C9.22193 4.64672 9.22766 4.57899 9.2464 4.51433C9.26513 4.44971 9.29648 4.38944 9.33862 4.33701C9.40161 4.25815 9.48654 4.19972 9.58271 4.16908C9.67892 4.13843 9.78205 4.13697 9.87908 4.1649C9.97612 4.19283 10.0627 4.24889 10.1279 4.32599C10.1931 4.4031 10.234 4.49779 10.2454 4.59812C10.2568 4.69844 10.2382 4.7999 10.192 4.88967C10.1458 4.97945 10.074 5.05351 9.98568 5.1025C9.8974 5.1515 9.79657 5.17324 9.69593 5.16497C9.5953 5.15669 9.49938 5.11878 9.42028 5.05603L9.46689 4.99727ZM9.46689 4.99727C9.42179 4.96176 9.38417 4.91766 9.35622 4.86751C9.32827 4.81737 9.31054 4.76218 9.30406 4.70514C9.29757 4.6481 9.30246 4.59034 9.31844 4.5352C9.33442 4.48006 9.36117 4.42864 9.39715 4.38391C9.4509 4.31658 9.52339 4.26669 9.60548 4.24054C9.68756 4.21439 9.77555 4.21315 9.85834 4.23697C9.94112 4.2608 10.015 4.30863 10.0706 4.37442C10.1262 4.4402 10.1611 4.52099 10.1709 4.60659C10.1806 4.69219 10.1647 4.77875 10.1253 4.85534C10.0859 4.93193 10.0246 4.99512 9.94929 5.03693C9.87396 5.07873 9.78794 5.09728 9.70208 5.09022C9.61622 5.08316 9.53438 5.05082 9.46689 4.99727Z" fill="white" stroke="white" stroke-width="0.15"/>
<path d="M10.6168 6.35051C10.5161 6.34224 10.4202 6.30433 10.3411 6.24158C10.2885 6.1998 10.2446 6.14804 10.2119 6.08927C10.1793 6.0305 10.1586 5.96587 10.151 5.89908C10.1434 5.83229 10.1491 5.76467 10.1677 5.70008C10.1863 5.63548 10.2174 5.57519 10.2594 5.52266C10.3224 5.44375 10.4073 5.38528 10.5035 5.35462C10.5998 5.32397 10.7029 5.32252 10.7999 5.35045C10.897 5.37837 10.9835 5.43443 11.0487 5.51153C11.1139 5.58864 11.1548 5.68334 11.1662 5.78366C11.1776 5.88399 11.159 5.98544 11.1128 6.07522C11.0666 6.16499 10.9948 6.23905 10.9065 6.28805C10.8182 6.33705 10.7174 6.35878 10.6168 6.35051Z" fill="white" stroke="white" stroke-width="0.15"/>
<path d="M2.37835 2.37656L2.37833 2.37654L2.89723 2.42808L2.95021 2.375L2.95029 2.37507C2.95029 2.37508 2.9503 2.37509 2.95031 2.3751L6.75409 6.17094L6.80901 6.22575L6.75237 6.27878C6.62779 6.3954 6.52584 6.53405 6.45166 6.68773L6.45174 6.68777L6.45007 6.69085C6.43117 6.72574 6.41494 6.76253 6.3973 6.80262L6.35314 6.90297L6.27561 6.82545L2.39492 2.94477C2.35672 2.90881 2.32593 2.86571 2.3043 2.81791C2.28248 2.7697 2.27042 2.71765 2.26879 2.66476C2.26716 2.61188 2.27599 2.55919 2.2948 2.50973C2.3136 2.46026 2.342 2.41501 2.37835 2.37656Z" fill="white" stroke="white" stroke-width="0.15"/>
<path d="M9.42832 9.36027V9.3526L9.43488 9.33796C9.45663 9.28944 9.48156 9.24129 9.50794 9.19513C9.52666 9.16237 9.53761 9.14692 9.54533 9.13603C9.54817 9.13202 9.55057 9.12863 9.55277 9.12521L9.60309 9.04694L9.66889 9.11274L13.617 13.0608L13.617 13.0608L13.619 13.0629C13.6897 13.1393 13.7281 13.2401 13.7261 13.3442C13.7242 13.4482 13.6821 13.5475 13.6086 13.6212C13.5351 13.6949 13.436 13.7373 13.332 13.7396C13.2279 13.7419 13.127 13.7039 13.0504 13.6335L13.0504 13.6335L13.048 13.6312L9.31702 9.88117L9.28836 9.85237L9.29684 9.81262C9.32419 9.68446 9.3594 9.5581 9.40226 9.43426C9.40484 9.41184 9.41254 9.39329 9.41812 9.38114C9.42091 9.37507 9.42405 9.3688 9.42644 9.36403C9.42699 9.36293 9.4275 9.36191 9.42796 9.36099C9.42808 9.36075 9.4282 9.36051 9.42832 9.36027Z" fill="white" stroke="white" stroke-width="0.15"/>
</svg>
