<svg width="188" height="266" viewBox="0 0 188 266" fill="none" xmlns="http://www.w3.org/2000/svg">
<g clip-path="url(#clip0_1037_8435)">
<path fill-rule="evenodd" clip-rule="evenodd" d="M159.014 9.12057C140.401 -3.85656 104.406 -1.32853 48.0191 35.3641C37.157 42.4321 28.0113 50.35 20.9499 59.3281C4.52025 77.1582 -2.77891 106.858 4.20359 136.069C12.8549 172.21 40.3967 195.125 68.163 191.075C75.1109 190.204 82.4313 187.876 90.0085 183.936C107.307 174.915 119.726 158.422 130.933 139.1C137.521 127.739 150.433 122.011 160.638 115.728C176.894 105.717 187.539 84.7004 186.462 60.6961C185.473 38.2196 174.454 18.9351 159.014 9.12057Z" fill="#F0FCFA"/>
<path d="M85.599 47.1472H10.6203C6.45373 47.1472 3.41979 50.5447 3.885 54.6904L23.7674 230.792C24.1517 234.128 27.2059 236.858 30.5634 236.858H105.542C109.729 236.858 112.763 233.461 112.277 229.315L92.395 53.2141C92.0107 49.8773 88.9566 47.1472 85.599 47.1472Z" fill="black"/>
<path fill-rule="evenodd" clip-rule="evenodd" d="M13.3713 49.3921L90.4939 49.6752C90.6153 49.6752 93.7301 51.5964 93.7504 51.7177L114.401 232.531C114.422 232.652 114.563 234.27 114.442 234.27L31.7974 234.189C31.676 234.189 28.6825 232.652 28.6623 232.531L9.24512 51.92C10.3373 50.019 13.2499 49.3921 13.3713 49.3921Z" fill="white"/>
<mask id="mask0_1037_8435" style="mask-type:alpha" maskUnits="userSpaceOnUse" x="9" y="49" width="106" height="186">
<path fill-rule="evenodd" clip-rule="evenodd" d="M13.3713 49.3921L90.4939 49.6752C90.6153 49.6752 93.7301 51.5964 93.7504 51.7177L114.401 232.531C114.422 232.652 114.563 234.27 114.442 234.27L31.7974 234.189C31.676 234.189 28.6825 232.652 28.6623 232.531L9.24512 51.92C10.3373 50.019 13.2499 49.3921 13.3713 49.3921Z" fill="white"/>
</mask>
<g mask="url(#mask0_1037_8435)">
<path fill-rule="evenodd" clip-rule="evenodd" d="M159.014 9.12059C140.401 -3.85655 104.406 -1.32851 48.0191 35.3641C37.157 42.4321 28.0113 50.35 20.9499 59.3281C4.52027 77.1582 -2.77888 106.858 4.20361 136.069C12.8549 172.21 40.3967 195.125 68.163 191.075C75.1109 190.204 82.4313 187.876 90.0085 183.936C107.307 174.915 119.726 158.422 130.933 139.1C137.521 127.739 150.433 122.011 160.638 115.728C176.894 105.717 187.539 84.7004 186.462 60.6961C185.473 38.2196 174.454 18.9351 159.014 9.12059Z" fill="#F0FCFA"/>
</g>
<path fill-rule="evenodd" clip-rule="evenodd" d="M19.8438 143.833H97.6541V148.282H19.8438V143.833Z" fill="#F4910F"/>
<path fill-rule="evenodd" clip-rule="evenodd" d="M81.2305 148.241H87.2579L109.183 233.218H105.563L81.2305 148.241Z" fill="#F4910F"/>
<path fill-rule="evenodd" clip-rule="evenodd" d="M81.8771 79.2207L78.2161 97.6236L68.6896 87.1885C67.1091 86.5226 65.7389 85.4406 64.7247 84.0578C63.7105 82.675 63.0903 81.043 62.9301 79.3358C62.77 77.6285 63.0759 75.9097 63.8152 74.3624C64.5546 72.8152 65.6997 71.4973 67.1288 70.5492C68.5578 69.601 70.2173 69.0581 71.9305 68.9781C73.6437 68.8981 75.3465 69.2841 76.8577 70.095C78.3688 70.9059 79.6318 72.1114 80.5122 73.583C81.3925 75.0547 81.8572 76.7375 81.8568 78.4522C81.8568 78.7151 81.8366 78.978 81.8164 79.2409L81.8771 79.2207Z" fill="#D7D0D1"/>
<path fill-rule="evenodd" clip-rule="evenodd" d="M78.2372 85.8521C80.3205 84.1129 81.8577 81.3829 81.8577 78.4708C81.8579 76.1657 81.0181 73.9396 79.4955 72.2088C77.9729 70.478 75.8718 69.3611 73.5852 69.0671V68.9862H72.2503L44.419 68.9255H44.0145C41.913 68.995 39.8943 69.7612 38.2761 71.1034C36.6578 72.4457 35.5319 74.2878 35.0756 76.34C34.6192 78.3921 34.8583 80.5377 35.7552 82.4391C36.6521 84.3405 38.1559 85.8898 40.0299 86.843C35.5599 97.1972 32.3237 110.059 39.9894 112.749C39.9692 115.054 40.0097 117.926 40.0097 118.755C39.9932 118.793 39.9862 118.835 39.9894 118.876C40.0097 119.26 40.8187 119.604 42.2345 119.887C45.6326 118.067 51.5588 117.845 59.4066 117.723C70.6119 117.541 80.4419 119.503 80.4015 118.229C80.3975 118.18 80.3837 118.131 80.361 118.087C80.3974 118.093 80.432 118.107 80.4621 118.128C80.4621 118.128 80.361 115.378 80.2599 112.688C85.6805 109.576 82.4645 101.284 78.2372 85.8521Z" fill="#3ADD92"/>
<path d="M39.9688 112.892C39.9688 111.557 49.0099 110.465 60.1748 110.465C71.3397 110.465 80.3808 111.557 80.3808 112.892" stroke="#113663" stroke-width="0.961657" stroke-linecap="round" stroke-linejoin="round"/>
<path d="M81.1285 96.4308L76.0518 78.21" stroke="#113663" stroke-width="0.961657" stroke-linecap="round" stroke-linejoin="round"/>
<path d="M62.1973 75.6616C62.1973 75.6616 64.2401 92.0422 65.5143 99.1606C67.0313 107.695 65.211 110.526 65.211 110.526L65.3121 116.674" stroke="#113663" stroke-width="0.961657" stroke-linecap="round" stroke-linejoin="round"/>
<path fill-rule="evenodd" clip-rule="evenodd" d="M79.6929 119.283C79.6929 119.283 65.7368 117.624 54.6326 117.624C49.3333 117.624 41.9912 119.303 41.9912 119.303V123.264V123.345C41.9912 125.489 50.4458 127.248 60.8421 127.248C71.2384 127.248 79.6929 125.509 79.6929 123.366V119.283Z" fill="#113663"/>
<path fill-rule="evenodd" clip-rule="evenodd" d="M78.2372 190.871L67.0723 190.649L67.6993 217.687L78.8642 217.606L78.2372 190.871Z" fill="#E8E8E8"/>
<path fill-rule="evenodd" clip-rule="evenodd" d="M84.1224 234.735H76.9826C73.8879 234.735 70.8945 233.117 69.9438 231.317C69.4989 230.468 67.638 229.538 67.0919 229.275C65.0288 228.243 64.503 227.92 64.7052 226.403C65.1907 222.905 68.4066 219.386 68.4066 219.386L85.4978 227.657C85.4978 227.657 88.734 228.203 89.2194 230.791C89.3812 231.803 88.4508 234.735 84.1224 234.735Z" fill="#E8E8E8"/>
<path fill-rule="evenodd" clip-rule="evenodd" d="M89.1582 230.792C89.0976 229.457 87.1559 227.698 85.2546 227.981C82.6454 228.385 79.9553 232.369 78.4788 233.198C75.3235 233.481 72.7952 232.43 70.9344 230.59C70.3883 228.466 69.7208 225.069 68.7702 224.078C68.0016 223.249 66.5655 223.107 66.3633 222.096C66.6464 216.939 67.7184 213.987 67.7184 213.987C67.7184 213.987 69.8624 215.584 71.1164 215.261C71.5614 213.299 70.1254 211.479 75.5662 211.418C79.3283 211.378 79.0856 212.308 79.2676 215.2L84.7894 226.383C84.7691 226.383 89.1785 228.183 89.1582 230.792Z" fill="#0068FF"/>
<path fill-rule="evenodd" clip-rule="evenodd" d="M78.5603 194.148L78.7221 199.385H78.7019C78.5401 200.093 75.8702 200.659 72.6947 200.659C69.5192 200.659 67.0516 200.093 67.1932 199.385C67.1932 199.345 67.2134 199.325 67.2336 199.284L67.0718 194.006C63.1681 191.943 64.0379 187.029 65.0896 179.162L61.2871 126.846C61.2871 126.846 65.7571 122.417 70.6316 121.224C74.8185 120.192 79.693 123.286 79.693 123.286C79.693 123.286 79.2885 154.935 79.0457 169.273C78.9648 173.601 78.8435 180.173 80.138 182.802C81.9583 186.562 83.0708 191.963 78.5603 194.148Z" fill="#113663"/>
<path d="M72.7559 217.323C72.7559 217.323 77.1045 215.523 80.1182 216.716" stroke="#3ADD92" stroke-width="0.961657" stroke-linecap="round" stroke-linejoin="round"/>
<path d="M73.7666 219.851C73.7666 219.851 78.1152 218.051 81.129 219.244" stroke="#3ADD92" stroke-width="0.961657" stroke-linecap="round" stroke-linejoin="round"/>
<path d="M74.9805 222.278C74.9805 222.278 79.3291 220.478 82.3428 221.671" stroke="#3ADD92" stroke-width="0.961657" stroke-linecap="round" stroke-linejoin="round"/>
<path d="M75.8906 120.981C75.8906 120.981 75.8502 125.713 79.4707 130.142" stroke="#EFEB5E" stroke-width="0.961657" stroke-linecap="round" stroke-linejoin="round"/>
<path d="M70.1055 200.538C70.1055 200.538 70.1055 196.939 70.0651 194.835C67.2334 193.137 67.5166 187.757 68.1234 179.163L66.1816 126.846" stroke="#EFEB5E" stroke-width="0.961657" stroke-linecap="round" stroke-linejoin="round"/>
<path opacity="0.5" fill-rule="evenodd" clip-rule="evenodd" d="M67.0723 194.006C68.4679 194.754 70.4905 195.118 73.3424 195.118C75.5875 195.118 77.3067 194.754 78.5608 194.148L78.7226 199.385H78.5001C75.3246 196.918 68.1645 195.219 67.0925 194.977L67.0723 194.006Z" fill="black"/>
<path opacity="0.5" fill-rule="evenodd" clip-rule="evenodd" d="M61.7928 133.78L61.2871 127.248L68.7101 124.922C68.7101 124.922 66.0807 130.949 62.0557 133.598C62.0153 133.64 61.8332 133.742 61.7928 133.78Z" fill="black"/>
<path d="M78.7223 202.824C78.5402 203.531 75.8704 204.098 72.6948 204.098C69.5193 204.098 67.0517 203.531 67.1933 202.824C67.1933 202.783 67.2135 202.763 67.2338 202.722" stroke="#0068FF" stroke-width="0.961657" stroke-miterlimit="10"/>
<path d="M78.7223 205.048C78.5402 205.756 75.8704 206.322 72.6948 206.322C69.5193 206.322 67.0517 205.756 67.1933 205.048C67.1933 205.007 67.2135 204.987 67.2338 204.947" stroke="#0068FF" stroke-width="0.961657" stroke-miterlimit="10"/>
<path fill-rule="evenodd" clip-rule="evenodd" d="M26.9225 216.474L25.001 198.637L26.3359 193.804L37.4806 193.561L31.1295 216.492L26.9225 216.474Z" fill="#E8E8E8"/>
<path fill-rule="evenodd" clip-rule="evenodd" d="M61.3676 126.805C61.3676 126.805 49.1307 161.081 43.3662 177.26C41.202 183.367 43.0628 185.733 42.8808 189.454C42.7797 193.499 41.3638 195.116 36.9545 195.662L35.9432 199.242C35.9432 199.282 35.9634 199.303 35.9634 199.343C35.923 200.051 33.3138 200.617 30.1383 200.617C26.9627 200.617 24.4345 200.051 24.4547 199.343H24.4345L25.7289 194.712C22.695 193.054 23.3827 190.081 23.7468 188.362C23.821 187.982 23.9293 187.61 24.0704 187.25L41.9908 123.264C63.3497 118.251 61.3676 126.805 61.3676 126.805Z" fill="#113663"/>
<path opacity="0.5" fill-rule="evenodd" clip-rule="evenodd" d="M37.0358 195.705L35.984 199.466C35.984 199.466 30.2398 196.898 25.5068 195.846L25.8102 194.754C27.1654 195.482 29.2689 195.968 32.4647 195.947C33.9917 195.952 35.5178 195.871 37.0358 195.705Z" fill="black"/>
<path fill-rule="evenodd" clip-rule="evenodd" d="M28.3994 230.225L27.2061 219.042C27.8128 219.527 35.6606 223.269 33.8403 229.052C33.1121 229.637 30.8265 229.882 28.3994 230.225Z" fill="#E8E8E8"/>
<path fill-rule="evenodd" clip-rule="evenodd" d="M27.8931 225.534L26.8818 216.13C28.682 214.816 31.6957 214.512 31.6957 214.512C31.6957 214.512 34.588 220.013 32.7677 223.956C32.3834 224.138 30.3405 224.581 27.8931 225.534Z" fill="#0068FF"/>
<path d="M35.013 202.925C35.013 202.965 35.0332 202.985 35.0332 203.026C34.9927 203.733 32.3835 204.3 29.208 204.3C28.153 204.301 27.0989 204.234 26.0527 204.097" stroke="#0068FF" stroke-width="0.961657" stroke-miterlimit="10"/>
<path d="M34.4065 205.149C34.4065 205.189 34.4267 205.21 34.4267 205.25C34.3863 205.958 31.7771 206.524 28.6016 206.524C27.5465 206.526 26.4925 206.458 25.4463 206.322" stroke="#0068FF" stroke-width="0.961657" stroke-miterlimit="10"/>
<path d="M51.963 118.208C51.963 118.208 50.5674 126.338 42.7803 130.12" stroke="#EFEB5E" stroke-width="0.961657" stroke-linecap="round" stroke-linejoin="round"/>
<path d="M26.2148 179.729L44.4994 124.015C44.594 123.713 44.6484 123.4 44.6612 123.084C44.6814 121.729 44.7219 118.817 44.7219 118.817" stroke="#EFEB5E" stroke-width="0.961657" stroke-linecap="round" stroke-linejoin="round"/>
<path fill-rule="evenodd" clip-rule="evenodd" d="M50.3649 143.226C50.5089 143.226 50.6497 143.269 50.7694 143.349C50.8891 143.429 50.9825 143.543 51.0376 143.676C51.0927 143.809 51.1071 143.955 51.079 144.096C51.0509 144.238 50.9816 144.367 50.8797 144.469C50.7779 144.571 50.6482 144.64 50.5069 144.668C50.3657 144.696 50.2193 144.682 50.0862 144.627C49.9532 144.572 49.8395 144.479 49.7594 144.359C49.6794 144.239 49.6367 144.098 49.6367 143.954C49.6365 143.859 49.6551 143.764 49.6916 143.675C49.7281 143.587 49.7817 143.507 49.8494 143.439C49.9171 143.371 49.9974 143.318 50.0859 143.281C50.1744 143.245 50.2692 143.226 50.3649 143.226Z" fill="#EFEB5E"/>
<path fill-rule="evenodd" clip-rule="evenodd" d="M54.6129 137.584C54.7569 137.584 54.8977 137.627 55.0174 137.707C55.1372 137.787 55.2305 137.901 55.2856 138.034C55.3407 138.167 55.3552 138.313 55.3271 138.454C55.299 138.596 55.2296 138.725 55.1278 138.827C55.026 138.929 54.8962 138.998 54.755 139.026C54.6137 139.054 54.4673 139.04 54.3343 138.985C54.2012 138.93 54.0875 138.836 54.0075 138.717C53.9275 138.597 53.8848 138.456 53.8848 138.312C53.8845 138.217 53.9032 138.122 53.9397 138.033C53.9762 137.945 54.0298 137.865 54.0975 137.797C54.1651 137.729 54.2455 137.676 54.3339 137.639C54.4224 137.603 54.5172 137.584 54.6129 137.584Z" fill="#EFEB5E"/>
<path d="M59.79 120.395C59.79 120.395 59.8911 122.761 56.129 128.201C50.4657 136.411 55.9672 140.071 55.9672 140.071" stroke="#EFEB5E" stroke-width="0.961657" stroke-linecap="round" stroke-linejoin="round"/>
<path d="M65.9595 120.395C65.9595 120.395 64.8269 124.156 55.6846 131.274C46.8255 138.17 51.1944 146.32 51.1944 146.32" stroke="#EFEB5E" stroke-width="0.961657" stroke-linecap="round" stroke-linejoin="round"/>
<path fill-rule="evenodd" clip-rule="evenodd" d="M41.9912 120.375C48.6456 115.4 79.6929 122.619 79.6929 122.619V118.494C79.3086 117.402 70.6923 116.633 60.5791 116.795C50.466 116.957 42.2339 117.968 41.9912 119.08V120.375Z" fill="#EFEB5E"/>
<path d="M89.2201 51.5558C90.3325 51.5558 91.5057 52.6074 91.627 53.7197L111.509 229.821C111.561 230.158 111.539 230.503 111.445 230.831C111.351 231.159 111.186 231.463 110.963 231.722C110.73 231.969 110.448 232.163 110.134 232.292C109.82 232.421 109.482 232.482 109.143 232.47H34.1643C33.0518 232.47 31.8787 231.418 31.7574 230.306L11.875 54.205C11.8232 53.8675 11.8452 53.5228 11.9394 53.1946C12.0337 52.8665 12.198 52.5626 12.4211 52.3041C12.654 52.0573 12.9368 51.863 13.2507 51.734C13.5645 51.6049 13.9023 51.5442 14.2414 51.5558H89.2201ZM89.2201 47.1472H14.2414C10.0748 47.1472 7.04089 50.5447 7.50609 54.6904L27.3885 230.792C27.7728 234.128 30.827 236.858 34.1845 236.858H109.143C113.33 236.858 116.364 233.461 115.878 229.315L95.9959 53.2141C95.6318 49.8773 92.5777 47.1472 89.2201 47.1472Z" fill="#113663"/>
<path fill-rule="evenodd" clip-rule="evenodd" d="M27.5498 47.855H75.7287L75.8905 52.8298C75.904 53.3146 75.8205 53.7972 75.6448 54.2492C75.4692 54.7013 75.2049 55.1136 74.8677 55.4622C74.5304 55.8107 74.1269 56.0883 73.6808 56.2787C73.2347 56.4692 72.7551 56.5686 72.27 56.5711H34.6694C34.0351 56.5714 33.4117 56.4054 32.8616 56.0896C32.3115 55.7737 31.8539 55.3192 31.5344 54.7712L27.5498 47.855Z" fill="#113663"/>
<path fill-rule="evenodd" clip-rule="evenodd" d="M87.5002 112.487C87.4597 112.508 87.4395 112.528 87.399 112.548C86.6304 113.741 86.0034 114.105 84.4662 114.105C83.8392 114.105 82.7065 114.287 82.1604 114.045C74.8588 113.782 70.5708 102.133 81.3109 96.3293L80.3603 92.77C91.5859 96.5315 95.3682 107.169 87.5002 112.487Z" fill="#3ADD92"/>
<path d="M82.4034 113.862C77.7918 113.862 74.4343 109.858 74.8995 104.924C75.3647 99.9895 79.5111 95.9854 84.1227 95.9854" stroke="#113663" stroke-width="0.961657" stroke-linecap="round" stroke-linejoin="round"/>
<path fill-rule="evenodd" clip-rule="evenodd" d="M83.9198 102.113C86.7111 102.113 88.2887 105.147 88.2887 108.544C88.2887 111.942 86.7111 114.429 83.9198 114.429C81.1286 114.429 78.8633 111.679 78.8633 108.281C78.8633 104.884 81.1286 102.113 83.9198 102.113Z" fill="#C1673D"/>
<path fill-rule="evenodd" clip-rule="evenodd" d="M100.789 112.386C100.655 112.6 100.447 112.757 100.204 112.827C99.9623 112.898 99.7026 112.878 99.4743 112.77L99.4541 112.75C98.3012 112.184 97.0876 111.638 95.874 111.153C94.6605 110.667 93.4267 110.222 92.1929 109.858C91.7074 109.717 91.222 109.595 90.7568 109.474L91.1006 109.636C91.404 109.777 91.7277 109.939 92.0311 110.101C93.2742 110.741 94.4355 111.529 95.4897 112.447C96.0234 112.91 96.5236 113.41 96.9865 113.943C97.2182 114.214 97.4343 114.498 97.6337 114.793C97.7348 114.934 97.836 115.096 97.9371 115.258C97.9776 115.339 98.0382 115.42 98.0787 115.501C98.1191 115.581 98.1596 115.662 98.2405 115.784C98.3562 116.023 98.3744 116.298 98.2915 116.551C98.2085 116.804 98.0307 117.014 97.7955 117.139C97.5794 117.245 97.3323 117.271 97.0986 117.212C96.865 117.153 96.6602 117.012 96.5213 116.815L96.4404 116.714L96.3392 116.572C96.2988 116.512 96.2583 116.471 96.2179 116.411L95.9549 116.087C95.7685 115.863 95.5656 115.654 95.3481 115.46C94.9244 115.05 94.4715 114.672 93.993 114.328C93.0239 113.626 91.9706 113.048 90.8579 112.609L91.2827 112.872L91.9704 113.316L92.6378 113.822C92.8603 114.024 93.0828 114.186 93.2851 114.408C93.7683 114.854 94.1599 115.39 94.438 115.986C94.5136 116.169 94.5745 116.359 94.62 116.552C94.6636 116.765 94.6773 116.983 94.6605 117.199C94.6544 117.428 94.6065 117.655 94.5189 117.867C94.4784 117.968 94.4177 118.089 94.3773 118.19C94.3024 118.32 94.2143 118.442 94.1144 118.554C93.932 118.753 93.6782 118.87 93.4089 118.882C93.1396 118.893 92.8768 118.797 92.6783 118.615C92.4798 118.432 92.3619 118.179 92.3505 117.909C92.3392 117.64 92.4352 117.377 92.6176 117.179L92.5569 117.24V117.219C92.5583 117.208 92.5571 117.197 92.5536 117.187C92.5501 117.176 92.5444 117.167 92.5367 117.159C92.5316 117.128 92.5175 117.1 92.4963 117.078C92.4558 117.037 92.4558 116.997 92.4153 116.936C92.2058 116.661 91.9531 116.422 91.667 116.229C91.5052 116.107 91.3231 116.006 91.1411 115.885L90.5545 115.581L89.9477 115.298L89.2803 114.995C89.1589 114.954 89.0578 114.894 88.9364 114.853C89.0338 114.953 89.1219 115.061 89.1994 115.177C89.305 115.296 89.3997 115.425 89.4825 115.561C89.5634 115.703 89.6646 115.865 89.7455 116.006C89.8217 116.178 89.8892 116.353 89.9477 116.532C90.0057 116.729 90.033 116.933 90.0287 117.139C90.0366 117.544 89.9315 117.943 89.7253 118.291C89.5448 118.581 89.3115 118.835 89.0376 119.04C88.9222 119.139 88.7927 119.221 88.6533 119.282C88.5104 119.361 88.3616 119.429 88.2083 119.484C87.9661 119.569 87.701 119.56 87.4652 119.459C87.2294 119.358 87.0399 119.172 86.934 118.938C86.8589 118.783 86.8285 118.61 86.8464 118.439C86.8642 118.267 86.9296 118.104 87.0352 117.968L87.3386 117.604C87.3886 117.574 87.4359 117.54 87.4802 117.503C87.5408 117.462 87.5813 117.422 87.642 117.381C87.7229 117.3 87.8038 117.199 87.8038 117.139C87.8038 117.078 87.824 117.058 87.8038 117.037C87.7938 117.018 87.787 116.998 87.7835 116.977C87.7589 116.946 87.7385 116.912 87.7229 116.876C87.5257 116.616 87.2944 116.385 87.0352 116.188C86.7116 115.918 86.3677 115.656 86.0036 115.399C85.3159 114.914 83.2933 113.984 82.4236 113.519C82.4034 113.519 82.3831 113.498 82.3629 113.478C80.583 112.71 79.3087 110.647 79.3087 108.22C79.2778 106.619 79.8813 105.071 80.9875 103.913C81.2388 103.623 81.5241 103.365 81.837 103.144C82.3142 102.813 82.8222 102.529 83.354 102.295C83.8394 102.072 84.3248 101.911 84.7901 101.749C85.0328 101.668 85.2553 101.607 85.498 101.526L85.8621 101.425L86.0441 101.385C86.0845 101.365 86.0845 101.385 86.125 101.365H86.2059L86.307 101.324C86.3677 101.304 86.4486 101.284 86.5497 101.243C86.7115 101.183 86.8936 101.082 87.0756 101.001C87.4397 100.819 87.8038 100.616 88.1881 100.414C88.9364 99.9895 89.6848 99.5244 90.3927 99.0391L90.413 99.0188C90.6159 98.8554 90.8741 98.7766 91.1337 98.7989C91.3934 98.8211 91.6344 98.9427 91.8065 99.1383C91.9787 99.3339 92.0687 99.5884 92.0577 99.8487C92.0468 100.109 91.9358 100.355 91.7479 100.536C91.1411 101.223 90.5343 101.89 89.8871 102.558C89.5634 102.881 89.2196 103.225 88.8555 103.549C88.6684 103.72 88.4726 103.882 88.269 104.034C88.2083 104.075 88.1678 104.115 88.1072 104.155C87.9251 104.519 87.7026 105.43 89.523 106.077C90.0489 106.218 90.5748 106.36 91.1209 106.522C91.7883 106.744 92.4558 106.966 93.103 107.229C94.3975 107.735 95.6515 108.321 96.8651 108.928C98.0787 109.535 99.272 110.202 100.465 110.93C100.692 111.088 100.85 111.326 100.91 111.595C100.97 111.865 100.927 112.147 100.789 112.386Z" fill="#E5936D"/>
<path d="M88.4303 103.994C87.601 105.066 87.0954 108.14 84.5469 108.18" stroke="#C1673D" stroke-width="0.961657" stroke-linecap="round" stroke-linejoin="round"/>
<path d="M91.1407 108.906C91.1407 108.906 91.2621 112.89 87.5 114.488" stroke="#C1673D" stroke-width="0.961657" stroke-linecap="round" stroke-linejoin="round"/>
<path fill-rule="evenodd" clip-rule="evenodd" d="M57.7475 63.4045C63.6536 63.809 68.4472 64.7392 68.4472 65.4875C68.4472 66.2357 62.3996 70.1994 56.4935 69.6938C48.5648 69.0063 47.0479 64.7797 47.0479 64.0314C47.0479 63.2832 51.8415 63.0001 57.7475 63.4045Z" fill="#3ADD92"/>
<path fill-rule="evenodd" clip-rule="evenodd" d="M62.197 76.1268C61.9341 73.4574 57.5854 70.5655 54.3694 68.7859C54.0256 68.6241 53.702 68.4421 53.3783 68.3006C48.6859 65.894 48.5645 64.9233 49.1106 64.62C50.2231 63.9931 52.8727 63.8111 57.5247 64.1347C62.1768 64.4582 65.3118 65.348 65.8377 65.6109C68.8717 67.1479 65.5141 68.7253 64.8264 69.7768C63.5795 71.7205 62.6891 73.8708 62.197 76.1268Z" fill="#113663"/>
<path fill-rule="evenodd" clip-rule="evenodd" d="M54.5723 69.5339H65.6765V73.6999L62.1976 76.1064L56.4128 74.2863L54.5723 69.5339Z" fill="#EFEB5E"/>
<path fill-rule="evenodd" clip-rule="evenodd" d="M53.621 69.8759C53.6412 70.7455 56.2706 71.696 59.4866 72.0195C62.7026 72.3431 65.2916 71.9184 65.2511 71.0488C65.2484 70.9461 65.2129 70.8469 65.15 70.7657H65.2309L63.188 57.3984L53.803 57.2366L53.6615 69.6534C53.6302 69.7232 53.6163 69.7996 53.621 69.8759Z" fill="#E5936D"/>
<path fill-rule="evenodd" clip-rule="evenodd" d="M64.9879 69.1498C64.8666 69.1296 64.7654 69.0892 64.6441 69.069C56.2502 66.9455 56.7761 59.7866 56.7761 59.7866L63.7946 61.3236L64.9879 69.1498Z" fill="#C1673D"/>
<path fill-rule="evenodd" clip-rule="evenodd" d="M65.3323 63.6069C64.7658 64.1493 64.0577 64.5208 63.2894 64.6787C62.5252 64.8479 61.73 64.813 60.9836 64.5776C58.8801 63.89 55.9271 62.2318 54.3899 58.1467C51.3762 59.077 49.1917 54.5268 51.0323 53.3134C52.165 52.5652 53.6819 53.3741 54.491 54.2235C54.5444 54.2791 54.5918 54.3401 54.6326 54.4055C54.6124 51.9383 51.8414 49.3498 53.237 47.9544C60.7004 40.6135 65.8986 46.2152 67.011 47.287C67.4358 48.8846 67.5774 50.5631 68.0021 53.0708C68.8921 58.2701 67.1526 61.9102 65.3323 63.6069Z" fill="#E5936D"/>
<path d="M64.0579 58.6338C64.0579 58.6338 61.9746 58.9573 60.6396 57.5215" stroke="#C1673D" stroke-width="0.961657" stroke-linecap="round" stroke-linejoin="round"/>
<path d="M64.3213 50.3424C64.5033 49.8166 66.3641 49.4121 67.4766 50.5446" stroke="#113663" stroke-width="0.961657" stroke-linecap="round" stroke-linejoin="round"/>
<path d="M57.2416 51.1917C57.1809 51.4343 58.3135 49.1896 61.7318 50.0187" stroke="#113663" stroke-width="0.961657" stroke-linecap="round" stroke-linejoin="round"/>
<path d="M63.7543 51.8774C63.7543 51.8774 63.7341 52.929 64.6443 54.6682C65.4736 56.2456 64.4622 57.0343 62.6621 56.5287" stroke="#113663" stroke-width="0.961657" stroke-linecap="round" stroke-linejoin="round"/>
<path d="M52.3473 54.7512C52.3473 54.7512 51.6394 56.7331 53.7834 56.9353" stroke="#C1673D" stroke-width="0.961657" stroke-linecap="round" stroke-linejoin="round"/>
<path d="M54.2077 55.5601L51.5176 54.1021" stroke="#C1673D" stroke-width="0.961657" stroke-linecap="round" stroke-linejoin="round"/>
<path fill-rule="evenodd" clip-rule="evenodd" d="M59.6082 51.6569C59.9116 51.6367 60.1948 52.0614 60.215 52.5872C60.2352 53.113 59.9925 53.5377 59.6891 53.5579C59.3857 53.5781 59.1026 53.1534 59.0823 52.6276C59.0621 52.1018 59.2846 51.6569 59.6082 51.6569Z" fill="#113663"/>
<path fill-rule="evenodd" clip-rule="evenodd" d="M65.8581 51.4731C66.1615 51.4529 66.4447 51.8776 66.4649 52.4034C66.4851 52.9292 66.2424 53.3538 65.939 53.3741C65.6356 53.3943 65.3525 52.9696 65.3322 52.4438C65.312 51.918 65.5547 51.4731 65.8581 51.4731Z" fill="#113663"/>
<path fill-rule="evenodd" clip-rule="evenodd" d="M69.6407 43.6689C69.3374 44.8216 68.5283 46.0148 67.6383 46.8439C68.7103 48.3606 67.7395 51.2727 67.7395 51.2727L66.8697 47.4708C66.8697 47.4708 64.5033 49.4931 59.0624 47.3899C55.7655 46.1159 54.6531 48.0573 54.916 51.3132C55.0576 52.931 55.0374 55.924 55.0374 55.924C54.4104 54.0635 53.1968 53.3557 51.9428 53.113C51.4574 52.567 51.1944 51.7581 50.0415 48.664C48.8279 45.4283 50.5269 45.2868 50.5269 45.2868C50.2338 44.7229 50.068 44.1016 50.0415 43.4667C50.0011 39.8266 57.0802 40.3524 57.0802 40.3524C57.0802 40.3524 60.6603 36.9751 63.8763 37.2987C67.335 37.6627 67.8002 39.0985 67.8002 39.0985L66.5664 40.6355C66.5866 40.6557 67.3552 41.9095 69.6407 43.6689Z" fill="#F4910F"/>
<path fill-rule="evenodd" clip-rule="evenodd" d="M67.6383 46.8639C68.7103 48.3806 67.7395 51.2927 67.7395 51.2927L66.8697 47.4908C66.8697 47.4908 64.5033 49.5131 59.0624 47.4099C55.7655 46.1359 54.6531 48.0773 54.916 51.3331C55.0576 52.951 55.0374 55.944 55.0374 55.944C54.4104 54.0835 53.1968 53.3757 51.9428 53.133C51.4574 52.587 51.1944 51.7781 50.0415 48.6839C48.8279 45.4483 50.5269 45.3067 50.5269 45.3067C50.2338 44.7429 50.068 44.1216 50.0415 43.4866C50.042 43.1396 50.1108 42.7961 50.2438 42.4755C51.0933 41.525 52.7721 40.5948 55.5228 42.4957C59.8715 45.4887 63.9976 48.7648 67.9822 46.055C68.1546 45.9268 68.3562 45.8434 68.5688 45.8123C68.2855 46.1857 67.9744 46.5372 67.6383 46.8639Z" fill="#9B5800"/>
<path fill-rule="evenodd" clip-rule="evenodd" d="M62.1973 76.1267C62.1973 76.1267 42.3554 73.2349 43.8319 69.7363H43.751L47.0276 64.0334L48.1198 65.7524L51.2347 67.1276C51.2549 67.0871 61.7726 71.8799 62.1973 76.1267C62.6804 74.0525 63.4858 72.0667 64.584 70.2419L67.0921 65.6917L68.5281 65.5097L70.2878 70.6666H70.2271C70.308 73.3137 62.1973 76.1267 62.1973 76.1267Z" fill="#3ADD92"/>
<path d="M69.6814 69.0669C69.6814 69.0669 69.5195 70.4623 67.416 72.8486" stroke="#113663" stroke-width="0.961657" stroke-linecap="round" stroke-linejoin="round"/>
<path d="M44.1553 68.8647C46.6289 68.7563 49.0748 69.4207 51.1535 70.7656" stroke="#113663" stroke-width="0.961657" stroke-linecap="round" stroke-linejoin="round"/>
<path fill-rule="evenodd" clip-rule="evenodd" d="M45.2875 87.836L36.7925 100.94C36.1167 102.933 34.6957 104.587 32.8272 105.556C30.9587 106.525 28.7878 106.733 26.7692 106.137C24.7507 105.541 23.0412 104.187 21.9989 102.359C20.9566 100.53 20.6623 98.3699 21.1779 96.3296C21.1779 96.2891 21.1981 96.2689 21.1981 96.2285C21.3195 95.5207 21.8858 93.2355 24.8793 88.3618C29.1066 81.486 36.7925 72.5272 36.7925 72.5272L36.833 72.5677C37.7973 71.3305 39.0533 70.3518 40.4887 69.719C41.9241 69.0862 43.494 68.8191 45.0579 68.9416C46.6218 69.0641 48.131 69.5724 49.4502 70.421C50.7695 71.2696 51.8578 72.432 52.6176 73.8042C53.3774 75.1764 53.7851 76.7156 53.8042 78.2839C53.8232 79.8522 53.4531 81.4008 52.7268 82.7911C52.0006 84.1813 50.9409 85.3698 49.6426 86.2502C48.3444 87.1307 46.848 87.6755 45.2875 87.836Z" fill="#3ADD92"/>
<path d="M47.6344 84.2766L36.7324 101.019" stroke="#113663" stroke-width="0.961657" stroke-linecap="round" stroke-linejoin="round"/>
<path fill-rule="evenodd" clip-rule="evenodd" d="M43.6901 114.712C31.5543 116.229 21.2794 105.814 21.0164 99.6054C20.8521 98.5212 20.9001 97.4154 21.158 96.3495C21.5491 94.7875 22.3942 93.3764 23.5868 92.2943C24.7794 91.2122 26.2659 90.5077 27.8587 90.2697C29.4515 90.0317 31.0791 90.2709 32.536 90.957C33.9929 91.6432 35.2138 92.7456 36.0445 94.125C37.5008 94.1857 38.9571 94.2464 40.1302 94.3273C43.8114 94.5295 47.7758 95.8035 48.9084 100.859C50.0411 105.915 49.1511 114.024 43.6901 114.712Z" fill="#3ADD92"/>
<path d="M31.7158 93.8823C33.9003 94.0846 35.9836 94.0643 40.1502 94.3272C44.1347 94.5699 47.5934 95.8035 49.0295 100.758C50.1217 104.52 49.2317 111.719 43.8313 114.348" stroke="#113663" stroke-width="0.961657" stroke-linecap="round" stroke-linejoin="round"/>
<path d="M48.9291 100.657C48.9291 100.657 46.2996 100.111 44.277 99.8076C42.8409 99.4436 41.2229 101.891 40.6767 105.268C40.1711 108.382 40.7981 110.971 41.951 111.86C42.0521 111.921 46.1985 112.609 46.7851 112.73" stroke="#113663" stroke-width="0.961657" stroke-linecap="round" stroke-linejoin="round"/>
<path fill-rule="evenodd" clip-rule="evenodd" d="M48.4437 100.334C50.345 100.172 51.6799 102.781 51.4169 106.178C51.154 109.576 49.3741 112.548 47.4728 112.73C45.5716 112.912 44.2569 110.203 44.5198 106.805C44.7827 103.408 46.5222 100.496 48.4437 100.334Z" fill="#113663"/>
<path fill-rule="evenodd" clip-rule="evenodd" d="M67.2337 115.58C67.1749 115.685 67.0917 115.776 66.9909 115.843C67.3348 116.328 66.6471 116.935 63.1277 117.238C62.3591 117.258 61.6917 117.278 61.0849 117.299C60.559 117.379 59.9927 117.46 59.3859 117.541C56.534 117.966 54.9563 118.229 53.6416 116.328C52.8124 115.155 51.7606 113.658 50.992 112.101L50.9718 112.162C50.9718 112.162 48.2817 111.899 47.7558 112V111.96C46.1175 112.041 45.005 109.695 45.2275 106.742C45.4702 103.749 47.0074 101.201 48.6862 101.06C48.8972 101.039 49.1102 101.059 49.3132 101.12L52.4281 102.172C54.0866 100.938 55.9879 102.05 56.9992 101.727C57.8082 101.444 58.3948 101.242 59.0218 100.837C59.3336 100.637 59.6249 100.407 59.8915 100.15C60.0331 100.028 60.1545 99.8866 60.2961 99.7451C60.3567 99.6642 60.4174 99.6035 60.4781 99.5226C60.5388 99.4417 60.5995 99.3608 60.6197 99.3406L60.9433 99.0575C61.0287 98.9814 61.1296 98.9247 61.239 98.8913C61.3485 98.8579 61.4638 98.8485 61.5772 98.8639C61.6906 98.8792 61.7993 98.919 61.8959 98.9803C61.9924 99.0417 62.0746 99.1232 62.1366 99.2193C62.2194 99.3544 62.2698 99.5069 62.2838 99.6648C62.2979 99.8227 62.2752 99.9816 62.2176 100.129C62.1569 100.311 62.1164 100.412 62.0557 100.554C61.9951 100.696 61.9546 100.817 61.8939 100.938C61.7726 101.181 61.6512 101.424 61.5096 101.666C61.2367 102.136 60.9256 102.582 60.5792 103.001C60.2382 103.419 59.859 103.805 59.4466 104.154L59.1432 104.417L58.86 104.639C58.7638 104.72 58.6625 104.794 58.5566 104.861C58.3948 105.064 56.7565 106.034 58.8195 108.522L58.8802 108.582C59.3454 109.007 59.8309 109.432 60.3163 109.836C61.3074 110.645 62.3794 111.414 63.4716 112.142C64.5638 112.87 65.6965 113.557 66.8089 114.184L66.8291 114.204C67.0506 114.327 67.217 114.53 67.2943 114.771C67.7595 115.096 67.8 115.377 67.2337 115.58Z" fill="#E5936D"/>
<path d="M59.9115 117.644C59.0302 117.478 58.1738 117.199 57.3631 116.815C56.3922 116.37 55.4213 115.905 54.4707 115.4" stroke="#C1673D" stroke-width="0.961657" stroke-linecap="round" stroke-linejoin="round"/>
<path d="M67.1116 115.844C67.1318 116.431 66.4441 116.613 66.161 116.613C65.6188 116.7 65.0668 116.707 64.5227 116.633C62.1402 116.263 59.8196 115.568 57.6255 114.568L54.9961 113.092" stroke="#C1673D" stroke-width="0.961657" stroke-linecap="round" stroke-linejoin="round"/>
<path d="M67.0312 114.227C68.0021 115.076 67.1121 116.33 66.2019 115.865C65.1502 115.319 64.2804 115.076 62.723 114.368C62.723 114.368 59.4261 112.75 55.6641 110.425" stroke="#C1673D" stroke-width="0.961657" stroke-linecap="round" stroke-linejoin="round"/>
<path fill-rule="evenodd" clip-rule="evenodd" d="M135.517 91.535L142.859 84.6592L143.223 92.9101H134.789L135.517 91.535Z" fill="#E8E8E8"/>
<path fill-rule="evenodd" clip-rule="evenodd" d="M141.443 96.5906H155.399V119.078H141.443V96.5906Z" fill="#00183A"/>
<path fill-rule="evenodd" clip-rule="evenodd" d="M143.891 101.586C144.012 102.617 144.133 103.669 144.234 104.7C144.639 108.907 148.866 109.655 148.866 109.655C148.866 109.655 151.273 108.543 157.725 108.259C164.784 107.956 169.618 108.987 171.722 109.453C177.951 108.623 177.951 102.577 176.313 95.8021C178.297 94.4697 179.707 92.4406 180.265 90.1171C180.822 87.7937 180.486 85.3457 179.322 83.2587C178.159 81.1716 176.253 79.5979 173.984 78.8497C171.714 78.1015 169.247 78.2334 167.07 79.2193L152.305 81.0393C151.86 80.9787 146.014 82.5156 145.589 82.6976C141.463 84.3559 147.612 88.7241 144.962 90.1194C140.816 92.2833 139.441 100.797 143.891 101.586Z" fill="#E8E8E8"/>
<path fill-rule="evenodd" clip-rule="evenodd" d="M159.282 125.792C170.427 125.792 179.468 127.613 179.468 129.857C179.468 132.102 170.427 133.922 159.282 133.922C148.138 133.922 139.097 132.102 139.097 129.857C139.097 127.613 148.118 125.792 159.282 125.792Z" fill="#693030"/>
<path fill-rule="evenodd" clip-rule="evenodd" d="M135.861 219.323C138.895 220.658 140.978 222.498 140.533 223.408C140.088 224.319 137.277 223.975 134.243 222.64C131.209 221.305 128.62 219.283 129.065 218.373C129.51 217.463 132.847 217.969 135.861 219.323Z" fill="black"/>
<path fill-rule="evenodd" clip-rule="evenodd" d="M115.735 222.114L129.894 221.346L133.716 212.165L140.735 221.791C140.735 221.791 139.319 229.738 138.146 231.215C136.973 232.691 115.735 222.114 115.735 222.114Z" fill="#B65052"/>
<path fill-rule="evenodd" clip-rule="evenodd" d="M139.623 227.109C138.956 222.64 133.171 219.242 131.229 218.211L131.472 217.645C133.818 217.018 135.72 216.836 137.216 216.957L140.756 221.811C140.736 221.79 140.25 224.541 139.623 227.109Z" fill="#882527"/>
<path fill-rule="evenodd" clip-rule="evenodd" d="M129.064 218.353C129.57 217.402 133.029 218.049 135.86 219.303C138.652 220.537 140.634 222.195 140.573 223.146C140.576 223.187 140.569 223.229 140.553 223.267C139.966 224.905 143.728 219.222 149.412 192.751C154.428 169.373 158.575 140.312 158.575 140.312C158.575 140.312 164.036 123.083 160.011 116.935C152.83 105.994 142.717 115.256 140.634 128.745C139.056 138.958 139.906 153.296 137.013 178.17C136.386 183.59 131.835 194.611 129.873 203.287C128.114 211.052 128.66 216.391 129.064 218.353ZM140.492 223.489C140.491 223.517 140.484 223.545 140.472 223.57C140.489 223.531 140.503 223.491 140.512 223.449C140.501 223.46 140.494 223.474 140.492 223.489Z" fill="#113663"/>
<path d="M154.469 132.203C154.469 132.203 146.581 188.625 136.791 219.748" stroke="#0068FF" stroke-width="0.961657" stroke-linecap="round" stroke-linejoin="round"/>
<path fill-rule="evenodd" clip-rule="evenodd" d="M107.24 220.678C107.24 220.678 108.959 219.89 112.175 220.173C113.51 220.294 122.693 221.649 122.693 221.649C122.693 221.649 133.919 225.188 137.256 227.109C139.238 228.262 139.056 229.293 139.056 229.293L138.328 233.601C138.328 233.601 120.347 227.008 115.675 224.763C110.962 222.519 107.24 220.678 107.24 220.678Z" fill="#0068FF"/>
<path fill-rule="evenodd" clip-rule="evenodd" d="M109.871 220.678C110.922 220.86 115.008 221.427 121.642 225.107C128.519 228.929 134.486 231.336 135.942 231.983C137.904 232.873 140.372 235.34 134.547 233.662C127.184 231.538 113.572 225.795 110.194 223.833C107.484 222.256 105.623 219.95 109.871 220.678Z" fill="#113663"/>
<path opacity="0.5" fill-rule="evenodd" clip-rule="evenodd" d="M158.575 140.333C158.575 140.333 157.928 144.863 156.836 151.779C149.797 142.011 154.894 129.332 154.894 129.332L158.757 139.767C158.656 140.131 158.575 140.333 158.575 140.333Z" fill="black"/>
<path fill-rule="evenodd" clip-rule="evenodd" d="M177.567 231.821L176.698 231.842C175.585 229.759 173.563 225.977 171.378 222.216C167.191 220.942 166.847 216.675 164.481 222.297C162.964 225.876 163.672 226.887 164.056 227.433C164.319 227.817 164.117 228.889 163.834 230.608C163.47 232.833 163.49 233.662 164.178 234.552C165.33 236.068 167.818 236.978 172.794 236.796C176.232 236.675 177.223 235.077 177.547 233.763C177.587 233.611 177.608 233.455 177.608 233.298V231.821H177.567Z" fill="#113663"/>
<path fill-rule="evenodd" clip-rule="evenodd" d="M172.774 235.117C167.798 235.299 165.31 234.389 164.157 232.873C163.47 231.983 163.429 231.154 163.813 228.929C164.097 227.21 164.299 226.118 164.036 225.754C163.672 225.228 163.106 224.359 164.602 220.759C166.969 215.137 167.171 219.263 171.358 220.537C174.614 226.138 177.547 231.821 177.547 231.821C177.304 233.196 176.435 234.996 172.774 235.117Z" fill="#0068FF"/>
<path fill-rule="evenodd" clip-rule="evenodd" d="M163.915 212.832C163.834 213.843 165.654 222.802 165.735 223.853C166.038 228.808 167.475 231.275 174.736 229.88C176.516 229.536 172.612 219.485 173.34 211.275C173.805 204.561 174.999 188.018 174.999 188.018C174.999 188.018 165.796 184.965 163.915 212.832Z" fill="#B65052"/>
<path fill-rule="evenodd" clip-rule="evenodd" d="M165.452 222.134C165.189 220.658 164.785 218.535 164.461 216.674C166.302 216.189 171.014 215.056 173.32 215.784C173.401 217.079 173.563 218.353 173.745 219.586C173.725 219.631 173.698 219.672 173.664 219.708C173.684 219.708 168.223 219.546 165.452 222.134Z" fill="#882527"/>
<path fill-rule="evenodd" clip-rule="evenodd" d="M178.033 201.588C178.883 214.753 173.907 219.101 173.907 219.101L173.442 219.202C169.963 220.618 164.745 219.263 164.745 219.263C164.745 219.263 161.954 217.544 161.63 214.349C161.023 208.444 163.936 205.228 163.895 198.453C163.875 192.751 163.471 183.145 162.237 171.415C160.234 152.487 153.479 122.314 153.479 122.314C153.479 122.314 153.317 114.771 160.76 112.85C168.831 110.767 181.29 110.039 178.236 148.907C176.456 171.84 177.932 199.808 178.033 201.588Z" fill="#113663"/>
<path d="M166.929 112.263C171.743 115.782 175.586 126.804 174.959 148.907C174.311 171.84 177.183 199.808 177.406 201.588C178.923 214.753 173.705 219.142 173.705 219.142" stroke="#0068FF" stroke-width="0.961657" stroke-linecap="round" stroke-linejoin="round"/>
<path fill-rule="evenodd" clip-rule="evenodd" d="M148.26 113.659C146.844 115.236 145.853 116.53 145.104 118.067C150.242 124.458 172.187 124.013 175.565 120.555C174.109 117.825 172.814 115.681 171.864 114.164V108.259C171.864 107.248 166.666 108.138 160.254 108.138C153.842 108.138 148.644 108.967 148.644 109.978C148.645 110.034 148.659 110.09 148.685 110.14L148.26 113.659Z" fill="#113663"/>
<path d="M157.079 106.763L155.056 129.858C155.056 129.858 150.586 125.247 153.519 112.243" stroke="#0068FF" stroke-width="0.961657" stroke-linecap="round" stroke-linejoin="round"/>
<path d="M171.601 113.901C171.601 112.89 166.402 112.061 159.991 112.061C153.579 112.061 148.381 112.89 148.381 113.901" stroke="#0068FF" stroke-width="0.961657" stroke-linecap="round" stroke-linejoin="round"/>
<path d="M149.635 112.87C149.635 112.87 148.401 119.26 142.232 123.285" stroke="#0068FF" stroke-width="0.961657" stroke-linecap="round" stroke-linejoin="round"/>
<path d="M162.398 112.021C162.398 112.021 161.144 121.808 173.178 124.903" stroke="#0068FF" stroke-width="0.961657" stroke-linecap="round" stroke-linejoin="round"/>
<path fill-rule="evenodd" clip-rule="evenodd" d="M164.522 80.9379C164.016 81.9895 161.448 83.0411 158.272 83.4455C154.631 83.8904 151.557 83.304 151.395 82.1108C151.334 81.5648 151.901 80.9784 152.872 80.4728L154.469 69.2693H162.904L165.452 80.9177L164.522 80.9379Z" fill="#B65052"/>
<path fill-rule="evenodd" clip-rule="evenodd" d="M154.247 70.9478L153.235 78.0865C155.905 77.136 160.456 73.5363 162.054 69.4917C161.937 69.4103 161.816 69.336 161.69 69.2693H154.51L154.368 70.2804C154.391 70.5099 154.349 70.741 154.247 70.9478Z" fill="#882527"/>
<path fill-rule="evenodd" clip-rule="evenodd" d="M178.579 96.8735C178.726 97.6127 178.801 98.3645 178.801 99.1183C178.66 101.889 178.842 104.558 179.59 106.702C181.653 112.546 184.283 117.541 184.081 120.271C183.737 124.822 179.873 126.278 179.348 126.46C179.044 124.134 170.124 122.172 159.182 122.071C151.274 118.876 155.177 95.9028 157.645 84.5578C158.474 80.7558 160.335 78.5718 160.335 78.5718C160.335 78.5718 169.76 79.0369 175.727 80.3312C180.157 80.5132 183.716 84.2949 183.716 88.9461C183.676 92.5054 181.572 95.5793 178.579 96.8735ZM147.35 122.779C142.334 123.507 139.077 124.761 139.077 126.197C135.902 125.792 132.665 124.397 133.252 117.198C133.454 114.73 139.906 104.154 142.576 95.7613C141.309 94.1701 140.624 92.1935 140.635 90.1595C140.635 85.7307 143.749 82.1108 147.754 81.6052C149.251 81.039 151.092 80.3312 153.013 79.7245C153.013 79.7245 152.346 88.0765 146.783 104.235C142.576 116.409 147.35 122.779 147.35 122.779Z" fill="#0068FF"/>
<path fill-rule="evenodd" clip-rule="evenodd" d="M139.158 129.878C139.32 128.644 142.374 127.592 147.006 126.925L147.208 122.617C142.414 123.325 139.259 124.518 139.097 125.873H139.077L139.158 129.878ZM158.535 126.217H159.222C169.154 126.298 177.426 127.754 179.085 129.635H179.469L179.368 126.339H179.348C179.166 123.993 170.185 122.011 159.162 121.91H158.454L158.535 126.217Z" fill="#3ADD92"/>
<path fill-rule="evenodd" clip-rule="evenodd" d="M106.728 95.0215H140.562C140.643 95.0213 140.723 95.0382 140.797 95.0711C140.871 95.1041 140.938 95.1523 140.992 95.2127C141.046 95.273 141.086 95.3441 141.111 95.4213C141.136 95.4985 141.144 95.58 141.134 95.6605L139.28 112.272C139.167 113.287 138.683 114.225 137.922 114.906C137.161 115.587 136.175 115.964 135.154 115.964H112.905C111.915 115.964 110.959 115.61 110.207 114.968C109.455 114.325 108.957 113.435 108.803 112.458L106.159 95.6868C106.146 95.6047 106.152 95.5208 106.174 95.4408C106.197 95.3608 106.236 95.2867 106.29 95.2235C106.344 95.1603 106.411 95.1095 106.487 95.0747C106.562 95.0398 106.644 95.0217 106.728 95.0215Z" fill="#113663"/>
<path fill-rule="evenodd" clip-rule="evenodd" d="M114.442 107.622C114.771 109.923 111.93 112.047 108.981 113.185L108.354 109.189C110.854 107.543 114.017 104.659 114.442 107.622ZM110.178 99.2639C110.394 100.787 109.167 102.095 107.48 103.106L106.873 98.9221C108.505 97.8705 109.901 97.3387 110.178 99.2639Z" fill="black"/>
<path fill-rule="evenodd" clip-rule="evenodd" d="M113.03 109.03C109.138 108.975 108.355 109.066 108.42 109.099C108.45 109.155 108.479 109.214 108.507 109.271L108.418 109.222L108.986 113.186C108.485 113.159 108.007 112.969 107.623 112.646C107.53 112.562 107.453 112.462 107.397 112.35L107.37 112.314C106.855 111.471 106.437 110.571 106.126 109.633C106.088 109.495 106.05 109.378 106.009 109.24C105.964 109.07 105.932 108.897 105.914 108.723C105.861 108.197 105.971 107.668 106.23 107.208C106.326 107.031 106.447 106.869 106.59 106.727C106.555 106.629 106.503 106.555 106.468 106.458L106.317 106.112L106.284 106.035C106.249 105.961 106.224 105.882 106.211 105.8C106.161 105.617 106.14 105.426 106.151 105.236C106.156 105.11 106.172 104.985 106.199 104.862C105.929 104.496 105.695 104.106 105.499 103.695C105.441 103.562 105.38 103.426 105.319 103.291C105.303 103.246 105.29 103.2 105.279 103.153C105.252 103.083 105.235 103.009 105.228 102.935C105.201 102.775 105.184 102.613 105.178 102.451C105.19 102.115 105.283 101.787 105.451 101.495C105.481 101.428 105.532 101.359 105.564 101.293C105.303 101.136 105.113 100.885 105.034 100.591L105.02 100.492C104.943 100.153 104.92 99.8042 104.953 99.4584C104.969 99.344 104.994 99.231 105.028 99.1207C105.059 98.9942 105.103 98.8715 105.16 98.7546C105.273 98.5003 105.425 98.265 105.611 98.0569C105.905 97.7623 106.266 97.5425 106.662 97.4159C106.926 97.3405 107.198 97.2951 107.471 97.2804C107.899 97.2577 108.328 97.2855 108.75 97.3633C109.144 97.4291 109.534 97.5231 109.915 97.6444C110.491 97.8284 110.77 98.4836 110.536 99.1287C110.451 99.4137 110.265 99.6578 110.013 99.8147C109.761 99.9716 109.459 100.03 109.166 99.9801L109.124 99.966C108.849 99.9033 108.517 99.8487 108.222 99.8082C107.976 99.7883 107.73 99.7829 107.484 99.7921C107.51 99.9975 107.484 100.206 107.407 100.399C107.529 100.417 107.65 100.448 107.767 100.49L108.374 100.751C109.943 101.444 111.533 102.116 113.135 102.745C113.697 102.969 113.918 103.653 113.661 104.282C113.573 104.496 113.434 104.685 113.256 104.832C113.81 104.997 114.383 105.139 114.955 105.283C115.528 105.426 115.845 106.073 115.631 106.718C115.553 106.978 115.397 107.208 115.182 107.374C114.968 107.54 114.706 107.635 114.435 107.645C114.447 107.728 114.439 107.814 114.411 107.893C114.302 108.563 113.719 109.056 113.121 109.018C113.072 109.044 113.05 109.028 113.03 109.03ZM107.12 99.8871H107.099C107.043 99.9195 107.063 99.9154 107.12 99.8871Z" fill="#B65052"/>
<path d="M106.109 104.773C105.881 104.434 105.673 104.081 105.488 103.717C105.427 103.584 105.366 103.448 105.308 103.313C105.29 103.268 105.277 103.222 105.267 103.175C105.24 103.106 105.222 103.033 105.215 102.959C105.188 102.799 105.172 102.637 105.166 102.476C105.177 102.139 105.27 101.81 105.437 101.517C105.594 101.242 105.8 100.997 106.044 100.795C106.277 100.61 106.553 100.487 106.846 100.438C107.139 100.389 107.44 100.415 107.721 100.514L108.327 100.775C109.899 101.468 111.487 102.14 113.089 102.767C113.653 102.993 113.873 103.677 113.617 104.306C113.529 104.515 113.395 104.702 113.224 104.852" stroke="#882527" stroke-width="0.961657" stroke-linecap="round" stroke-linejoin="round"/>
<path d="M106.472 106.477L106.318 106.132L106.288 106.055C106.253 105.98 106.228 105.901 106.213 105.82C106.164 105.636 106.143 105.446 106.153 105.256C106.167 104.877 106.286 104.509 106.497 104.194C106.708 103.878 107.003 103.628 107.348 103.47C107.666 103.33 108.022 103.301 108.359 103.387L108.699 103.48L109.939 103.854L112.437 104.601C113.268 104.847 114.098 105.076 114.945 105.282C115.517 105.424 115.835 106.073 115.621 106.718C115.543 106.978 115.386 107.207 115.172 107.373C114.957 107.54 114.696 107.634 114.425 107.644" stroke="#882527" stroke-width="0.961657" stroke-linecap="round" stroke-linejoin="round"/>
<path d="M106.109 109.655C106.068 109.517 106.032 109.4 105.991 109.262C105.945 109.093 105.913 108.92 105.896 108.745C105.839 108.228 105.944 107.706 106.198 107.252C106.452 106.798 106.841 106.434 107.312 106.213C107.531 106.116 107.764 106.056 108.002 106.033C108.119 106.027 108.236 106.031 108.352 106.045L108.518 106.061C110.164 106.296 111.829 106.506 113.483 106.635C114.08 106.672 114.494 107.242 114.381 107.917C114.338 108.229 114.184 108.514 113.947 108.721C113.711 108.927 113.407 109.041 113.093 109.042C113.072 109.042 113.03 109.03 113.01 109.042C109.118 108.985 108.358 109.016 108.358 109.016" stroke="#882527" stroke-width="0.961657" stroke-linecap="round" stroke-linejoin="round"/>
<path fill-rule="evenodd" clip-rule="evenodd" d="M179.226 81.3222C178.101 80.7619 176.862 80.4711 175.605 80.4729C168.182 80.4729 166.867 87.6722 161.629 90.4428C157.058 92.8695 155.44 88.0969 157.543 80.8166C159.04 75.6194 162.66 67.1055 162.66 67.1055C162.66 67.1055 153.336 73.0713 154.61 73.1724L153.073 80.0077C153.073 80.0077 148.482 79.8257 146.803 72.3028C146.257 69.8558 146.439 67.2673 146.945 64.3956C146.237 67.8335 145.994 71.0692 146.661 74.0015C147.652 78.4101 149.938 81.0391 151.799 81.8885C148.947 88.2789 138.126 84.5579 148.178 59.1377C149.392 56.1447 151.192 53.5764 153.518 52.0799C157.017 49.8351 162.701 48.5004 165.573 51.3721C167.333 53.1113 165.917 63.9507 165.917 63.9507L179.226 81.3222Z" fill="#113663"/>
<path fill-rule="evenodd" clip-rule="evenodd" d="M167.778 61.7465L166.463 64.6182C166.443 64.6586 166.443 64.6789 166.422 64.7193L165.371 63.0004C165.735 60.7961 164.299 57.7424 161.487 55.3359C157.907 52.262 153.559 51.4126 151.779 53.4551C151.307 54.0186 151.037 54.723 151.01 55.4572L149.554 54.9314C149.574 53.9203 149.857 53.0507 150.464 52.3631C151.027 51.7493 151.771 51.3313 152.588 51.17C152.73 50.788 152.935 50.4326 153.194 50.1184C154.368 48.7836 156.532 48.5612 158.898 49.3297L165.593 48.0354C165.593 48.0354 169.193 51.0284 167.616 57.2975C168.324 58.9962 168.405 60.5736 167.778 61.7465Z" fill="#EFEB5E"/>
<path fill-rule="evenodd" clip-rule="evenodd" d="M167.697 57.2368C167.575 56.8122 167.13 55.6999 165.816 54.2034C164.838 52.9951 163.686 51.9387 162.397 51.0688C164.016 51.3317 166.24 51.4935 168 53.0507C168.147 54.453 168.044 55.8703 167.697 57.2368Z" fill="#B9B527"/>
<path fill-rule="evenodd" clip-rule="evenodd" d="M166.16 66.7214C165.695 67.3483 164.42 68.2583 163.227 67.6719C163.209 67.7451 163.195 67.8194 163.186 67.8943C162.135 70.5637 157.22 74.5274 153.741 74.4061C151.01 74.3252 148.037 70.4626 148.563 64.6587C148.725 62.7779 149.776 58.1267 149.999 57.0548C150.12 56.8526 150.181 56.7313 150.181 56.7313C150.181 56.7313 152.77 55.8212 156.795 56.8526L157.645 53.7585C157.584 54.0618 157.483 54.9517 158.272 56.2459C158.777 57.0953 159.91 57.8638 160.759 58.3491C161.063 58.5109 161.386 58.6727 161.69 58.8547C161.746 58.8765 161.8 58.9036 161.852 58.9356L161.771 58.8951C161.791 58.8951 161.791 58.9153 161.811 58.9153C161.326 60.5736 161.73 63.061 162.802 64.1126C162.843 64.052 163.045 63.8497 162.964 63.9509C163.834 63.1015 165.371 62.8184 166.241 63.4251C167.292 64.1733 166.969 65.6496 166.16 66.7214ZM157.645 53.7383C157.654 53.6966 157.668 53.656 157.685 53.6169L157.645 53.7383Z" fill="#B65052"/>
<path d="M156.916 67.3279C156.916 67.3279 155.197 69.9973 152.284 68.8042" stroke="#7E1925" stroke-width="0.961657" stroke-linecap="round" stroke-linejoin="round"/>
<path fill-rule="evenodd" clip-rule="evenodd" d="M152.224 68.6626C152.268 68.5414 152.343 68.4342 152.443 68.3523C152.543 68.2705 152.662 68.217 152.79 68.1975C153.031 68.1635 153.277 68.2212 153.478 68.3592C153.478 68.3592 154.388 66.7212 156.087 68.157C155.844 68.7233 153.215 69.694 152.224 68.6626Z" fill="#7E1925"/>
<path fill-rule="evenodd" clip-rule="evenodd" d="M157.625 61.8477C157.321 61.8274 157.038 62.2319 157.018 62.7375C156.998 63.243 157.22 63.6879 157.544 63.7284C157.867 63.7688 158.13 63.3441 158.151 62.8386C158.171 62.2926 157.948 61.8679 157.625 61.8477Z" fill="#113663"/>
<path fill-rule="evenodd" clip-rule="evenodd" d="M150.991 61.3623C150.687 61.3421 150.404 61.7465 150.384 62.2521C150.364 62.7577 150.586 63.2026 150.91 63.243C151.234 63.2835 151.497 62.8588 151.517 62.3532C151.537 61.8476 151.315 61.3825 150.991 61.3623Z" fill="#113663"/>
<path d="M152.791 60.0072C152.791 60.0072 151.132 58.8747 149.817 59.9263" stroke="#113663" stroke-width="0.961657" stroke-linecap="round" stroke-linejoin="round"/>
<path d="M151.172 61.605L150.06 60.9983" stroke="#113663" stroke-width="0.961657" stroke-linecap="round" stroke-linejoin="round"/>
<path d="M157.746 61.989L156.411 61.5037" stroke="#113663" stroke-width="0.961657" stroke-linecap="round" stroke-linejoin="round"/>
<path d="M160.315 60.9174C160.375 61.1601 158.312 58.43 155.218 60.2298" stroke="#113663" stroke-width="0.961657" stroke-linecap="round" stroke-linejoin="round"/>
<path d="M153.479 61.8677C153.565 62.3594 153.527 62.865 153.368 63.3384C153.209 63.8117 152.934 64.2377 152.568 64.5775C151.314 65.7909 151.901 67.4896 153.701 67.065" stroke="#113663" stroke-width="0.961657" stroke-linecap="round" stroke-linejoin="round"/>
<path d="M163.49 66.6808C164.36 67.0044 165.533 65.7506 164.421 64.5776" stroke="black" stroke-width="0.961657" stroke-linecap="round" stroke-linejoin="round"/>
<path d="M163.005 65.3868L165.25 63.9915" stroke="black" stroke-width="0.961657" stroke-linecap="round" stroke-linejoin="round"/>
<path fill-rule="evenodd" clip-rule="evenodd" d="M148.462 56.5087C148.462 56.5087 149.898 56.5491 152.001 55.5987C154.105 54.6482 156.026 52.4641 156.026 52.4641C156.026 52.4641 147.875 50.2598 148.462 56.5087Z" fill="#113663"/>
<path fill-rule="evenodd" clip-rule="evenodd" d="M150.909 50.9878L156.188 53.3539C156.168 53.3539 153.276 46.6803 150.909 50.9878Z" fill="#113663"/>
<path fill-rule="evenodd" clip-rule="evenodd" d="M182.583 108.34L182.523 108.643C182.379 109.305 182.148 109.944 181.835 110.544C181.714 110.807 181.592 111.05 181.471 111.272C181.395 111.371 181.314 111.465 181.228 111.555C180.592 112.455 179.779 113.216 178.84 113.792C177.901 114.369 176.854 114.749 175.764 114.91C174.673 115.07 173.562 115.008 172.496 114.727C171.431 114.446 170.433 113.952 169.564 113.275C168.694 112.597 167.972 111.75 167.439 110.786C166.906 109.821 166.575 108.758 166.465 107.662C166.354 106.566 166.468 105.458 166.798 104.407C167.128 103.355 167.668 102.382 168.385 101.545C168.931 99.3407 169.315 95.923 168.708 89.8157C168.602 89.317 168.548 88.8087 168.546 88.2989C168.549 86.5566 169.197 84.877 170.366 83.585C171.535 82.2929 173.142 81.4802 174.876 81.3041C176.609 81.128 178.347 81.601 179.752 82.6316C181.157 83.6621 182.13 85.1771 182.482 86.8833C182.482 86.8833 182.503 86.9642 182.523 87.1058C182.553 87.2798 182.573 87.4553 182.583 87.6316C182.968 90.6448 184.222 101.747 182.583 108.34Z" fill="#E8E8E8"/>
<path fill-rule="evenodd" clip-rule="evenodd" d="M182.523 108.643C176.132 112.991 168.891 108.744 168.345 101.626C168.365 101.606 168.385 101.565 168.405 101.545C168.79 100.008 169.093 97.8443 169.032 94.6086C169.72 93.0515 170.994 91.7774 173.482 90.8067C177.264 89.3304 181.633 90.5236 183.15 92.9099C183.514 97.5612 183.696 103.952 182.604 108.34C182.564 108.441 182.604 108.603 182.523 108.643Z" fill="#0068FF"/>
<path fill-rule="evenodd" clip-rule="evenodd" d="M182.523 108.643C182.226 109.987 181.593 111.232 180.683 112.263C180.683 112.269 180.68 112.274 180.677 112.278C180.673 112.281 180.668 112.284 180.662 112.284C175.12 119.766 157.079 119.503 153.114 112.243C152.504 111.121 152.152 109.878 152.083 108.603L151.779 108.482L152.103 107.288C152.243 105.905 152.605 104.553 153.175 103.284L154.773 97.359L156.795 98.0871L157.079 97.8039C160.78 94.2447 164.623 95.5794 167.657 97.6219C168.547 98.2084 169.619 98.9566 170.711 99.7251C172.083 98.9811 173.64 98.6476 175.196 98.7644C176.752 98.8811 178.242 99.4432 179.488 100.384C180.733 101.324 181.682 102.603 182.22 104.067C182.758 105.532 182.863 107.121 182.523 108.643Z" fill="#E8E8E8"/>
<path d="M154.773 97.3591C154.773 97.3591 157.139 98.0669 158.899 98.7141C160.214 99.0579 160.618 101.869 159.809 105.003C159.061 107.895 157.564 109.837 156.29 110.059C156.188 110.079 152.507 108.785 151.981 108.623" stroke="#113663" stroke-width="0.961657" stroke-linecap="round" stroke-linejoin="round"/>
<path fill-rule="evenodd" clip-rule="evenodd" d="M150.808 102.293C151.617 99.1791 153.316 96.9344 154.611 97.2782C155.905 97.622 156.31 100.413 155.521 103.507C154.732 106.601 153.013 108.866 151.718 108.522C150.424 108.178 150.019 105.408 150.808 102.293Z" fill="#113663"/>
<path fill-rule="evenodd" clip-rule="evenodd" d="M146.925 96.8537L154.004 98.0468C154.085 98.0435 154.167 98.0503 154.247 98.0671C155.319 98.3704 155.663 100.757 154.975 103.426C154.287 106.096 152.831 108.017 151.718 107.713C151.603 107.693 151.497 107.636 151.415 107.552L147.815 105.651V105.59C146.439 106.156 144.72 105.509 143.122 104.478V104.64L142.859 104.316C141.614 103.438 140.449 102.45 139.38 101.363L137.338 101.323L133.029 101.242C132.736 101.231 132.459 101.106 132.256 100.895C132.052 100.684 131.938 100.403 131.937 100.11C131.938 99.8559 132.031 99.6113 132.2 99.422L130.845 99.604C130.553 99.6432 130.257 99.5653 130.022 99.3872C129.787 99.2091 129.632 98.9454 129.591 98.6535C129.566 98.4426 129.601 98.229 129.69 98.0363C129.779 97.8436 129.92 97.6793 130.097 97.5615L129.975 97.5817C129.683 97.6209 129.387 97.543 129.152 97.3649C128.917 97.1868 128.762 96.9231 128.721 96.6312C128.688 96.3574 128.756 96.0808 128.912 95.8536C129.069 95.6264 129.303 95.4642 129.571 95.3976L133.757 94.4067L135.861 93.9011L136.266 93.8L134.708 93.4765L130.501 92.6069C130.22 92.5522 129.971 92.3905 129.806 92.1559C129.642 91.9213 129.575 91.632 129.619 91.349C129.664 91.066 129.816 90.8112 130.045 90.6385C130.274 90.4657 130.56 90.3884 130.845 90.4228L135.133 90.8879L137.277 91.1306L137.823 91.1913C138.09 91.2327 138.354 91.2935 138.612 91.3733L146.925 96.8537Z" fill="#B65052"/>
<path d="M132.221 99.4216L130.845 99.6036C130.553 99.6428 130.257 99.5648 130.022 99.3868C129.787 99.2087 129.632 98.945 129.591 98.6531C129.558 98.3793 129.626 98.1027 129.782 97.8755C129.939 97.6483 130.173 97.4861 130.441 97.4195L134.628 96.4286L136.731 95.923L137.277 95.8017C137.867 95.7177 138.462 95.6637 139.057 95.6399" stroke="#882527" stroke-width="0.961657" stroke-linecap="round" stroke-linejoin="round"/>
<path d="M137.054 101.505L133.029 101.242C132.736 101.23 132.459 101.106 132.255 100.895C132.051 100.684 131.937 100.402 131.937 100.109C131.949 99.8339 132.06 99.5722 132.249 99.3718C132.439 99.1714 132.694 99.0456 132.968 99.0173C132.968 99.0173 139.178 97.8443 139.845 98.3499" stroke="#882527" stroke-width="0.961657" stroke-linecap="round" stroke-linejoin="round"/>
<path d="M129.975 97.6019C129.683 97.6411 129.387 97.5632 129.152 97.3851C128.917 97.207 128.762 96.9433 128.721 96.6514C128.688 96.3776 128.756 96.101 128.912 95.8738C129.069 95.6466 129.303 95.4844 129.571 95.4178L133.758 94.4269L135.861 93.9213L136.407 93.8C136.67 93.7393 138.511 93.5573 138.774 93.5371" stroke="#882527" stroke-width="0.961657" stroke-linecap="round" stroke-linejoin="round"/>
<path fill-rule="evenodd" clip-rule="evenodd" d="M126.502 103.188C127.612 104.299 127.612 106.099 126.502 107.209C125.391 108.32 123.591 108.32 122.48 107.209C121.37 106.099 121.37 104.299 122.48 103.188C123.591 102.078 125.391 102.078 126.502 103.188Z" fill="#EFEB5E"/>
<path d="M126.502 103.188C127.612 104.299 127.612 106.099 126.502 107.209C125.391 108.32 123.591 108.32 122.48 107.209C121.37 106.099 121.37 104.299 122.48 103.188C123.591 102.078 125.391 102.078 126.502 103.188" stroke="#EFEB5E" stroke-width="1.1267" stroke-linecap="round" stroke-linejoin="round"/>
<path d="M125.597 106.048C125.597 106.048 125.182 106.462 124.491 106.462C123.799 106.462 123.385 106.048 123.385 106.048" stroke="#113663" stroke-width="1.1267" stroke-linecap="round" stroke-linejoin="round"/>
<path d="M122.911 104.567C123.036 104.414 123.207 104.327 123.385 104.327C123.564 104.327 123.729 104.414 123.859 104.567" stroke="#113663" stroke-width="1.1267" stroke-linecap="round" stroke-linejoin="round"/>
<path d="M125.123 104.567C125.248 104.414 125.418 104.327 125.597 104.327C125.776 104.327 125.941 104.414 126.071 104.567" stroke="#113663" stroke-width="1.1267" stroke-linecap="round" stroke-linejoin="round"/>
</g>
<defs>
<clipPath id="clip0_1037_8435">
<rect width="188" height="266" fill="white"/>
</clipPath>
</defs>
</svg>
