<svg width="16" height="16" viewBox="0 0 16 16" fill="none" xmlns="http://www.w3.org/2000/svg">
<circle r="8" transform="matrix(-1 0 0 1 8 8)" fill="#036EB8"/>
<path d="M7.82514 2.62604C8.64434 2.5892 9.68064 2.80038 10.2418 3.50486C10.9095 3.56372 11.5366 3.85195 12.0163 4.32107C12.3012 4.57988 12.5297 4.89474 12.6874 5.24592C12.8418 5.58995 12.925 5.96158 12.9322 6.33844C13.5159 7.1129 13.7552 7.99584 13.5838 8.83911L13.5838 8.83911L13.5837 8.83966C13.495 9.25992 13.3145 9.65539 13.0551 9.99779C12.796 10.34 12.4645 10.6207 12.0843 10.82C11.8599 10.9443 11.5807 11.0817 11.3393 11.197L11.4084 11.2905C11.4885 11.3907 11.5413 11.51 11.5618 11.6367C11.5824 11.7638 11.5698 11.8942 11.525 12.015L11.525 12.015L11.5245 12.0164C11.4619 12.1757 11.3631 12.3184 11.236 12.433C11.1088 12.5477 10.9568 12.6312 10.7918 12.6771L10.7918 12.6772L10.7881 12.678C9.92478 12.8711 9.04282 12.9685 8.15817 12.9684L8.00458 12.9718L8.00405 12.9718C7.06194 12.9856 6.12152 12.8875 5.20252 12.6796L5.2025 12.6798L5.19836 12.6786C5.03578 12.6319 4.88618 12.5482 4.76122 12.4342C4.63626 12.3202 4.53932 12.1788 4.47796 12.0212L4.47794 12.0212L4.47732 12.0195C4.43368 11.8989 4.42138 11.7691 4.44158 11.6424C4.46173 11.5159 4.51359 11.3967 4.59232 11.2957C4.59247 11.2955 4.59263 11.2953 4.59279 11.2951L4.66274 11.2018C4.42141 11.0865 4.14252 10.9492 3.91825 10.825C3.53808 10.6257 3.20658 10.345 2.94742 10.0028C2.68808 9.66042 2.5076 9.26496 2.41885 8.8447L2.41866 8.84371C2.25252 8.00103 2.48648 7.12002 3.07016 6.3438C3.07405 5.97847 3.14978 5.61739 3.29314 5.28116C3.43971 4.93737 3.65399 4.6266 3.92319 4.36736C4.41256 3.88101 5.05442 3.57857 5.7403 3.51045C5.96168 3.21075 6.29365 2.9999 6.65763 2.85943C7.03343 2.71439 7.44859 2.64227 7.82514 2.62604ZM7.82514 2.62604C7.82516 2.62604 7.82518 2.62604 7.82521 2.62604L7.82843 2.70097L7.82506 2.62605C7.82509 2.62605 7.82511 2.62605 7.82514 2.62604ZM10.8086 11.7557C10.8086 11.7993 10.7063 11.9067 10.6157 11.9235C8.89578 12.2828 7.12019 12.2828 5.4003 11.9235M10.8086 11.7557L10.7489 11.8011L10.7221 11.7657M10.8086 11.7557L10.5653 11.4352M10.8086 11.7557H10.7336C10.7336 11.7493 10.7349 11.7459 10.7348 11.7459C10.7348 11.7459 10.7336 11.7492 10.7289 11.7563C10.7269 11.7592 10.7246 11.7624 10.7221 11.7657M10.7221 11.7657C10.7151 11.7745 10.706 11.7846 10.695 11.7948C10.6631 11.8245 10.6275 11.8451 10.602 11.8498L10.6003 11.8501L10.6003 11.8501C8.89222 12.2069 7.12886 12.2073 5.42063 11.8511M10.7221 11.7657L10.5086 11.4845M5.42063 11.8511C5.42204 11.8517 5.42345 11.8522 5.42486 11.8527L5.4003 11.9235M5.42063 11.8511C5.41897 11.8508 5.4173 11.8505 5.41563 11.8501L5.4003 11.9235M5.42063 11.8511C5.39106 11.8403 5.36381 11.8239 5.34038 11.8028C5.32673 11.7905 5.31454 11.7767 5.30399 11.7618M5.4003 11.9235C5.35961 11.9094 5.32217 11.8873 5.29018 11.8585C5.25818 11.8297 5.2323 11.7947 5.21404 11.7557M5.21404 11.7557L5.27347 11.8015L5.30399 11.7618M5.21404 11.7557L5.46071 11.4352M5.21404 11.7557L5.28196 11.7239C5.28818 11.7372 5.29556 11.7499 5.30399 11.7618M5.30399 11.7618L5.51727 11.4847M5.46071 11.4352L5.51374 11.4882C5.51492 11.4871 5.5161 11.4859 5.51727 11.4847M5.46071 11.4352C5.52185 11.3741 5.56758 11.2993 5.59413 11.217C5.62068 11.1347 5.62729 11.0473 5.61341 10.962C5.59782 10.8999 5.56824 10.8423 5.52694 10.7934C5.48564 10.7446 5.43371 10.7058 5.37513 10.6801M5.46071 11.4352L5.52015 11.481L5.51727 11.4847M5.51727 11.4847C5.58505 11.4158 5.63582 11.3321 5.6655 11.2401C5.6957 11.1465 5.70323 11.047 5.68744 10.95L5.68642 10.9437L5.68615 10.9437C5.66777 10.8706 5.6329 10.8026 5.58422 10.745C5.53571 10.6876 5.47477 10.642 5.40602 10.6117M5.40602 10.6117C5.40625 10.6118 5.40647 10.612 5.4067 10.6121L5.37513 10.6801M5.40602 10.6117C5.40577 10.6116 5.40552 10.6115 5.40527 10.6114L5.37513 10.6801M5.40602 10.6117C5.14905 10.4925 4.67168 10.2671 4.33537 10.084L4.33368 10.083L4.33367 10.0831C4.06117 9.94361 3.82326 9.74508 3.63727 9.50196C3.4514 9.25898 3.32209 8.97758 3.25877 8.67828M5.37513 10.6801C5.11839 10.5609 4.63846 10.3344 4.2995 10.1498C4.01707 10.0053 3.77047 9.79952 3.57771 9.54753C3.38494 9.29554 3.25087 9.00369 3.18528 8.69328M3.25877 8.67828C3.2588 8.67845 3.25883 8.67862 3.25886 8.67879L3.18528 8.69328M3.25877 8.67828C3.13497 8.04876 3.33496 7.36455 3.83415 6.75042L3.83442 6.75008L3.91664 6.64772L3.93317 6.62715V6.60075V6.46987V6.46598L3.93307 6.46598C3.91867 6.18832 3.96464 5.91084 4.06781 5.65265C4.17097 5.39446 4.32888 5.16171 4.53065 4.97042L4.53155 4.96957L4.53155 4.96956C4.94012 4.56915 5.52078 4.32158 5.96694 4.3548L5.96773 4.35486L5.96773 4.35486L6.20434 4.36997L6.25534 4.37322L6.27703 4.32695L6.37771 4.11215L6.37808 4.11136L6.37808 4.11136C6.45074 3.9515 6.63491 3.79912 6.90479 3.68177C7.1721 3.56553 7.51236 3.48872 7.87878 3.47229L7.87878 3.47229C8.29974 3.45338 8.68696 3.51275 9.00043 3.6325C9.31461 3.75253 9.54941 3.93099 9.67492 4.14658L9.67503 4.14678L9.78914 4.34143L9.81379 4.3835L9.86224 4.37803L10.0854 4.35286L10.0855 4.35286C10.1076 4.35034 10.1299 4.34884 10.1522 4.34835M3.25877 8.67828C3.25873 8.67811 3.25869 8.67794 3.25866 8.67777L3.18528 8.69328M3.18528 8.69328C3.05607 8.03716 3.26582 7.3307 3.77595 6.70311L10.1522 4.34835M10.1522 4.34835C10.1511 4.34827 10.15 4.34819 10.1488 4.34811L10.1542 4.2733L10.1555 4.34829C10.1544 4.34831 10.1533 4.34833 10.1522 4.34835ZM10.1522 4.34835C10.6392 4.38425 11.0973 4.59313 11.4438 4.93732L11.4465 4.94002L11.4466 4.93995C11.66 5.13128 11.8285 5.36733 11.9403 5.63127C12.052 5.89521 12.1041 6.18055 12.0929 6.46694L12.0928 6.46987H12.0929V6.60075V6.62715L12.1094 6.64772L12.1916 6.75004M10.1522 4.34835L11.7265 10.1498C11.3909 10.3344 10.9077 10.5609 10.6509 10.6801M12.1916 6.75004L12.25 6.7032L12.1916 6.75008L12.1916 6.75004ZM12.1916 6.75004C12.6847 7.36475 12.891 8.04912 12.7673 8.67828M12.7673 8.67828C12.7673 8.67811 12.7673 8.67794 12.7674 8.67777L12.8408 8.69328L12.7672 8.67879C12.7672 8.67862 12.7672 8.67845 12.7673 8.67828ZM12.7673 8.67828C12.704 8.97758 12.5746 9.25898 12.3888 9.50196C12.2028 9.74508 11.9649 9.94361 11.6924 10.0831L11.6904 10.0841L11.6904 10.0841C11.3577 10.2671 10.8773 10.4924 10.62 10.6117M10.62 10.6117C10.6203 10.6116 10.6205 10.6115 10.6208 10.6114L10.6509 10.6801M10.62 10.6117C10.5513 10.642 10.4903 10.6876 10.4418 10.745C10.3931 10.8026 10.3583 10.8706 10.3399 10.9437L10.3383 10.9499L10.3386 10.95C10.3228 11.047 10.3303 11.1465 10.3605 11.2401C10.3902 11.332 10.4409 11.4157 10.5086 11.4845M10.62 10.6117C10.6198 10.6118 10.6196 10.612 10.6193 10.6121L10.6509 10.6801M10.6509 10.6801L10.5653 11.4352M10.5653 11.4352L10.5056 11.4806L10.5086 11.4845M10.5653 11.4352L10.5123 11.4882C10.5111 11.487 10.5098 11.4858 10.5086 11.4845" fill="white" stroke="white" stroke-width="0.15"/>
<path d="M11.1813 10.848L11.1812 10.8479L11.1849 10.8453L11.2872 10.7732L11.3388 10.7368L11.3835 10.7814L13.9526 13.3505L13.9526 13.3505L13.953 13.3509C14.0114 13.4102 14.0511 13.4854 14.0671 13.5671C14.0831 13.6487 14.0747 13.7333 14.043 13.8103C14.0112 13.8872 13.9576 13.9531 13.8886 13.9998L13.8466 13.9377L13.8886 13.9998C13.8197 14.0464 13.7386 14.0718 13.6553 14.0726L13.6541 14.0726C13.542 14.0719 13.4348 14.0274 13.3551 13.9486L13.3549 13.9483L10.7187 11.3154L10.6517 11.2485L10.7321 11.1986C10.8458 11.1282 10.9435 11.046 11.0452 10.9605C11.0892 10.9234 11.1341 10.8857 11.1813 10.848Z" fill="white" stroke="white" stroke-width="0.15"/>
<path d="M2.65105 2.04897L2.65111 2.04903L4.66478 4.07108L4.71973 4.12626L4.66251 4.1791C4.6453 4.195 4.63007 4.21291 4.61716 4.23246L4.61716 4.23246L4.61671 4.23313C4.56211 4.3139 4.50521 4.39242 4.44602 4.46868L4.44603 4.46868L4.44554 4.46929C4.37585 4.55719 4.29998 4.64001 4.21851 4.71712L4.16551 4.76728L4.11392 4.71568L2.04487 2.64665L2.04487 2.64666L2.04403 2.6458C2.0054 2.6059 1.97501 2.55878 1.9546 2.50712C1.9342 2.45547 1.92419 2.40029 1.92514 2.34477C1.92609 2.28924 1.93797 2.23444 1.96013 2.18351C1.98218 2.1328 2.01398 2.08692 2.05372 2.04846C2.09284 2.0094 2.13926 1.9784 2.19033 1.95722C2.24163 1.93594 2.29661 1.925 2.35214 1.925C2.40766 1.925 2.46264 1.93594 2.51394 1.95722C2.56523 1.97849 2.61182 2.00967 2.65105 2.04897Z" fill="white" stroke="white" stroke-width="0.15"/>
<path d="M9.65463 3.91556C9.65939 3.81738 9.70294 3.72512 9.77572 3.65905C9.84851 3.59297 9.94456 3.55851 10.0428 3.56325C10.141 3.56799 10.2332 3.61155 10.2993 3.68434C10.3654 3.75713 10.3999 3.85318 10.3951 3.95138L10.3951 3.95145C10.3124 5.62973 9.78463 7.81612 8.98867 9.8035L8.98863 9.80359C8.96098 9.8724 8.91339 9.93138 8.85197 9.97295C8.79055 10.0145 8.71811 10.0368 8.64395 10.0369L8.64176 10.0369C8.59695 10.0356 8.5527 10.0265 8.51103 10.01C8.46545 9.99234 8.42382 9.96583 8.38854 9.932C8.35326 9.89817 8.32502 9.85769 8.30546 9.81289C8.2859 9.7681 8.2754 9.71988 8.27457 9.67101C8.27374 9.62213 8.28259 9.57358 8.30061 9.52814L8.30072 9.52787C9.05861 7.639 9.57627 5.48767 9.65463 3.91556ZM9.65463 3.91556C9.65463 3.91558 9.65463 3.9156 9.65463 3.91562L9.72954 3.91923M9.65463 3.91556C9.65463 3.91554 9.65463 3.91552 9.65464 3.9155L9.72954 3.91923M9.72954 3.91923C9.73333 3.8409 9.76807 3.76729 9.82613 3.71458C9.88419 3.66187 9.96081 3.63438 10.0391 3.63816C10.1175 3.64194 10.1911 3.67669 10.2438 3.73475C10.2965 3.79281 10.324 3.86943 10.3202 3.94776L8.37033 9.5558C9.13048 7.66128 9.65067 5.50163 9.72954 3.91923Z" fill="white" stroke="white" stroke-width="0.15"/>
<path d="M10.1334 10.4208L10.1335 10.4207C11.3358 9.34933 12.2601 8.00208 12.8269 6.49469L12.8278 6.49217L12.8278 6.49215C12.858 6.4022 12.8525 6.30408 12.8125 6.21805C12.7724 6.13201 12.7009 6.06464 12.6126 6.02982C12.5243 5.995 12.4261 5.99538 12.3381 6.0309C12.2501 6.06642 12.1791 6.13437 12.1397 6.22071L12.1375 6.22561L12.1377 6.22568C11.6172 7.62564 10.7597 8.87578 9.6412 9.86556C9.58475 9.91537 9.54483 9.98121 9.52675 10.0543C9.50866 10.1274 9.51329 10.2043 9.54004 10.2747C9.5668 10.3452 9.61439 10.4057 9.67646 10.4484C9.73854 10.4911 9.81216 10.5138 9.88748 10.5136M10.1334 10.4208L9.88748 10.5136M10.1334 10.4208C10.066 10.4807 9.97894 10.5137 9.88876 10.5136M10.1334 10.4208L9.88876 10.5136M9.88748 10.5136H9.88876M9.88748 10.5136H9.88876M9.88876 10.5136H9.88891V10.4386L9.88876 10.5136Z" fill="white" stroke="white" stroke-width="0.15"/>
<path d="M7.49828 10.0099C7.4552 10.027 7.40937 10.0361 7.36302 10.0369L7.36099 10.0369C7.28761 10.0361 7.21612 10.0134 7.1557 9.97176C7.09543 9.9302 7.0489 9.87164 7.02203 9.80355C6.22436 7.81608 5.6983 5.62972 5.61388 3.95153L5.61388 3.95138C5.60913 3.85318 5.64359 3.75713 5.70968 3.68434C5.77576 3.61155 5.86805 3.56799 5.96625 3.56325C6.06444 3.55851 6.1605 3.59297 6.23329 3.65905C6.30605 3.7251 6.3496 3.81735 6.35437 3.9155C6.43273 5.48761 6.95039 7.63898 7.70828 9.52787L7.70839 9.52814C7.72641 9.57358 7.73526 9.62213 7.73443 9.67101C7.7336 9.71988 7.7231 9.7681 7.70354 9.81289C7.68398 9.85769 7.65575 9.89817 7.62046 9.932C7.58526 9.96576 7.54373 9.99222 7.49828 10.0099ZM7.49828 10.0099C7.49818 10.0099 7.49808 10.01 7.49797 10.01L7.47087 9.94007L7.49859 10.0098C7.49849 10.0098 7.49838 10.0098 7.49828 10.0099Z" fill="white" stroke="white" stroke-width="0.15"/>
<path d="M3.86457 6.22063L3.8644 6.22071C3.82504 6.13437 3.75404 6.06643 3.66605 6.0309C3.57806 5.99538 3.47978 5.995 3.39151 6.02982C3.30324 6.06464 3.23171 6.13202 3.19167 6.21805C3.15163 6.30407 3.14614 6.40219 3.17633 6.49215L3.17717 6.49464L3.17721 6.49463C3.74355 8.00463 4.66848 9.35432 5.87233 10.4274L5.87431 10.4292L5.87434 10.4292C5.94319 10.4863 6.03052 10.5163 6.11991 10.5136C6.12031 10.5135 6.1207 10.5135 6.1211 10.5135L6.11856 10.4386C6.17849 10.4384 6.23697 10.4201 6.28621 10.3859C6.33545 10.3517 6.37313 10.3034 6.39426 10.2473C6.41538 10.1912 6.41894 10.1301 6.40446 10.0719C6.38999 10.0137 6.35817 9.96137 6.31322 9.92173L3.86457 6.22063ZM3.86457 6.22063L3.86645 6.22568C4.38695 7.62562 5.24436 8.87574 6.36287 9.86552L3.86457 6.22063Z" fill="white" stroke="white" stroke-width="0.15"/>
</svg>
