<svg width="16" height="16" viewBox="0 0 16 16" fill="none" xmlns="http://www.w3.org/2000/svg">
<circle r="8" transform="matrix(-1 0 0 1 8 8)" fill="#F5CF80"/>
<path d="M6.71834 13.0323C6.09921 13.034 5.48809 12.8923 4.93285 12.6184L4.93284 12.6184L4.93159 12.6178C4.48191 12.3853 4.10512 12.0332 3.84271 11.6003C3.58041 11.1676 3.44257 10.6709 3.44437 10.1648C3.42908 8.89861 4.24975 7.76288 5.66456 7.03935C5.96798 6.85504 6.19106 6.56341 6.28955 6.22232C6.62841 4.63741 7.40802 3.53171 8.51889 3.13545L8.51888 3.13544L8.52019 3.135C8.99245 2.97623 9.49771 2.94214 9.98702 3.03602C10.476 3.12985 10.9326 3.34833 11.3124 3.6703C12.1604 4.35676 12.5711 5.48081 12.5594 6.71434C12.5477 7.94894 12.1135 9.30139 11.2611 10.4574L11.2611 10.4574C10.0468 12.1038 8.34616 13.0322 6.71834 13.0323ZM6.71834 13.0323L6.71814 12.9573M6.71834 13.0323C6.71827 13.0323 6.71821 13.0323 6.71814 13.0323V12.9573M6.71814 12.9573C8.31752 12.9573 9.99746 12.0443 11.2008 10.4129M6.71814 12.9573C6.11058 12.959 5.51089 12.82 4.96603 12.5511C4.52862 12.325 4.1621 11.9825 3.90685 11.5614C3.65159 11.1403 3.51751 10.6569 3.51937 10.1645C3.50426 8.93429 4.30144 7.81987 5.70111 7.10489L11.2008 10.4129M11.2008 10.4129C12.8874 8.12533 12.916 5.06402 11.2646 3.72806C10.8944 3.41413 10.4495 3.20113 9.97288 3.10968C9.49626 3.01823 9.0041 3.05144 8.54409 3.20609C7.46664 3.59043 6.698 4.66793 6.36235 6.24054L11.2008 10.4129ZM10.7626 4.33858L10.7626 4.3386L10.7612 4.33742C10.4956 4.11207 10.1769 3.95813 9.83529 3.89014C9.49406 3.82223 9.14117 3.8423 8.80986 3.94846C8.01545 4.23316 7.41676 5.08956 7.14569 6.39509L7.14576 6.39511L7.14492 6.39841C7.06959 6.69326 6.93541 6.96983 6.75045 7.21148C6.56548 7.45314 6.33356 7.65489 6.06863 7.8046L6.06866 7.80466L6.06587 7.80609C5.29226 8.2016 4.85524 8.65631 4.61106 9.07547C4.36673 9.49489 4.31266 9.88359 4.31266 10.1511V10.1511C4.31258 10.4957 4.40595 10.8339 4.58281 11.1296C4.75945 11.425 5.01278 11.6669 5.3159 11.8299C6.99167 12.6564 9.10099 11.9115 10.5614 9.93206C11.1917 9.07642 11.604 7.9651 11.6756 6.92185C11.7472 5.87755 11.4774 4.91574 10.7626 4.33858Z" fill="white" stroke="white" stroke-width="0.15"/>
<path d="M6.18458 8.67871L6.1844 8.67871C5.73646 8.67763 5.30304 8.52005 4.95904 8.23331C4.91969 8.20845 4.88563 8.17606 4.85881 8.13798C4.83085 8.09827 4.81137 8.05324 4.80158 8.00568C4.79179 7.95811 4.79189 7.90904 4.8019 7.86152C4.8119 7.814 4.83158 7.76905 4.85972 7.72947L4.85952 7.72932L4.86348 7.72462C4.89582 7.68621 4.93542 7.65455 4.98 7.63145C5.02459 7.60834 5.07329 7.59426 5.12332 7.58999C5.17336 7.58572 5.22374 7.59136 5.27159 7.60658C5.31934 7.62176 5.36364 7.6462 5.40195 7.67847C5.58583 7.83221 5.81114 7.928 6.04943 7.95372C6.28772 7.97944 6.52828 7.93395 6.74072 7.82298C6.95317 7.71202 7.12795 7.54057 7.24299 7.3303C7.35803 7.12003 7.40816 6.88036 7.38704 6.64161L7.38701 6.64129C7.37368 6.4827 7.32881 6.32837 7.25505 6.18735C7.18129 6.04633 7.08012 5.92147 6.95747 5.82006L6.95747 5.82007L6.95695 5.81963C6.91854 5.78729 6.88688 5.74769 6.86378 5.7031C6.84068 5.65851 6.82659 5.60981 6.82233 5.55977C6.81806 5.50974 6.8237 5.45936 6.83891 5.4115C6.85413 5.36365 6.87863 5.31926 6.91101 5.28088L6.91085 5.28074L6.91483 5.27669C6.94876 5.24214 6.98939 5.21489 7.03423 5.19662C7.07908 5.17835 7.12719 5.16944 7.1756 5.17044C7.22401 5.17143 7.27171 5.18231 7.31577 5.20241C7.35814 5.22175 7.39628 5.24922 7.42803 5.28324C7.71855 5.52665 7.93062 5.8506 8.03749 6.21432C8.14483 6.57966 8.14119 6.96865 8.02703 7.33191C7.91288 7.69517 7.69335 8.01632 7.39633 8.25457C7.09989 8.49236 6.7396 8.63688 6.36104 8.66986C6.29936 8.67872 6.24016 8.67872 6.18676 8.67871L6.18458 8.67871Z" fill="white" stroke="white" stroke-width="0.15"/>
<path d="M6.75807 6.16454L6.72079 6.12721L2.64772 2.04892L6.75807 6.16454ZM6.75807 6.16454L6.73554 6.21224M6.75807 6.16454L6.73554 6.21224M6.73554 6.21224C6.62891 6.43804 6.53996 6.67177 6.46948 6.91132L6.43383 7.03249M6.73554 6.21224L6.43383 7.03249M6.43383 7.03249L6.3445 6.9432M6.43383 7.03249L6.3445 6.9432M6.3445 6.9432L2.04645 2.64663L2.04595 2.64612M6.3445 6.9432L2.04595 2.64612M2.04595 2.64612C2.00705 2.60648 1.97634 2.55956 1.95559 2.50805C1.93484 2.45653 1.92445 2.40143 1.92502 2.34589C1.92559 2.29036 1.9371 2.23548 1.95891 2.1844C1.98064 2.13348 2.01217 2.08732 2.05171 2.04857M2.04595 2.64612L2.05171 2.04857M2.05171 2.04857C2.09072 2.00946 2.13706 1.97842 2.18808 1.95721C2.23925 1.93595 2.29412 1.925 2.34954 1.925C2.40495 1.925 2.45982 1.93595 2.51099 1.95721C2.56212 1.97846 2.60856 2.00959 2.64763 2.04883L2.05171 2.04857Z" fill="white" stroke="white" stroke-width="0.15"/>
<path d="M10.2506 10.6743L10.2506 10.6743L10.2512 10.673C10.3401 10.4715 10.4467 10.2784 10.5698 10.0958L10.6207 10.0203L10.685 10.0847L13.9526 13.3541L13.9526 13.3541L13.953 13.3545C14.0312 13.4338 14.075 13.5408 14.075 13.6522C14.075 13.7636 14.0312 13.8705 13.953 13.9498L13.9529 13.9499C13.9138 13.9895 13.8672 14.0209 13.8158 14.0424C13.7645 14.0638 13.7093 14.0749 13.6537 14.0749C13.598 14.0749 13.5429 14.0638 13.4916 14.0424C13.4403 14.021 13.3937 13.9896 13.3546 13.9501C13.3546 13.95 13.3545 13.95 13.3545 13.9499L10.2365 10.8285L10.201 10.7929L10.2204 10.7465L10.2506 10.6743Z" fill="white" stroke="white" stroke-width="0.15"/>
</svg>
