<svg width="24" height="24" viewBox="0 0 24 24" fill="none" xmlns="http://www.w3.org/2000/svg">
<path d="M12 0C5.4 0 0 5.4 0 12C0 18.6 5.4 24 12 24C18.6 24 24 18.6 24 12C24 5.4 18.6 0 12 0ZM13.95 16.65L9.3 12C9.075 11.775 8.775 11.775 8.625 12C8.4 12.225 8.4 12.525 8.625 12.675L13.275 17.325C13.125 17.325 12.975 17.325 12.675 17.325C12.225 17.325 11.55 17.325 10.8 17.175C8.85 16.875 7.2 16.2 6.075 15.075C4.95 13.95 4.275 12.375 3.975 10.35C3.75 8.85 3.9 7.725 3.9 7.65C3.9 7.425 4.125 7.2 4.35 7.2C4.425 7.2 5.55 7.125 7.05 7.275C9 7.575 10.65 8.25 11.775 9.375C12.9 10.5 13.575 12.075 13.875 14.1C14.025 15.375 14.025 16.275 13.95 16.65ZM18.525 15.825C17.475 16.875 15.975 17.25 14.85 17.325C14.85 17.25 14.925 17.1 14.925 17.025C14.925 16.95 14.925 16.65 14.925 16.125L16.875 14.175C17.1 13.95 17.1 13.65 16.875 13.5C16.65 13.275 16.35 13.275 16.2 13.5L14.925 14.775C14.925 14.55 14.85 14.325 14.85 14.1C14.775 13.35 14.55 12.675 14.4 12.075C14.475 12 14.55 11.925 14.625 11.85C16.425 10.05 19.575 10.275 19.725 10.35C19.95 10.35 20.175 10.575 20.175 10.8C20.1 10.875 20.325 14.025 18.525 15.825Z" fill="#22AC38"/>
</svg>
