<svg width="17" height="16" viewBox="0 0 17 16" fill="none" xmlns="http://www.w3.org/2000/svg">
<circle cx="8.65216" cy="8" r="8" fill="#22AC38"/>
<g clip-path="url(#clip0_7801_40913)">
<path d="M7.85465 11.5712C8.00596 11.5712 8.1427 11.5651 8.25897 11.5566V13C8.25897 13.0552 8.30374 13.1 8.35897 13.1H8.94493C9.00015 13.1 9.04493 13.0552 9.04493 13V11.5566C10.7733 11.686 11.8298 11.0882 12.4111 10.2069C12.999 9.31555 13.0875 8.15406 12.9281 7.21966L12.9279 7.21858L12.8917 7.01908C12.8842 6.97811 12.8521 6.94605 12.8112 6.93859L12.6128 6.90249C12.6126 6.90245 12.6124 6.90242 12.6122 6.90238C12.2981 6.84171 11.8709 6.82431 11.4478 6.85864C11.1237 6.88493 10.7952 6.94209 10.5179 7.03718C10.8871 6.09506 10.6392 5.20781 10.2307 4.51065C9.79098 3.76033 9.15826 3.21633 8.87402 3.03232L8.70858 2.91778C8.67433 2.89407 8.62898 2.89407 8.59474 2.91778L8.42906 3.03247C8.13394 3.2258 7.5015 3.77187 7.06508 4.52264C6.6603 5.21898 6.41875 6.10251 6.78635 7.04325C6.50937 6.94488 6.18212 6.88621 5.8591 6.85916C5.43569 6.8237 5.00808 6.84167 4.69173 6.90237L4.4927 6.93859C4.45174 6.94605 4.41968 6.97811 4.41223 7.01908L4.37594 7.21858L4.37589 7.21884C4.2429 7.96126 4.26617 9.05395 4.74708 9.96113C4.98844 10.4164 5.34534 10.8252 5.85475 11.1172C6.36385 11.4089 7.01976 11.5808 7.85465 11.5712ZM7.85465 11.5712C7.85449 11.5712 7.85433 11.5713 7.85417 11.5713H7.85396V11.4713M7.85465 11.5712C7.8548 11.5712 7.85496 11.5712 7.85512 11.5712L7.85417 11.4899L7.85396 11.4713M7.85396 11.4713C4.57165 11.5092 4.21342 8.693 4.47432 7.23647L8.25897 11.4563C8.14318 11.4649 8.00615 11.4713 7.85417 11.4713H7.85396ZM8.25868 6.06728V7.90673C7.57222 7.19056 7.33775 6.48017 7.42184 5.8164C7.51044 5.11704 7.95539 4.44633 8.65163 3.85666C9.35029 4.44848 9.79434 5.12004 9.88188 5.8193C9.96496 6.48284 9.72942 7.19216 9.04463 7.9067V6.06728C9.04463 6.01206 8.99986 5.96728 8.94463 5.96728H8.35868C8.30345 5.96728 8.25868 6.01206 8.25868 6.06728ZM7.5267 8.28985C7.99914 8.74172 8.23936 9.40896 8.25791 10.2285L6.95738 8.92798C6.91833 8.88892 6.85501 8.88892 6.81596 8.92798L6.40163 9.3423C6.38288 9.36106 6.37234 9.38649 6.37234 9.41301C6.37234 9.43954 6.38288 9.46497 6.40163 9.48373L7.70272 10.7848C6.5798 10.7633 5.91094 10.3406 5.53275 9.75658C5.14766 9.16196 5.05262 8.383 5.11607 7.64259C6.235 7.55326 7.02223 7.80735 7.5267 8.28985ZM11.5132 10.0947L11.5132 10.0947L11.51 10.0981C11.2492 10.3842 10.5771 10.7615 9.60033 10.7856L10.9022 9.48373C10.921 9.46497 10.9315 9.43954 10.9315 9.41301C10.9315 9.38649 10.921 9.36106 10.9022 9.3423L10.4879 8.92798C10.4488 8.88892 10.3855 8.88892 10.3465 8.92798L9.04737 10.2271C9.04947 10.1628 9.05299 10.0962 9.05825 10.0278C9.14344 9.08051 9.47264 8.45974 10.0039 8.08851C10.5236 7.72527 11.2546 7.58809 12.1875 7.64429C12.2081 7.9034 12.2184 8.30739 12.1469 8.73737C12.0669 9.21812 11.8862 9.72174 11.5132 10.0947Z" fill="white" stroke="white" stroke-width="0.2" stroke-linejoin="round"/>
</g>
<defs>
<clipPath id="clip0_7801_40913">
<rect width="10" height="10" fill="white" transform="translate(3.65216 3)"/>
</clipPath>
</defs>
</svg>
