<svg width="940" height="778" viewBox="0 0 940 778" fill="none" xmlns="http://www.w3.org/2000/svg">
<path d="M590.863 137.601C623.376 137.601 649.903 111.074 649.903 78.5608C649.903 46.0473 623.46 19.521 590.863 19.521C558.266 19.521 531.823 46.0473 531.823 78.5608C531.823 111.074 558.35 137.601 590.863 137.601ZM590.863 21.1009C622.462 21.1009 648.24 46.8789 648.24 78.4776C648.24 110.076 622.545 135.854 590.863 135.854C559.181 135.854 533.486 110.076 533.486 78.4776C533.486 46.8789 559.264 21.1009 590.863 21.1009Z" fill="#DEBAB0"/>
<path d="M394.257 41.5341C476.029 104.937 543.383 150.958 571.43 168.932C634.833 200.338 660.312 129.232 741.492 195.005C822.671 260.778 865.335 469.356 660.312 469.356C455.29 469.356 590.984 363.289 383.591 430.248C176.198 497.206 -28.8241 311.737 76.0574 141.083C180.939 -29.5719 312.485 -21.8688 394.257 41.5341Z" fill="#FFF5F0"/>
<path d="M203.697 773.567C203.614 773.65 203.53 773.65 203.364 773.65C203.115 773.65 202.782 773.567 202.616 773.401C201.368 771.987 76.2206 630.957 61.7517 615.49C54.5173 607.757 53.3531 597.113 59.0076 591.625C65.4937 585.388 80.4615 586.968 102.83 609.836C108.9 616.072 115.802 616.987 123.702 618.068C136.175 619.731 151.725 621.893 170.185 646.507C180.247 659.978 209.767 754.109 211.014 758.1C211.097 758.267 211.097 758.516 210.931 758.682L203.863 773.235C203.946 773.401 203.863 773.484 203.697 773.567ZM61.8349 591.542C61.2528 591.874 60.6707 592.29 60.1718 592.789C55.0994 597.612 56.3467 607.258 62.9159 614.326C76.8027 629.211 192.055 759.015 203.031 771.405L209.434 758.267C207.522 752.113 178.584 660.394 168.938 647.505C150.893 623.39 136.341 621.477 123.536 619.731C115.303 618.65 108.152 617.652 101.666 611C81.9583 590.793 68.4041 587.8 61.8349 591.542Z" fill="#A1DA53"/>
<path fill-rule="evenodd" clip-rule="evenodd" d="M65.6596 777.808H362.771H374.912C391.044 777.725 404.182 764.17 404.182 747.955C404.182 731.74 391.044 718.685 374.912 718.685C370.172 718.685 357.283 719.849 349.633 721.762L240.866 720.265C245.689 681.432 211.014 657.899 182.741 664.385C182.492 660.144 181.328 655.654 179.249 651.33C172.43 636.944 157.878 629.543 146.902 634.782C135.925 640.021 132.516 655.903 139.418 670.289C140.582 672.783 141.996 675.029 143.575 677.108C131.934 690.495 130.77 711.949 145.571 731.99L145.405 732.156C137.006 725.753 126.529 722.011 115.22 722.011C87.6124 722.011 65.1606 744.38 65.1606 772.07C65.2438 773.899 65.4101 775.895 65.6596 777.808Z" fill="#A1DA53"/>
<path fill-rule="evenodd" clip-rule="evenodd" d="M39.4651 777.808H158.792V777.558C166.775 777.558 173.261 771.072 173.261 763.09C173.261 755.107 166.775 748.621 158.792 748.621C156.464 748.621 154.302 749.203 152.306 750.117C152.306 750.117 89.2748 756.021 78.9636 755.19L78.8804 755.273C74.7227 752.113 69.5671 750.284 63.9958 750.284C50.3584 750.284 39.2988 761.343 39.2988 774.981C39.2988 775.895 39.382 776.893 39.4651 777.808Z" fill="#A1DA53"/>
<path fill-rule="evenodd" clip-rule="evenodd" d="M198.791 754.026C198.791 754.026 277.787 591.957 283.525 576.241C289.679 559.444 315.207 559.943 300.655 602.518C294.834 619.648 316.039 627.464 298.742 662.223C292.922 674.031 235.545 729.495 235.545 729.495L198.791 754.026Z" fill="#A1DA53"/>
<path fill-rule="evenodd" clip-rule="evenodd" d="M251.011 767.995C251.011 767.995 44.4552 637.11 26.577 623.057C7.45139 608.089 -21.6527 626.799 25.4959 665.549C44.4552 681.099 25.4959 705.297 70.15 733.07C85.2841 742.467 191.057 765.75 191.057 765.75L251.011 767.995Z" fill="#A1DA53"/>
<path fill-rule="evenodd" clip-rule="evenodd" d="M275.875 773.816C275.875 773.816 184.987 572.582 178.335 553.041C171.183 532.169 141.83 532.834 158.627 585.638C165.363 606.842 140.915 616.654 160.789 659.728C167.525 674.363 233.549 743.299 233.549 743.299L275.875 773.816Z" fill="#A1DA53"/>
<path fill-rule="evenodd" clip-rule="evenodd" d="M190.807 756.187C190.807 756.187 367.012 608.338 380.899 592.622C395.783 575.742 425.386 587.882 389.048 631.04C374.496 648.419 395.118 668.21 358.364 704.049C346.556 715.608 255.418 750.2 255.418 750.2L190.807 756.187Z" fill="#A1DA53"/>
<path fill-rule="evenodd" clip-rule="evenodd" d="M603.338 777.808C597.683 773.234 608.327 768.162 621.632 763.339C625.706 734.567 650.486 712.365 680.422 712.365C693.311 712.365 705.285 716.523 715.014 723.508C718.008 719.599 721.5 716.107 725.409 712.947C716.678 692.657 712.437 649.5 734.722 640.603C758.588 631.04 778.046 674.446 782.869 699.06C791.018 700.64 798.668 703.634 805.404 707.791C836.088 676.276 865.192 645.924 870.098 639.937C881.656 625.552 907.767 633.368 879.661 670.206C869.682 683.261 883.652 695.568 867.437 717.853C887.893 724.838 902.528 743.299 902.528 764.836C902.528 765.168 902.528 765.418 902.528 765.75C906.52 763.256 911.343 761.842 916.498 761.842C927.059 761.842 935.873 769.243 939.781 777.808H603.338V777.808Z" fill="#A1DA53"/>
<path d="M214.922 84.2988C214.922 84.2988 209.683 137.767 161.287 157.225C113.141 176.517 117.631 218.178 117.631 218.178" stroke="#19180A" stroke-width="1.66309" stroke-miterlimit="10" stroke-linecap="round" stroke-linejoin="round"/>
<path fill-rule="evenodd" clip-rule="evenodd" d="M298.908 266.407C295.665 268.486 202.698 294.846 158.376 261.418C126.362 237.22 124.782 184.583 169.103 160.634C202.781 142.424 213.092 97.6864 213.258 84.2985C211.679 76.1493 217.666 63.7593 234.047 68.4991C248.765 51.4524 262.902 83.5501 284.771 86.7931C291.923 87.8741 274.377 104.921 269.97 113.403C272.631 130.366 279.616 152.153 295.332 167.037C337.491 207.035 327.929 248.113 298.908 266.407Z" fill="#19180A"/>
<path fill-rule="evenodd" clip-rule="evenodd" d="M310.55 589.879L308.887 743.549H275.625C275.625 743.549 264.566 675.528 268.225 589.879H310.55Z" fill="#FBCBA0"/>
<path fill-rule="evenodd" clip-rule="evenodd" d="M308.887 743.465H275.209C275.209 743.465 271.883 722.095 269.555 688.251C272.964 688.916 280.032 690.08 289.678 690.08C301.902 690.08 307.057 688.75 309.469 688.084L308.887 743.465Z" fill="white"/>
<path d="M270.304 696.317C279.118 698.063 297.828 699.061 309.47 695.568" stroke="#19180A" stroke-width="1.66309" stroke-miterlimit="10" stroke-linecap="round" stroke-linejoin="round"/>
<path fill-rule="evenodd" clip-rule="evenodd" d="M310.551 589.879L310.302 610.501C299.907 610.584 283.193 611.665 267.56 616.488C267.56 616.239 267.56 615.906 267.56 615.657C267.56 613.245 267.643 610.751 267.643 608.256C267.643 607.757 267.643 607.175 267.643 606.676C267.726 604.098 267.81 601.604 267.81 599.026C267.81 598.61 267.81 598.278 267.81 597.862C267.893 595.201 267.976 592.54 268.142 589.879H310.551Z" fill="#19180A"/>
<path fill-rule="evenodd" clip-rule="evenodd" d="M259.411 757.352C258.579 757.269 260.159 747.54 263.984 733.736C266.978 723.175 271.052 716.939 271.052 716.939C271.052 716.939 272.05 722.51 281.031 727.416C288.681 731.574 298.826 724.173 298.826 724.173C298.826 724.173 297.329 719.683 299.574 715.193C302.984 708.208 309.886 708.208 309.886 708.208C309.886 708.208 327.764 730.41 364.186 737.894C372.834 740.056 379.652 741.802 384.808 743.216C392.708 745.378 398.612 751.947 399.859 760.096L400.358 763.672C400.358 763.755 384.143 770.49 259.411 757.352Z" fill="#FF8E25"/>
<path fill-rule="evenodd" clip-rule="evenodd" d="M395.201 749.868C398.943 753.943 399.941 758.433 400.274 763.339L400.357 763.672C400.357 763.672 380.649 776.478 356.451 759.847C357.948 755.689 371.087 756.271 388.549 754.109C394.786 753.278 395.201 749.868 395.201 749.868ZM313.294 745.295C317.202 748.704 322.441 753.028 327.43 757.186C304.23 757.269 279.367 757.269 259.327 757.269C258.495 757.269 260.075 747.457 263.9 733.653C264.067 732.905 264.316 732.24 264.566 731.491C265.896 735.15 268.806 739.058 275.043 741.47C280.531 743.715 306.06 738.975 313.294 745.295ZM349.882 733.986C342.149 737.229 325.767 743.465 321.693 740.638C312.546 734.152 299.407 723.758 298.576 723.093C298.243 721.513 298.077 718.353 299.574 715.276C302.983 708.291 309.885 708.291 309.885 708.291C309.885 708.291 323.023 724.672 349.882 733.986Z" fill="#19180A"/>
<path fill-rule="evenodd" clip-rule="evenodd" d="M357.865 760.096C393.954 766 400.357 763.672 400.357 763.672C400.357 763.672 402.602 777.808 381.232 777.808C362.189 777.808 340.486 777.808 340.486 777.808H320.529L314.708 770.574L301.819 771.489L295.582 777.725H258.994C258.994 777.725 255.751 771.405 256.417 760.762C257.165 749.037 260.907 746.708 260.907 746.708C260.907 746.708 276.706 760.263 295.666 754.276C323.689 745.378 351.462 759.431 357.865 760.096Z" fill="white"/>
<path fill-rule="evenodd" clip-rule="evenodd" d="M195.631 589.879L133.182 735.233L107.653 718.02C107.653 718.02 125.781 644.677 146.819 589.795H195.631V589.879Z" fill="#FBCBA0"/>
<path fill-rule="evenodd" clip-rule="evenodd" d="M107.57 718.02C107.57 718.02 112.559 697.98 120.209 671.121C123.535 673.033 129.273 676.11 137.173 679.02C145.987 682.263 151.725 683.511 155.051 684.01L133.015 735.233L107.57 718.02Z" fill="white"/>
<path d="M118.38 678.854C125.781 683.095 140.416 689.415 151.725 691.161" stroke="#19180A" stroke-width="1.66309" stroke-miterlimit="10" stroke-linecap="round" stroke-linejoin="round"/>
<path fill-rule="evenodd" clip-rule="evenodd" d="M194.965 589.878V591.375L187.149 609.669C176.089 609.586 155.217 610.584 136.923 617.403C137.006 617.236 137.09 616.987 137.09 616.821C137.505 615.656 137.921 614.409 138.337 613.245C138.503 612.746 138.67 612.164 138.836 611.665C139.252 610.418 139.667 609.253 140.083 608.006C140.25 607.507 140.416 607.008 140.582 606.592C140.998 605.345 141.497 604.098 141.913 602.851C142.079 602.435 142.245 602.019 142.328 601.603C142.827 600.356 143.243 599.109 143.742 597.778C143.825 597.445 143.991 597.113 144.075 596.863C144.49 595.616 144.989 594.369 145.405 593.205C145.488 592.955 145.571 592.706 145.655 592.456C145.987 591.541 146.32 590.71 146.652 589.878H194.965Z" fill="#19180A"/>
<path fill-rule="evenodd" clip-rule="evenodd" d="M176.006 768.495C176.006 768.495 86.6981 729.496 86.615 727.916C86.5318 727.084 93.6831 716.607 100.751 708.291C106.988 700.89 113.308 695.485 113.308 695.485C113.308 695.485 111.977 700.974 118.297 709.04C123.619 715.858 137.589 712.948 137.589 712.948C137.589 712.948 136.341 708.457 140.083 705.214C145.987 700.142 152.307 702.886 152.307 702.886C152.307 702.886 157.962 725.587 184.904 748.704C207.023 756.853 212.677 758.849 212.677 758.849L214.59 768.412L176.006 768.495Z" fill="#FF8E25"/>
<path fill-rule="evenodd" clip-rule="evenodd" d="M145.072 734.568C150.81 743.382 160.872 757.851 164.946 763.672C143.908 754.442 99.4205 734.817 88.8599 729.329C89.1925 726.668 89.6914 724.257 90.1903 722.012C92.9344 718.103 96.7595 712.948 100.668 708.374C101.084 707.875 101.499 707.376 101.998 706.877C101.998 710.952 103.495 716.108 109.316 720.515C113.973 724.007 139.834 726.419 145.072 734.568ZM153.388 732.905C147.816 726.003 140.499 715.941 137.422 711.7C137.339 710.12 137.588 707.459 140.166 705.297C146.07 700.225 152.39 702.969 152.39 702.969C152.39 702.969 156.049 717.604 171.432 735.316C163.616 735.649 155.384 735.399 153.388 732.905ZM173.761 767.58C173.012 765.751 173.345 764.504 173.345 764.504C173.345 764.504 173.179 757.851 189.144 757.851C196.129 757.851 203.696 757.851 209.933 757.851C211.929 758.6 212.76 758.849 212.76 758.849L214.673 768.412L176.006 768.495C176.006 768.495 175.174 768.162 173.761 767.58Z" fill="#19180A"/>
<path d="M146.736 724.589C146.736 724.589 155.467 720.265 162.535 722.094" stroke="white" stroke-width="1.66309" stroke-miterlimit="10" stroke-linecap="round" stroke-linejoin="round"/>
<path d="M152.558 731.241C152.558 731.241 161.289 726.917 168.357 728.747" stroke="white" stroke-width="1.66309" stroke-miterlimit="10" stroke-linecap="round" stroke-linejoin="round"/>
<path d="M141.747 717.105C141.747 717.105 151.31 712.781 158.378 714.61" stroke="white" stroke-width="1.66309" stroke-miterlimit="10" stroke-linecap="round" stroke-linejoin="round"/>
<path fill-rule="evenodd" clip-rule="evenodd" d="M175.341 767.829C211.68 768.245 214.507 767.829 214.507 767.829C214.507 767.829 215.255 777.808 191.972 777.808C172.93 777.808 154.386 777.725 154.386 777.725L136.175 769.742L133.93 760.595L121.707 756.437L113.973 759.514L82.707 746.375C82.707 746.375 81.0439 738.06 84.9522 729.744C89.6089 719.766 93.6834 717.687 93.6834 717.687C93.6834 717.687 100.668 736.563 122.704 739.889C146.57 743.382 169.687 764.669 175.341 767.829Z" fill="white"/>
<path fill-rule="evenodd" clip-rule="evenodd" d="M342.982 603.433L249.017 604.015C249.017 604.015 237.376 574.745 248.186 514.208C263.154 430.056 261.491 369.519 261.491 369.519L215.756 604.015H125.117C125.117 604.015 123.787 535.08 151.726 479.283C189.229 404.361 200.122 350.892 206.609 318.795C211.182 296.343 222.242 286.364 223.655 286.198C227.896 285.616 234.632 293.183 280.2 291.603C303.401 290.855 308.889 288.859 308.889 288.859L342.982 603.433Z" fill="#FF8E25"/>
<path fill-rule="evenodd" clip-rule="evenodd" d="M332.837 603.516V509.967L334.5 525.351V603.599L332.837 603.516ZM320.862 399.205L322.525 414.589V603.599H320.862V399.205ZM308.888 294.014L309.47 293.931L310.551 303.91V603.682H308.888V294.014ZM296.831 294.513H298.494V603.682H296.831V294.513ZM284.856 294.513H286.52V603.765H284.856V294.513ZM272.882 294.513H274.545V603.849H272.882V294.513ZM207.273 604.015L262.155 296.842L263.818 297.174L208.936 604.015H207.273ZM195.133 604.015L250.347 294.68L252.01 295.012L196.796 604.015H195.133ZM182.909 604.015L238.539 292.601L240.202 292.933L184.572 604.015H182.909ZM170.685 604.015L226.648 290.522L228.311 290.855L172.431 604.015H170.685ZM158.545 604.015L212.761 300.417C213.593 298.754 214.424 297.174 215.256 295.844L160.208 604.015H158.545ZM146.321 604.015L180.248 413.84C181.412 410.68 182.493 407.687 183.574 404.61L148.067 604.015H146.321ZM134.18 604.015L159.21 463.982C160.125 461.987 161.039 460.074 161.954 458.079L135.843 604.015H134.18ZM126.031 581.397L137.922 514.873C139.086 510.965 140.334 507.14 141.664 503.231L125.283 595.117C125.366 591.459 125.615 586.802 126.031 581.397ZM250.514 604.015H249.017C249.017 604.015 248.934 603.849 248.85 603.599V510.383C249.433 507.057 250.015 503.73 250.514 500.487V604.015ZM261.49 369.519L262.322 368.355L262.488 604.015H260.825V402.531C261.49 388.894 261.49 374.758 261.49 369.519Z" fill="#FFBA08"/>
<path fill-rule="evenodd" clip-rule="evenodd" d="M331.922 201.879C326.434 226.742 306.393 221.504 306.393 221.504L248.185 200.216C238.705 196.973 233.3 187.161 235.878 177.681C238.705 167.037 250.181 160.967 260.825 164.543L295.833 178.097C296.332 175.353 296.83 172.193 297.246 169.116C298.992 155.978 300.406 150.656 306.393 146.665C307.474 145.916 308.805 145.334 310.135 144.918L311.383 132.029H334.084L333.419 146.166C335.913 147.496 339.322 150.157 340.57 154.98C343.397 166.206 336.994 179.178 331.922 201.879Z" fill="#E34D28"/>
<path d="M333.336 146.165C333.253 147.329 328.014 148.494 321.778 148.327C315.541 148.078 310.053 146.082 310.053 144.918" stroke="#19180A" stroke-width="1.66309" stroke-miterlimit="10" stroke-linecap="round" stroke-linejoin="round"/>
<path fill-rule="evenodd" clip-rule="evenodd" d="M322.692 129.867C328.928 129.867 334.001 130.865 334.001 132.029C334.001 133.193 328.928 134.191 322.692 134.191C316.455 134.191 311.383 133.193 311.383 132.029C311.383 130.782 316.455 129.867 322.692 129.867Z" fill="#19180A"/>
<path fill-rule="evenodd" clip-rule="evenodd" d="M313.877 131.696V90.9507C313.877 90.9507 318.867 88.8718 324.688 87.6245C332.255 85.9614 337.161 85.9614 337.161 85.9614H350.465C350.465 85.9614 348.303 90.9507 341.318 90.9507C336.745 90.9507 337.161 91.7822 337.161 91.7822C337.161 91.7822 337.161 107.166 337.161 113.402C337.161 122.217 331.34 125.876 331.34 125.876V131.696C331.34 131.696 321.777 133.526 313.877 131.696Z" fill="#FFCAB1"/>
<path fill-rule="evenodd" clip-rule="evenodd" d="M221.824 282.872C221.824 282.872 249.265 288.027 270.636 288.859C290.427 289.69 308.055 284.701 308.055 284.701L306.642 220.672C306.559 216.348 305.893 212.024 304.646 207.866C302.567 200.881 297.578 195.144 291.175 191.734L260.491 175.519V168.285L222.074 159.221L217.417 170.862L188.978 179.095L221.824 282.872Z" fill="white"/>
<path fill-rule="evenodd" clip-rule="evenodd" d="M243.777 157.474C232.884 154.73 223.072 155.728 221.907 159.803C220.743 163.794 228.477 170.114 239.37 172.858C250.263 175.602 259.161 173.606 260.325 169.532C261.572 165.457 254.67 160.219 243.777 157.474Z" fill="#19180A"/>
<path fill-rule="evenodd" clip-rule="evenodd" d="M309.47 293.931C256.001 303.161 218.166 291.603 218.166 291.603L220.577 279.379C220.577 279.379 254.505 289.69 307.973 280.46C308.222 280.377 308.888 288.443 309.47 293.931Z" fill="#19180A"/>
<path fill-rule="evenodd" clip-rule="evenodd" d="M290.594 284.701C290.594 284.701 301.737 281.375 303.899 313.805C306.311 349.312 313.878 469.304 313.878 469.304H302.236C302.236 469.304 294.669 349.312 292.257 313.805C290.095 281.375 278.953 284.701 278.953 284.701H290.594Z" fill="#E34D28"/>
<path fill-rule="evenodd" clip-rule="evenodd" d="M283.276 300.417H278.12C278.12 300.417 277.039 300.167 276.54 298.837C276.208 297.922 276.457 297.257 276.457 297.257L283.276 297.174C286.519 297.174 289.097 293.765 289.097 290.522C289.097 287.278 286.519 283.869 283.276 283.869L275.626 283.952C275.626 283.952 275.293 282.539 276.457 281.458C277.205 280.792 278.12 280.543 278.12 280.543H283.276C288.348 280.543 292.423 285.449 292.423 290.522C292.423 295.428 288.348 300.417 283.276 300.417Z" fill="white"/>
<path fill-rule="evenodd" clip-rule="evenodd" d="M274.712 300.417H269.639C269.639 300.417 268.558 300.168 268.059 298.837C267.727 297.922 267.976 297.257 267.976 297.257L274.795 297.174C278.038 297.174 280.616 293.765 280.616 290.522C280.616 287.279 278.038 283.869 274.795 283.869H267.145C267.145 283.869 266.812 282.456 267.976 281.375C268.725 280.709 269.639 280.46 269.639 280.46H274.795C279.867 280.46 283.942 285.366 283.942 290.439C283.859 295.428 279.784 300.417 274.712 300.417Z" fill="white"/>
<path fill-rule="evenodd" clip-rule="evenodd" d="M197.876 256.761L198.708 278.298C198.708 278.298 240.867 285.782 242.281 250.358C243.362 223.333 197.876 256.761 197.876 256.761Z" fill="#19180A"/>
<path fill-rule="evenodd" clip-rule="evenodd" d="M188.979 179.095C188.979 179.095 186.484 187.826 189.145 212.357C190.725 226.909 190.309 236.721 190.06 248.529C189.893 258.092 198.375 260.087 198.375 260.087C198.375 260.087 229.891 263.33 241.2 251.689C253.34 239.299 252.259 201.463 252.259 201.463L188.979 179.095Z" fill="#E34D28"/>
<path fill-rule="evenodd" clip-rule="evenodd" d="M249.016 235.39C236.542 238.135 222.739 230.318 219.08 217.346C213.758 200.549 188.978 179.095 188.978 179.095L252.342 201.546C252.342 201.546 252.841 220.09 249.016 235.39Z" fill="#19180A"/>
<path fill-rule="evenodd" clip-rule="evenodd" d="M260.324 139.264L258.578 168.118C258.162 171.86 249.597 173.607 239.785 171.112C230.056 168.617 224.485 164.792 224.9 161.05L229.64 119.889C229.474 119.889 229.308 119.889 229.141 119.889C225.898 119.889 223.237 117.228 223.237 113.985C223.237 110.908 225.566 108.413 228.559 108.081C229.557 106.335 230.721 104.339 231.802 101.927C235.627 93.4456 239.12 89.2048 239.369 84.9639C248.35 95.774 266.145 95.1919 271.716 103.84C273.463 119.806 270.802 139.347 260.324 139.264Z" fill="#FBCBA0"/>
<path d="M263.15 122.276C261.654 120.53 256.332 119.283 253.172 120.613" stroke="#19180A" stroke-width="1.66309" stroke-miterlimit="10" stroke-linecap="round" stroke-linejoin="round"/>
<path fill-rule="evenodd" clip-rule="evenodd" d="M259.659 152.07C251.261 147.247 246.022 138.848 244.359 132.695C248.267 136.52 255.502 138.931 260.491 139.43L259.659 152.07Z" fill="#19180A"/>
<path d="M248.267 100.597L254.088 99.3497C254.503 99.2666 254.836 98.8508 254.753 98.3519C254.67 97.9361 254.254 97.6035 253.755 97.6867L248.017 98.934C247.602 99.0171 247.269 99.4329 247.352 99.9318C247.518 100.348 247.851 100.597 248.267 100.597Z" fill="#19180A"/>
<path d="M259.991 115.648C260.074 115.648 260.158 115.648 260.241 115.565C261.654 114.983 262.652 113.985 263.068 112.654C264.149 109.411 261.738 105.337 261.654 105.171C261.405 104.755 260.906 104.672 260.49 104.921C260.074 105.171 259.991 105.669 260.241 106.085C260.241 106.085 262.32 109.661 261.571 112.156C261.322 112.987 260.657 113.652 259.659 114.068C259.243 114.234 259.077 114.733 259.243 115.149C259.326 115.482 259.659 115.731 259.991 115.648Z" fill="#19180A"/>
<path d="M225.566 113.818L225.649 113.902L229.141 115.897C229.557 116.147 230.056 115.98 230.305 115.565C230.555 115.149 230.388 114.65 229.973 114.401L226.48 112.405C226.064 112.155 225.566 112.322 225.316 112.737C225.15 113.07 225.233 113.569 225.566 113.818Z" fill="#19180A"/>
<path fill-rule="evenodd" clip-rule="evenodd" d="M267.892 104.173C266.728 104.256 265.896 105.254 265.979 106.418C266.063 107.582 267.06 108.414 268.225 108.33C269.389 108.247 270.22 107.249 270.137 106.085C269.971 104.921 268.973 104.09 267.892 104.173Z" fill="#19180A"/>
<path fill-rule="evenodd" clip-rule="evenodd" d="M251.511 104.173C250.346 104.256 249.515 105.254 249.598 106.418C249.681 107.582 250.679 108.414 251.843 108.33C253.007 108.247 253.839 107.249 253.756 106.085C253.673 104.921 252.675 104.09 251.511 104.173Z" fill="#19180A"/>
<path fill-rule="evenodd" clip-rule="evenodd" d="M350.382 125.709C335.331 125.709 307.141 125.709 307.141 125.709C304.564 125.709 302.069 124.213 299.99 121.718L262.654 117.643C258.579 117.643 254.754 112.488 254.754 105.919C254.754 99.2663 258.08 93.8613 262.155 93.8613C288.432 91.034 299.574 89.8698 299.574 89.8698C301.487 87.3752 303.815 85.8784 306.393 85.8784C319.947 85.8784 351.13 85.8784 351.13 85.8784C351.13 85.8784 361.691 88.2068 361.691 106.002C361.691 117.145 356.618 125.709 350.382 125.709Z" fill="#FF8E25"/>
<path fill-rule="evenodd" clip-rule="evenodd" d="M285.105 93.9445L331.755 88.8721V122.799L285.105 117.727V93.9445Z" fill="#FF8E25"/>
<path fill-rule="evenodd" clip-rule="evenodd" d="M349.384 124.462C343.646 124.462 338.99 116.23 338.99 106.002C338.99 95.7738 343.646 87.6247 349.384 87.6247C355.122 87.6247 359.778 95.857 359.778 106.085C359.778 116.313 355.122 124.462 349.384 124.462ZM326.932 124.462C321.195 124.462 316.538 116.23 316.538 106.002C316.538 95.857 321.195 87.5415 326.932 87.5415C332.67 87.5415 337.327 95.7738 337.327 106.002C337.327 116.23 332.67 124.462 326.932 124.462Z" fill="#363636"/>
<path fill-rule="evenodd" clip-rule="evenodd" d="M316.538 106.002C316.538 97.021 320.197 89.5371 324.937 87.874C328.679 91.1171 331.34 98.0189 331.34 106.002C331.34 113.985 328.762 120.803 324.937 124.129C320.197 122.466 316.538 114.982 316.538 106.002ZM338.99 106.002C338.99 97.3537 342.316 90.1192 346.89 88.1235C350.548 91.4497 352.96 98.1852 352.96 106.002C352.96 113.735 350.465 120.471 346.89 123.88C342.316 121.884 338.99 114.65 338.99 106.002Z" fill="#19180A"/>
<path d="M307.141 126.541C300.073 126.541 294.169 117.145 294.169 106.002C294.169 94.277 299.491 85.0469 306.309 85.0469C306.808 85.0469 307.141 85.3795 307.141 85.8784C307.141 86.3773 306.808 86.71 306.309 86.71C300.572 86.71 295.832 95.3581 295.832 106.002C295.832 114.899 300.489 124.878 307.141 124.878C307.64 124.878 307.973 125.211 307.973 125.709C307.973 126.208 307.64 126.541 307.141 126.541Z" fill="#19180A"/>
<path fill-rule="evenodd" clip-rule="evenodd" d="M285.355 201.879C279.867 226.742 259.827 221.503 259.827 221.503L201.619 200.216C192.139 196.973 186.734 187.16 189.312 177.681C192.139 167.037 203.614 160.967 214.258 164.542L249.266 178.096C249.765 175.352 250.264 172.192 250.68 169.116C252.426 155.977 253.84 150.655 259.827 146.664C260.908 145.916 262.238 145.334 263.569 144.918L264.816 132.029H287.517L286.852 146.165C289.347 147.496 292.756 150.157 294.003 154.979C296.831 166.205 290.428 179.177 285.355 201.879Z" fill="#E34D28"/>
<path d="M286.685 146.581C286.602 147.745 281.53 148.577 275.293 148.327C269.057 148.078 263.568 146.082 263.568 144.918" stroke="#19180A" stroke-width="1.66309" stroke-miterlimit="10" stroke-linecap="round" stroke-linejoin="round"/>
<path fill-rule="evenodd" clip-rule="evenodd" d="M276.125 129.867C282.362 129.867 287.434 130.865 287.434 132.029C287.434 133.193 282.362 134.191 276.125 134.191C269.888 134.191 264.816 133.193 264.816 132.029C264.816 130.781 269.888 129.867 276.125 129.867Z" fill="#19180A"/>
<path fill-rule="evenodd" clip-rule="evenodd" d="M302.651 85.9614H290.594C290.594 85.9614 285.688 85.9614 278.121 87.6245C272.3 88.8718 267.311 90.9507 267.311 90.9507V131.696C275.21 133.526 284.773 131.696 284.773 131.696V125.876C284.773 125.876 290.594 122.217 290.594 113.402C290.594 107.166 290.594 91.7822 290.594 91.7822C290.594 91.7822 293.421 91.3665 297.745 91.0339C299.076 88.7055 300.822 86.9593 302.651 85.9614Z" fill="#FBCBA0"/>
<path d="M199.123 199.052L249.847 219.009" stroke="#19180A" stroke-width="1.66309" stroke-miterlimit="10" stroke-linecap="round"/>
<path fill-rule="evenodd" clip-rule="evenodd" d="M315.541 777.808V710.453L315.624 710.286C318.867 706.295 393.124 703.052 484.344 703.052C575.565 703.052 649.822 706.295 653.065 710.286L653.148 710.453V777.808H315.541Z" fill="#19180A"/>
<path fill-rule="evenodd" clip-rule="evenodd" d="M484.344 702.969C577.561 702.969 653.148 706.295 653.148 710.453C653.148 714.61 577.561 717.937 484.344 717.937C391.128 717.937 315.541 714.61 315.541 710.453C315.541 706.295 391.128 702.969 484.344 702.969Z" fill="#363636"/>
<path fill-rule="evenodd" clip-rule="evenodd" d="M635.769 707.292C635.769 707.376 635.852 707.376 635.769 707.292C635.852 710.452 567.998 712.947 484.344 712.947C400.691 712.947 332.836 710.452 332.836 707.375C332.836 707.375 332.836 707.292 332.92 707.292H332.836V684.092L333.003 683.926C335.747 680.932 402.437 678.604 484.344 678.604C566.251 678.604 632.941 681.015 635.686 683.926L635.852 684.092L635.769 707.292Z" fill="#19180A"/>
<path fill-rule="evenodd" clip-rule="evenodd" d="M484.344 678.604C567.998 678.604 635.852 681.099 635.852 684.175C635.852 687.252 567.998 689.747 484.344 689.747C400.691 689.747 332.836 687.169 332.836 684.175C332.836 681.099 400.691 678.604 484.344 678.604Z" fill="#363636"/>
<path fill-rule="evenodd" clip-rule="evenodd" d="M618.224 681.681C613.151 685.173 554.86 686.504 484.345 686.504C415.243 686.504 357.617 684.591 350.466 682.097C350.466 682.097 347.971 621.726 347.971 544.06C347.971 421.906 414.079 381.077 463.556 381.077C480.187 381.077 489.833 380.911 505.133 380.911C554.61 380.911 620.718 421.74 620.718 543.894C620.718 621.643 618.224 681.681 618.224 681.681Z" fill="#E34D28"/>
<path fill-rule="evenodd" clip-rule="evenodd" d="M566.916 645.093C560.846 645.093 555.192 640.852 550.202 633.535L484.427 553.041L552.863 469.304V469.554C557.104 464.481 561.844 461.571 566.833 461.571C585.793 461.571 601.093 502.649 601.093 553.373C601.259 603.931 585.876 645.093 566.916 645.093ZM484.178 553.041L415.741 636.778L405.181 553.041L415.824 469.304L484.178 553.041Z" fill="#E34D28"/>
<path fill-rule="evenodd" clip-rule="evenodd" d="M566.916 645.093C560.846 645.093 555.192 640.852 550.202 633.535L484.427 553.041L552.863 469.304V469.554C557.104 464.481 561.844 461.571 566.833 461.571C585.793 461.571 601.093 502.649 601.093 553.373C601.259 603.931 585.876 645.093 566.916 645.093ZM484.178 553.041L415.741 636.778L405.181 553.041L415.824 469.304L484.178 553.041Z" fill="black" fill-opacity="0.2"/>
<path fill-rule="evenodd" clip-rule="evenodd" d="M401.772 461.487C420.731 461.487 436.032 502.566 436.032 553.29C436.032 603.931 420.648 645.093 401.772 645.093C382.813 645.093 367.512 604.014 367.512 553.29C367.512 502.649 382.813 461.487 401.772 461.487Z" fill="#E34D28"/>
<path fill-rule="evenodd" clip-rule="evenodd" d="M401.772 461.487C420.731 461.487 436.032 502.566 436.032 553.29C436.032 603.931 420.648 645.093 401.772 645.093C382.813 645.093 367.512 604.014 367.512 553.29C367.512 502.649 382.813 461.487 401.772 461.487Z" fill="white" fill-opacity="0.2"/>
<circle cx="590.985" cy="77.0872" r="61.6253" fill="#FFF5F0"/>
<path fill-rule="evenodd" clip-rule="evenodd" d="M879.91 374.674C881.406 376.005 882.404 375.256 883.652 376.171C894.877 384.403 903.858 393.135 903.858 393.135C903.858 393.135 900.199 396.877 893.131 392.885C885.564 388.561 881.406 383.239 868.351 377.502L879.91 374.674Z" fill="#AC3936"/>
<path fill-rule="evenodd" clip-rule="evenodd" d="M869.432 370.517C870.679 372.097 871.843 373.51 872.924 374.674C882.737 384.653 890.137 394.715 890.137 394.715C890.137 394.715 885.897 397.874 879.577 392.719C872.841 387.231 869.598 381.244 857.624 373.51L869.432 370.517Z" fill="#AC3936"/>
<path fill-rule="evenodd" clip-rule="evenodd" d="M907.268 391.139C898.536 388.977 892.466 385.9 876.501 383.156C875.835 383.073 875.087 382.99 874.338 382.99C874.422 382.99 874.505 383.073 874.588 383.073C874.255 382.99 873.756 382.99 873.257 382.99C873.091 382.99 872.925 382.99 872.759 382.99C868.518 383.322 861.2 385.983 875.419 392.386C882.238 395.463 883.818 402.032 883.07 403.279C878.829 402.365 852.302 393.384 844.985 391.388C840.578 390.224 837.251 387.813 835.256 386.067L835.173 385.983C835.006 385.817 834.84 385.734 834.757 385.568C834.424 385.235 834.092 384.902 833.759 384.57C833.593 384.403 833.51 384.237 833.343 384.154C832.262 382.99 831.431 381.659 830.682 380.163L809.312 335.508L839.912 327.11L859.371 365.195L918.41 389.31C918.41 389.476 914.668 392.968 907.268 391.139Z" fill="#CA824D"/>
<path fill-rule="evenodd" clip-rule="evenodd" d="M712.187 494.5C713.85 515.621 716.178 535.079 719.504 550.463C732.726 611.664 730.564 746.541 730.564 746.541L694.558 744.712L667.533 500.57L712.187 494.5Z" fill="#CA824D"/>
<path fill-rule="evenodd" clip-rule="evenodd" d="M687.905 762.673L691.647 742.3L689.984 704.299C692.811 704.964 702.374 706.211 710.773 706.045C722.664 705.795 730.813 705.047 730.647 704.132C731.977 715.109 735.802 754.524 735.802 754.524L687.905 762.673Z" fill="white"/>
<path fill-rule="evenodd" clip-rule="evenodd" d="M619.303 760.013C619.303 760.013 624.957 777.808 642.919 777.808C672.272 777.808 743.536 777.808 743.536 777.808L741.623 771.737C741.623 771.737 672.522 765.418 619.303 760.013Z" fill="white"/>
<path fill-rule="evenodd" clip-rule="evenodd" d="M619.219 759.679L681.169 745.294L683.165 730.243C683.165 730.243 688.57 731.573 693.227 738.641C695.805 742.466 696.969 747.539 697.551 751.364C712.02 749.618 720.585 742.466 735.22 743.464L741.54 771.737C741.54 771.737 670.359 771.737 641.089 771.737C628.699 771.737 619.219 759.679 619.219 759.679Z" fill="#E34D28"/>
<path fill-rule="evenodd" clip-rule="evenodd" d="M715.428 526.181C703.205 520.278 673.435 518.032 669.444 517.783L668.529 509.384L668.363 506.973L712.851 502.482C713.599 510.715 714.43 518.698 715.428 526.181Z" fill="#19180A" fill-opacity="0.5"/>
<path fill-rule="evenodd" clip-rule="evenodd" d="M797.337 482.858C802.326 503.564 807.981 523.188 815.132 539.736C843.738 606.26 863.695 726.502 863.695 726.502L834.341 742.467L752.6 489.012L797.337 482.858Z" fill="#CA824D"/>
<path fill-rule="evenodd" clip-rule="evenodd" d="M831.928 751.448L822.199 704.299C825.026 704.632 830.598 704.798 838.996 703.551C850.888 701.888 859.037 700.141 858.87 699.227C861.614 712.199 868.184 740.139 871.344 753.693L831.928 751.448Z" fill="white"/>
<path fill-rule="evenodd" clip-rule="evenodd" d="M895.958 763.671C895.958 763.671 893.297 777.808 875.169 777.808C845.816 777.808 830.266 777.808 830.266 777.808V771.987L895.958 763.671Z" fill="white"/>
<path fill-rule="evenodd" clip-rule="evenodd" d="M874.504 771.738C845.15 771.738 830.266 771.987 830.266 771.987V743.715C833.093 742.384 833.592 741.636 833.592 741.22C833.592 734.817 838.831 729.579 845.233 729.579H866.854L873.589 743.05L895.958 763.672C895.958 763.672 891.467 771.738 874.504 771.738Z" fill="#E34D28"/>
<path fill-rule="evenodd" clip-rule="evenodd" d="M799 489.594C800.996 497.494 803.075 505.227 805.403 512.628C793.263 508.969 766.653 510.882 759.918 511.381L756.508 500.82L799 489.594Z" fill="#19180A" fill-opacity="0.5"/>
<path fill-rule="evenodd" clip-rule="evenodd" d="M773.971 315.884L776.881 331.933H776.798C799.665 435.377 804.239 451.343 811.972 492.92C802.576 501.901 759.003 508.47 751.186 505.726L717.509 400.452C717.509 432.716 718.174 471.3 721.084 508.054C716.594 510.216 705.368 512.711 692.063 514.207C676.43 515.954 663.292 515.871 660.548 514.041L638.844 330.186L637.93 325.197C675.682 315.052 773.971 315.884 773.971 315.884Z" fill="#19180A"/>
<path d="M743.785 339.333C747.028 345.403 751.851 354.55 757.339 363.947C762.162 372.179 773.138 372.345 773.138 372.345" stroke="#E34D28" stroke-width="1.66309" stroke-miterlimit="10" stroke-linecap="round" stroke-linejoin="round"/>
<path d="M693.477 352.472L717.591 400.535" stroke="#E34D28" stroke-width="1.66309" stroke-miterlimit="10" stroke-linecap="round" stroke-linejoin="round"/>
<path d="M700.961 512.794C696.055 458.494 699.88 402.614 702.375 370.599" stroke="#E34D28" stroke-width="1.66309" stroke-miterlimit="10" stroke-linecap="round" stroke-linejoin="round"/>
<path d="M810.144 494.001C789.771 435.71 773.805 373.51 763.078 335.841" stroke="#E34D28" stroke-width="1.66309" stroke-miterlimit="10" stroke-linecap="round" stroke-linejoin="round"/>
<path fill-rule="evenodd" clip-rule="evenodd" d="M843.654 371.182C834.34 375.423 825.609 376.421 824.279 373.344C825.443 376.005 819.539 362.7 819.539 362.7C809.893 361.785 807.398 355.715 807.398 355.715L782.036 295.095C781.787 295.179 781.537 295.262 781.205 295.345C782.036 297.839 782.701 300.5 783.117 303.245C784.448 313.14 776.132 318.545 774.885 319.377L777.962 333.929C776.299 336.091 774.635 337.005 774.635 337.005C774.635 337.005 760.832 345.071 710.024 346.152C668.114 347.067 647.741 343.491 640.341 341.496L637.098 322.703C634.686 321.705 627.036 315.136 627.036 284.285C627.036 248.529 622.629 226.327 622.462 226.41L611.652 196.807C619.053 179.76 629.614 167.703 647.409 164.21C647.492 154.73 666.368 145.916 689.735 145.916C712.353 145.916 731.728 150.573 732.892 163.046H736.8C754.845 165.624 770.977 175.436 781.62 190.321L856.46 336.091C856.46 336.091 859.287 342.577 854.048 349.479L857.624 357.378C857.873 357.628 858.123 357.794 858.206 358.127C859.453 361.037 853.05 366.941 843.654 371.182Z" fill="#FFBA08"/>
<path fill-rule="evenodd" clip-rule="evenodd" d="M680.421 194.063C680.421 194.063 657.886 164.875 657.886 159.886C657.886 154.897 672.438 150.822 688.57 150.822C704.702 150.822 718.838 154.897 718.838 159.886C718.838 164.792 680.421 194.063 680.421 194.063Z" fill="#19180A"/>
<path d="M732.891 163.129C732.891 163.129 739.544 171.361 708.61 188.574" stroke="#19180A" stroke-width="1.66309" stroke-miterlimit="10" stroke-linecap="round" stroke-linejoin="round"/>
<path d="M647.326 164.293C647.326 164.293 647.16 170.197 658.219 182.67" stroke="#19180A" stroke-width="1.66309" stroke-miterlimit="10" stroke-linecap="round" stroke-linejoin="round"/>
<path fill-rule="evenodd" clip-rule="evenodd" d="M684.08 242.126L751.518 220.589L761.497 247.531L684.08 272.394L626.121 256.345C625.04 237.552 622.546 226.493 622.379 226.493L621.298 223.582L684.08 242.126Z" fill="white"/>
<path d="M637.263 323.202C637.263 323.202 698.132 337.172 774.801 319.377" stroke="#19180A" stroke-width="1.66309" stroke-miterlimit="10" stroke-linecap="round" stroke-linejoin="round"/>
<path d="M778.878 291.436L750.023 216.847" stroke="#19180A" stroke-width="1.66309" stroke-miterlimit="10" stroke-linecap="round" stroke-linejoin="round"/>
<path d="M854.381 348.481C852.385 351.807 846.73 356.048 839.413 359.374C831.097 363.116 823.281 364.53 819.955 363.033" stroke="#19180A" stroke-width="1.66309" stroke-miterlimit="10" stroke-linecap="round" stroke-linejoin="round"/>
<path fill-rule="evenodd" clip-rule="evenodd" d="M782.036 295.428C782.036 295.677 781.953 295.844 781.87 295.927C747.859 303.411 750.604 261.085 755.094 245.369C757.921 235.39 752.017 220.672 752.017 220.672C752.017 220.672 781.537 293.682 782.036 295.428Z" fill="#19180A"/>
<path fill-rule="evenodd" clip-rule="evenodd" d="M667.034 183.252C669.196 183.252 670.942 184.999 670.942 187.161C670.942 189.323 669.196 191.069 667.034 191.069C664.872 191.069 663.125 189.323 663.125 187.161C663.125 184.999 664.872 183.252 667.034 183.252Z" fill="#19180A"/>
<path fill-rule="evenodd" clip-rule="evenodd" d="M699.547 183.252C701.709 183.252 703.455 184.999 703.455 187.161C703.455 189.323 701.709 191.069 699.547 191.069C697.385 191.069 695.639 189.323 695.639 187.161C695.639 184.999 697.385 183.252 699.547 183.252Z" fill="#19180A"/>
<path fill-rule="evenodd" clip-rule="evenodd" d="M666.534 222.751C668.031 222.751 669.195 223.915 669.195 225.412C669.195 226.909 668.031 228.073 666.534 228.073C665.037 228.073 663.873 226.909 663.873 225.412C663.79 223.998 665.037 222.751 666.534 222.751Z" fill="white"/>
<path fill-rule="evenodd" clip-rule="evenodd" d="M700.876 222.751C702.373 222.751 703.537 223.915 703.537 225.412C703.537 226.909 702.373 228.073 700.876 228.073C699.379 228.073 698.215 226.909 698.215 225.412C698.132 223.998 699.379 222.751 700.876 222.751Z" fill="white"/>
<path d="M699.879 186.995C699.879 186.995 706.365 191.734 703.621 205.455C700.461 221.254 700.71 234.226 700.71 234.226" stroke="white" stroke-width="1.66309" stroke-miterlimit="10" stroke-linecap="round" stroke-linejoin="round"/>
<path d="M667.699 186.995C667.699 186.995 661.213 191.734 663.957 205.455C667.117 221.254 666.867 234.226 666.867 234.226" stroke="white" stroke-width="1.66309" stroke-miterlimit="10" stroke-linecap="round" stroke-linejoin="round"/>
<path fill-rule="evenodd" clip-rule="evenodd" d="M573.4 263.579C573.4 249.942 573.4 225.578 573.4 217.096C573.4 210.36 577.808 207.533 580.967 206.452V193.23H581.051C581.051 193.147 581.051 193.147 581.051 193.064C581.051 191.734 589.699 190.736 600.426 190.736C611.153 190.736 619.801 191.817 619.801 193.064C619.801 193.147 619.801 193.147 619.801 193.23H619.967V206.702C622.961 208.281 628.532 212.689 628.532 222.834C628.532 239.215 628.948 263.33 628.948 290.438C628.865 317.879 573.4 309.813 573.4 263.579Z" fill="#FFBA08"/>
<path d="M619.885 206.702C619.885 208.032 611.071 210.36 600.427 210.36C589.7 210.36 580.969 207.699 580.969 206.452" stroke="#19180A" stroke-width="1.66309" stroke-miterlimit="10" stroke-linecap="round" stroke-linejoin="round"/>
<path fill-rule="evenodd" clip-rule="evenodd" d="M600.344 190.736C611.071 190.736 619.719 191.817 619.719 193.064C619.719 194.395 611.071 195.393 600.344 195.393C589.617 195.393 580.969 194.311 580.969 193.064C580.969 191.817 589.7 190.736 600.344 190.736Z" fill="#19180A"/>
<path fill-rule="evenodd" clip-rule="evenodd" d="M588.202 166.039H619.801L616.059 191.484C615.31 192.482 608.575 193.231 600.259 193.231C591.611 193.231 584.543 192.399 584.46 191.318L588.202 166.039Z" fill="#CA824D"/>
<path fill-rule="evenodd" clip-rule="evenodd" d="M611.236 138.681H606.247L592.443 192.649H570.74L584.544 138.681H578.224L549.453 149.99C546.625 153.4 543.299 155.395 539.723 155.395C529.246 155.395 520.764 138.349 520.764 117.394C520.764 96.4388 529.246 79.3921 539.723 79.3921C543.299 79.3921 546.625 81.3878 549.453 84.7971L578.64 96.1893H611.236C616.475 96.1893 620.55 105.752 620.55 117.394C620.55 129.035 616.475 138.681 611.236 138.681Z" fill="#77313D"/>
<path fill-rule="evenodd" clip-rule="evenodd" d="M619.719 167.12L610.655 169.948C601.009 169.532 596.436 166.954 592.112 156.56C589.95 151.404 585.127 148.826 583.547 148.244C582.383 152.818 581.801 153.732 583.547 154.647C588.702 157.225 592.195 163.545 593.11 166.871C593.11 166.871 590.615 166.206 587.206 165.208C589.617 167.869 591.696 171.029 592.777 174.854C592.777 174.854 590.864 174.272 588.203 173.44C589.617 175.519 590.864 177.93 591.613 180.674C591.613 180.674 589.201 180.176 586.041 179.344C588.536 182.171 590.698 185.497 591.779 189.489C591.779 189.489 575.98 184.666 571.988 182.338C566.167 179.095 566.417 174.272 567.747 171.611C566.167 169.033 567.165 166.206 568.496 164.459C566.001 161.216 567.165 157.807 568.662 156.393C566.334 147.912 572.57 144.086 580.553 145.417C578.059 141.758 580.221 139.097 580.221 139.097C580.221 139.097 588.203 143.92 605.999 145.999C615.229 147.08 622.38 160.052 619.719 167.12Z" fill="#CA824D"/>
<path d="M591.861 189.822C592.11 189.905 592.443 189.822 592.609 189.572C592.859 189.406 592.942 189.073 592.859 188.824C592.027 185.082 590.447 182.254 588.119 179.926C587.786 179.594 587.287 179.594 586.955 179.926C586.622 180.259 586.622 180.758 586.955 181.09C588.784 182.92 590.115 185.082 590.946 187.826C587.121 186.745 576.394 183.668 573.484 182.338C569.243 180.342 567.746 177.016 567.746 174.771C567.746 173.606 568.162 172.941 568.495 172.775C568.91 172.609 569.077 172.11 568.91 171.694C568.744 171.278 568.245 171.112 567.829 171.278C566.748 171.777 566.083 173.107 566.083 174.771C566.083 177.432 567.829 181.423 572.735 183.834C576.311 185.581 591.196 189.655 591.861 189.822C591.861 189.822 591.778 189.822 591.861 189.822Z" fill="#19180A"/>
<path d="M591.944 182.587C592.194 182.67 592.527 182.587 592.693 182.337C592.942 182.171 593.025 181.838 592.942 181.589C592.028 177.681 590.365 174.687 587.787 172.276C587.454 171.943 586.955 172.026 586.623 172.359C586.29 172.691 586.373 173.19 586.706 173.523C588.785 175.435 590.198 177.681 591.03 180.591C587.205 179.51 576.478 176.433 573.567 175.103C569.326 173.107 567.83 169.781 567.83 167.536C567.83 166.372 568.245 165.706 568.578 165.54C568.994 165.374 569.16 164.875 568.994 164.459C568.827 164.043 568.329 163.877 567.913 164.043C566.832 164.542 566.167 165.873 566.167 167.536C566.167 170.197 567.913 174.188 572.819 176.6C576.395 178.263 591.196 182.42 591.944 182.587C591.861 182.587 591.861 182.587 591.944 182.587Z" fill="#19180A"/>
<path d="M592.278 175.352C592.527 175.435 592.86 175.352 593.026 175.103C593.275 174.937 593.359 174.604 593.275 174.354C592.194 169.698 590.032 166.372 586.374 163.711C586.041 163.461 585.459 163.544 585.209 163.877C584.96 164.21 585.043 164.792 585.376 165.041C588.369 167.203 590.199 169.781 591.28 173.357C587.455 172.276 576.728 169.199 573.817 167.868C569.576 165.873 568.08 162.547 568.08 160.301C568.08 159.137 568.495 158.472 568.828 158.306C569.244 158.139 569.41 157.64 569.244 157.225C569.077 156.809 568.579 156.643 568.163 156.809C567.082 157.308 566.417 158.638 566.417 160.301C566.417 162.962 568.163 166.954 573.069 169.365C576.728 171.111 591.612 175.186 592.278 175.352C592.278 175.352 592.194 175.352 592.278 175.352Z" fill="#19180A"/>
<path d="M592.777 167.287C593.026 167.37 593.359 167.287 593.525 167.037C593.774 166.871 593.858 166.538 593.774 166.289C592.444 160.302 589.367 156.56 583.297 153.4C582.881 153.15 582.382 153.317 582.133 153.732C581.883 154.148 582.05 154.647 582.465 154.813C587.621 157.557 590.365 160.551 591.779 165.208C587.954 164.127 577.227 161.05 574.316 159.72C570.075 157.724 568.579 154.398 568.579 152.152C568.579 150.988 568.994 150.323 569.327 150.157C569.743 149.99 569.909 149.491 569.743 149.076C569.576 148.66 569.078 148.494 568.662 148.66C567.581 149.159 566.916 150.489 566.916 152.152C566.916 154.813 568.662 158.805 573.568 161.216C577.227 162.963 592.111 167.12 592.777 167.287Z" fill="#19180A"/>
<path d="M605.499 168.95C606.83 169.033 607.661 168.95 607.661 168.95C608.16 168.867 608.409 168.451 608.326 168.035C608.243 167.619 607.827 167.287 607.328 167.37C606.913 167.453 597.35 168.7 593.442 157.308C592.028 153.15 588.868 151.072 586.041 149.242C583.047 147.246 580.386 145.583 580.054 141.758C579.971 141.259 579.638 140.927 579.139 141.01C578.64 141.093 578.308 141.426 578.391 141.924C578.806 146.498 582.049 148.577 585.126 150.573C587.87 152.319 590.614 154.148 591.862 157.724C595.105 167.037 602.007 168.7 605.499 168.95Z" fill="#19180A"/>
<path fill-rule="evenodd" clip-rule="evenodd" d="M536.896 80.4731C546.043 80.4731 553.444 96.9378 553.444 117.311C553.444 137.684 546.043 154.148 536.896 154.148C527.749 154.148 520.348 137.684 520.348 117.311C520.348 96.9378 527.749 80.4731 536.896 80.4731Z" fill="white"/>
<path fill-rule="evenodd" clip-rule="evenodd" d="M536.48 103.923L552.28 103.839C553.028 107.997 553.444 112.571 553.444 117.31C553.444 122.3 553.028 127.04 552.197 131.364L536.48 131.114V103.923Z" fill="#D7D5D6"/>
<path fill-rule="evenodd" clip-rule="evenodd" d="M536.896 103.34C540.388 103.34 543.132 109.577 543.132 117.31C543.132 125.044 540.305 131.28 536.896 131.28C533.403 131.28 530.659 125.044 530.659 117.31C530.659 109.577 533.403 103.34 536.896 103.34Z" fill="white"/>
<path fill-rule="evenodd" clip-rule="evenodd" d="M686.242 144.003C697.551 144.003 706.781 147.08 706.781 150.822C706.781 154.564 697.634 157.64 686.242 157.64C674.933 157.64 665.703 154.564 665.703 150.822C665.703 146.997 674.933 144.003 686.242 144.003Z" fill="#19180A"/>
<path fill-rule="evenodd" clip-rule="evenodd" d="M710.19 167.369L680.671 191.9L663.291 167.536L663.125 150.157C663.125 150.157 663.042 149.99 663.125 150.157C663.457 148.577 666.118 147.412 669.86 146.415V147.911C668.114 148.743 666.95 149.741 666.95 150.739C666.95 153.15 672.355 155.146 679.922 155.894C682.001 156.06 684.246 156.06 686.575 156.06C689.734 156.06 692.645 155.894 695.223 155.645C701.709 154.73 706.282 152.901 706.282 150.655C706.282 149.658 705.534 148.826 703.954 148.078V146.415C707.779 147.496 710.024 148.992 710.024 150.655C710.107 148.078 710.19 167.369 710.19 167.369Z" fill="#E34D28"/>
<path d="M710.191 167.37C710.191 170.862 699.713 173.689 686.741 173.689C673.935 173.689 663.624 170.945 663.292 167.536" stroke="#19180A" stroke-width="1.66309" stroke-miterlimit="10" stroke-linecap="round" stroke-linejoin="round"/>
<path fill-rule="evenodd" clip-rule="evenodd" d="M711.105 102.759C711.105 99.8483 708.776 97.5199 705.866 97.5199C705.284 97.5199 704.785 97.6031 704.286 97.7694L704.369 79.3922C704.369 59.1025 663.291 63.7592 659.466 73.8209C659.466 73.8209 659.382 93.8611 659.382 115.398C659.382 123.797 663.706 129.119 669.943 131.031L669.86 151.986C672.188 152.984 675.681 153.816 679.922 154.231C682 154.398 684.246 154.398 686.574 154.398C689.734 154.398 692.644 154.231 695.222 153.982C698.964 153.483 702.041 152.651 703.953 151.57V146.415H703.87V144.752H703.953L704.12 107.748C704.618 107.914 705.117 107.997 705.7 107.997C708.693 107.997 711.021 105.586 711.105 102.759Z" fill="#CA824D"/>
<path fill-rule="evenodd" clip-rule="evenodd" d="M672.604 111.739C674.766 111.739 676.429 112.987 676.429 114.65C676.429 116.23 674.683 117.56 672.604 117.56C670.525 117.56 668.779 116.313 668.779 114.65C668.779 112.987 670.442 111.739 672.604 111.739Z" fill="#19180A"/>
<path d="M703.288 104.006C702.956 104.006 702.706 103.84 702.54 103.59C702.374 103.175 702.54 102.676 702.872 102.509L706.199 100.93C706.614 100.763 707.113 100.929 707.28 101.262C707.446 101.678 707.28 102.177 706.947 102.343L703.621 103.923C703.538 104.006 703.455 104.006 703.288 104.006Z" fill="#19180A"/>
<path d="M667.2 110.159C667.2 110.159 667.283 110.159 667.2 110.159L675.599 109.328C676.014 109.245 676.43 108.912 676.347 108.413C676.264 107.997 675.931 107.582 675.432 107.665L668.281 108.413L671.358 93.6948C671.441 93.279 671.192 92.7801 670.693 92.6969C670.277 92.6138 669.778 92.8632 669.695 93.3621L666.369 109.162C666.285 109.411 666.369 109.66 666.535 109.91C666.701 110.076 666.951 110.159 667.2 110.159Z" fill="#19180A"/>
<path fill-rule="evenodd" clip-rule="evenodd" d="M669.861 144.086V131.364C671.025 131.447 672.273 131.53 672.605 131.613C676.015 132.112 686.326 129.035 695.806 122.549C690.65 131.031 680.755 140.76 669.861 144.086Z" fill="#19180A"/>
<path d="M665.287 91.4497L660.879 92.2813" stroke="#19180A" stroke-width="1.66309" stroke-miterlimit="10" stroke-linecap="round" stroke-linejoin="round"/>
<path d="M680.587 91.4497L684.994 92.2813" stroke="#19180A" stroke-width="1.66309" stroke-miterlimit="10" stroke-linecap="round" stroke-linejoin="round"/>
<path fill-rule="evenodd" clip-rule="evenodd" d="M663.541 94.5264C664.705 94.5264 665.62 95.4411 665.62 96.6052C665.62 97.7694 664.705 98.6841 663.541 98.6841C662.377 98.6841 661.462 97.7694 661.462 96.6052C661.462 95.5242 662.46 94.5264 663.541 94.5264Z" fill="#19180A"/>
<path fill-rule="evenodd" clip-rule="evenodd" d="M681.419 94.5264C682.583 94.5264 683.498 95.4411 683.498 96.6052C683.498 97.7694 682.583 98.6841 681.419 98.6841C680.255 98.6841 679.34 97.7694 679.34 96.6052C679.34 95.5242 680.338 94.5264 681.419 94.5264Z" fill="#19180A"/>
<path fill-rule="evenodd" clip-rule="evenodd" d="M710.689 100.846C709.941 98.8502 708.028 97.4366 705.783 97.4366C705.035 97.4366 704.287 97.6029 703.704 97.8524L703.621 81.5541C703.621 81.5541 701.043 75.8995 694.059 75.8995C686.076 75.8995 679.839 75.8995 675.182 75.8995C672.771 78.81 669.195 80.6394 665.121 80.6394C663.208 80.6394 661.379 80.2236 659.799 79.4752V89.7864C656.888 87.3749 655.059 83.7992 655.059 79.7247C655.059 78.5605 655.225 77.4795 655.475 76.3985C653.396 74.0701 652.065 70.9934 652.065 67.5841C652.065 60.3496 657.886 54.5288 665.121 54.5288C668.447 54.5288 671.44 55.7761 673.686 57.7718C674.933 57.1066 676.347 56.6908 677.843 56.6908C681.003 56.6908 683.664 58.3539 685.244 60.7654C695.223 60.5159 711.854 59.5181 711.854 78.7268C711.854 78.81 712.602 90.7011 710.689 100.846ZM709.026 106.75C706.947 112.654 703.954 116.812 703.954 116.812L703.788 107.581C704.37 107.831 705.035 107.997 705.7 107.997C707.031 107.997 708.112 107.498 709.026 106.75Z" fill="#19180A"/>
</svg>
