<svg width="71" height="70" viewBox="0 0 71 70" fill="none" xmlns="http://www.w3.org/2000/svg">
<path d="M0 14.6948C0 10.7975 1.5482 7.05982 4.30401 4.30401C7.05981 1.5482 10.7975 0 14.6948 0H55.3127C59.21 0 62.9477 1.5482 65.7035 4.30401C68.4593 7.05982 70.0075 10.7975 70.0075 14.6948V55.3052C70.0075 59.2025 68.4593 62.9402 65.7035 65.696C62.9477 68.4518 59.21 70 55.3127 70H14.6948C10.7975 70 7.05981 68.4518 4.30401 65.696C1.5482 62.9402 0 59.2025 0 55.3052V14.6948Z" fill="#E34D28"/>
<path d="M32.905 11.6917C33.0651 11.6897 33.2239 11.7196 33.3722 11.7798C33.5205 11.8401 33.6553 11.9293 33.7687 12.0423C33.8821 12.1553 33.9717 12.2899 34.0324 12.438C34.0931 12.5862 34.1235 12.7449 34.122 12.905V45.4897C34.1235 45.6498 34.0931 45.8085 34.0324 45.9567C33.9717 46.1048 33.8821 46.2393 33.7687 46.3523C33.6553 46.4653 33.5205 46.5546 33.3722 46.6149C33.2239 46.6751 33.0651 46.705 32.905 46.703H25.3202C24.8985 46.7035 24.4808 46.6208 24.0911 46.4597C23.7014 46.2985 23.3473 46.0621 23.0491 45.7639C22.7509 45.4657 22.5145 45.1115 22.3533 44.7218C22.1922 44.3321 22.1095 43.9144 22.11 43.4927V36.1981C22.1115 36.0381 22.081 35.8792 22.0203 35.7311C21.9597 35.583 21.87 35.4485 21.7567 35.3355C21.6433 35.2224 21.5085 35.1332 21.3602 35.073C21.2119 35.0128 21.053 34.9829 20.8929 34.9849C16.7482 35.0339 13.7339 35.0338 12.6262 35.0338C12.4217 35.0559 12.215 35.0336 12.0199 34.9686C11.8249 34.9036 11.6461 34.7973 11.4958 34.657C11.351 34.4937 11.2452 34.2996 11.1865 34.0895C11.1277 33.8793 11.1175 33.6585 11.1567 33.4438C11.162 33.3055 11.1946 33.1698 11.2529 33.0443C11.3111 32.9188 11.3937 32.8061 11.4958 32.7128L32.0685 12.0949C32.163 11.963 32.2891 11.8569 32.4353 11.7865C32.5814 11.716 32.743 11.6835 32.905 11.6917ZM37.6224 34.5628C37.1448 34.53 36.6736 34.6871 36.3112 34.9999C36.0842 35.2273 35.9099 35.5017 35.8006 35.8038C35.6912 36.1058 35.6494 36.4283 35.6782 36.7482C35.6782 43.3157 35.6782 49.9358 35.6292 56.492C35.6333 56.766 35.718 57.0328 35.8725 57.2592C36.0271 57.4855 36.2448 57.6614 36.4986 57.765C36.7523 57.8686 37.0309 57.8953 37.2998 57.8418C37.5686 57.7883 37.8157 57.657 38.0105 57.4641L58.6284 36.7407C58.7619 36.603 58.8624 36.4368 58.9223 36.2546C59.0045 35.966 58.9873 35.6581 58.8733 35.3804C58.7665 35.1579 58.6016 34.9684 58.396 34.8318C58.1904 34.6952 57.9518 34.6166 57.7053 34.6043C46.9592 34.5968 39.0316 34.5628 37.6224 34.5628Z" fill="white"/>
</svg>
