<svg width="14" height="16" viewBox="0 0 14 16" fill="none" xmlns="http://www.w3.org/2000/svg">
<path d="M5.72368 13.654C5.99283 13.654 6.233 13.6417 6.43095 13.6258V16C6.43095 16.0552 6.47572 16.1 6.53095 16.1H7.46847C7.5237 16.1 7.56847 16.0552 7.56847 16V13.6258C10.3548 13.8513 12.0412 12.8976 12.9643 11.498C13.8938 10.0887 14.0359 8.24726 13.7825 6.76154L13.7823 6.76046L13.7242 6.44127C13.7168 6.4003 13.6847 6.36824 13.6437 6.36078L13.3256 6.30289C13.3254 6.30285 13.3252 6.30282 13.3251 6.30278C12.829 6.20693 12.1511 6.17901 11.4779 6.23363C10.911 6.27962 10.3393 6.38477 9.8783 6.56213C10.5327 5.03094 10.1399 3.58381 9.4739 2.44738C8.77527 1.25519 7.76913 0.391026 7.32165 0.101571L7.05616 -0.0822203C7.02192 -0.105927 6.97657 -0.105927 6.94232 -0.0822203L6.67661 0.101726C6.21133 0.406322 5.20584 1.27379 4.51259 2.46638C3.85259 3.60178 3.4699 5.0436 4.12229 6.57379C3.66152 6.38988 3.09166 6.2818 2.52614 6.23444C1.85277 6.17806 1.17412 6.20685 0.674403 6.30277C0.674236 6.3028 0.674069 6.30283 0.673902 6.30286L0.355664 6.36078C0.314696 6.36824 0.282637 6.4003 0.275185 6.44127L0.217121 6.76046H0.21712L0.217073 6.76073C0.00581188 7.94011 0.0436785 9.6737 0.804934 11.1097C1.18646 11.8294 1.74997 12.4746 2.55403 12.9354C3.3578 13.396 4.39642 13.6693 5.72368 13.654ZM5.72368 13.654C5.72354 13.654 5.72341 13.654 5.72327 13.654H5.72293V13.554M5.72368 13.654C5.72381 13.654 5.72395 13.654 5.72408 13.654L5.72327 13.5837L5.72293 13.554M5.72293 13.554C0.471229 13.6147 -0.101942 9.10879 0.315506 6.77836L6.43095 13.5255C6.2337 13.5415 5.99323 13.554 5.72327 13.554H5.72293ZM6.43048 4.90766V7.99796C5.2434 6.80695 4.83048 5.61594 4.97201 4.49871C5.11799 3.34638 5.85657 2.24897 6.9992 1.29222C8.14581 2.2525 8.88289 3.35128 9.02714 4.50342C9.16697 5.62035 8.75222 6.80961 7.568 7.99793V4.90766C7.568 4.85243 7.52323 4.80766 7.468 4.80766H6.53048C6.47525 4.80766 6.43048 4.85243 6.43048 4.90766ZM5.24078 8.4204C6.04018 9.18499 6.4275 10.3233 6.43108 11.7123L4.24597 9.52719C4.20692 9.48814 4.1436 9.48814 4.10455 9.52719L3.44163 10.1901C3.42287 10.2089 3.41234 10.2343 3.41234 10.2608C3.41234 10.2873 3.42287 10.3128 3.44163 10.3315L5.62717 12.5171C3.72556 12.5175 2.593 11.8227 1.95863 10.8431C1.32359 9.86257 1.1762 8.579 1.287 7.3725C3.11471 7.21699 4.40964 7.62546 5.24078 8.4204ZM11.6202 11.394L11.6201 11.3939L11.617 11.3973C11.1733 11.8839 10.0265 12.516 8.37033 12.5189L10.5577 10.3315C10.5765 10.3128 10.587 10.2873 10.587 10.2608C10.587 10.2343 10.5765 10.2089 10.5577 10.1901L9.89481 9.52719C9.85575 9.48814 9.79244 9.48814 9.75339 9.52719L7.569 11.7116C7.57091 11.5625 7.5773 11.4042 7.59001 11.2396C7.7273 9.71193 8.25959 8.69958 9.12839 8.09243C9.9856 7.49338 11.1886 7.27568 12.7121 7.37422C12.748 7.78857 12.7712 8.46592 12.6508 9.18964C12.5217 9.96549 12.2292 10.785 11.6202 11.394Z" fill="#E34D28" stroke="#E34D28" stroke-width="0.2" stroke-linejoin="round"/>
</svg>
