<svg width="16" height="16" viewBox="0 0 16 16" fill="none" xmlns="http://www.w3.org/2000/svg">
<g clip-path="url(#clip0_5646_35244)">
<path d="M6.72368 13.654C6.99283 13.654 7.233 13.6417 7.43095 13.6258V16C7.43095 16.0552 7.47572 16.1 7.53095 16.1H8.46847C8.5237 16.1 8.56847 16.0552 8.56847 16V13.6258C11.3548 13.8513 13.0412 12.8976 13.9643 11.498C14.8938 10.0887 15.0359 8.24726 14.7825 6.76154L14.7823 6.76046L14.7242 6.44127C14.7168 6.4003 14.6847 6.36824 14.6437 6.36078L14.3256 6.30289C14.3254 6.30285 14.3252 6.30282 14.3251 6.30278C13.829 6.20693 13.1511 6.17901 12.4779 6.23363C11.911 6.27962 11.3393 6.38477 10.8783 6.56213C11.5327 5.03094 11.1399 3.58381 10.4739 2.44738C9.77527 1.25519 8.76913 0.391026 8.32165 0.101571L8.05616 -0.0822203C8.02192 -0.105927 7.97657 -0.105927 7.94232 -0.0822203L7.67661 0.101726C7.21133 0.406322 6.20584 1.27379 5.51259 2.46638C4.85259 3.60178 4.4699 5.0436 5.12229 6.57379C4.66152 6.38988 4.09166 6.2818 3.52614 6.23444C2.85277 6.17806 2.17412 6.20685 1.6744 6.30277C1.67424 6.3028 1.67407 6.30283 1.6739 6.30286L1.35566 6.36078C1.3147 6.36824 1.28264 6.4003 1.27518 6.44127L1.21712 6.76046H1.21712L1.21707 6.76073C1.00581 7.94011 1.04368 9.6737 1.80493 11.1097C2.18646 11.8294 2.74997 12.4746 3.55403 12.9354C4.3578 13.396 5.39642 13.6693 6.72368 13.654ZM6.72368 13.654C6.72354 13.654 6.72341 13.654 6.72327 13.654H6.72293V13.554M6.72368 13.654C6.72381 13.654 6.72395 13.654 6.72408 13.654L6.72327 13.5837L6.72293 13.554M6.72293 13.554C1.47123 13.6147 0.898058 9.10879 1.31551 6.77836L7.43095 13.5255C7.2337 13.5415 6.99323 13.554 6.72327 13.554H6.72293ZM7.43048 4.90766V7.99796C6.2434 6.80695 5.83048 5.61594 5.97201 4.49871C6.11799 3.34638 6.85657 2.24897 7.9992 1.29222C9.14581 2.2525 9.88289 3.35128 10.0271 4.50342C10.167 5.62035 9.75222 6.80961 8.568 7.99793V4.90766C8.568 4.85243 8.52323 4.80766 8.468 4.80766H7.53048C7.47525 4.80766 7.43048 4.85243 7.43048 4.90766ZM6.24078 8.4204C7.04018 9.18499 7.4275 10.3233 7.43108 11.7123L5.24597 9.52719C5.20692 9.48814 5.1436 9.48814 5.10455 9.52719L4.44163 10.1901C4.42287 10.2089 4.41234 10.2343 4.41234 10.2608C4.41234 10.2873 4.42287 10.3128 4.44163 10.3315L6.62717 12.5171C4.72556 12.5175 3.593 11.8227 2.95863 10.8431C2.32359 9.86257 2.1762 8.579 2.287 7.3725C4.11471 7.21699 5.40964 7.62546 6.24078 8.4204ZM12.6202 11.394L12.6201 11.3939L12.617 11.3973C12.1733 11.8839 11.0265 12.516 9.37033 12.5189L11.5577 10.3315C11.5765 10.3128 11.587 10.2873 11.587 10.2608C11.587 10.2343 11.5765 10.2089 11.5577 10.1901L10.8948 9.52719C10.8558 9.48814 10.7924 9.48814 10.7534 9.52719L8.569 11.7116C8.57091 11.5625 8.5773 11.4042 8.59001 11.2396C8.7273 9.71193 9.25959 8.69958 10.1284 8.09243C10.9856 7.49338 12.1886 7.27568 13.7121 7.37422C13.748 7.78857 13.7712 8.46592 13.6508 9.18964C13.5217 9.96549 13.2292 10.785 12.6202 11.394Z" fill="#364245" stroke="#364245" stroke-width="0.2" stroke-linejoin="round"/>
</g>
<defs>
<clipPath id="clip0_5646_35244">
<rect width="16" height="16" fill="white"/>
</clipPath>
</defs>
</svg>
