<svg width="14" height="16" viewBox="0 0 14 16" fill="none" xmlns="http://www.w3.org/2000/svg">
<mask id="path-1-outside-1_5646_35193" maskUnits="userSpaceOnUse" x="-0.257568" y="0" width="14" height="16" fill="black">
<rect fill="white" x="-0.257568" width="14" height="16"/>
<path d="M13.0638 6.57709C12.9752 6.36575 12.968 6.12761 13.0435 5.90651C13.379 4.92476 13.0173 3.82579 12.164 3.23401C11.3126 2.64361 10.1582 2.68872 9.35667 3.34374C9.17732 3.4903 8.94876 3.56711 8.71365 3.55998C8.50737 3.55366 8.30558 3.57269 8.11094 3.6151C7.97529 3.47297 7.82009 3.3453 7.64594 3.23431C7.4527 3.11118 7.31106 2.91961 7.24713 2.69485C6.96335 1.69694 6.03987 1 5.00144 1C3.96536 1 3.04245 1.69494 2.75709 2.68995C2.69324 2.91259 2.54936 3.10582 2.35194 3.23404C1.63862 3.69735 1.22951 4.4685 1.22951 5.34971C1.22951 5.57023 1.26032 5.78866 1.32113 5.99887C1.39261 6.24606 1.34189 6.51507 1.18198 6.73694C0.894436 7.13583 0.742432 7.60726 0.742432 8.10024C0.742432 8.51253 0.851643 8.91796 1.05825 9.27272C1.18835 9.49609 1.22313 9.75172 1.15371 9.97403C1.07737 10.2185 1.04206 10.4734 1.04887 10.7317C1.08201 11.994 2.12458 13.004 3.38294 13.0039C3.39808 13.0039 3.50423 13.001 3.54178 12.9985C3.53677 13.1764 3.53415 13.3545 3.53415 13.5327C3.53415 14.3418 4.19237 15 5.00141 15C5.70223 15 6.28952 14.506 6.4342 13.848C6.49217 13.8994 6.55284 13.9484 6.61642 13.9943C7.02799 14.2916 7.50594 14.4347 7.97997 14.4347C8.6999 14.4347 9.41078 14.1046 9.86622 13.4832C10.0189 13.2749 10.1352 13.0453 10.2118 12.801C10.2814 12.5787 10.4556 12.3885 10.6897 12.2792C11.0617 12.1054 11.3825 11.8344 11.6175 11.4956C11.8985 11.0905 12.0422 10.6165 12.0333 10.1249C12.0283 9.85139 12.1399 9.60141 12.3395 9.43905C12.5092 9.30096 12.659 9.13906 12.7847 8.9578C13.2981 8.21755 13.3973 7.37205 13.0638 6.57709ZM5.00144 14.1797C4.64471 14.1797 4.35449 13.8895 4.35449 13.5327C4.35449 11.9108 4.5719 10.3033 5.00144 8.74353C5.43098 10.3033 5.64839 11.9108 5.64839 13.5327C5.64839 13.8895 5.35819 14.1797 5.00144 14.1797ZM6.41938 12.1699C6.35791 11.3192 6.23894 10.4748 6.06306 9.64098L7.30857 8.649L7.05304 8.32818L6.79751 8.00736L5.85462 8.75832C5.76871 8.43012 5.67385 8.10388 5.57008 7.77983L6.78871 6.80923L6.27765 6.16756L5.4116 6.85733V4.7917H4.59128V6.85733L3.72522 6.16756L3.21417 6.80923L4.4328 7.77983C4.32906 8.10388 4.23417 8.43014 4.14826 8.75835L3.20537 8.00738L2.69431 8.64906L3.93982 9.64106C3.76394 10.4748 3.64497 11.3193 3.5835 12.17C3.5272 12.1775 3.47024 12.1823 3.41271 12.1834C2.58395 12.1987 1.89068 11.5386 1.86891 10.7103C1.86451 10.5423 1.88731 10.3769 1.93675 10.2187C2.07465 9.77707 2.01282 9.28185 1.76711 8.85999C1.63343 8.63041 1.56274 8.36775 1.56274 8.10035C1.56274 7.78062 1.66118 7.47508 1.84742 7.21671C2.15572 6.78897 2.25115 6.26206 2.10915 5.77107C2.06978 5.63496 2.04982 5.49321 2.04982 5.34982C2.04982 4.75162 2.32279 4.23124 2.79876 3.92209C3.16203 3.68614 3.42726 3.32889 3.54563 2.9162C3.73067 2.27091 4.32933 1.82031 5.00144 1.82031C5.67511 1.82031 6.27413 2.27222 6.45815 2.91926C6.5771 3.3374 6.84239 3.69497 7.20515 3.92611C7.70142 4.24234 7.95306 4.72132 7.95306 5.34971C7.95306 5.4931 7.9331 5.63485 7.89373 5.77099C7.75176 6.26198 7.84716 6.78886 8.15546 7.2166C8.3417 7.47497 8.44013 7.78051 8.44013 8.10024C8.44013 8.36769 8.36945 8.63044 8.23571 8.85999C7.99003 9.28174 7.92821 9.77693 8.06615 10.2185C8.11556 10.3767 8.13837 10.5421 8.13399 10.71C8.11256 11.5285 7.43621 12.1836 6.61986 12.1836C6.55424 12.1836 6.51322 12.1836 6.41938 12.1699ZM12.1107 8.49038C12.0289 8.60823 11.9318 8.71332 11.8219 8.80273C11.4254 9.12528 11.2035 9.61263 11.2131 10.1398C11.2189 10.4583 11.1257 10.7654 10.9435 11.0282C10.7911 11.2479 10.5833 11.4235 10.3425 11.536C9.90029 11.7426 9.56733 12.1142 9.42899 12.5557C9.37945 12.7139 9.30398 12.8628 9.20464 12.9983C8.71478 13.6665 7.7692 13.815 7.09674 13.3293C6.96735 13.2359 6.85559 13.124 6.76366 12.9988C7.90671 12.9287 8.83938 12.0267 8.94435 10.8844L9.7009 10.8343L9.64662 10.0157L8.87599 10.0669C8.76905 9.62698 9.00333 9.16657 9.02964 9.11193L10.3222 9.02618L10.2679 8.20765L9.25364 8.27494C9.25695 8.23064 9.25894 8.18618 9.25974 8.14164L10.3403 6.58354L9.6662 6.11607L9.01433 7.05607C8.95885 6.94554 8.89437 6.83887 8.82092 6.73699C8.66099 6.51512 8.61027 6.24609 8.68174 5.99893C8.74253 5.78868 8.77337 5.57029 8.77337 5.34976C8.77337 5.00137 8.71324 4.67549 8.59774 4.37985C9.03057 4.39309 9.54332 4.25065 9.87579 3.97894C10.3955 3.55421 11.1442 3.52509 11.6965 3.90812C12.2501 4.29202 12.4848 5.00471 12.2673 5.6413C12.1268 6.05263 12.141 6.49765 12.3074 6.89436C12.5349 7.43702 12.4688 7.97397 12.1107 8.49038Z"/>
</mask>
<path d="M13.0638 6.57709C12.9752 6.36575 12.968 6.12761 13.0435 5.90651C13.379 4.92476 13.0173 3.82579 12.164 3.23401C11.3126 2.64361 10.1582 2.68872 9.35667 3.34374C9.17732 3.4903 8.94876 3.56711 8.71365 3.55998C8.50737 3.55366 8.30558 3.57269 8.11094 3.6151C7.97529 3.47297 7.82009 3.3453 7.64594 3.23431C7.4527 3.11118 7.31106 2.91961 7.24713 2.69485C6.96335 1.69694 6.03987 1 5.00144 1C3.96536 1 3.04245 1.69494 2.75709 2.68995C2.69324 2.91259 2.54936 3.10582 2.35194 3.23404C1.63862 3.69735 1.22951 4.4685 1.22951 5.34971C1.22951 5.57023 1.26032 5.78866 1.32113 5.99887C1.39261 6.24606 1.34189 6.51507 1.18198 6.73694C0.894436 7.13583 0.742432 7.60726 0.742432 8.10024C0.742432 8.51253 0.851643 8.91796 1.05825 9.27272C1.18835 9.49609 1.22313 9.75172 1.15371 9.97403C1.07737 10.2185 1.04206 10.4734 1.04887 10.7317C1.08201 11.994 2.12458 13.004 3.38294 13.0039C3.39808 13.0039 3.50423 13.001 3.54178 12.9985C3.53677 13.1764 3.53415 13.3545 3.53415 13.5327C3.53415 14.3418 4.19237 15 5.00141 15C5.70223 15 6.28952 14.506 6.4342 13.848C6.49217 13.8994 6.55284 13.9484 6.61642 13.9943C7.02799 14.2916 7.50594 14.4347 7.97997 14.4347C8.6999 14.4347 9.41078 14.1046 9.86622 13.4832C10.0189 13.2749 10.1352 13.0453 10.2118 12.801C10.2814 12.5787 10.4556 12.3885 10.6897 12.2792C11.0617 12.1054 11.3825 11.8344 11.6175 11.4956C11.8985 11.0905 12.0422 10.6165 12.0333 10.1249C12.0283 9.85139 12.1399 9.60141 12.3395 9.43905C12.5092 9.30096 12.659 9.13906 12.7847 8.9578C13.2981 8.21755 13.3973 7.37205 13.0638 6.57709ZM5.00144 14.1797C4.64471 14.1797 4.35449 13.8895 4.35449 13.5327C4.35449 11.9108 4.5719 10.3033 5.00144 8.74353C5.43098 10.3033 5.64839 11.9108 5.64839 13.5327C5.64839 13.8895 5.35819 14.1797 5.00144 14.1797ZM6.41938 12.1699C6.35791 11.3192 6.23894 10.4748 6.06306 9.64098L7.30857 8.649L7.05304 8.32818L6.79751 8.00736L5.85462 8.75832C5.76871 8.43012 5.67385 8.10388 5.57008 7.77983L6.78871 6.80923L6.27765 6.16756L5.4116 6.85733V4.7917H4.59128V6.85733L3.72522 6.16756L3.21417 6.80923L4.4328 7.77983C4.32906 8.10388 4.23417 8.43014 4.14826 8.75835L3.20537 8.00738L2.69431 8.64906L3.93982 9.64106C3.76394 10.4748 3.64497 11.3193 3.5835 12.17C3.5272 12.1775 3.47024 12.1823 3.41271 12.1834C2.58395 12.1987 1.89068 11.5386 1.86891 10.7103C1.86451 10.5423 1.88731 10.3769 1.93675 10.2187C2.07465 9.77707 2.01282 9.28185 1.76711 8.85999C1.63343 8.63041 1.56274 8.36775 1.56274 8.10035C1.56274 7.78062 1.66118 7.47508 1.84742 7.21671C2.15572 6.78897 2.25115 6.26206 2.10915 5.77107C2.06978 5.63496 2.04982 5.49321 2.04982 5.34982C2.04982 4.75162 2.32279 4.23124 2.79876 3.92209C3.16203 3.68614 3.42726 3.32889 3.54563 2.9162C3.73067 2.27091 4.32933 1.82031 5.00144 1.82031C5.67511 1.82031 6.27413 2.27222 6.45815 2.91926C6.5771 3.3374 6.84239 3.69497 7.20515 3.92611C7.70142 4.24234 7.95306 4.72132 7.95306 5.34971C7.95306 5.4931 7.9331 5.63485 7.89373 5.77099C7.75176 6.26198 7.84716 6.78886 8.15546 7.2166C8.3417 7.47497 8.44013 7.78051 8.44013 8.10024C8.44013 8.36769 8.36945 8.63044 8.23571 8.85999C7.99003 9.28174 7.92821 9.77693 8.06615 10.2185C8.11556 10.3767 8.13837 10.5421 8.13399 10.71C8.11256 11.5285 7.43621 12.1836 6.61986 12.1836C6.55424 12.1836 6.51322 12.1836 6.41938 12.1699ZM12.1107 8.49038C12.0289 8.60823 11.9318 8.71332 11.8219 8.80273C11.4254 9.12528 11.2035 9.61263 11.2131 10.1398C11.2189 10.4583 11.1257 10.7654 10.9435 11.0282C10.7911 11.2479 10.5833 11.4235 10.3425 11.536C9.90029 11.7426 9.56733 12.1142 9.42899 12.5557C9.37945 12.7139 9.30398 12.8628 9.20464 12.9983C8.71478 13.6665 7.7692 13.815 7.09674 13.3293C6.96735 13.2359 6.85559 13.124 6.76366 12.9988C7.90671 12.9287 8.83938 12.0267 8.94435 10.8844L9.7009 10.8343L9.64662 10.0157L8.87599 10.0669C8.76905 9.62698 9.00333 9.16657 9.02964 9.11193L10.3222 9.02618L10.2679 8.20765L9.25364 8.27494C9.25695 8.23064 9.25894 8.18618 9.25974 8.14164L10.3403 6.58354L9.6662 6.11607L9.01433 7.05607C8.95885 6.94554 8.89437 6.83887 8.82092 6.73699C8.66099 6.51512 8.61027 6.24609 8.68174 5.99893C8.74253 5.78868 8.77337 5.57029 8.77337 5.34976C8.77337 5.00137 8.71324 4.67549 8.59774 4.37985C9.03057 4.39309 9.54332 4.25065 9.87579 3.97894C10.3955 3.55421 11.1442 3.52509 11.6965 3.90812C12.2501 4.29202 12.4848 5.00471 12.2673 5.6413C12.1268 6.05263 12.141 6.49765 12.3074 6.89436C12.5349 7.43702 12.4688 7.97397 12.1107 8.49038Z" fill="#364245"/>
<path d="M13.0638 6.57709C12.9752 6.36575 12.968 6.12761 13.0435 5.90651C13.379 4.92476 13.0173 3.82579 12.164 3.23401C11.3126 2.64361 10.1582 2.68872 9.35667 3.34374C9.17732 3.4903 8.94876 3.56711 8.71365 3.55998C8.50737 3.55366 8.30558 3.57269 8.11094 3.6151C7.97529 3.47297 7.82009 3.3453 7.64594 3.23431C7.4527 3.11118 7.31106 2.91961 7.24713 2.69485C6.96335 1.69694 6.03987 1 5.00144 1C3.96536 1 3.04245 1.69494 2.75709 2.68995C2.69324 2.91259 2.54936 3.10582 2.35194 3.23404C1.63862 3.69735 1.22951 4.4685 1.22951 5.34971C1.22951 5.57023 1.26032 5.78866 1.32113 5.99887C1.39261 6.24606 1.34189 6.51507 1.18198 6.73694C0.894436 7.13583 0.742432 7.60726 0.742432 8.10024C0.742432 8.51253 0.851643 8.91796 1.05825 9.27272C1.18835 9.49609 1.22313 9.75172 1.15371 9.97403C1.07737 10.2185 1.04206 10.4734 1.04887 10.7317C1.08201 11.994 2.12458 13.004 3.38294 13.0039C3.39808 13.0039 3.50423 13.001 3.54178 12.9985C3.53677 13.1764 3.53415 13.3545 3.53415 13.5327C3.53415 14.3418 4.19237 15 5.00141 15C5.70223 15 6.28952 14.506 6.4342 13.848C6.49217 13.8994 6.55284 13.9484 6.61642 13.9943C7.02799 14.2916 7.50594 14.4347 7.97997 14.4347C8.6999 14.4347 9.41078 14.1046 9.86622 13.4832C10.0189 13.2749 10.1352 13.0453 10.2118 12.801C10.2814 12.5787 10.4556 12.3885 10.6897 12.2792C11.0617 12.1054 11.3825 11.8344 11.6175 11.4956C11.8985 11.0905 12.0422 10.6165 12.0333 10.1249C12.0283 9.85139 12.1399 9.60141 12.3395 9.43905C12.5092 9.30096 12.659 9.13906 12.7847 8.9578C13.2981 8.21755 13.3973 7.37205 13.0638 6.57709ZM5.00144 14.1797C4.64471 14.1797 4.35449 13.8895 4.35449 13.5327C4.35449 11.9108 4.5719 10.3033 5.00144 8.74353C5.43098 10.3033 5.64839 11.9108 5.64839 13.5327C5.64839 13.8895 5.35819 14.1797 5.00144 14.1797ZM6.41938 12.1699C6.35791 11.3192 6.23894 10.4748 6.06306 9.64098L7.30857 8.649L7.05304 8.32818L6.79751 8.00736L5.85462 8.75832C5.76871 8.43012 5.67385 8.10388 5.57008 7.77983L6.78871 6.80923L6.27765 6.16756L5.4116 6.85733V4.7917H4.59128V6.85733L3.72522 6.16756L3.21417 6.80923L4.4328 7.77983C4.32906 8.10388 4.23417 8.43014 4.14826 8.75835L3.20537 8.00738L2.69431 8.64906L3.93982 9.64106C3.76394 10.4748 3.64497 11.3193 3.5835 12.17C3.5272 12.1775 3.47024 12.1823 3.41271 12.1834C2.58395 12.1987 1.89068 11.5386 1.86891 10.7103C1.86451 10.5423 1.88731 10.3769 1.93675 10.2187C2.07465 9.77707 2.01282 9.28185 1.76711 8.85999C1.63343 8.63041 1.56274 8.36775 1.56274 8.10035C1.56274 7.78062 1.66118 7.47508 1.84742 7.21671C2.15572 6.78897 2.25115 6.26206 2.10915 5.77107C2.06978 5.63496 2.04982 5.49321 2.04982 5.34982C2.04982 4.75162 2.32279 4.23124 2.79876 3.92209C3.16203 3.68614 3.42726 3.32889 3.54563 2.9162C3.73067 2.27091 4.32933 1.82031 5.00144 1.82031C5.67511 1.82031 6.27413 2.27222 6.45815 2.91926C6.5771 3.3374 6.84239 3.69497 7.20515 3.92611C7.70142 4.24234 7.95306 4.72132 7.95306 5.34971C7.95306 5.4931 7.9331 5.63485 7.89373 5.77099C7.75176 6.26198 7.84716 6.78886 8.15546 7.2166C8.3417 7.47497 8.44013 7.78051 8.44013 8.10024C8.44013 8.36769 8.36945 8.63044 8.23571 8.85999C7.99003 9.28174 7.92821 9.77693 8.06615 10.2185C8.11556 10.3767 8.13837 10.5421 8.13399 10.71C8.11256 11.5285 7.43621 12.1836 6.61986 12.1836C6.55424 12.1836 6.51322 12.1836 6.41938 12.1699ZM12.1107 8.49038C12.0289 8.60823 11.9318 8.71332 11.8219 8.80273C11.4254 9.12528 11.2035 9.61263 11.2131 10.1398C11.2189 10.4583 11.1257 10.7654 10.9435 11.0282C10.7911 11.2479 10.5833 11.4235 10.3425 11.536C9.90029 11.7426 9.56733 12.1142 9.42899 12.5557C9.37945 12.7139 9.30398 12.8628 9.20464 12.9983C8.71478 13.6665 7.7692 13.815 7.09674 13.3293C6.96735 13.2359 6.85559 13.124 6.76366 12.9988C7.90671 12.9287 8.83938 12.0267 8.94435 10.8844L9.7009 10.8343L9.64662 10.0157L8.87599 10.0669C8.76905 9.62698 9.00333 9.16657 9.02964 9.11193L10.3222 9.02618L10.2679 8.20765L9.25364 8.27494C9.25695 8.23064 9.25894 8.18618 9.25974 8.14164L10.3403 6.58354L9.6662 6.11607L9.01433 7.05607C8.95885 6.94554 8.89437 6.83887 8.82092 6.73699C8.66099 6.51512 8.61027 6.24609 8.68174 5.99893C8.74253 5.78868 8.77337 5.57029 8.77337 5.34976C8.77337 5.00137 8.71324 4.67549 8.59774 4.37985C9.03057 4.39309 9.54332 4.25065 9.87579 3.97894C10.3955 3.55421 11.1442 3.52509 11.6965 3.90812C12.2501 4.29202 12.4848 5.00471 12.2673 5.6413C12.1268 6.05263 12.141 6.49765 12.3074 6.89436C12.5349 7.43702 12.4688 7.97397 12.1107 8.49038Z" stroke="#364245" stroke-width="0.2" stroke-linejoin="round" mask="url(#path-1-outside-1_5646_35193)"/>
</svg>
