<svg width="16" height="16" viewBox="0 0 16 16" fill="none" xmlns="http://www.w3.org/2000/svg">
<path d="M12.9462 1.0015H3.0522C2.72571 1.0013 2.41251 1.13075 2.18144 1.3614C1.95037 1.59205 1.82034 1.90501 1.81995 2.2315V6.79698H3.32878C3.56764 6.50293 3.91247 6.3145 4.28895 6.2723C4.35848 6.25361 4.42188 6.21698 4.47279 6.16606C4.5237 6.11515 4.56033 6.05175 4.57902 5.98222C4.91182 4.73798 5.6014 4.6158 6.5061 4.8579C6.57563 4.87606 6.64869 4.87579 6.71808 4.85713C6.78748 4.83847 6.85082 4.80205 6.90186 4.75147C7.80131 3.85202 8.41369 4.07013 9.09503 4.75147C9.14615 4.80218 9.20961 4.83867 9.27915 4.85734C9.34869 4.876 9.4219 4.8762 9.49154 4.8579C10.7095 4.53185 11.169 5.05129 11.4179 5.98222C11.4366 6.05175 11.4732 6.11515 11.5241 6.16606C11.575 6.21698 11.6384 6.25361 11.7079 6.2723C12.0844 6.3145 12.4292 6.50293 12.6681 6.79698H14.1769V2.2315C14.1765 1.90527 14.0467 1.59253 13.816 1.36193C13.5852 1.13132 13.2724 1.00169 12.9462 1.0015ZM5.82552 4.18931C5.78744 4.22743 5.74222 4.25767 5.69244 4.2783C5.64267 4.29894 5.58932 4.30956 5.53544 4.30956C5.48156 4.30956 5.42821 4.29894 5.37843 4.2783C5.32866 4.25767 5.28344 4.22743 5.24537 4.18931L4.40063 3.34157C4.36251 3.3035 4.33227 3.25828 4.31163 3.20851C4.291 3.15873 4.28038 3.10538 4.28038 3.0515C4.28038 2.99762 4.291 2.94427 4.31163 2.8945C4.33227 2.84472 4.36251 2.79951 4.40063 2.76143C4.48288 2.68428 4.59142 2.64134 4.70419 2.64134C4.81697 2.64134 4.92551 2.68428 5.00776 2.76143L5.82776 3.58143C5.90513 3.66372 5.9482 3.77242 5.9482 3.88537C5.9482 3.99832 5.90513 4.10702 5.82776 4.18931H5.82552ZM8.40845 3.0515C8.40845 3.16024 8.36525 3.26453 8.28836 3.34142C8.21147 3.41831 8.10718 3.4615 7.99845 3.4615C7.88971 3.4615 7.78542 3.41831 7.70853 3.34142C7.63164 3.26453 7.58844 3.16024 7.58844 3.0515V2.2315C7.58844 2.12276 7.63164 2.01847 7.70853 1.94158C7.78542 1.86469 7.88971 1.8215 7.99845 1.8215C8.10718 1.8215 8.21147 1.86469 8.28836 1.94158C8.36525 2.01847 8.40845 2.12276 8.40845 2.2315V3.0515ZM11.5963 3.34157L10.7763 4.18931C10.7368 4.2311 10.6894 4.26456 10.6368 4.28771C10.5842 4.31085 10.5276 4.3232 10.4701 4.32404C10.4127 4.32488 10.3556 4.31418 10.3024 4.29258C10.2491 4.27098 10.2008 4.23892 10.1601 4.19829C10.1195 4.15767 10.0875 4.1093 10.0659 4.05606C10.0443 4.00282 10.0336 3.94579 10.0344 3.88834C10.0352 3.83089 10.0476 3.77419 10.0707 3.7216C10.0939 3.66901 10.1273 3.6216 10.1691 3.58218L11.0169 2.76218C11.0938 2.68524 11.1981 2.64202 11.3069 2.64202C11.4157 2.64202 11.5201 2.68524 11.597 2.76218C11.6739 2.83911 11.7172 2.94345 11.7172 3.05225C11.7172 3.16105 11.6739 3.26539 11.597 3.34232L11.5963 3.34157Z" fill="rgb(19, 138, 159)"/>
<path d="M1.41 12.5377C1.2723 12.5377 1.13493 12.5515 1 12.579L1 13.7677C1.0004 14.0938 1.13011 14.4065 1.3607 14.637C1.59128 14.8676 1.90391 14.9974 2.23 14.9978H3.41878C3.47958 14.6999 3.47338 14.3922 3.40061 14.0971C3.32784 13.8019 3.19034 13.5266 2.99806 13.2911C2.80578 13.0557 2.56354 12.8659 2.28887 12.7356C2.01421 12.6053 1.71401 12.5377 1.41 12.5377Z" fill="rgb(19, 138, 159)"/>
<path d="M12.5369 10.0777H10.008C9.91365 10.5409 9.66217 10.9573 9.2961 11.2563C8.93003 11.5554 8.47187 11.7187 7.99919 11.7187C7.5265 11.7187 7.06834 11.5554 6.70227 11.2563C6.3362 10.9573 6.08473 10.5409 5.99041 10.0777H3.46069V12.5857C3.77822 12.8933 4.01531 13.2742 4.1511 13.6949C4.2869 14.1157 4.31725 14.5633 4.23947 14.9985H11.7582C11.6804 14.5633 11.7107 14.1157 11.8465 13.6949C11.9823 13.2742 12.2194 12.8933 12.5369 12.5857V10.0777Z" fill="rgb(19, 138, 159)"/>
<path d="M14.5862 12.5377C14.2822 12.5377 13.9819 12.6053 13.7072 12.7356C13.4324 12.866 13.1901 13.0558 12.9978 13.2914C12.8056 13.5269 12.6681 13.8023 12.5953 14.0976C12.5226 14.3928 12.5165 14.7006 12.5775 14.9985H13.7662C14.0923 14.9981 14.405 14.8684 14.6356 14.6378C14.8661 14.4072 14.9959 14.0946 14.9963 13.7685V12.5797C14.8614 12.552 14.724 12.5379 14.5862 12.5377Z" fill="rgb(19, 138, 159)"/>
<path d="M13.767 7.61699H2.23C1.90391 7.61739 1.59128 7.7471 1.3607 7.97768C1.13011 8.20827 1.0004 8.5209 1 8.847V11.759C1.13549 11.7353 1.27252 11.7215 1.41 11.7177C1.83642 11.72 2.25684 11.8184 2.64 12.0056V8.43699H3.46076V9.257H5.947V8.43699H6.7715V9.667C6.7715 9.99331 6.90112 10.3063 7.13187 10.537C7.36261 10.7677 7.67556 10.8974 8.00187 10.8974C8.32819 10.8974 8.64114 10.7677 8.87188 10.537C9.10262 10.3063 9.23225 9.99331 9.23225 9.667V8.43699H10.0523V9.257H12.54V8.43699H13.36V12.0056C13.864 11.7433 14.4411 11.6565 15 11.759V8.847C14.9998 8.68527 14.9678 8.52517 14.9057 8.37583C14.8436 8.2265 14.7527 8.09085 14.6382 7.97663C14.5237 7.86241 14.3879 7.77186 14.2384 7.71016C14.0889 7.64845 13.9287 7.61679 13.767 7.61699ZM7.9955 10.0852C7.91367 10.0852 7.83368 10.061 7.76564 10.0155C7.6976 9.97005 7.64456 9.90543 7.61325 9.82983C7.58193 9.75422 7.57374 9.67104 7.5897 9.59078C7.60567 9.51052 7.64507 9.43679 7.70294 9.37893C7.7608 9.32106 7.83453 9.28165 7.91478 9.26569C7.99504 9.24972 8.07823 9.25792 8.15384 9.28924C8.22944 9.32055 8.29406 9.37359 8.33952 9.44163C8.38499 9.50967 8.40925 9.58966 8.40925 9.67149C8.40846 9.78111 8.36452 9.886 8.28693 9.96345C8.20935 10.0409 8.10437 10.0847 7.99475 10.0852H7.9955Z" fill="rgb(19, 138, 159)"/>
</svg>
