<svg width="16" height="16" viewBox="0 0 16 16" fill="none" xmlns="http://www.w3.org/2000/svg">
<path d="M12.6667 5.99998C11.3334 4.66665 10.66 1.33331 6.64668 1.33331C3.30002 1.33331 1.29335 3.99998 1.33335 7.67998C1.37335 11.36 4.64002 12.6666 6.64668 12.6666C7.98668 12.6666 7.98668 14.6666 10.66 14.6666C12.6667 14.6666 14.6667 12.6666 14.6667 10.0133C14.6667 7.99998 14.0067 7.33331 12.6667 5.99998ZM10.66 13.3333C9.66668 13.3333 9.35335 13 8.87335 12.4933C8.44002 12.0333 7.77335 11.3333 6.64668 11.3333C5.55335 11.3333 2.70002 10.6733 2.66668 7.66665C2.64668 5.99331 3.12002 4.58665 3.99335 3.69998C4.67335 3.01331 5.56668 2.66665 6.64668 2.66665C8.87335 2.66665 9.65335 3.90665 10.5534 5.34665C10.92 5.93331 11.2667 6.48665 11.7267 6.93998C12.9934 8.19998 13.3334 8.53998 13.3334 10.0133C13.3334 11.9133 11.92 13.3333 10.66 13.3333Z" fill="#364245"/>
<path d="M8.00008 10.3334C9.28875 10.3334 10.3334 9.28868 10.3334 8.00002C10.3334 6.71136 9.28875 5.66669 8.00008 5.66669C6.71142 5.66669 5.66675 6.71136 5.66675 8.00002C5.66675 9.28868 6.71142 10.3334 8.00008 10.3334Z" fill="#364245"/>
</svg>
