<svg width="14" height="13" viewBox="0 0 14 13" fill="none" xmlns="http://www.w3.org/2000/svg">
<path d="M13 11V6.33337H1V11C1 11.3537 1.14048 11.6928 1.39052 11.9428C1.64057 12.1929 1.97971 12.3334 2.33333 12.3334H11.6667C12.0203 12.3334 12.3594 12.1929 12.6095 11.9428C12.8595 11.6928 13 11.3537 13 11Z" stroke="#E34D28" stroke-width="1.33333" stroke-linecap="round" stroke-linejoin="round"/>
<path d="M1 9H13" stroke="#E34D28" stroke-width="1.33333" stroke-linecap="round" stroke-linejoin="round"/>
<path d="M1 7.66669V10.3334" stroke="#E34D28" stroke-width="1.33333" stroke-linecap="round" stroke-linejoin="round"/>
<path d="M13 7.66669V10.3334" stroke="#E34D28" stroke-width="1.33333" stroke-linecap="round" stroke-linejoin="round"/>
<path d="M1.02222 6.33335H12.9999C12.9999 5.66135 9.06422 2.80602 7.01088 1.46235C4.95755 0.119019 3.24655 1.96635 1.87755 3.64569C0.782551 4.99002 1.02222 5.66202 1.02222 6.33335Z" stroke="#E34D28" stroke-width="1.33333" stroke-linecap="round" stroke-linejoin="round"/>
</svg>
