<svg width="16" height="12" viewBox="0 0 16 12" fill="none" xmlns="http://www.w3.org/2000/svg">
<path d="M8.00325 0C6.24702 0 4.48938 0.367404 3.03669 1.09365C2.36996 1.42691 1.66259 1.76761 1.07296 2.25891C0.483336 2.75021 0 3.46615 0 4.35497C0 5.63998 0.33541 6.7169 1.05349 7.37158C1.13956 7.4501 1.23367 7.51998 1.33347 7.5825V9.33357C1.33347 10.7992 2.53442 11.9999 4.00035 11.9999H12.001C13.4669 11.9999 14.6679 10.7992 14.6679 9.33357V7.58504C14.7693 7.52205 14.8647 7.45083 14.9517 7.37152C15.6698 6.71683 16 5.63992 16 4.3549C16 3.46608 15.5166 2.75001 14.927 2.25878C14.3373 1.76754 13.63 1.42685 12.9632 1.09351C11.5106 0.367404 9.75948 0 8.00325 0V0ZM7.33263 1.4061V2.66768C7.3327 3.03622 7.63149 3.33489 8.0001 3.33482C8.36865 3.33475 8.66738 3.03609 8.66738 2.66768V1.4061C9.356 1.44371 10.0271 1.53809 10.6649 1.69251V2.66768C10.6731 3.03582 10.9782 3.32766 11.3464 3.31949C11.7031 3.31159 11.9904 3.02431 11.9984 2.66768V2.11567C12.1241 2.16935 12.2491 2.22404 12.3682 2.28361C13.0349 2.61688 13.6649 2.94017 14.0754 3.28221C14.4859 3.62418 14.6665 3.91059 14.6665 4.35504C14.6665 5.38402 14.3339 6.13028 14.0519 6.38738C13.9108 6.51596 13.8191 6.54052 13.7016 6.53062C13.5841 6.52071 13.3952 6.45076 13.1404 6.19601C13.1294 6.18563 13.1181 6.17566 13.1065 6.16609C10.1915 3.5952 5.80833 3.5952 2.89339 6.16609C2.88355 6.1758 2.87398 6.18577 2.86474 6.19601C2.60999 6.45076 2.41581 6.52071 2.29827 6.53062C2.18073 6.54052 2.0903 6.51596 1.94927 6.38738C1.66728 6.13028 1.33334 5.38402 1.33334 4.35504C1.33334 3.91066 1.51928 3.62425 1.92973 3.28221C2.34024 2.94024 2.96494 2.61695 3.63168 2.28361C3.75035 2.22431 3.87619 2.17049 4.00149 2.11694V2.66768C4.00966 3.03582 4.31475 3.32766 4.68302 3.31949C5.03972 3.31159 5.32707 3.02431 5.33496 2.66768V1.69251C5.97299 1.53809 6.64441 1.44392 7.33263 1.4061V1.4061ZM8.00064 5.56575C9.49917 5.56575 10.9959 6.0928 12.2015 7.14628C12.5422 7.48537 12.9255 7.71469 13.3345 7.81027V9.33357C13.3345 10.0837 12.7513 10.6668 12.001 10.6668H4.00035C3.25008 10.6668 2.66688 10.0837 2.66688 9.33357V7.809C3.07739 7.71268 3.4634 7.48263 3.80497 7.14113C5.00953 6.09132 6.50472 5.56575 8.00064 5.56575Z" fill="#364245"/>
</svg>
