<svg width="16" height="16" viewBox="0 0 16 16" fill="none" xmlns="http://www.w3.org/2000/svg">
<path d="M7.99992 14.6667C11.6819 14.6667 14.6666 12.2043 14.6666 9.16667C14.6666 7.01934 13.1749 5.23367 10.9999 4.328L9.83325 4.83334L9.99992 6.66667L7.83325 6L5.66659 6.66667V4.83334L4.66659 4.328C2.67392 5.279 1.33325 7.131 1.33325 9.16667C1.33325 12.2043 4.31792 14.6667 7.99992 14.6667Z" stroke="#364245" stroke-width="1.33333" stroke-linecap="round" stroke-linejoin="round"/>
<path d="M7.83317 1.33331L9.10284 3.03898L11.9998 3.30331L9.8875 4.82765L10.4998 6.99998L7.83317 5.99998L5.1665 6.99998L5.77884 4.82765L3.6665 3.30331L6.5635 3.03898L7.83317 1.33331Z" stroke="#364245" stroke-width="1.33333" stroke-linecap="round" stroke-linejoin="round"/>
</svg>
