<svg width="19" height="19" viewBox="0 0 19 19" fill="none" xmlns="http://www.w3.org/2000/svg">
<path d="M15.938 3.05502e-07H2.73799C2.30242 -0.000265128 1.88456 0.172445 1.57628 0.480163C1.268 0.787882 1.09452 1.20542 1.09399 1.641V7.732H3.10699C3.42567 7.3397 3.88572 7.08831 4.38799 7.032C4.48076 7.00707 4.56534 6.95819 4.63327 6.89027C4.70119 6.82235 4.75006 6.73777 4.77499 6.645C5.21899 4.985 6.13899 4.822 7.34599 5.145C7.43876 5.16922 7.53623 5.16886 7.62881 5.14397C7.72139 5.11907 7.80589 5.07048 7.87399 5.003C9.07399 3.803 9.891 4.094 10.8 5.003C10.8682 5.07065 10.9529 5.11934 11.0456 5.14424C11.1384 5.16915 11.2361 5.16941 11.329 5.145C12.954 4.71 13.567 5.403 13.899 6.645C13.9239 6.73777 13.9728 6.82235 14.0407 6.89027C14.1086 6.95819 14.1932 7.00707 14.286 7.032C14.7883 7.08831 15.2483 7.3397 15.567 7.732H17.58V1.641C17.5795 1.20577 17.4063 0.788531 17.0984 0.48087C16.7906 0.173209 16.3732 0.000264883 15.938 3.05502e-07ZM6.438 4.253C6.38719 4.30386 6.32686 4.3442 6.26046 4.37173C6.19406 4.39926 6.12288 4.41343 6.05099 4.41343C5.97911 4.41343 5.90793 4.39926 5.84153 4.37173C5.77512 4.3442 5.7148 4.30386 5.66399 4.253L4.53699 3.122C4.48614 3.0712 4.44579 3.01087 4.41826 2.94447C4.39074 2.87806 4.37657 2.80688 4.37657 2.735C4.37657 2.66312 4.39074 2.59194 4.41826 2.52553C4.44579 2.45913 4.48614 2.3988 4.53699 2.348C4.64673 2.24507 4.79154 2.18779 4.94199 2.18779C5.09245 2.18779 5.23726 2.24507 5.34699 2.348L6.44099 3.442C6.54421 3.55179 6.60168 3.69681 6.60168 3.8475C6.60168 3.99819 6.54421 4.14321 6.44099 4.253H6.438ZM9.884 2.735C9.884 2.88007 9.82636 3.01921 9.72378 3.12179C9.6212 3.22437 9.48207 3.282 9.33699 3.282C9.19192 3.282 9.05279 3.22437 8.95021 3.12179C8.84762 3.01921 8.78999 2.88007 8.78999 2.735V1.641C8.78999 1.49593 8.84762 1.3568 8.95021 1.25421C9.05279 1.15163 9.19192 1.094 9.33699 1.094C9.48207 1.094 9.6212 1.15163 9.72378 1.25421C9.82636 1.3568 9.884 1.49593 9.884 1.641V2.735ZM14.137 3.122L13.043 4.253C12.9904 4.30876 12.9271 4.3534 12.857 4.38427C12.7868 4.41515 12.7112 4.43163 12.6345 4.43275C12.5579 4.43387 12.4818 4.4196 12.4108 4.39078C12.3397 4.36196 12.2752 4.31919 12.221 4.26498C12.1668 4.21078 12.124 4.14626 12.0952 4.07522C12.0664 4.00419 12.0521 3.9281 12.0532 3.85146C12.0544 3.77481 12.0708 3.69917 12.1017 3.62901C12.1326 3.55885 12.1772 3.4956 12.233 3.443L13.364 2.349C13.4666 2.24636 13.6058 2.1887 13.751 2.1887C13.8961 2.1887 14.0354 2.24636 14.138 2.349C14.2406 2.45164 14.2983 2.59085 14.2983 2.736C14.2983 2.88115 14.2406 3.02036 14.138 3.123L14.137 3.122Z" fill="white"/>
<path d="M0.547 15.391C0.363281 15.3909 0.180021 15.4093 0 15.446L0 17.032C0.000529268 17.467 0.17359 17.8841 0.481222 18.1918C0.788855 18.4994 1.20594 18.6725 1.641 18.673H3.227C3.30812 18.2756 3.29984 17.8651 3.20276 17.4713C3.10568 17.0775 2.92223 16.7103 2.6657 16.3961C2.40917 16.082 2.08598 15.8288 1.71954 15.655C1.3531 15.4811 0.952585 15.391 0.547 15.391Z" fill="white"/>
<path d="M15.392 12.109H12.018C11.8922 12.727 11.5567 13.2824 11.0683 13.6814C10.5799 14.0804 9.96865 14.2983 9.33802 14.2983C8.70739 14.2983 8.09614 14.0804 7.60775 13.6814C7.11936 13.2824 6.78385 12.727 6.65802 12.109H3.28302V15.455C3.70665 15.8654 4.02295 16.3736 4.20412 16.9349C4.3853 17.4962 4.42578 18.0934 4.32202 18.674H14.353C14.2493 18.0934 14.2897 17.4962 14.4709 16.9349C14.6521 16.3736 14.9684 15.8654 15.392 15.455V12.109Z" fill="white"/>
<path d="M18.126 15.391C17.7203 15.3909 17.3197 15.4811 16.9532 15.655C16.5867 15.8289 16.2634 16.0822 16.0069 16.3965C15.7503 16.7107 15.5669 17.0781 15.4699 17.472C15.3729 17.866 15.3647 18.2765 15.446 18.674H17.032C17.4671 18.6735 17.8842 18.5004 18.1918 18.1928C18.4994 17.8851 18.6725 17.468 18.673 17.033V15.447C18.4931 15.41 18.3098 15.3912 18.126 15.391Z" fill="white"/>
<path d="M17.033 8.82599H1.641C1.20594 8.82652 0.788855 8.99957 0.481222 9.30721C0.17359 9.61484 0.000529268 10.0319 0 10.467L0 14.352C0.18076 14.3204 0.363575 14.302 0.547 14.297C1.11591 14.3 1.67681 14.4313 2.188 14.681V9.91998H3.283V11.014H6.6V9.91998H7.7V11.561C7.7 11.9963 7.87294 12.4139 8.18078 12.7217C8.48863 13.0296 8.90615 13.2025 9.3415 13.2025C9.77685 13.2025 10.1944 13.0296 10.5022 12.7217C10.8101 12.4139 10.983 11.9963 10.983 11.561V9.91998H12.077V11.014H15.396V9.91998H16.49V14.681C17.1625 14.3311 17.9324 14.2153 18.678 14.352V10.467C18.6777 10.2512 18.635 10.0376 18.5522 9.8384C18.4694 9.63916 18.3481 9.45818 18.1954 9.3058C18.0426 9.15342 17.8613 9.03261 17.6619 8.95029C17.4625 8.86796 17.2488 8.82573 17.033 8.82599ZM9.333 12.119C9.22382 12.119 9.1171 12.0866 9.02633 12.026C8.93555 11.9653 8.8648 11.8791 8.82302 11.7782C8.78124 11.6774 8.77031 11.5664 8.79161 11.4593C8.81291 11.3522 8.86548 11.2539 8.94268 11.1767C9.01988 11.0995 9.11823 11.0469 9.22531 11.0256C9.33239 11.0043 9.44338 11.0152 9.54424 11.057C9.64511 11.0988 9.73132 11.1695 9.79197 11.2603C9.85263 11.3511 9.885 11.4578 9.885 11.567C9.88395 11.7132 9.82532 11.8532 9.72181 11.9565C9.6183 12.0598 9.47825 12.1182 9.332 12.119H9.333Z" fill="white"/>
</svg>
