<svg width="14" height="14" viewBox="0 0 14 14" fill="none" xmlns="http://www.w3.org/2000/svg">
<path d="M2.89776 10.7184C3.12431 10.7184 3.30796 10.5347 3.30796 10.3082C3.30796 10.0816 3.12431 9.89795 2.89776 9.89795C2.6712 9.89795 2.48755 10.0816 2.48755 10.3082C2.48755 10.5347 2.6712 10.7184 2.89776 10.7184Z" fill="#E34D28"/>
<path d="M13.5906 11.5387H12.7417C12.9998 11.1957 13.153 10.7695 13.153 10.3081C13.153 9.17717 12.2329 8.25707 11.102 8.25707H11.1009C11.359 7.91402 11.5122 7.48782 11.5122 7.02644C11.5122 5.8955 10.5921 4.9754 9.46114 4.9754H5.35907C4.22813 4.9754 3.30803 5.8955 3.30803 7.02644C3.30803 7.48782 3.46126 7.91402 3.71936 8.25707H2.89782C1.76688 8.25707 0.846786 9.17717 0.846786 10.3081C0.846786 10.7695 1.00001 11.1957 1.25811 11.5387H0.409231C0.182687 11.5387 -0.000976562 11.7224 -0.000976562 11.9489C-0.000976562 12.1755 0.182687 12.3591 0.409231 12.3591H1.00346L1.48376 13.3197C1.69356 13.7393 2.11534 14 2.58445 14H11.4153C11.8845 14 12.3062 13.7393 12.516 13.3197L12.9963 12.3591H13.5906C13.8171 12.3591 14.0008 12.1755 14.0008 11.9489C14.0008 11.7224 13.8171 11.5387 13.5906 11.5387ZM6.99878 5.79582H9.46114C10.1397 5.79582 10.6918 6.34788 10.6918 7.02644C10.6918 7.70501 10.1397 8.25707 9.46114 8.25707H6.9999C6.99952 8.25707 6.99913 8.25712 6.99872 8.25712C7.25685 7.91408 7.41011 7.48785 7.41011 7.02644C7.41011 6.56507 7.25688 6.13886 6.99878 5.79582ZM7.82031 9.07748C8.49888 9.07748 9.05094 9.62954 9.05094 10.3081C9.05094 10.9867 8.49888 11.5387 7.82031 11.5387C7.14175 11.5387 6.58969 10.9867 6.58969 10.3081C6.58969 9.62954 7.14175 9.07748 7.82031 9.07748ZM5.35907 5.79582C6.03763 5.79582 6.58969 6.34788 6.58969 7.02644C6.58969 7.70501 6.03763 8.25707 5.35907 8.25707C4.6805 8.25707 4.12845 7.70501 4.12845 7.02644C4.12845 6.34788 4.6805 5.79582 5.35907 5.79582ZM6.1806 11.5387H4.53753C4.79563 11.1957 4.94886 10.7695 4.94886 10.3081C4.94886 9.84673 4.79563 9.42053 4.53753 9.07748H6.1806C5.9225 9.42053 5.76928 9.84673 5.76928 10.3081C5.76928 10.7695 5.9225 11.1957 6.1806 11.5387ZM1.6672 10.3081C1.6672 9.62954 2.21926 9.07748 2.89782 9.07748C3.57639 9.07748 4.12845 9.62954 4.12845 10.3081C4.12845 10.9867 3.57639 11.5387 2.89782 11.5387C2.21926 11.5387 1.6672 10.9867 1.6672 10.3081ZM11.7823 12.9528C11.7123 13.0927 11.5717 13.1796 11.4153 13.1796H2.58445C2.42808 13.1796 2.28749 13.0927 2.21754 12.9528L1.92071 12.3591H12.0791L11.7823 12.9528ZM11.102 11.5387H9.46002C9.71812 11.1957 9.87135 10.7695 9.87135 10.3081C9.87135 9.84673 9.71812 9.42053 9.46002 9.07748H11.102C11.7805 9.07748 12.3326 9.62954 12.3326 10.3081C12.3326 10.9867 11.7805 11.5387 11.102 11.5387Z" fill="#E34D28"/>
<path d="M5.19694 2.41972C5.58625 2.16017 5.81868 1.72079 5.81865 1.24432C5.81865 0.767848 5.58623 0.328461 5.19691 0.0689369C5.00846 -0.0567232 4.75372 -0.00580281 4.62806 0.182701C4.5024 0.371205 4.55335 0.625889 4.74186 0.751549C4.90479 0.860171 4.99823 1.03979 4.99823 1.24432C4.99823 1.44885 4.90479 1.62846 4.74186 1.73711C4.35254 1.99666 4.12012 2.44116 4.12012 2.92619C4.12012 3.41122 4.35254 3.85572 4.74186 4.11525C4.9303 4.24091 5.18502 4.19001 5.3107 4.00148C5.43636 3.81298 5.38542 3.55829 5.19691 3.43263C5.03636 3.3256 4.9405 3.13627 4.9405 2.92619C4.94053 2.71608 5.03638 2.52676 5.19694 2.41972Z" fill="#E34D28"/>
<path d="M7.24794 2.41972C7.63722 2.16017 7.86965 1.72079 7.86965 1.24432C7.86965 0.767848 7.63722 0.328461 7.24794 0.0689369C7.05943 -0.0567232 6.80475 -0.00580281 6.67909 0.182701C6.5534 0.371205 6.60435 0.625889 6.79285 0.751549C6.95579 0.860171 7.04926 1.03979 7.04926 1.24432C7.04926 1.44885 6.95581 1.62846 6.79288 1.73711C6.40357 1.99666 6.17114 2.44116 6.17114 2.92619C6.17114 3.41122 6.40357 3.85572 6.79288 4.11525C6.98133 4.24091 7.23604 4.19001 7.36173 4.00148C7.48739 3.81298 7.43644 3.55829 7.24794 3.43263C7.08738 3.3256 6.99153 3.13627 6.99153 2.92619C6.99153 2.71608 7.08738 2.52676 7.24794 2.41972Z" fill="#E34D28"/>
<path d="M9.29899 2.41972C9.6883 2.16017 9.92073 1.72079 9.92073 1.24432C9.92073 0.767848 9.6883 0.328461 9.29899 0.0689369C9.11049 -0.0567232 8.85577 -0.00580281 8.73014 0.182701C8.60445 0.371205 8.6554 0.625889 8.84391 0.751549C9.00684 0.860171 9.10031 1.03979 9.10031 1.24432C9.10031 1.44885 9.00684 1.62846 8.84391 1.73711C8.45459 1.99664 8.22217 2.44116 8.22217 2.92617C8.22217 3.41117 8.45459 3.85569 8.84391 4.11525C9.03249 4.24096 9.28718 4.1899 9.41275 4.00148C9.53844 3.81298 9.48749 3.55829 9.29899 3.43263C9.13843 3.3256 9.04258 3.13627 9.04258 2.92617C9.04258 2.71608 9.13843 2.52676 9.29899 2.41972Z" fill="#E34D28"/>
<path d="M5.35894 7.43669C5.58549 7.43669 5.76915 7.25303 5.76915 7.02648C5.76915 6.79993 5.58549 6.61627 5.35894 6.61627C5.13239 6.61627 4.94873 6.79993 4.94873 7.02648C4.94873 7.25303 5.13239 7.43669 5.35894 7.43669Z" fill="#E34D28"/>
<path d="M7.82036 10.7184C8.04692 10.7184 8.23057 10.5347 8.23057 10.3082C8.23057 10.0816 8.04692 9.89795 7.82036 9.89795C7.59381 9.89795 7.41016 10.0816 7.41016 10.3082C7.41016 10.5347 7.59381 10.7184 7.82036 10.7184Z" fill="#E34D28"/>
</svg>
