<svg width="14" height="10" viewBox="0 0 14 10" fill="none" xmlns="http://www.w3.org/2000/svg">
<path d="M13.5906 7.53873H12.7417C12.9998 7.19569 13.153 6.76948 13.153 6.30811C13.153 5.17717 12.2329 4.25707 11.102 4.25707H11.1009C11.359 3.91402 11.5122 3.48782 11.5122 3.02644C11.5122 1.8955 10.5921 0.975403 9.46114 0.975403H5.35907C4.22813 0.975403 3.30803 1.8955 3.30803 3.02644C3.30803 3.48782 3.46126 3.91402 3.71936 4.25707H2.89782C1.76688 4.25707 0.846786 5.17717 0.846786 6.30811C0.846786 6.76948 1.00001 7.19569 1.25811 7.53873H0.409231C0.182687 7.53873 -0.000976562 7.7224 -0.000976562 7.94894C-0.000976562 8.17549 0.182687 8.35915 0.409231 8.35915H1.00346L1.48376 9.31972C1.69356 9.73934 2.11534 9.99998 2.58445 9.99998H11.4153C11.8845 9.99998 12.3062 9.73934 12.516 9.31972L12.9963 8.35915H13.5906C13.8171 8.35915 14.0008 8.17549 14.0008 7.94894C14.0008 7.7224 13.8171 7.53873 13.5906 7.53873ZM6.99878 1.79582H9.46114C10.1397 1.79582 10.6918 2.34788 10.6918 3.02644C10.6918 3.70501 10.1397 4.25707 9.46114 4.25707H6.9999C6.99952 4.25707 6.99913 4.25712 6.99872 4.25712C7.25685 3.91408 7.41011 3.48785 7.41011 3.02644C7.41011 2.56507 7.25688 2.13886 6.99878 1.79582ZM7.82031 5.07748C8.49888 5.07748 9.05094 5.62954 9.05094 6.30811C9.05094 6.98667 8.49888 7.53873 7.82031 7.53873C7.14175 7.53873 6.58969 6.98667 6.58969 6.30811C6.58969 5.62954 7.14175 5.07748 7.82031 5.07748ZM5.35907 1.79582C6.03763 1.79582 6.58969 2.34788 6.58969 3.02644C6.58969 3.70501 6.03763 4.25707 5.35907 4.25707C4.6805 4.25707 4.12845 3.70501 4.12845 3.02644C4.12845 2.34788 4.6805 1.79582 5.35907 1.79582ZM6.1806 7.53873H4.53753C4.79563 7.19569 4.94886 6.76948 4.94886 6.30811C4.94886 5.84673 4.79563 5.42053 4.53753 5.07748H6.1806C5.9225 5.42053 5.76928 5.84673 5.76928 6.30811C5.76928 6.76948 5.9225 7.19569 6.1806 7.53873ZM1.6672 6.30811C1.6672 5.62954 2.21926 5.07748 2.89782 5.07748C3.57639 5.07748 4.12845 5.62954 4.12845 6.30811C4.12845 6.98667 3.57639 7.53873 2.89782 7.53873C2.21926 7.53873 1.6672 6.98667 1.6672 6.30811ZM11.7823 8.9528C11.7123 9.09268 11.5717 9.17957 11.4153 9.17957H2.58445C2.42808 9.17957 2.28749 9.09268 2.21754 8.9528L1.92071 8.35915H12.0791L11.7823 8.9528ZM11.102 7.53873H9.46002C9.71812 7.19569 9.87135 6.76948 9.87135 6.30811C9.87135 5.84673 9.71812 5.42053 9.46002 5.07748H11.102C11.7805 5.07748 12.3326 5.62954 12.3326 6.30811C12.3326 6.98667 11.7805 7.53873 11.102 7.53873Z" fill="#364245"/>
</svg>
