<svg width="833" height="779" viewBox="0 0 833 779" fill="none" xmlns="http://www.w3.org/2000/svg">
<path fill-rule="evenodd" clip-rule="evenodd" d="M755.03 519.455C689.262 569.765 543.533 585.148 293.169 512.172C244.939 498.127 203.026 480.44 168.693 458.295C90.9606 415.861 41.6904 332.332 49.9393 241.223C60.1946 128.415 154.945 42.9536 268.794 37.3057C297.182 35.4479 328.022 37.6773 361.092 44.5885C436.446 60.4174 497.235 101.364 555.051 151.601C589.087 181.178 644.6 189.872 689.708 202.06C761.57 221.456 818.271 277.043 830.162 348.979C841.309 416.233 810.246 480.514 755.03 519.455Z" fill="#FFF5F0"/>
<path d="M43.0271 92.0187L43.6128 92.0615V92.1554H92.1095V46.3935C92.1095 21.1018 71.5941 0.631669 46.3477 0.631669C21.1021 0.631669 0.631912 21.101 0.631912 46.3935C0.631912 70.5476 19.3274 90.2902 43.0271 92.0187Z" fill="white" stroke="#FF8E25" stroke-width="1.26334"/>
<path fill-rule="evenodd" clip-rule="evenodd" d="M411.328 702.118L401.741 766.474H401.593C399.884 769.001 380.413 771.453 356.633 772.122C331.738 772.791 311.45 771.23 311.45 768.555C311.45 768.407 311.524 768.258 311.673 768.109H311.301L302.309 705.611C302.086 705.388 301.938 705.165 301.938 704.942C301.863 701.747 326.313 698.477 356.558 697.66C386.804 696.842 411.328 698.774 411.328 701.97C411.328 702.044 411.328 702.044 411.328 702.118Z" fill="#E34D28"/>
<path fill-rule="evenodd" clip-rule="evenodd" d="M353.437 689.783C380.636 689.039 405.829 699.295 405.903 702.193C405.977 705.091 383.906 707.989 356.707 708.733C329.508 709.476 307.437 707.767 307.363 704.868C307.288 701.97 326.164 690.526 353.437 689.783Z" fill="#1F1E1E"/>
<path fill-rule="evenodd" clip-rule="evenodd" d="M221.456 625.798C221.456 625.798 185.339 667.711 260.173 661.989C320.516 657.307 312.193 620.745 221.456 625.798Z" fill="#1F1F1E"/>
<path fill-rule="evenodd" clip-rule="evenodd" d="M332.333 672.096C332.555 671.278 333.001 669.941 333.447 668.008C335.379 671.278 333.67 672.467 332.704 672.839C332.555 672.541 332.407 672.319 332.333 672.096ZM291.98 592.505C291.98 592.505 341.622 625.649 291.534 557.355C258.019 511.726 267.828 484.75 276.3 488.986C278.158 489.878 281.873 493.965 281.873 493.965C331.515 553.045 337.98 648.687 333.373 667.934C332.332 666.076 320.591 679.453 316.652 676.034C220.787 591.093 291.98 592.505 291.98 592.505Z" fill="#1F1F1E"/>
<path fill-rule="evenodd" clip-rule="evenodd" d="M343.033 692.829C319.03 678.635 326.758 597.93 341.918 578.98C362.652 548.809 380.264 573.109 380.264 573.109C380.264 573.109 409.396 517.002 444.026 523.096C490.918 531.345 428.643 595.924 428.643 595.924C467.806 580.169 491.141 647.126 343.033 692.829Z" fill="#A1DA53"/>
<path fill-rule="evenodd" clip-rule="evenodd" d="M352.694 686.512C352.694 686.512 331.738 647.052 256.012 620.522C211.572 604.99 188.683 603.95 173.449 604.544C149.297 605.436 151.452 622.751 196.784 636.35C228.59 645.863 250.736 636.128 250.736 636.128C250.736 636.128 229.185 680.121 259.059 696.916C300.006 719.805 352.694 686.512 352.694 686.512Z" fill="#A1DA53"/>
<path fill-rule="evenodd" clip-rule="evenodd" d="M298.445 556.24C298.445 556.24 266.713 542.492 269.537 575.413C271.544 598.45 316.504 624.237 316.504 624.237C316.504 624.237 281.279 636.945 301.046 663.252C321.854 691.045 344.074 685.398 344.074 685.398C344.074 685.398 387.696 636.276 318.659 536.547C308.552 521.907 290.419 495.525 275.557 488.688C303.127 510.537 298.445 556.24 298.445 556.24Z" fill="#1AAA5D"/>
<path fill-rule="evenodd" clip-rule="evenodd" d="M490.695 581.804C486.757 584.554 482.744 586.634 478.805 588.344C484.824 589.087 489.209 591.762 491.438 597.113C510.537 643.187 383.014 674.325 440.608 655.003C469.962 674.994 464.239 734.817 382.345 709.773C352.471 700.632 330.771 690.748 321.854 689.188C291.385 683.837 416.233 583.811 487.574 550.889C507.936 541.526 525.474 557.949 490.695 581.804Z" fill="#A1DA53"/>
<path d="M493.371 80.2588H769.224C784.607 80.2588 795.754 92.7435 794.045 108.052L720.92 755.996C719.508 768.258 708.287 778.29 695.951 778.29H420.023C404.64 778.29 393.493 765.805 395.202 750.497L468.327 102.553C469.739 90.2912 481.035 80.2588 493.371 80.2588Z" fill="#19180A"/>
<path fill-rule="evenodd" clip-rule="evenodd" d="M759.637 89.771L475.907 90.8114C475.461 90.8114 463.942 97.8712 463.942 98.3171L387.993 763.576C387.919 764.022 387.399 770.041 387.845 770.041L691.863 769.744C692.309 769.744 703.307 764.096 703.382 763.65L774.798 99.1346C770.785 92.0747 760.083 89.771 759.637 89.771Z" fill="#FFFBD0"/>
<path fill-rule="evenodd" clip-rule="evenodd" d="M411.03 556.091H725.007L702.861 762.387C702.787 762.833 691.789 768.481 691.343 768.481L387.324 768.778C386.878 768.778 387.398 762.759 387.473 762.313L411.03 556.091Z" fill="#ECE6E8"/>
<path d="M480.068 96.4592C475.981 96.4592 471.671 100.324 471.225 104.411L398.1 752.354C397.803 755.104 398.472 757.556 400.106 759.34C401.741 761.124 404.045 762.09 406.795 762.09H682.648C686.735 762.09 691.046 758.225 691.492 754.138L764.617 106.194C764.914 103.445 764.245 100.992 762.61 99.2089C760.975 97.4253 758.671 96.4592 755.922 96.4592H480.068V96.4592ZM480.068 80.2588H755.922C771.305 80.2588 782.452 92.7435 780.743 108.052L707.618 755.996C706.206 768.258 694.984 778.29 682.648 778.29H406.795C391.412 778.29 380.265 765.805 381.974 750.497L455.099 102.553C456.511 90.2912 467.732 80.2588 480.068 80.2588Z" fill="#19180A"/>
<path fill-rule="evenodd" clip-rule="evenodd" d="M706.949 82.8599H529.71L529.116 101.141C528.893 108.647 534.912 114.889 542.418 114.889H680.716C685.472 114.889 689.857 112.363 692.235 108.201L706.949 82.8599Z" fill="#19180A"/>
<path d="M203.843 96.4595C199.756 96.4595 195.446 100.324 195 104.411L152.269 477.542C151.972 480.291 152.641 482.744 154.276 484.527C155.911 486.311 158.214 487.277 160.964 487.277H436.818C440.905 487.277 445.215 483.412 445.661 479.325L488.391 106.195C488.689 103.445 488.02 100.993 486.385 99.2091C484.75 97.4256 482.446 96.4595 479.697 96.4595H203.843" fill="#19180A"/>
<path d="M203.843 96.4595C199.756 96.4595 195.446 100.324 195 104.411L152.269 477.542C151.972 480.291 152.641 482.744 154.276 484.527C155.911 486.311 158.214 487.277 160.964 487.277H436.818C440.905 487.277 445.215 483.412 445.661 479.325L488.391 106.195C488.689 103.445 488.02 100.993 486.385 99.2091C484.75 97.4256 482.446 96.4595 479.697 96.4595H203.843" fill="white" fill-opacity="0.8"/>
<path fill-rule="evenodd" clip-rule="evenodd" d="M337.98 155.911C343.107 155.911 346.674 161.187 345.931 167.727C345.188 174.266 340.432 179.543 335.304 179.543C330.177 179.543 326.61 174.266 327.353 167.727C328.096 161.187 332.852 155.911 337.98 155.911Z" fill="#19180A"/>
<path fill-rule="evenodd" clip-rule="evenodd" d="M337.98 155.911C343.107 155.911 346.674 161.187 345.931 167.727C345.188 174.266 340.432 179.543 335.304 179.543C330.177 179.543 326.61 174.266 327.353 167.727C328.096 161.187 332.852 155.911 337.98 155.911Z" fill="white" fill-opacity="0.88"/>
<path fill-rule="evenodd" clip-rule="evenodd" d="M334.041 190.244C339.169 190.244 342.736 195.52 341.993 202.06C341.25 208.6 336.494 213.876 331.366 213.876C326.238 213.876 322.671 208.6 323.414 202.06C324.157 195.52 328.914 190.244 334.041 190.244Z" fill="#19180A"/>
<path fill-rule="evenodd" clip-rule="evenodd" d="M334.041 190.244C339.169 190.244 342.736 195.52 341.993 202.06C341.25 208.6 336.494 213.876 331.366 213.876C326.238 213.876 322.671 208.6 323.414 202.06C324.157 195.52 328.914 190.244 334.041 190.244Z" fill="white" fill-opacity="0.88"/>
<path fill-rule="evenodd" clip-rule="evenodd" d="M230.002 120.983H449.822L446.627 149.223H226.806L230.002 120.983Z" fill="#19180A"/>
<path fill-rule="evenodd" clip-rule="evenodd" d="M230.002 120.983H449.822L446.627 149.223H226.806L230.002 120.983Z" fill="white" fill-opacity="0.88"/>
<path fill-rule="evenodd" clip-rule="evenodd" d="M187.717 287.893H449.005L428.494 466.915H167.207L187.717 287.893Z" fill="#19180A"/>
<path fill-rule="evenodd" clip-rule="evenodd" d="M187.717 287.893H449.005L428.494 466.915H167.207L187.717 287.893Z" fill="white" fill-opacity="0.88"/>
<path fill-rule="evenodd" clip-rule="evenodd" d="M215.808 223.834H435.629L432.433 252.073H212.538L215.808 223.834Z" fill="#19180A"/>
<path fill-rule="evenodd" clip-rule="evenodd" d="M215.808 223.834H435.629L432.433 252.073H212.538L215.808 223.834Z" fill="white" fill-opacity="0.88"/>
<path fill-rule="evenodd" clip-rule="evenodd" d="M190.021 315.909H207.113C208.376 315.909 209.194 316.875 209.119 318.139L206.295 342.662C206.147 343.926 205.032 344.892 203.843 344.892H186.751C185.488 344.892 184.67 343.926 184.744 342.662L187.568 318.139C187.643 316.95 188.757 315.909 190.021 315.909Z" fill="white"/>
<path fill-rule="evenodd" clip-rule="evenodd" d="M215.213 315.909H232.305C233.569 315.909 234.386 316.875 234.312 318.139L231.488 342.662C231.339 343.926 230.225 344.892 229.036 344.892H211.943C210.68 344.892 209.862 343.926 209.937 342.662L212.761 318.139C212.909 316.95 214.024 315.909 215.213 315.909Z" fill="white"/>
<path fill-rule="evenodd" clip-rule="evenodd" d="M240.48 315.909H257.572C258.835 315.909 259.653 316.875 259.578 318.139L256.754 342.662C256.606 343.926 255.491 344.892 254.302 344.892H237.21C235.947 344.892 235.129 343.926 235.203 342.662L238.027 318.139C238.176 316.95 239.291 315.909 240.48 315.909Z" fill="white"/>
<path fill-rule="evenodd" clip-rule="evenodd" d="M265.747 315.909H282.839C284.102 315.909 284.92 316.875 284.845 318.139L282.022 342.662C281.873 343.926 280.758 344.892 279.569 344.892H262.477C261.214 344.892 260.396 343.926 260.47 342.662L263.294 318.139C263.443 316.95 264.558 315.909 265.747 315.909Z" fill="white"/>
<path fill-rule="evenodd" clip-rule="evenodd" d="M291.013 315.909H308.106C309.369 315.909 310.186 316.875 310.112 318.139L307.288 342.662C307.14 343.926 306.025 344.892 304.836 344.892H287.744C286.48 344.892 285.663 343.926 285.737 342.662L288.561 318.139C288.635 316.95 289.75 315.909 291.013 315.909Z" fill="white"/>
<path fill-rule="evenodd" clip-rule="evenodd" d="M316.28 315.909H333.372C334.636 315.909 335.453 316.875 335.379 318.139L332.555 342.662C332.406 343.926 331.291 344.892 330.102 344.892H313.01C311.747 344.892 310.929 343.926 311.004 342.662L313.828 318.139C313.902 316.95 315.017 315.909 316.28 315.909Z" fill="white"/>
<path fill-rule="evenodd" clip-rule="evenodd" d="M341.547 315.909H358.639C359.902 315.909 360.72 316.875 360.645 318.139L357.821 342.662C357.673 343.926 356.558 344.892 355.369 344.892H338.277C337.013 344.892 336.196 343.926 336.27 342.662L339.094 318.139C339.169 316.95 340.283 315.909 341.547 315.909Z" fill="white"/>
<path fill-rule="evenodd" clip-rule="evenodd" d="M366.739 315.909H383.831C385.095 315.909 385.912 316.875 385.838 318.139L383.014 342.662C382.865 343.926 381.75 344.892 380.561 344.892H363.469C362.206 344.892 361.388 343.926 361.463 342.662L364.287 318.139C364.435 316.95 365.55 315.909 366.739 315.909Z" fill="white"/>
<path fill-rule="evenodd" clip-rule="evenodd" d="M392.006 315.909H409.098C410.362 315.909 411.179 316.875 411.105 318.139L408.281 342.662C408.132 343.926 407.017 344.892 405.828 344.892H388.736C387.473 344.892 386.655 343.926 386.73 342.662L389.554 318.139C389.702 316.95 390.817 315.909 392.006 315.909Z" fill="white"/>
<path fill-rule="evenodd" clip-rule="evenodd" d="M417.273 315.909H434.365C435.628 315.909 436.446 316.875 436.371 318.139L433.547 342.662C433.399 343.926 432.284 344.892 431.095 344.892H414.003C412.739 344.892 411.922 343.926 411.996 342.662L414.82 318.139C414.895 316.95 416.009 315.909 417.273 315.909Z" fill="white"/>
<path fill-rule="evenodd" clip-rule="evenodd" d="M200.648 352.769H217.74C219.003 352.769 219.821 353.735 219.746 354.998L216.922 379.522C216.774 380.785 215.659 381.751 214.47 381.751H197.378C196.115 381.751 195.297 380.785 195.371 379.522L198.195 354.998C198.27 353.809 199.384 352.769 200.648 352.769Z" fill="white"/>
<path fill-rule="evenodd" clip-rule="evenodd" d="M225.988 352.769H243.081C244.344 352.769 245.161 353.735 245.087 354.998L242.263 379.522C242.115 380.785 241 381.751 239.811 381.751H222.719C221.455 381.751 220.638 380.785 220.712 379.522L223.536 354.998C223.685 353.809 224.799 352.769 225.988 352.769Z" fill="white"/>
<path fill-rule="evenodd" clip-rule="evenodd" d="M251.404 352.769H268.496C269.76 352.769 270.577 353.735 270.503 354.998L267.679 379.522C267.53 380.785 266.415 381.751 265.226 381.751H248.134C246.871 381.751 246.053 380.785 246.128 379.522L248.952 354.998C249.1 353.809 250.215 352.769 251.404 352.769Z" fill="white"/>
<path fill-rule="evenodd" clip-rule="evenodd" d="M276.819 352.769H293.911C295.175 352.769 295.992 353.735 295.918 354.998L293.094 379.522C292.945 380.785 291.83 381.751 290.641 381.751H273.549C272.286 381.751 271.468 380.785 271.543 379.522L274.367 354.998C274.515 353.809 275.63 352.769 276.819 352.769Z" fill="white"/>
<path fill-rule="evenodd" clip-rule="evenodd" d="M302.235 352.769H319.327C320.59 352.769 321.408 353.735 321.333 354.998L318.509 379.522C318.361 380.785 317.246 381.751 316.057 381.751H298.965C297.701 381.751 296.884 380.785 296.958 379.522L299.782 354.998C299.857 353.809 300.971 352.769 302.235 352.769Z" fill="white"/>
<path fill-rule="evenodd" clip-rule="evenodd" d="M327.65 352.769H344.742C346.006 352.769 346.823 353.735 346.749 354.998L343.925 379.522C343.776 380.785 342.662 381.751 341.473 381.751H324.38C323.117 381.751 322.3 380.785 322.374 379.522L325.198 354.998C325.272 353.809 326.387 352.769 327.65 352.769Z" fill="white"/>
<path fill-rule="evenodd" clip-rule="evenodd" d="M353.066 352.769H370.158C371.421 352.769 372.239 353.735 372.164 354.998L369.34 379.522C369.192 380.785 368.077 381.751 366.888 381.751H349.796C348.532 381.751 347.715 380.785 347.789 379.522L350.613 354.998C350.688 353.809 351.802 352.769 353.066 352.769Z" fill="white"/>
<path fill-rule="evenodd" clip-rule="evenodd" d="M378.406 352.769H395.499C396.762 352.769 397.58 353.735 397.505 354.998L394.681 379.522C394.533 380.785 393.418 381.751 392.229 381.751H375.137C373.873 381.751 373.056 380.785 373.13 379.522L375.954 354.998C376.103 353.809 377.217 352.769 378.406 352.769Z" fill="white"/>
<path fill-rule="evenodd" clip-rule="evenodd" d="M403.822 352.769H420.914C422.178 352.769 422.995 353.735 422.921 354.998L420.097 379.522C419.948 380.785 418.833 381.751 417.644 381.751H400.552C399.289 381.751 398.471 380.785 398.546 379.522L401.37 354.998C401.518 353.809 402.633 352.769 403.822 352.769Z" fill="white"/>
<path fill-rule="evenodd" clip-rule="evenodd" d="M184.001 390.223H214.47C215.733 390.223 216.551 391.189 216.476 392.453L213.652 416.976C213.504 418.24 212.389 419.206 211.2 419.206H180.731C179.468 419.206 178.651 418.24 178.725 416.976L181.549 392.453C181.697 391.189 182.812 390.223 184.001 390.223Z" fill="white"/>
<path fill-rule="evenodd" clip-rule="evenodd" d="M241.446 425.968H363.989C365.253 425.968 366.07 426.934 365.996 428.198L363.172 452.721C363.023 453.985 361.909 454.951 360.72 454.951H238.101C236.838 454.951 236.021 453.985 236.095 452.721L238.919 428.198C239.068 426.934 240.182 425.968 241.446 425.968Z" fill="white"/>
<path fill-rule="evenodd" clip-rule="evenodd" d="M222.496 389.926H239.588C240.851 389.926 241.669 390.892 241.594 392.155L238.771 416.679C238.622 417.942 237.507 418.908 236.318 418.908H219.226C217.963 418.908 217.145 417.942 217.22 416.679L220.043 392.155C220.192 390.892 221.307 389.926 222.496 389.926Z" fill="white"/>
<path fill-rule="evenodd" clip-rule="evenodd" d="M247.911 389.926H265.004C266.267 389.926 267.084 390.892 267.01 392.155L264.186 416.679C264.037 417.942 262.923 418.908 261.734 418.908H244.642C243.378 418.908 242.561 417.942 242.635 416.679L245.459 392.155C245.608 390.892 246.722 389.926 247.911 389.926Z" fill="white"/>
<path fill-rule="evenodd" clip-rule="evenodd" d="M273.326 389.926H290.419C291.682 389.926 292.499 390.892 292.425 392.155L289.601 416.679C289.453 417.942 288.338 418.908 287.149 418.908H270.057C268.793 418.908 267.976 417.942 268.05 416.679L270.874 392.155C270.948 390.892 272.063 389.926 273.326 389.926Z" fill="white"/>
<path fill-rule="evenodd" clip-rule="evenodd" d="M298.742 389.926H315.834C317.097 389.926 317.915 390.892 317.841 392.155L315.017 416.679C314.868 417.942 313.753 418.908 312.564 418.908H295.472C294.209 418.908 293.391 417.942 293.466 416.679L296.29 392.155C296.364 390.892 297.479 389.926 298.742 389.926Z" fill="white"/>
<path fill-rule="evenodd" clip-rule="evenodd" d="M324.157 389.926H341.25C342.513 389.926 343.33 390.892 343.256 392.155L340.432 416.679C340.284 417.942 339.169 418.908 337.98 418.908H320.888C319.624 418.908 318.807 417.942 318.881 416.679L321.705 392.155C321.779 390.892 322.894 389.926 324.157 389.926Z" fill="white"/>
<path fill-rule="evenodd" clip-rule="evenodd" d="M349.499 389.926H366.591C367.854 389.926 368.672 390.892 368.597 392.155L365.774 416.679C365.625 417.942 364.51 418.908 363.321 418.908H346.229C344.966 418.908 344.148 417.942 344.222 416.679L347.046 392.155C347.195 390.892 348.31 389.926 349.499 389.926Z" fill="white"/>
<path fill-rule="evenodd" clip-rule="evenodd" d="M374.914 389.926H392.006C393.269 389.926 394.087 390.892 394.012 392.155L391.189 416.679C391.04 417.942 389.925 418.908 388.736 418.908H371.644C370.381 418.908 369.563 417.942 369.637 416.679L372.461 392.155C372.61 390.892 373.725 389.926 374.914 389.926Z" fill="white"/>
<path fill-rule="evenodd" clip-rule="evenodd" d="M400.329 389.926H417.422C418.685 389.926 419.502 390.892 419.428 392.155L416.604 416.679C416.455 417.942 415.341 418.908 414.152 418.908H397.06C395.796 418.908 394.979 417.942 395.053 416.679L397.877 392.155C398.026 390.892 399.14 389.926 400.329 389.926Z" fill="white"/>
<path d="M361.983 169.51H423.664" stroke="#FFF5F0" stroke-width="1.48628" stroke-miterlimit="10" stroke-linecap="round" stroke-linejoin="round"/>
<path d="M354.106 204.438H415.787" stroke="#FFF5F0" stroke-width="1.48628" stroke-miterlimit="10" stroke-linecap="round" stroke-linejoin="round"/>
<path d="M223.833 169.51H285.514" stroke="#FFF5F0" stroke-width="1.48628" stroke-miterlimit="10" stroke-linecap="round" stroke-linejoin="round"/>
<path d="M215.957 204.438H277.637" stroke="#FFF5F0" stroke-width="1.48628" stroke-miterlimit="10" stroke-linecap="round" stroke-linejoin="round"/>
<path d="M418.536 445.438C390.817 450.194 326.758 506.375 344.148 586.04" stroke="#FF8E25" stroke-width="1.48628" stroke-miterlimit="10" stroke-linecap="round" stroke-linejoin="round"/>
<path fill-rule="evenodd" clip-rule="evenodd" d="M428.123 463.496C432.21 470.705 426.265 480.142 412.443 478.582C404.045 477.616 390.446 465.354 377.441 472.488C384.203 463.57 393.493 457.477 404.937 455.99C416.53 454.504 424.779 457.625 428.123 463.496Z" fill="#1AAA5D"/>
<path fill-rule="evenodd" clip-rule="evenodd" d="M427.082 463.124C419.948 463.57 386.061 467.509 376.177 473.305C389.851 453.835 411.402 443.06 419.205 441.796C441.128 438.303 446.404 461.861 427.082 463.124Z" fill="#1AAA5D"/>
<path fill-rule="evenodd" clip-rule="evenodd" d="M512.246 260.321C512.246 275.333 524.359 287.446 539.371 287.446C541.08 287.446 542.715 287.297 544.275 287C559.287 284.919 572.515 269.165 573.258 256.011C574.001 242.635 573.184 187.94 573.481 181.4C574.001 168.098 563.523 156.876 550.072 156.356C536.621 155.836 525.251 166.166 524.731 179.468C524.731 179.765 524.731 179.988 524.731 180.211C524.731 180.211 532.311 217.145 515.739 246.276C513.881 249.472 512.989 252.37 512.841 254.897C512.395 256.68 512.246 258.538 512.246 260.321Z" fill="#E34D28"/>
<path fill-rule="evenodd" clip-rule="evenodd" d="M488.763 280.014C494.931 299.708 514.327 311.226 532.014 305.653C533.946 305.058 535.729 304.315 537.438 303.349C537.959 303.2 538.405 302.977 538.85 302.606C539.222 302.309 539.594 302.086 539.891 301.788C541.006 301.045 542.046 300.228 543.012 299.336C558.321 287.074 565.009 274.887 566.124 264.408C566.347 263.071 566.421 261.659 566.421 260.321C566.421 245.979 555.274 234.237 541.228 233.271C534.689 232.379 521.015 231.041 511.28 233.791C510.685 233.94 510.091 234.088 509.571 234.237C491.958 239.81 482.595 260.321 488.763 280.014Z" fill="#E34D28"/>
<path fill-rule="evenodd" clip-rule="evenodd" d="M503.18 240.702C494.336 240.479 487.053 249.546 486.979 260.916C486.905 272.286 493.965 281.649 502.882 281.872C511.726 282.095 519.008 273.029 519.083 261.659C519.157 250.289 512.023 240.925 503.18 240.702Z" fill="#E34D28"/>
<path fill-rule="evenodd" clip-rule="evenodd" d="M506.004 236.244L514.624 247.242L491.513 275.556L485.567 267.53L506.004 236.244Z" fill="#E34D28"/>
<path d="M491.884 276.076C494.708 279.569 498.572 281.798 502.808 281.872C511.651 282.095 518.934 273.029 519.008 261.659C519.083 250.289 510.537 240.925 505.26 235.946" stroke="#FFBA08" stroke-width="1.48628" stroke-miterlimit="10" stroke-linecap="round" stroke-linejoin="round"/>
<path fill-rule="evenodd" clip-rule="evenodd" d="M496.492 231.785C487.648 231.562 480.365 240.628 480.291 251.998C480.217 263.368 487.277 272.732 496.194 272.955C505.038 273.178 512.32 264.111 512.395 252.741C512.469 241.371 505.335 232.008 496.492 231.785Z" fill="#19180A"/>
<path fill-rule="evenodd" clip-rule="evenodd" d="M450.714 202.728L418.165 211.348L450.714 223.759L461.267 212.983L450.714 202.728Z" fill="#CA824D"/>
<path fill-rule="evenodd" clip-rule="evenodd" d="M510.165 252.221C510.165 262.402 503.626 270.428 495.674 270.279C491.81 270.205 488.391 268.198 485.865 265.003L446.33 216.03L470.184 204.437L503.626 236.541C503.923 236.838 510.165 242.189 510.165 252.221Z" fill="#CA824D"/>
<path fill-rule="evenodd" clip-rule="evenodd" d="M426.562 202.728C429.683 204.214 432.73 205.478 436.074 206.518C437.709 207.038 439.418 207.558 441.276 207.93C442.168 208.153 443.134 208.301 444.1 208.376C445.066 208.45 446.33 208.524 446.776 208.599C449.377 208.896 451.829 209.713 453.538 210.828C454.801 211.646 455.693 212.612 456.213 213.578L447.667 222.272C447.667 222.272 453.018 226.583 464.239 220.712C476.724 214.172 470.63 204.734 470.63 204.734C467.286 200.87 462.753 198.418 458.517 197.377C454.207 196.337 450.045 196.411 446.255 197.08C445.141 197.229 444.769 197.377 444.1 197.526C443.431 197.6 442.763 197.749 442.094 197.749C440.682 197.897 439.195 197.897 437.709 197.823C434.662 197.749 431.541 197.377 428.494 196.931H428.346C426.711 196.634 425.15 197.823 424.853 199.458C424.63 200.87 425.373 202.133 426.562 202.728Z" fill="#CA824D"/>
<path d="M393.79 217.813C403.005 218.78 412.219 219.597 421.434 220.414C426.042 220.786 430.649 221.232 435.331 221.529C437.635 221.678 440.013 221.826 442.317 221.975C444.695 222.124 447.073 222.198 449.674 222.198C453.315 222.198 456.288 219.151 456.288 215.51C456.288 211.868 453.315 208.896 449.674 208.97C449.376 208.97 449.154 208.97 448.856 209.044H448.708C446.776 209.342 444.546 209.565 442.242 209.713C440.013 209.862 437.709 210.01 435.405 210.159C430.872 210.456 426.265 210.605 421.657 210.828C412.442 211.2 403.228 211.497 394.013 211.794C392.378 211.868 391.04 213.206 391.04 214.915C391.114 216.402 392.229 217.665 393.79 217.813Z" fill="#CA824D"/>
<path d="M396.539 203.471L418.759 219.003C419.056 219.226 419.428 219.374 419.799 219.449L420.097 219.523C423.292 220.117 426.265 220.489 429.386 220.861C432.507 221.232 435.554 221.455 438.675 221.529C441.796 221.604 444.992 221.678 448.187 221.381C451.383 221.084 454.653 220.638 457.922 219.449C459.483 218.854 460.301 217.145 459.78 215.584C459.26 214.098 457.625 213.281 456.139 213.726H456.065C453.612 214.47 450.788 214.693 447.964 214.767C445.14 214.841 442.242 214.618 439.344 214.321C436.446 214.024 433.547 213.578 430.649 213.058C427.751 212.537 424.853 211.943 422.103 211.274L423.441 211.794L399.809 198.418C398.397 197.6 396.539 198.121 395.647 199.532C394.904 200.87 395.276 202.579 396.539 203.471Z" fill="#CA824D"/>
<path d="M412.888 197.154L420.319 215.51C420.691 216.55 421.509 217.219 422.475 217.591L422.995 217.739C424.332 218.185 425.373 218.557 426.636 218.854C427.825 219.226 429.014 219.523 430.129 219.82C432.507 220.415 434.811 220.935 437.189 221.455C441.945 222.421 446.701 223.09 451.531 223.61H451.606C455.396 223.982 458.888 221.232 459.334 217.442C459.78 213.578 457.031 210.159 453.166 209.788C452.72 209.713 452.274 209.713 451.829 209.788C447.37 210.159 442.911 210.382 438.452 210.382C436.223 210.382 433.993 210.308 431.764 210.234C430.649 210.159 428.271 209.936 426.933 209.862C426.636 209.416 426.413 209.119 425.299 207.261C422.4 202.133 418.239 194.628 418.239 194.628C417.421 193.141 415.563 192.696 414.151 193.513C412.888 194.108 412.294 195.742 412.888 197.154Z" fill="#CA824D"/>
<path d="M462.679 204.883C462.679 204.883 457.031 199.235 447.147 202.877C440.087 205.403 426.859 209.714 426.859 209.714" stroke="#19180A" stroke-width="1.48628" stroke-miterlimit="10" stroke-linecap="round" stroke-linejoin="round"/>
<path d="M414.226 193.364C412.888 194.107 412.294 195.742 412.888 197.154L420.32 215.51C420.691 216.55 421.509 217.219 422.475 217.591L422.995 217.739C424.333 218.185 425.373 218.557 426.636 218.854C427.825 219.226 429.014 219.523 430.129 219.82C432.507 220.415 434.811 220.935 437.189 221.455" stroke="#19180A" stroke-width="1.48628" stroke-miterlimit="10" stroke-linecap="round" stroke-linejoin="round"/>
<path fill-rule="evenodd" clip-rule="evenodd" d="M557.949 105.749C552.747 88.5821 576.305 100.993 585.594 108.35C594.809 115.707 593.248 133.022 582.101 147.067C570.954 161.113 538.553 173.449 535.804 162.004C528.298 131.015 565.009 128.935 557.949 105.749Z" fill="#19180A"/>
<path fill-rule="evenodd" clip-rule="evenodd" d="M533.426 198.938C532.98 199.533 532.534 200.127 532.088 200.648C528.595 205.329 527.258 211.274 528.595 216.922C529.859 222.05 532.608 228.738 538.628 236.467C534.169 248.134 529.338 270.651 542.863 279.792C548.065 283.285 606.848 287.223 626.69 282.839C638.506 280.238 639.249 271.469 633.155 258.464C629.885 251.553 641.552 211.869 646.606 195.297C653.22 191.804 657.679 184.819 657.679 176.867C657.679 165.348 648.315 155.985 636.796 155.985C635.905 155.985 635.087 156.059 634.27 156.134C594.735 156.134 565.083 157.1 550.072 156.505C536.621 155.985 525.251 166.315 524.731 179.617C524.434 187.271 527.852 194.257 533.426 198.938Z" fill="#E34D28"/>
<path d="M565.232 190.393C563.449 195.446 562.111 200.128 561.739 203.398C560.625 213.356 562.483 233.941 566.644 272.881" stroke="#FFBA08" stroke-width="1.48628" stroke-miterlimit="10" stroke-linecap="round" stroke-linejoin="round"/>
<path d="M542.864 279.792C529.413 270.651 534.243 248.134 538.628 236.467C532.683 228.664 529.859 221.976 528.595 216.922C527.183 211.274 528.595 205.329 532.088 200.648C535.358 196.263 540.932 188.832 549.701 177.313" stroke="#FFBA08" stroke-width="1.48628" stroke-miterlimit="10" stroke-linecap="round" stroke-linejoin="round"/>
<path fill-rule="evenodd" clip-rule="evenodd" d="M550.74 168.693C548.66 171.814 549.031 174.341 551.558 175.232C556.24 176.942 571.4 165.572 573.035 164.754C573.035 164.754 583.141 182.069 607.516 174.341C636.127 165.274 617.623 149 615.691 147.365C612.718 143.872 601.943 141.865 589.086 142.757C575.561 143.649 564.34 147.439 562.259 151.601L550.74 168.693Z" fill="#E34D28"/>
<path fill-rule="evenodd" clip-rule="evenodd" d="M588.79 144.838C575.116 146.547 564.192 150.857 564.489 154.573C564.712 158.289 576.008 159.924 589.681 158.289C603.355 156.579 614.279 152.269 613.982 148.553C613.685 144.838 602.463 143.129 588.79 144.838Z" fill="#19180A"/>
<path fill-rule="evenodd" clip-rule="evenodd" d="M565.009 125.591L568.204 154.87C568.279 156.431 568.279 155.465 568.279 155.688C568.502 158.809 577.642 157.694 589.087 156.134C600.531 154.573 609.671 150.783 609.449 147.662C609.449 147.365 609.3 147.067 609.077 146.77L597.112 107.086L565.009 125.591Z" fill="#CA824D"/>
<path fill-rule="evenodd" clip-rule="evenodd" d="M567.015 143.203C591.316 135.549 591.762 112.065 591.762 112.065L565.009 125.219L567.015 143.203Z" fill="#19180A"/>
<path fill-rule="evenodd" clip-rule="evenodd" d="M598.524 110.059C651.51 124.401 600.977 56.5527 584.182 55.0664C584.182 55.0664 559.138 55.3637 552.375 70.4494C550.889 75.8743 551.186 79.0698 549.254 87.6159C546.207 100.547 547.991 123.955 563.3 128.786C572.292 131.61 588.418 129.826 598.524 110.059Z" fill="#CA824D"/>
<path fill-rule="evenodd" clip-rule="evenodd" d="M573.035 108.647C573.035 108.647 571.028 105.897 566.941 106.492C564.414 106.863 563.82 108.498 563.82 108.498C563.82 108.498 559.807 106.195 559.287 110.876C561.813 113.477 570.359 111.991 573.035 108.647Z" fill="#BD4041"/>
<path d="M575.487 106.046C575.487 106.046 568.947 114.815 559.881 110.802" stroke="#BD4041" stroke-width="1.48628" stroke-miterlimit="10" stroke-linecap="round" stroke-linejoin="round"/>
<path d="M562.779 80.1104C562.779 80.1104 558.246 76.5433 551.409 79.5159" stroke="#19180A" stroke-width="1.48628" stroke-miterlimit="10" stroke-linecap="round" stroke-linejoin="round"/>
<path d="M557.949 86.0556L554.382 83.8262" stroke="#19180A" stroke-width="1.48628" stroke-miterlimit="10" stroke-linecap="round" stroke-linejoin="round"/>
<path d="M579.797 86.4267L575.784 84.5688" stroke="#19180A" stroke-width="1.48628" stroke-miterlimit="10" stroke-linecap="round" stroke-linejoin="round"/>
<path d="M586.188 82.7113C584.033 80.9278 577.791 77.0635 570.657 80.4076" stroke="#19180A" stroke-width="1.48628" stroke-miterlimit="10" stroke-linecap="round" stroke-linejoin="round"/>
<path d="M565.009 84.792C565.009 84.792 566.124 90.2169 561.293 94.3042C556.611 98.2428 558.395 104.634 565.009 103.742" stroke="#19180A" stroke-width="1.48628" stroke-miterlimit="10" stroke-linecap="round" stroke-linejoin="round"/>
<path fill-rule="evenodd" clip-rule="evenodd" d="M580.095 86.2039C578.98 85.9809 577.94 87.3929 577.717 89.2507C577.568 91.1086 578.311 92.8178 579.426 92.9664C580.541 93.1894 581.581 91.7774 581.804 89.9196C582.027 88.0617 581.209 86.3525 580.095 86.2039Z" fill="#19180A"/>
<path fill-rule="evenodd" clip-rule="evenodd" d="M557.503 85.1638C556.388 84.9409 555.348 86.3528 555.125 88.2107C554.976 90.0685 555.719 91.7778 556.834 91.9264C557.949 92.1493 558.989 90.7374 559.212 88.8795C559.435 87.0217 558.618 85.3868 557.503 85.1638Z" fill="#19180A"/>
<path fill-rule="evenodd" clip-rule="evenodd" d="M638.951 155.985C638.951 155.985 631.148 155.836 621.71 155.836C605.584 163.639 605.064 188.088 615.022 194.182H574.744C567.387 182.143 567.238 172.557 570.582 165.051C561.144 174.192 560.55 183.704 572.812 194.034C515.887 177.313 568.056 150.857 599.193 143.277C603.281 141.865 606.104 141.196 606.104 141.196C606.104 141.196 588.343 127.002 598.747 109.018C602.612 111.545 607.814 108.87 609.3 107.012C612.793 102.702 612.644 95.9391 608.631 93.3381C604.618 90.7371 599.936 93.0409 597.187 95.7905C597.261 95.7162 597.261 95.7162 597.187 95.7905C597.038 95.9391 596.741 96.2364 596.667 96.385C600.011 82.414 573.704 74.4624 577.494 61.0858C577.494 61.0858 562.036 59.0794 552.747 70.0035C552.673 65.0988 557.354 53.2086 577.122 49.4929C600.159 45.1827 621.785 57.8903 620.67 81.6708C620.819 83.38 620.298 85.4608 621.785 88.4334C626.021 97.2768 682.425 135.103 638.951 155.985ZM573.035 194.257C572.96 194.182 572.96 194.182 572.886 194.108C572.96 194.182 573.035 194.182 573.109 194.257H573.035Z" fill="#19180A"/>
<path fill-rule="evenodd" clip-rule="evenodd" d="M629.811 510.908C627.73 528.001 625.872 543.681 624.386 556.091H571.4L574.67 372.313L536.769 556.091H481.554L507.49 352.025C507.564 351.951 514.55 310.186 544.127 297.256C569.914 286.034 573.183 285.663 573.183 285.663L626.243 295.249C626.243 295.249 640.809 310.186 645.862 339.986C648.24 354.106 646.68 371.124 646.68 371.124C646.68 371.124 637.168 449.451 629.811 510.908Z" fill="#77313D"/>
<path fill-rule="evenodd" clip-rule="evenodd" d="M541.303 298.965C536.993 301.417 522.501 309.889 515.367 330.623C534.02 352.62 630.108 339.912 642.37 326.535C640.958 315.834 632.783 302.755 627.061 295.175V273.773V273.698C627.061 269.983 608.185 268.273 584.851 269.76C561.516 271.32 542.64 275.556 542.64 279.197C542.64 279.42 542.715 279.569 542.789 279.792L541.303 298.965Z" fill="#77313D"/>
<path d="M564.414 361.983L531.345 541.377" stroke="#19180A" stroke-width="1.48628" stroke-miterlimit="10" stroke-linecap="round" stroke-linejoin="round"/>
<path d="M547.322 297.107C547.322 297.107 538.033 322.894 513.881 333.001" stroke="#19180A" stroke-width="1.48628" stroke-miterlimit="10" stroke-linecap="round" stroke-linejoin="round"/>
<path d="M575.933 271.543V291.088L574 359.011C574 359.011 554.53 350.539 560.624 321.333C565.826 296.661 564.488 293.02 564.488 293.02" stroke="#19180A" stroke-width="1.48628" stroke-miterlimit="10" stroke-linecap="round" stroke-linejoin="round"/>
<path d="M600.902 290.122C600.902 290.122 600.902 324.752 634.567 335.676" stroke="#19180A" stroke-width="1.48628" stroke-miterlimit="10" stroke-linecap="round" stroke-linejoin="round"/>
<path d="M615.617 270.206V290.345C621.042 297.553 628.622 309.666 630.628 320.07C632.04 324.529 633.304 329.582 634.27 335.082C636.648 349.201 635.087 366.219 635.087 366.219C635.087 366.219 625.649 444.62 618.292 506.078C615.989 525.548 613.908 542.343 612.347 555.348" stroke="#19180A" stroke-width="1.48628" stroke-miterlimit="10" stroke-linecap="round" stroke-linejoin="round"/>
<path d="M627.507 294.729V294.655C627.507 290.865 608.111 289.081 584.182 290.642C560.253 292.202 540.857 296.587 540.857 300.377" stroke="#19180A" stroke-width="1.48628" stroke-miterlimit="10" stroke-linecap="round" stroke-linejoin="round"/>
<path fill-rule="evenodd" clip-rule="evenodd" d="M574.298 358.788L562.259 359.308C562.259 359.308 561.368 365.402 563.969 373.873C566.272 381.379 571.549 387.844 571.549 387.844L574.224 371.495L574.298 358.788Z" fill="#19180A"/>
<path fill-rule="evenodd" clip-rule="evenodd" d="M692.234 322.894C692.234 322.894 692.309 323.637 692.309 324.009C692.309 326.759 682.648 328.914 670.832 328.914C659.016 328.914 649.504 326.684 649.504 323.935C649.504 323.712 649.355 324.158 649.504 323.935L645.714 301.492H645.788C645.788 301.418 645.788 301.418 645.788 301.343C645.788 298.594 655.375 296.364 667.116 296.364C678.858 296.364 688.444 298.594 688.444 301.343C688.444 301.492 688.37 301.641 688.37 301.789L692.234 322.894Z" fill="#E34D28"/>
<path fill-rule="evenodd" clip-rule="evenodd" d="M619.184 188.163C628.77 208.228 638.431 221.976 639.323 252.965C639.843 271.84 628.473 278.603 635.087 295.249C643.633 316.577 702.713 319.401 700.558 284.697C698.254 247.465 663.327 182.069 655.821 168.321C652.551 161.038 645.268 155.911 636.722 155.911C625.203 155.911 615.84 165.274 615.84 176.793C615.84 181.029 617.103 184.893 619.184 188.163Z" fill="#E34D28"/>
<path d="M645.64 301.566H645.714C645.714 301.492 645.714 301.492 645.714 301.418C645.714 298.668 655.3 296.438 667.042 296.438C678.784 296.438 688.37 298.668 688.37 301.418C688.37 301.566 688.296 301.715 688.296 301.863" stroke="#FFBA08" stroke-width="1.48628" stroke-miterlimit="10" stroke-linecap="round" stroke-linejoin="round"/>
<path fill-rule="evenodd" clip-rule="evenodd" d="M670.832 319.996C681.534 319.996 690.228 322.077 690.228 324.604C690.228 327.13 681.534 329.211 670.832 329.211C660.131 329.211 651.437 327.13 651.437 324.604C651.362 322.077 660.057 319.996 670.832 319.996Z" fill="#19180A"/>
<path fill-rule="evenodd" clip-rule="evenodd" d="M677.446 386.953C682.351 390.52 695.43 396.316 703.382 401.37L706.057 403.451C707.543 404.64 709.624 404.491 710.664 403.079C711.631 401.816 711.408 399.883 710.144 398.694C710.144 398.694 702.416 392.749 697.139 383.386L716.089 383.237L716.684 383.46C716.833 383.534 716.981 383.609 717.204 383.683C717.501 383.832 717.873 384.055 718.17 384.203C718.765 384.575 719.359 385.095 719.879 385.615C720.4 386.135 720.845 386.804 721.217 387.473L721.366 387.77L721.589 388.142L721.96 388.959L722.778 390.52L731.77 410.808C732.736 412.665 734.965 413.557 736.823 412.814C738.532 412.071 739.201 410.139 738.532 408.355L730.952 387.547L730.358 385.912L730.06 385.095L729.912 384.723L729.689 384.203C729.094 382.717 728.277 381.379 727.311 380.042C726.345 378.778 725.23 377.589 723.967 376.475C723.372 375.954 722.703 375.434 721.96 374.988C721.589 374.765 721.291 374.542 720.92 374.319L719.954 373.799L684.432 354.775C684.357 354.701 684.357 354.626 684.357 354.626C684.952 354.626 674.102 350.465 673.879 350.242C653.517 369.489 677.372 386.879 677.446 386.953ZM673.805 350.242C673.805 350.242 673.73 350.242 673.805 350.242V350.242Z" fill="#DE7C62"/>
<path d="M745.815 400.329L732.885 382.419L731.844 381.008L731.324 380.339L731.027 379.967L730.655 379.521C729.689 378.258 728.5 377.143 727.237 376.177C725.974 375.211 724.562 374.394 723.001 373.725C722.258 373.428 721.515 373.13 720.697 372.833C720.326 372.684 719.88 372.61 719.508 372.536L718.394 372.313L677.744 363.321C670.758 361.76 669.123 377.44 682.723 385.243L717.353 382.345L718.022 382.419C718.171 382.419 718.394 382.494 718.542 382.494C718.914 382.568 719.285 382.642 719.583 382.717C720.252 382.94 720.995 383.237 721.663 383.609C722.332 383.98 722.927 384.426 723.447 385.02L723.67 385.243L723.967 385.541L724.562 386.209L725.751 387.473L739.945 404.565C741.357 406.126 743.809 406.349 745.295 405.085C746.782 403.896 746.93 401.89 745.815 400.329Z" fill="#DE7D62"/>
<path d="M694.835 383.46C704.422 383.386 716.164 383.237 716.164 383.237L716.758 383.46C716.907 383.534 717.055 383.609 717.278 383.683C717.575 383.832 717.947 384.055 718.244 384.203C718.839 384.575 719.433 385.095 719.954 385.615C720.474 386.135 720.92 386.804 721.291 387.473L721.44 387.77L721.663 388.142L722.034 388.959L722.852 390.52L731.844 410.808C732.81 412.666 735.039 413.557 736.897 412.814C738.606 412.071 739.275 410.139 738.606 408.355L731.026 387.547L730.432 385.912L730.135 385.095L729.986 384.723L729.763 384.203C729.169 382.717 728.351 381.379 727.385 380.042C726.419 378.778 725.304 377.589 724.041 376.475C723.446 375.954 722.777 375.434 722.034 374.988C721.663 374.765 721.366 374.542 720.994 374.32L720.028 373.799" stroke="#19180A" stroke-width="1.48628" stroke-miterlimit="10" stroke-linecap="round" stroke-linejoin="round"/>
<path fill-rule="evenodd" clip-rule="evenodd" d="M666.225 371.273H692.903L687.181 325.272V325.198C687.181 323.117 680.047 321.482 671.204 321.482C662.36 321.482 655.226 323.117 655.226 325.198L655.3 325.495V325.57L666.225 371.273Z" fill="#CA824D"/>
<path d="M625.575 201.019C636.722 222.867 638.58 236.467 639.323 251.775" stroke="#FFBA08" stroke-width="1.48628" stroke-miterlimit="10" stroke-linecap="round" stroke-linejoin="round"/>
<path fill-rule="evenodd" clip-rule="evenodd" d="M567.685 502.734C595.032 502.734 614.131 526.589 610.341 556.017C606.551 585.445 581.284 609.3 553.862 609.3C526.515 609.3 507.416 585.445 511.206 556.017C515.07 526.663 540.337 502.734 567.685 502.734Z" fill="#ECE6E8"/>
<path fill-rule="evenodd" clip-rule="evenodd" d="M470.333 626.541C487.723 626.541 499.836 641.701 497.383 660.354C494.931 679.007 478.953 694.167 461.564 694.167C444.174 694.167 432.061 679.007 434.514 660.354C436.966 641.701 453.018 626.541 470.333 626.541Z" fill="#1AAA5D"/>
<path fill-rule="evenodd" clip-rule="evenodd" d="M558.767 626.541C576.156 626.541 588.269 641.701 585.817 660.354C583.365 679.007 567.387 694.167 549.998 694.167C532.608 694.167 520.495 679.007 522.947 660.354C525.325 641.701 541.377 626.541 558.767 626.541Z" fill="#1AAA5D"/>
<path fill-rule="evenodd" clip-rule="evenodd" d="M647.423 626.541C664.813 626.541 676.926 641.701 674.474 660.354C672.021 679.007 656.044 694.167 638.654 694.167C621.265 694.167 609.152 679.007 611.604 660.354C614.056 641.701 630.108 626.541 647.423 626.541Z" fill="#1AAA5D"/>
<path fill-rule="evenodd" clip-rule="evenodd" d="M482.075 667.191L475.238 664.887L476.353 655.598L483.71 653.294L482.075 667.191ZM473.529 665.259C473.306 667.34 471.448 668.974 469.367 668.974H452.944C450.863 668.974 449.451 667.34 449.674 665.259L450.863 655.301C451.086 653.22 452.944 651.585 455.025 651.585H471.448C473.529 651.585 474.941 653.22 474.718 655.301L473.529 665.259Z" fill="#FEFFFF"/>
<path d="M562.928 652.997L562.334 658.794C561.888 662.955 558.246 666.299 554.085 666.299H552.896C548.808 666.299 545.762 662.955 546.207 658.794L546.802 652.997" stroke="white" stroke-width="2.22942" stroke-miterlimit="10" stroke-linecap="round" stroke-linejoin="round"/>
<path fill-rule="evenodd" clip-rule="evenodd" d="M558.544 658.868C558.321 660.949 556.463 662.584 554.456 662.584H553.342C551.261 662.584 549.775 660.949 549.997 658.868L551.112 647.87C551.335 645.789 553.193 644.154 555.199 644.154H556.314C558.395 644.154 559.881 645.789 559.658 647.87L558.544 658.868ZM550.741 666.002H556.686L556.166 670.833H557.355C558.915 670.833 560.03 672.096 559.881 673.656L559.658 675.589H545.464L545.687 673.656C545.836 672.096 547.248 670.833 548.808 670.833H550.295L550.741 666.002Z" fill="#FEFFFF"/>
<path fill-rule="evenodd" clip-rule="evenodd" d="M658.124 654.185L656.712 666.15C656.563 667.636 655.672 668.974 654.408 669.717L641.701 676.851L642.592 670.535H632.04C629.588 670.535 627.804 668.528 628.101 666.076L629.513 654.111C629.81 651.659 632.04 649.652 634.492 649.652H654.186C656.638 649.727 658.347 651.733 658.124 654.185Z" fill="#FEFFFF"/>
<path d="M633.749 662.211H644.004" stroke="#A1DA53" stroke-width="2.22942" stroke-miterlimit="10" stroke-linecap="round" stroke-linejoin="round"/>
<path d="M634.27 656.787H652.476" stroke="#A1DA53" stroke-width="2.22942" stroke-miterlimit="10" stroke-linecap="round" stroke-linejoin="round"/>
<path fill-rule="evenodd" clip-rule="evenodd" d="M566.272 513.881C587.898 513.881 603.058 532.757 600.011 556.091C596.964 579.351 576.974 598.302 555.348 598.302C533.723 598.302 518.563 579.426 521.61 556.091C524.582 532.757 544.573 513.881 566.272 513.881Z" fill="#DB4460"/>
<path fill-rule="evenodd" clip-rule="evenodd" d="M575.413 562.928L569.171 556.909C568.502 556.24 568.279 555.274 568.576 554.308L569.32 551.781C566.793 551.112 564.118 550.741 561.368 550.741C558.618 550.741 555.869 551.112 553.193 551.781L553.342 554.308C553.416 555.274 552.97 556.314 552.079 556.909L544.424 562.928C543.384 563.746 541.972 563.671 541.155 562.78L535.878 556.686C534.838 555.497 535.209 553.565 536.621 552.524C543.904 547.099 552.822 543.904 562.111 543.904C571.4 543.904 579.501 547.174 585.594 552.524C586.783 553.565 586.709 555.497 585.371 556.686L578.757 562.78C577.717 563.746 576.231 563.746 575.413 562.928Z" fill="#FEFFFF"/>
<path fill-rule="evenodd" clip-rule="evenodd" d="M127.299 246.128C115.706 241.075 105.451 238.771 104.411 241C103.296 243.23 111.768 249.175 123.361 254.228C134.954 259.282 145.135 261.808 146.249 259.579C147.364 257.349 138.892 251.181 127.299 246.128Z" fill="#19180A"/>
<path fill-rule="evenodd" clip-rule="evenodd" d="M142.534 259.356C142.46 259.505 142.311 259.579 142.162 259.728L125.962 295.027C123.807 302.83 116.375 308.404 107.829 307.809C99.3574 307.214 92.4462 300.378 91.7031 291.906C91.4058 288.859 92.0003 285.961 93.115 283.36C93.7096 282.022 94.3041 280.61 94.8986 279.198L108.201 244.568C108.201 244.419 108.201 244.271 108.275 244.196C109.167 242.338 117.564 244.271 127.077 248.432C136.44 252.519 143.426 257.573 142.534 259.356Z" fill="#CA824D"/>
<path fill-rule="evenodd" clip-rule="evenodd" d="M148.256 338.278L125.665 360.423L94.973 300.601C92.8922 297.702 91.6289 294.135 91.6289 290.345C91.6289 280.684 99.5062 272.807 109.167 272.807C116.747 272.807 123.138 277.563 125.59 284.326L125.739 284.251L148.256 338.278Z" fill="#CA824D"/>
<path fill-rule="evenodd" clip-rule="evenodd" d="M164.976 221.084L166.017 221.753L146.398 259.43C145.878 256.83 137.926 251.33 127.374 246.648C116.97 242.115 107.086 239.737 104.485 240.926L126.11 195.818C129.9 188.015 137.926 182.59 147.141 182.59C160.072 182.59 170.476 193.068 170.476 205.924C170.476 211.795 168.395 216.997 164.976 221.084Z" fill="#77313D"/>
<path fill-rule="evenodd" clip-rule="evenodd" d="M170.773 133.988L197.229 134.657L209.045 196.338L164.902 192.548L170.773 133.988Z" fill="#CA824D"/>
<path fill-rule="evenodd" clip-rule="evenodd" d="M229.852 128.712C229.852 128.489 229.629 130.793 229.481 132.205C227.4 153.458 222.57 158.363 216.55 158.066C203.545 157.323 184.298 146.547 179.096 131.461C173.374 114.964 173.894 103.371 182.143 111.174C182.143 111.174 189.054 76.7664 220.712 89.7713C220.712 89.7713 225.616 95.4192 227.326 100.844C230.15 109.762 229.035 116.376 229.035 116.376C229.035 116.376 243.229 123.658 229.852 128.712Z" fill="#CA824D"/>
<path d="M194.033 118.531C190.986 118.159 187.419 126.26 195.148 127.523" stroke="#19180A" stroke-width="1.48628" stroke-miterlimit="10" stroke-linecap="round" stroke-linejoin="round"/>
<path d="M189.054 116.227C189.054 116.227 195.148 117.639 197.898 122.915" stroke="#19180A" stroke-width="1.48628" stroke-miterlimit="10" stroke-linecap="round" stroke-linejoin="round"/>
<path d="M222.272 112.437L226.36 110.208" stroke="#19180A" stroke-width="1.48628" stroke-miterlimit="10" stroke-linecap="round" stroke-linejoin="round"/>
<path d="M226.88 103.297C226.88 103.297 219.671 102.108 215.51 110.802" stroke="#19180A" stroke-width="1.48628" stroke-miterlimit="10" stroke-linecap="round" stroke-linejoin="round"/>
<path fill-rule="evenodd" clip-rule="evenodd" d="M223.09 111.174C221.976 110.951 220.935 112.363 220.712 114.221C220.564 116.079 221.307 117.788 222.421 117.937C223.536 118.16 224.577 116.748 224.8 114.89C225.022 113.032 224.205 111.397 223.09 111.174Z" fill="#19180A"/>
<path d="M223.09 133.394C223.09 133.394 225.32 136.663 228.738 136.886" stroke="#19180A" stroke-width="1.48628" stroke-miterlimit="10" stroke-linecap="round" stroke-linejoin="round"/>
<path fill-rule="evenodd" clip-rule="evenodd" d="M227.549 101.587L221.009 91.1091C221.381 93.1899 215.51 112.437 198.864 117.119C198.789 116.97 198.492 116.673 198.344 116.524C198.269 116.45 198.269 116.45 198.344 116.524C195.594 113.775 190.392 110.728 186.602 113.701C179.616 119.2 182.366 129.381 190.764 131.239C191.953 131.387 192.696 131.387 192.696 131.387C245.236 165.646 187.419 165.349 184.818 165.423C189.946 160.295 193.885 145.878 186.974 133.022C189.352 144.021 182.589 157.992 176.049 164.16C163.119 167.355 142.534 162.822 130.718 158.14C114.443 130.347 142.98 128.786 145.506 110.208C143.5 103.52 143.871 96.0881 149.148 88.731C144.243 87.8392 139.338 86.13 135.102 83.1575C123.807 75.2802 132.13 57.6678 148.107 63.39L142.311 51.574C157.694 46.6693 157.174 53.4319 154.424 59.5256C158.734 55.2154 162.524 52.7631 166.537 53.7291C173.969 55.5127 176.421 63.6872 177.015 71.6388C192.77 68.9635 207.781 75.2802 214.321 81.4483C225.988 81.151 229.332 84.4208 230.224 86.8732C231.859 89.3255 231.488 93.7844 227.549 101.587Z" fill="#19180A"/>
<path fill-rule="evenodd" clip-rule="evenodd" d="M178.65 76.1721C172.333 93.9331 151.674 91.778 151.674 91.778L144.168 87.4678C144.168 87.4678 168.618 85.8329 177.535 69.9297C177.61 69.8554 178.279 72.605 178.65 76.1721Z" fill="#1AAA5D"/>
<path fill-rule="evenodd" clip-rule="evenodd" d="M265.598 210.458C265.598 216.105 263.591 221.233 260.321 225.246C262.402 232.975 261.585 239.96 261.585 239.96C261.585 239.96 254.896 268.125 248.654 293.243C246.127 303.35 237.656 304.688 237.656 304.688L154.498 294.284C154.498 294.284 144.986 290.196 145.804 280.313C147.364 260.694 141.196 233.272 140.007 228.293C130.569 225.246 123.807 216.477 123.807 206.073C123.807 195.595 130.644 186.826 140.081 183.779C165.571 173.152 212.24 170.254 252.37 189.427C252.444 189.427 252.444 189.501 252.518 189.501C260.247 193.291 265.598 201.243 265.598 210.458Z" fill="#77313D"/>
<path fill-rule="evenodd" clip-rule="evenodd" d="M222.644 177.759C212.092 176.496 192.25 205.181 181.103 231.711C167.801 263.369 156.876 292.128 156.876 292.128L173.523 294.358C173.523 294.358 185.562 265.598 198.864 233.94C208.302 211.349 221.976 189.426 232.379 183.853C234.237 182.887 242.04 185.636 243.601 185.934C242.858 183.11 240.628 179.914 222.644 177.759Z" fill="#FF8E25"/>
<path fill-rule="evenodd" clip-rule="evenodd" d="M142.608 180.137C142.608 180.137 127.374 192.325 150.04 227.104C171.071 259.43 200.35 295.249 200.35 295.249L223.611 298.965C223.611 298.965 186.825 255.269 165.72 222.942C149.445 197.972 152.715 184.745 155.911 179.245C159.478 178.577 161.856 178.056 161.856 178.056C161.856 178.056 160.964 174.786 153.756 176.719C147.513 178.279 142.608 180.137 142.608 180.137Z" fill="#FF8E25"/>
<path d="M154.498 294.209C154.498 294.209 144.986 290.122 145.803 280.238C146.993 265.078 143.574 245.236 141.419 234.684" stroke="#61202C" stroke-width="1.48628" stroke-miterlimit="10" stroke-linecap="round" stroke-linejoin="round"/>
<path fill-rule="evenodd" clip-rule="evenodd" d="M237.804 321.334C242.56 326.462 256.234 344.594 252.147 367.409C196.337 420.097 128.637 370.976 127.151 345.858C128.711 323.266 148.033 311.747 152.195 309.964L154.053 292.946V292.872C154.498 289.156 173.671 288.487 196.932 291.46C220.192 294.432 238.696 299.857 238.325 303.573C238.325 303.796 238.176 303.944 238.102 304.167L237.804 321.334Z" fill="#FF8E25"/>
<path fill-rule="evenodd" clip-rule="evenodd" d="M224.651 425.894C247.391 427.008 265.672 430.798 265.449 434.365C265.301 437.932 246.722 439.939 223.982 438.824C201.242 437.71 182.961 433.919 183.184 430.352C183.407 426.785 201.911 424.779 224.651 425.894Z" fill="#19180A"/>
<path fill-rule="evenodd" clip-rule="evenodd" d="M302.012 753.767C300.525 755.625 302.086 756.665 294.952 760.232C283.433 768.704 255.194 776.73 232.082 772.717C222.124 771.008 214.767 775.764 199.31 777.102C189.798 777.919 183.927 774.278 182.515 772.346C179.319 758.226 189.649 736.303 189.649 736.303C189.649 736.303 197.749 733.331 206.593 742.546C214.395 746.187 221.158 743.215 221.009 736.155L265.895 750.2L301.343 747.748L302.012 753.767Z" fill="#19180A"/>
<path fill-rule="evenodd" clip-rule="evenodd" d="M190.986 660.354C191.952 631.372 192.695 603.727 193.29 586.189C194.553 551.707 200.944 548.363 198.343 521.164C188.088 414.524 189.054 381.008 189.054 381.008C189.054 381.008 216.922 376.326 218.185 376.401C229.629 378.259 225.022 354.404 240.405 359.754C238.993 351.431 255.342 394.608 255.342 394.608C255.342 394.608 240.256 558.396 232.899 660.726C220.117 670.238 212.686 677.298 190.986 660.354Z" fill="#CA824D"/>
<path fill-rule="evenodd" clip-rule="evenodd" d="M250.883 443.506L248.505 469.516C242.932 467.361 231.933 463.571 216.996 460.078C208.599 458.146 198.938 456.808 192.695 456.139C192.324 451.606 192.027 447.37 191.804 443.357L250.883 443.506Z" fill="#19180A"/>
<path fill-rule="evenodd" clip-rule="evenodd" d="M227.103 741.208C227.103 741.208 225.914 743.066 223.908 745.518H191.284C183.629 736.303 191.061 730.656 188.088 728.278C189.277 707.841 190.243 683.615 190.986 660.28C193.439 661.915 202.134 663.179 212.389 663.179C221.678 663.179 229.555 662.212 232.9 660.8L227.103 741.208Z" fill="#7E1925"/>
<path d="M190.615 672.319C192.621 673.954 201.242 675.217 211.869 675.217C221.975 675.217 229.63 674.177 232.082 672.69" stroke="#FF8E25" stroke-width="1.48628" stroke-miterlimit="10" stroke-linecap="round" stroke-linejoin="round"/>
<path fill-rule="evenodd" clip-rule="evenodd" d="M301.788 747.45C300.302 749.308 301.863 750.349 294.729 753.916C283.21 762.387 254.971 770.413 231.859 766.4C221.901 764.691 214.544 769.447 199.086 770.785C189.574 771.602 183.703 767.961 182.292 766.029C179.096 751.909 188.014 727.906 188.014 727.906C188.014 727.906 197.452 727.014 206.369 736.229C214.172 739.87 226.583 734.297 228.143 726.419L265.672 743.883C265.672 743.883 272.434 744.924 286.554 743.14C297.924 741.579 301.788 747.45 301.788 747.45Z" fill="#FF8E25"/>
<path d="M243.75 733.702C245.384 735.337 246.128 737.121 246.276 739.796" stroke="#19180A" stroke-width="1.48628" stroke-miterlimit="10" stroke-linecap="round" stroke-linejoin="round"/>
<path d="M231.19 728.575C231.19 728.575 237.358 730.358 237.879 739.87" stroke="#19180A" stroke-width="1.48628" stroke-miterlimit="10" stroke-linecap="round" stroke-linejoin="round"/>
<path fill-rule="evenodd" clip-rule="evenodd" d="M187.197 442.317L186.751 444.844C186.676 444.992 186.751 445.215 186.602 445.215C201.613 445.587 220.415 452.498 248.877 447.371L259.578 445.364L252.964 357.153C252.964 357.153 223.833 347.344 207.41 355.37C192.621 362.653 182.44 380.711 182.44 380.711L187.197 442.317Z" fill="#FF8E25"/>
<path fill-rule="evenodd" clip-rule="evenodd" d="M179.394 447.37H179.691C179.542 447.593 179.468 447.816 179.468 448.039C179.691 451.458 199.533 454.802 223.833 455.47C248.134 456.139 267.01 454.207 266.787 450.714C266.564 447.147 266.712 441.425 266.49 434.44C266.638 433.399 265.003 432.285 262.031 431.244C263.368 431.839 264.037 432.507 263.963 433.102C263.591 435.777 249.843 437.486 231.711 437.338C229.63 437.338 227.475 437.264 225.245 437.189C224.651 437.189 223.982 437.115 223.313 437.115C201.316 436.372 183.778 433.251 184.224 430.204C184.298 429.535 184.447 428.717 186.082 428.197V427.826C182.961 428.569 182.44 429.015 181.697 430.798C180.657 435.926 179.394 447.37 179.394 447.37Z" fill="#FF8E25"/>
<path d="M230.744 298.594L230.521 316.801C234.534 321.111 244.79 337.832 245.459 355.667C245.533 355.667 245.533 355.667 245.533 355.667L251.255 454.579" stroke="#7E1925" stroke-width="1.48628" stroke-miterlimit="10" stroke-linecap="round" stroke-linejoin="round"/>
<path d="M262.03 431.765C263.368 432.359 264.037 433.028 263.963 433.622C263.591 436.298 249.843 438.007 231.71 437.858C229.629 437.858 227.474 437.784 225.245 437.71C224.65 437.71 223.982 437.635 223.313 437.635C201.316 436.892 183.778 433.771 184.224 430.724C184.298 430.055 184.521 429.387 186.007 428.792" stroke="#7E1925" stroke-width="1.48628" stroke-miterlimit="10" stroke-linecap="round" stroke-linejoin="round"/>
<path fill-rule="evenodd" clip-rule="evenodd" d="M141.716 417.125C164.605 421.138 182.663 427.157 181.994 430.724C181.4 434.217 162.376 433.846 139.487 429.907C116.598 425.894 100.992 420.543 101.587 417.051C102.256 413.409 118.828 413.112 141.716 417.125Z" fill="#19180A"/>
<path fill-rule="evenodd" clip-rule="evenodd" d="M134.136 751.686C132.947 753.841 130.495 758.746 123.138 762.09C114.146 766.252 106.269 768.63 96.0875 766.252C85.9065 763.874 83.0083 773.014 68.517 773.46C54.4717 773.906 48.0807 771.082 46.4458 768.704C46.3715 766.4 46.3715 764.171 46.5201 762.016C64.8013 750.646 134.211 746.633 134.211 746.633C134.211 746.633 134.136 748.788 134.136 751.686Z" fill="#19180A"/>
<path fill-rule="evenodd" clip-rule="evenodd" d="M71.9355 657.605C77.6577 626.987 83.0826 597.41 86.5011 579.724C93.0407 545.985 102.404 545.391 103.965 518.192C110.133 411.551 118.679 383.684 118.679 383.684C118.679 383.684 141.865 377.07 143.128 377.441C154.127 381.231 153.235 356.93 167.652 364.733C167.503 356.262 168.098 440.757 168.098 440.757C168.098 440.757 133.616 578.758 112.139 665.111C102.033 680.939 78.4752 677.298 71.9355 657.605Z" fill="#CA824D"/>
<path fill-rule="evenodd" clip-rule="evenodd" d="M167.206 444.175L162.599 462.754C157.322 460.078 149.891 456.66 139.487 452.498C127.002 447.594 111.396 443.655 109.687 443.283C109.761 442.689 109.836 442.094 109.91 441.5L111.916 431.393L168.767 437.487C168.692 440.236 167.206 444.175 167.206 444.175Z" fill="#19180A"/>
<path fill-rule="evenodd" clip-rule="evenodd" d="M59.1538 722.63C63.1668 703.977 67.9229 678.264 72.0101 656.862C73.645 658.794 81.8939 661.469 91.9263 663.253C101.513 664.962 109.762 665.334 112.288 664.368L94.453 735.932C94.453 735.932 90.2914 741.803 84.9408 745.89L64.8017 742.249C50.8307 727.534 57.5189 730.953 59.1538 722.63Z" fill="#7E1925"/>
<path d="M69.855 668.157C71.4899 670.089 79.2929 672.69 89.3253 674.474C98.9118 676.183 106.938 676.629 109.539 675.663" stroke="#FF8E25" stroke-width="1.48628" stroke-miterlimit="10" stroke-linecap="round" stroke-linejoin="round"/>
<path fill-rule="evenodd" clip-rule="evenodd" d="M134.657 746.484C133.468 748.64 130.495 753.544 123.138 756.888C114.146 761.05 106.269 763.428 96.0877 761.05C85.9067 758.672 83.0085 767.813 68.5173 768.258C54.4719 768.704 48.0809 765.88 46.446 763.502C45.3313 739.35 59.4509 721.292 59.4509 721.292C59.4509 721.292 69.1117 718.245 76.7661 731.101C83.603 737.715 95.7162 730.804 98.6144 719.806L110.43 732.513C110.43 732.513 113.7 732.216 118.233 732.365C129.603 732.811 133.245 742.843 134.657 746.484Z" fill="#FF8E25"/>
<path fill-rule="evenodd" clip-rule="evenodd" d="M107.607 429.089C107.458 429.238 107.384 429.387 107.309 429.609C106.938 432.359 122.024 438.081 140.974 442.391C159.998 446.702 175.678 447.965 176.05 445.29C176.05 445.215 176.05 445.067 176.05 444.992L187.197 387.028C187.197 387.028 189.649 362.727 183.853 354.181C159.552 318.51 128.415 338.055 128.415 338.055L105.526 428.123L107.607 429.089Z" fill="#FF8E25"/>
<path fill-rule="evenodd" clip-rule="evenodd" d="M95.8647 433.4L96.162 433.474C96.0133 433.697 95.8647 433.92 95.8647 434.143C95.6418 437.561 114.889 443.432 138.892 447.148C162.896 450.863 181.846 451.384 182.069 447.891C182.292 444.324 183.184 438.602 183.852 431.69C184.15 430.65 182.663 429.387 179.84 427.975C181.103 428.718 181.697 429.461 181.474 430.056C180.806 432.657 166.909 432.582 148.999 430.204C146.918 429.907 144.763 429.61 142.608 429.238C142.014 429.164 141.345 429.015 140.75 428.941C119.051 425.374 102.033 420.097 102.85 417.125C102.999 416.456 104.039 415.416 105.674 415.118L105.748 414.896C102.553 415.193 101.29 415.267 100.398 416.902C98.6886 421.807 95.8647 433.4 95.8647 433.4Z" fill="#FF8E25"/>
<path d="M176.124 381.305L163.342 449.6" stroke="#7E1925" stroke-width="1.48628" stroke-miterlimit="10" stroke-linecap="round" stroke-linejoin="round"/>
<path fill-rule="evenodd" clip-rule="evenodd" d="M160.815 374.171L183.035 377.887L184.075 400.85C184.075 400.85 164.233 395.128 160.815 374.171Z" fill="#19180A"/>
<path d="M180.063 428.198C181.326 428.941 181.623 429.461 181.475 430.13C180.806 432.731 166.909 432.657 149 430.279C146.919 429.981 144.764 429.684 142.609 429.313C142.014 429.238 141.345 429.09 140.751 429.015C119.051 425.448 102.033 420.172 102.851 417.199C102.999 416.531 104.04 415.49 105.674 415.193" stroke="#7E1925" stroke-width="1.48628" stroke-miterlimit="10" stroke-linecap="round" stroke-linejoin="round"/>
<path d="M151.675 310.93C152.121 307.14 171.665 306.471 195.371 309.518C219.078 312.565 237.953 318.064 237.507 321.928" stroke="#7E1925" stroke-width="1.48628" stroke-miterlimit="10" stroke-linecap="round" stroke-linejoin="round"/>
<path fill-rule="evenodd" clip-rule="evenodd" d="M133.393 329.509C136.737 327.279 145.655 326.239 157.842 326.387C154.498 340.73 150.783 360.423 150.783 360.423L131.907 370.307L122.692 362.207L133.393 329.509ZM233.197 337.386C222.718 334.265 208.822 331.367 193.513 329.286C192.027 341.25 190.615 362.132 190.615 362.132L211.497 378.259L232.528 369.861C232.528 369.861 233.866 351.06 233.197 337.386Z" stroke="#7E1925" stroke-width="1.48628" stroke-miterlimit="10" stroke-linecap="round" stroke-linejoin="round"/>
<path d="M332.778 163.639L310.484 219.598C309.221 222.793 312.119 222.868 308.775 222.125C303.944 221.084 305.877 216.997 306.991 213.876C307.066 213.653 304.019 203.769 304.093 203.62L327.651 161.261C328.394 159.849 330.103 159.329 331.515 160.072C332.778 160.741 333.299 162.302 332.778 163.639Z" fill="#CA824D"/>
<path fill-rule="evenodd" clip-rule="evenodd" d="M344.52 206.519C343.776 208.228 342.885 209.417 341.993 210.532C341.101 211.646 340.209 212.613 339.095 213.653C338.426 214.322 337.534 214.545 336.642 214.396C336.345 215.659 336.122 216.848 335.899 218.037C335.899 218.112 335.825 218.26 335.825 218.335C336.122 219.821 336.345 221.382 336.271 222.942C335.528 238.325 326.684 241.149 319.476 239.143C308.329 236.021 308.626 233.792 303.573 230.968C302.978 226.732 302.606 216.18 301.789 206.444C301.343 201.391 304.316 196.189 304.91 193.365C305.207 192.028 305.43 192.399 305.43 191.062C305.43 190.393 305.43 189.724 305.43 188.981C305.43 188.312 305.356 187.569 305.282 187.049L305.207 186.603C305.059 184.968 306.248 183.481 307.883 183.333C309.22 183.184 310.484 184.002 310.93 185.191C311.376 186.231 311.598 186.974 311.821 187.792C312.044 188.609 312.267 189.501 312.416 190.318C312.788 192.028 312.936 193.811 313.01 195.595C313.085 197.378 313.01 199.162 312.713 201.02C312.639 201.391 312.639 201.763 312.565 202.06C313.382 200.053 314.274 198.196 315.314 196.263C315.983 195 316.726 193.737 317.544 192.473C318.435 191.21 319.401 189.947 320.962 188.535C321.78 187.866 322.746 187.123 324.38 186.751C325.124 186.528 326.09 186.454 326.981 186.603C327.873 186.751 328.691 187.049 329.285 187.42L329.731 187.717C329.954 187.866 330.103 188.015 330.251 188.163C330.623 188.461 330.994 188.832 331.217 189.278C331.738 190.021 332.035 190.839 332.183 191.582C332.481 191.582 332.778 191.582 333.001 191.656C333.893 191.805 334.71 192.102 335.305 192.473L335.751 192.771C335.973 192.919 336.122 193.068 336.271 193.217C336.642 193.514 337.014 193.885 337.237 194.331C337.831 195.149 338.129 196.189 338.203 197.007C338.203 197.23 338.203 197.453 338.203 197.675C338.649 197.675 339.095 197.675 339.466 197.75C340.358 197.898 341.175 198.196 341.77 198.567L342.216 198.864C342.439 199.013 342.587 199.162 342.736 199.31C343.108 199.608 343.479 199.979 343.702 200.425C344.297 201.243 344.594 202.283 344.668 203.1C345.263 204.587 344.891 205.627 344.52 206.519ZM337.608 204.066C337.608 204.141 337.608 204.289 337.683 204.364C337.683 204.289 337.683 204.289 337.683 204.215C337.757 203.918 337.608 203.695 337.608 204.066Z" fill="#CA824D"/>
<path d="M329.657 204.809C330.326 203.694 331.663 201.614 332.332 200.796C341.473 189.352 352.1 204.586 337.237 214.321M339.169 206.37C338.426 208.302 336.568 214.098 335.899 220.192L339.169 206.37Z" stroke="#19180A" stroke-width="1.48628" stroke-miterlimit="10" stroke-linecap="round" stroke-linejoin="round"/>
<path d="M322.746 200.499C323.191 199.756 324.678 197.601 325.049 197.006C330.92 188.757 337.608 191.879 338.054 197.898" stroke="#19180A" stroke-width="1.48628" stroke-miterlimit="10" stroke-linecap="round" stroke-linejoin="round"/>
<path d="M318.881 177.759L306.025 200.202" stroke="#19180A" stroke-width="1.48628" stroke-miterlimit="10" stroke-linecap="round" stroke-linejoin="round"/>
<path d="M316.058 196.189C316.801 195 318.436 192.548 318.956 191.879C324.232 184.745 330.177 186.825 331.441 191.73" stroke="#19180A" stroke-width="1.48628" stroke-miterlimit="10" stroke-linecap="round" stroke-linejoin="round"/>
<path fill-rule="evenodd" clip-rule="evenodd" d="M305.282 298.148L305.208 298.073C302.681 304.613 296.364 309.295 288.858 309.295C279.198 309.295 271.32 301.418 271.32 291.757C271.32 288.115 272.435 284.771 274.293 282.022L308.031 219.821L332.332 227.401L305.282 298.148Z" fill="#CA824D"/>
<path fill-rule="evenodd" clip-rule="evenodd" d="M306.322 291.831C306.322 301.492 298.445 309.369 288.784 309.369C281.427 309.369 275.185 304.836 272.584 298.445L232.38 225.914L261.883 197.526L302.086 280.535C304.762 283.508 306.322 287.446 306.322 291.831Z" fill="#CA824D"/>
<path fill-rule="evenodd" clip-rule="evenodd" d="M246.276 250.81C250.81 239.514 275.556 230.225 275.556 230.225C275.556 230.225 276.596 230.448 278.157 230.893L286.48 248.134C275.482 257.572 258.687 260.247 251.85 260.916L246.276 250.81Z" fill="#19180A"/>
<path fill-rule="evenodd" clip-rule="evenodd" d="M269.537 250.81C258.836 257.201 249.175 260.991 247.54 259.059V258.984L223.462 224.428C220.564 220.564 218.78 215.659 218.78 210.457C218.78 197.527 229.259 187.123 242.115 187.123C250.066 187.123 257.126 191.136 261.288 197.155L261.362 197.081L286.555 235.055L286.406 235.129C286.48 235.204 286.555 235.204 286.555 235.278C288.041 237.433 280.387 244.344 269.537 250.81Z" fill="#77313D"/>
<path d="M247.466 259.133C247.466 259.133 240.703 249.249 234.312 240.034" stroke="#61202C" stroke-width="1.48628" stroke-miterlimit="10" stroke-linecap="round" stroke-linejoin="round"/>
<path d="M283.879 244.939L299.188 275.556" stroke="#19180A" stroke-width="1.48628" stroke-miterlimit="10" stroke-linecap="round" stroke-linejoin="round"/>
<path d="M527.266 200.422C527.445 200.397 527.612 200.324 527.737 200.217C527.861 200.11 527.935 199.976 527.943 199.84C530.415 180.25 538.633 169.129 544.995 163.952C551.827 158.372 558.204 157.331 558.281 157.318C558.482 157.283 558.663 157.191 558.787 157.062C558.91 156.932 558.965 156.776 558.94 156.627C558.933 156.551 558.905 156.478 558.857 156.414C558.809 156.35 558.743 156.295 558.662 156.254C558.582 156.213 558.489 156.186 558.39 156.175C558.291 156.164 558.187 156.169 558.087 156.19C557.778 156.243 551.203 157.265 543.998 163.14C537.429 168.497 528.934 179.809 526.376 199.821C526.369 199.899 526.382 199.975 526.414 200.046C526.447 200.117 526.498 200.18 526.566 200.233C526.633 200.286 526.715 200.327 526.807 200.355C526.899 200.382 526.999 200.395 527.102 200.392C527.111 200.449 527.189 200.436 527.266 200.422Z" fill="#19180A"/>
<path d="M604.186 209.99C604.406 209.984 604.617 209.906 604.78 209.769C604.942 209.633 605.044 209.449 605.066 209.252C614.606 155.685 639.237 157.103 639.507 157.17C639.635 157.193 639.767 157.191 639.896 157.166C640.025 157.14 640.146 157.091 640.254 157.022C640.361 156.953 640.451 156.864 640.519 156.763C640.587 156.661 640.631 156.548 640.649 156.431C640.666 156.314 640.656 156.195 640.62 156.082C640.583 155.97 640.521 155.865 640.438 155.776C640.354 155.686 640.25 155.614 640.133 155.562C640.016 155.511 639.887 155.482 639.756 155.478C638.626 155.388 613.116 153.689 603.301 209.046C603.284 209.157 603.293 209.271 603.325 209.379C603.357 209.487 603.413 209.588 603.489 209.677C603.566 209.765 603.661 209.838 603.769 209.893C603.878 209.948 603.998 209.982 604.122 209.995L604.186 209.99Z" fill="#19180A"/>
<path fill-rule="evenodd" clip-rule="evenodd" d="M598.949 307.401C599.763 241.76 605.692 212.211 606.716 207.829C601.872 208.047 596.342 208.101 590.052 208.018C561.029 207.409 539.849 203.003 526.325 199.062C524.462 204.58 513.774 235.805 504.545 297.146C490.965 386.893 490.244 437.024 490.244 437.024C535.598 450.936 611.089 441.142 611.089 441.142C611.089 441.142 598.027 379.89 598.949 307.401Z" fill="#FFBA08"/>
<path d="M551.207 338.012C551.403 338.005 551.592 337.941 551.739 337.833C551.887 337.724 551.982 337.578 552.009 337.421L558.915 288.936C558.925 288.758 558.857 288.586 558.724 288.448C558.591 288.31 558.401 288.215 558.187 288.18C557.975 288.157 557.758 288.2 557.58 288.301C557.402 288.402 557.277 288.552 557.229 288.721L550.314 337.207C550.304 337.384 550.372 337.557 550.505 337.695C550.638 337.833 550.828 337.928 551.042 337.963C551.046 338.024 551.122 338.018 551.207 338.012Z" fill="#19180A"/>
<path d="M534.806 333.539C535.003 333.533 535.193 333.468 535.339 333.358C535.485 333.248 535.577 333.099 535.598 332.941L542.504 284.456C542.514 284.279 542.448 284.108 542.317 283.97C542.186 283.831 541.998 283.736 541.785 283.699C541.573 283.68 541.357 283.724 541.178 283.824C541 283.925 540.871 284.073 540.818 284.241L533.856 332.731C533.846 332.908 533.913 333.081 534.046 333.219C534.179 333.357 534.369 333.451 534.584 333.487C534.636 333.552 534.721 333.545 534.806 333.539Z" fill="#19180A"/>
<path d="M518.251 329.412C518.449 329.404 518.638 329.34 518.786 329.23C518.933 329.12 519.028 328.972 519.053 328.813L525.958 280.328C525.968 280.152 525.902 279.98 525.771 279.842C525.64 279.704 525.452 279.608 525.239 279.571C525.027 279.548 524.809 279.592 524.629 279.692C524.449 279.793 524.322 279.943 524.272 280.114L517.31 328.603C517.3 328.78 517.368 328.953 517.501 329.091C517.634 329.229 517.824 329.324 518.038 329.359C518.175 329.418 518.175 329.418 518.251 329.412Z" fill="#19180A"/>
<path d="M556.861 289.556L557.947 289.478C558.055 289.474 558.161 289.45 558.258 289.409C558.354 289.368 558.439 289.311 558.507 289.241C558.574 289.172 558.622 289.092 558.648 289.007C558.673 288.922 558.675 288.834 558.654 288.749C558.613 288.566 558.489 288.404 558.306 288.293C558.123 288.182 557.894 288.131 557.662 288.149C556.354 288.239 555.044 288.267 553.738 288.232C547.079 288.031 542.269 286.089 542.155 284.488C542.118 284.319 542.011 284.167 541.852 284.057C541.692 283.947 541.489 283.884 541.276 283.88C541.164 283.882 541.054 283.904 540.952 283.943C540.851 283.982 540.76 284.038 540.686 284.106C540.612 284.175 540.556 284.255 540.523 284.342C540.49 284.428 540.479 284.519 540.493 284.607C540.756 287.219 546.444 289.366 553.669 289.656C554.863 289.631 555.86 289.628 556.861 289.556Z" fill="#19180A"/>
<path d="M540.473 285.257L541.55 285.18C541.658 285.177 541.765 285.154 541.863 285.113C541.96 285.073 542.046 285.015 542.114 284.946C542.182 284.876 542.23 284.795 542.254 284.709C542.279 284.624 542.28 284.535 542.257 284.45C542.216 284.267 542.092 284.105 541.909 283.994C541.726 283.884 541.496 283.833 541.265 283.851C539.954 283.941 538.641 283.969 537.331 283.935C530.672 283.734 525.863 281.791 525.743 280.122C525.709 279.952 525.603 279.798 525.443 279.686C525.283 279.574 525.079 279.511 524.864 279.506C524.752 279.51 524.642 279.532 524.54 279.572C524.438 279.612 524.348 279.669 524.274 279.738C524.2 279.807 524.145 279.888 524.111 279.975C524.078 280.061 524.068 280.152 524.081 280.241C524.353 282.845 530.032 284.992 537.257 285.282L540.473 285.257Z" fill="#19180A"/>
<path d="M524.074 280.937L525.16 280.859C525.267 280.855 525.373 280.833 525.47 280.793C525.566 280.753 525.651 280.696 525.718 280.627C525.785 280.558 525.832 280.478 525.857 280.393C525.881 280.309 525.881 280.221 525.858 280.137C525.819 279.953 525.696 279.789 525.513 279.676C525.329 279.564 525.099 279.512 524.865 279.53C523.555 279.624 522.242 279.652 520.932 279.614C514.274 279.421 509.474 277.477 509.354 275.801C509.317 275.632 509.21 275.48 509.051 275.37C508.891 275.259 508.688 275.197 508.475 275.193C508.363 275.195 508.252 275.217 508.15 275.256C508.048 275.295 507.957 275.35 507.882 275.419C507.807 275.488 507.751 275.568 507.716 275.654C507.682 275.741 507.67 275.831 507.682 275.92C507.954 278.524 513.642 280.671 520.868 280.961C521.933 281.017 523.005 281.009 524.074 280.937V280.937Z" fill="#19180A"/>
<path d="M550.787 337.982L551.042 337.964C551.151 337.961 551.257 337.938 551.355 337.898C551.452 337.857 551.537 337.8 551.604 337.73C551.671 337.66 551.718 337.579 551.742 337.493C551.765 337.408 551.765 337.319 551.74 337.235C551.699 337.052 551.575 336.89 551.392 336.779C551.209 336.669 550.98 336.617 550.748 336.635C549.437 336.726 548.124 336.754 546.814 336.719C540.156 336.518 535.356 334.575 535.236 332.906C535.201 332.735 535.093 332.58 534.932 332.468C534.77 332.356 534.563 332.294 534.347 332.291C534.235 332.295 534.125 332.317 534.023 332.357C533.922 332.397 533.831 332.453 533.757 332.523C533.683 332.592 533.628 332.673 533.595 332.759C533.561 332.846 533.551 332.937 533.564 333.026C533.837 335.63 539.515 337.777 546.75 338.066C548.094 338.103 549.442 338.075 550.787 337.982Z" fill="#19180A"/>
<path d="M534.402 333.736L534.648 333.718C534.756 333.715 534.863 333.692 534.96 333.652C535.057 333.611 535.143 333.554 535.21 333.484C535.277 333.414 535.324 333.333 535.347 333.247C535.371 333.161 535.37 333.073 535.345 332.989C535.304 332.806 535.18 332.644 534.997 332.533C534.814 332.422 534.585 332.371 534.353 332.389C533.046 332.479 531.736 332.507 530.429 332.473C523.77 332.272 518.961 330.329 518.841 328.66C518.807 328.49 518.701 328.336 518.541 328.224C518.381 328.112 518.177 328.049 517.962 328.044C517.85 328.048 517.739 328.07 517.637 328.11C517.535 328.15 517.444 328.207 517.369 328.276C517.294 328.345 517.238 328.426 517.204 328.513C517.169 328.599 517.158 328.69 517.17 328.78C517.442 331.384 523.13 333.53 530.355 333.82C531.703 333.857 533.054 333.829 534.402 333.736Z" fill="#19180A"/>
<path d="M517.168 329.421L518.244 329.344C518.352 329.342 518.459 329.32 518.557 329.28C518.655 329.241 518.741 329.184 518.809 329.115C518.877 329.045 518.925 328.965 518.95 328.88C518.975 328.794 518.975 328.706 518.952 328.622C518.913 328.437 518.79 328.273 518.606 328.161C518.423 328.049 518.192 327.997 517.959 328.014C516.649 328.109 515.335 328.137 514.026 328.098C507.368 327.905 502.558 325.962 502.438 324.286C502.401 324.117 502.295 323.965 502.135 323.855C501.975 323.744 501.772 323.682 501.559 323.678C501.447 323.68 501.337 323.701 501.236 323.741C501.134 323.78 501.043 323.835 500.969 323.904C500.895 323.973 500.839 324.053 500.806 324.139C500.773 324.226 500.762 324.316 500.776 324.405C501.048 327.009 506.727 329.163 513.952 329.453C515.021 329.503 516.096 329.492 517.168 329.421Z" fill="#19180A"/>
<path d="M567.491 416.679C567.685 416.661 567.868 416.593 568.013 416.485C568.158 416.377 568.256 416.234 568.293 416.08C570.848 404.991 566.677 357.438 566.457 355.433C566.423 355.269 566.314 355.122 566.152 355.022C565.99 354.922 565.785 354.874 565.578 354.889C565.37 354.904 565.174 354.98 565.028 355.103C564.882 355.225 564.795 355.386 564.785 355.553C564.819 356.023 569.167 404.982 566.597 415.866C566.565 416.038 566.612 416.211 566.731 416.352C566.85 416.493 567.032 416.592 567.241 416.628C567.319 416.658 567.404 416.676 567.491 416.679V416.679Z" fill="#19180A"/>
<path d="M574.33 416.188L574.5 416.176C574.604 416.148 574.7 416.104 574.783 416.046C574.867 415.988 574.935 415.917 574.984 415.838C575.034 415.759 575.063 415.673 575.07 415.586C575.078 415.499 575.063 415.411 575.027 415.33C571.001 404.851 568.244 355.847 568.21 355.376C568.176 355.212 568.068 355.066 567.906 354.965C567.743 354.865 567.539 354.818 567.331 354.833C567.124 354.847 566.928 354.923 566.782 355.046C566.635 355.169 566.549 355.329 566.539 355.496C566.683 357.507 569.268 405.174 573.38 415.784C573.474 415.916 573.612 416.024 573.779 416.096C573.947 416.167 574.138 416.199 574.33 416.188V416.188Z" fill="#19180A"/>
<path d="M556.528 398.149C558.267 398.02 559.924 397.438 561.247 396.493C562.57 395.547 563.488 394.289 563.86 392.91C564.725 389.752 566.355 356.386 566.424 354.963C566.415 354.805 566.349 354.653 566.236 354.527C566.123 354.4 565.966 354.302 565.784 354.246C565.582 354.219 565.372 354.252 565.193 354.339C565.014 354.426 564.879 354.562 564.812 354.72C564.148 356.049 549.227 387.41 548.4 390.565C548.164 391.388 548.14 392.235 548.329 393.055C548.519 393.875 548.918 394.649 549.501 395.328C550.618 396.73 552.394 397.7 554.44 398.024C555.117 398.17 555.825 398.213 556.528 398.149ZM564.536 359.071C563.928 371.637 562.771 390.563 562.259 392.69C562.111 393.358 561.799 394 561.34 394.577C560.881 395.155 560.286 395.655 559.588 396.049C558.891 396.442 558.107 396.721 557.283 396.869C556.459 397.016 555.611 397.029 554.791 396.907C553.971 396.785 553.195 396.53 552.51 396.158C551.824 395.785 551.244 395.303 550.803 394.74C550.361 394.176 550.069 393.544 549.942 392.879C549.815 392.215 549.856 391.532 550.064 390.873C550.557 388.481 560.386 367.781 564.536 359.071Z" fill="#19180A"/>
<path d="M582.375 396.295C583.11 396.247 583.834 396.102 584.518 395.867C585.504 395.572 586.415 395.125 587.197 394.552C587.98 393.979 588.619 393.291 589.078 392.527C589.537 391.763 589.807 390.938 589.873 390.1C589.939 389.262 589.799 388.426 589.462 387.642C588.158 384.685 568.9 355.731 568.1 354.507C567.998 354.37 567.843 354.264 567.658 354.204C567.472 354.145 567.267 354.136 567.07 354.177C566.97 354.202 566.877 354.243 566.796 354.297C566.715 354.351 566.647 354.418 566.598 354.492C566.548 354.567 566.518 354.649 566.508 354.732C566.497 354.815 566.508 354.899 566.539 354.978C566.81 356.377 573.188 389.168 574.485 392.171C575.015 393.482 576.078 394.6 577.507 395.347C578.937 396.094 580.65 396.428 582.375 396.295V396.295ZM568.87 358.761C574.191 366.768 586.82 385.879 587.819 388.164C588.084 388.781 588.194 389.439 588.141 390.098C588.089 390.758 587.876 391.407 587.515 392.008C587.153 392.609 586.65 393.15 586.034 393.601C585.419 394.052 584.702 394.404 583.927 394.636C582.349 395.102 580.627 395.057 579.13 394.51C577.633 393.963 576.482 392.957 575.924 391.709C575.123 389.677 571.346 371.036 568.87 358.761Z" fill="#19180A"/>
<path d="M615.507 354.943C633.154 353.677 641.209 350.613 644.925 347.921C647.691 345.908 647.753 344.287 647.738 344.082C647.737 343.99 647.712 343.901 647.662 343.819C647.613 343.738 647.541 343.666 647.452 343.609C647.362 343.552 647.257 343.511 647.144 343.488C647.03 343.466 646.911 343.462 646.794 343.478C646.57 343.488 646.357 343.562 646.197 343.687C646.036 343.812 645.942 343.978 645.931 344.15C645.936 344.211 645.835 345.431 643.587 347.071C639.615 349.919 627.579 354.618 591.902 354.151C530.734 353.354 500.109 338.454 499.824 338.345C499.727 338.296 499.617 338.263 499.501 338.247C499.385 338.232 499.266 338.235 499.15 338.255C499.033 338.275 498.922 338.313 498.824 338.366C498.725 338.419 498.64 338.487 498.573 338.564C498.503 338.638 498.454 338.723 498.428 338.811C498.403 338.9 498.401 338.991 498.425 339.079C498.448 339.166 498.495 339.248 498.562 339.32C498.63 339.391 498.717 339.45 498.818 339.492C499.108 339.67 530.097 354.681 591.811 355.499C599.7 355.654 607.611 355.468 615.507 354.943V354.943Z" fill="#19180A"/>
<g clip-path="url(#clip0_562_7556)">
<path d="M519.4 265.602C518.89 265.532 518.398 265.294 518.009 264.928C517.641 264.55 517.397 264.079 517.317 263.589C517.21 262.974 517.232 262.36 517.381 261.784C517.512 261.17 517.761 260.599 518.116 260.099C518.421 259.662 518.843 259.319 519.343 259.1C519.824 258.895 520.374 258.841 520.925 258.944C521.436 259.013 521.928 259.253 522.315 259.622C522.687 259.997 522.933 260.468 523.014 260.959C523.12 261.573 523.099 262.186 522.95 262.762C522.819 263.375 522.57 263.946 522.216 264.447C521.909 264.886 521.485 265.23 520.981 265.449C520.5 265.652 519.951 265.705 519.4 265.602V265.602ZM519.656 264.599C520.014 264.667 520.37 264.626 520.675 264.481C520.997 264.318 521.262 264.075 521.446 263.772C521.67 263.409 521.829 263.007 521.919 262.581C522.021 262.175 522.046 261.746 521.991 261.313C521.96 260.985 521.814 260.663 521.579 260.401C521.328 260.15 521.002 259.988 520.663 259.945C520.302 259.875 519.943 259.919 519.638 260.069C519.318 260.233 519.055 260.477 518.871 260.779C518.65 261.145 518.49 261.548 518.399 261.975C518.296 262.378 518.268 262.805 518.318 263.236C518.352 263.562 518.498 263.882 518.731 264.143C518.986 264.394 519.315 264.556 519.656 264.599V264.599ZM526.436 261.567C526.923 261.653 527.262 261.855 527.453 262.171C527.643 262.478 527.742 262.821 527.739 263.158C527.741 263.486 527.706 263.81 527.636 264.123L527.023 266.8L526.038 266.627L526.567 264.316C526.814 263.239 526.598 262.64 525.921 262.521C525.772 262.497 525.623 262.502 525.484 262.537C525.345 262.572 525.218 262.636 525.113 262.725C524.87 262.911 524.685 263.27 524.563 263.801L523.997 266.276L523.012 266.102L524.109 261.308L524.977 261.46L524.855 261.993C525.059 261.818 525.303 261.689 525.572 261.615C525.844 261.533 526.139 261.517 526.436 261.567V261.567ZM529.286 265.013C529.219 265.33 529.267 265.673 529.42 265.988C529.496 266.112 529.602 266.218 529.726 266.298C529.851 266.377 529.99 266.426 530.132 266.441C530.364 266.485 530.596 266.464 530.8 266.38C531.013 266.281 531.192 266.128 531.32 265.937L532.207 266.433C532.04 266.689 531.827 266.91 531.577 267.09C531.348 267.258 531.084 267.379 530.797 267.448C530.532 267.511 530.249 267.518 529.966 267.467C529.57 267.411 529.187 267.229 528.879 266.951C528.584 266.67 528.378 266.315 528.291 265.939C528.192 265.487 528.197 265.032 528.306 264.607C528.407 264.127 528.605 263.682 528.889 263.296C529.135 262.958 529.469 262.693 529.864 262.525C530.23 262.37 530.647 262.328 531.067 262.404C531.441 262.455 531.802 262.631 532.087 262.901C532.36 263.182 532.538 263.534 532.593 263.898C532.67 264.366 532.651 264.832 532.536 265.27C532.513 265.371 532.489 265.477 532.451 265.588L529.286 265.013ZM530.886 263.327C530.24 263.214 529.777 263.508 529.496 264.21L531.644 264.586C531.701 264.301 531.658 263.993 531.522 263.71C531.451 263.604 531.355 263.513 531.244 263.446C531.133 263.379 531.01 263.338 530.886 263.327ZM533.777 267.984L532.865 267.824L534.328 261.433L535.205 261.585L536.178 266.466L539.227 262.293L540.103 262.445L538.64 268.838L537.73 268.679L538.668 264.58L535.946 268.365L535.559 268.297L534.715 263.887L533.777 267.984ZM544.133 265.603C544.169 265.772 544.177 265.942 544.158 266.107C544.134 266.316 544.098 266.522 544.049 266.724L543.375 269.667L542.524 269.519L542.671 268.875C542.457 269.092 542.19 269.254 541.889 269.351C541.597 269.435 541.28 269.445 540.964 269.383C540.695 269.347 540.433 269.232 540.215 269.053C540.028 268.887 539.894 268.673 539.834 268.443C539.771 268.185 539.77 267.923 539.832 267.68C539.896 267.358 540.048 267.068 540.273 266.839C540.511 266.618 540.816 266.473 541.154 266.42C541.382 266.383 541.615 266.364 541.851 266.362C542.114 266.357 542.486 266.356 542.966 266.36L543.142 266.363C543.169 266.258 543.174 266.147 543.156 266.036C543.138 265.925 543.098 265.815 543.038 265.714C542.96 265.626 542.866 265.552 542.762 265.499C542.657 265.445 542.545 265.413 542.432 265.405C542.214 265.368 541.997 265.39 541.806 265.467C541.594 265.554 541.426 265.709 541.325 265.909L540.509 265.436C540.691 265.06 540.987 264.757 541.363 264.562C541.748 264.374 542.203 264.322 542.657 264.414C543.01 264.462 543.355 264.601 543.655 264.818C543.782 264.916 543.89 265.037 543.972 265.172C544.055 265.307 544.11 265.454 544.133 265.603V265.603ZM542.661 267.969C542.786 267.743 542.876 267.497 542.928 267.238C542.492 267.238 542.172 267.239 541.976 267.247C541.801 267.248 541.629 267.264 541.461 267.295C541.294 267.325 541.139 267.389 541.006 267.483C540.897 267.567 540.822 267.685 540.791 267.822C540.768 267.897 540.764 267.979 540.778 268.06C540.792 268.142 540.824 268.222 540.873 268.295C540.933 268.367 541.007 268.428 541.09 268.472C541.174 268.517 541.264 268.545 541.354 268.553C541.549 268.592 541.745 268.586 541.925 268.536C542.094 268.485 542.247 268.404 542.379 268.296C542.493 268.204 542.589 268.092 542.662 267.965L542.661 267.969ZM546.763 265.538C546.906 265.468 547.063 265.424 547.228 265.408C547.388 265.388 547.552 265.392 547.716 265.421C547.807 265.436 547.897 265.459 547.986 265.491L547.757 266.489C547.66 266.441 547.557 266.407 547.453 266.389C547.237 266.348 547.02 266.367 546.83 266.444C546.607 266.53 546.418 266.674 546.281 266.861C546.132 267.075 546.026 267.318 545.971 267.578L545.413 270.015L544.436 269.844L545.531 265.059L546.391 265.211L546.216 265.972C546.362 265.789 546.548 265.641 546.763 265.538ZM548.638 270.592L547.645 270.417L549.109 264.024L550.094 264.196L549.2 268.103L551.323 266.073L552.539 266.287L550.297 268.387L551.586 271.107L550.295 270.888L549.157 268.287L548.638 270.592ZM553.2 269.208C553.134 269.524 553.18 269.866 553.333 270.181C553.409 270.305 553.515 270.411 553.64 270.49C553.764 270.57 553.904 270.619 554.045 270.634C554.277 270.68 554.51 270.659 554.713 270.573C554.927 270.474 555.106 270.322 555.233 270.129L556.12 270.625C555.953 270.881 555.74 271.102 555.49 271.28C555.261 271.447 554.998 271.569 554.713 271.639C554.446 271.7 554.163 271.707 553.88 271.658C553.483 271.601 553.101 271.418 552.793 271.14C552.497 270.859 552.291 270.504 552.205 270.128C552.107 269.676 552.113 269.221 552.222 268.796C552.323 268.317 552.52 267.873 552.803 267.487C553.048 267.148 553.383 266.884 553.777 266.716C554.143 266.56 554.561 266.518 554.981 266.593C555.355 266.645 555.716 266.821 556.001 267.09C556.274 267.372 556.452 267.724 556.507 268.089C556.584 268.557 556.565 269.023 556.45 269.461C556.427 269.56 556.402 269.668 556.365 269.776L553.2 269.208ZM554.799 267.52C554.153 267.406 553.689 267.702 553.409 268.402L555.557 268.78C555.614 268.495 555.571 268.188 555.435 267.905C555.364 267.798 555.269 267.706 555.158 267.639C555.047 267.572 554.923 267.531 554.799 267.52V267.52ZM558.96 268.287L558.459 270.475C558.424 270.629 558.396 270.753 558.388 270.851C558.377 270.932 558.384 271.016 558.408 271.099C558.422 271.155 558.448 271.209 558.482 271.258C558.517 271.307 558.561 271.35 558.611 271.384C558.736 271.459 558.874 271.509 559.014 271.529C559.19 271.557 559.366 271.571 559.54 271.571L559.335 272.468C559.085 272.479 558.831 272.465 558.578 272.424C558.303 272.384 558.034 272.28 557.794 272.121C557.691 272.047 557.601 271.954 557.531 271.85C557.461 271.745 557.412 271.63 557.387 271.512C557.349 271.361 557.336 271.208 557.348 271.06C557.366 270.879 557.395 270.7 557.436 270.525L557.53 270.116L557.987 268.117L557.197 267.98L557.389 267.141L558.179 267.279L558.484 265.947L559.454 266.118L559.149 267.451L560.43 267.667L560.238 268.504L558.96 268.287Z" fill="white"/>
<path d="M531.941 228.935C532.79 225.226 536.204 222.696 539.589 223.29L556.461 226.25C559.836 226.841 561.881 230.327 561.032 234.036L556.785 252.585C555.936 256.294 552.522 258.825 549.139 258.229L532.268 255.271C528.893 254.678 526.846 251.191 527.695 247.482L531.941 228.935Z" fill="white"/>
<path d="M545.892 230.169C546.176 230.217 546.342 230.501 546.27 230.813L542.864 245.694C542.839 245.838 542.762 245.962 542.647 246.048C542.532 246.133 542.385 246.173 542.231 246.161L539.087 245.61C538.359 245.483 537.901 244.733 538.089 243.91L538.852 240.579C538.923 240.268 538.757 239.985 538.474 239.935C536.75 239.655 535.499 239.436 535.033 239.355C534.95 239.35 534.866 239.323 534.792 239.277C534.717 239.231 534.654 239.168 534.609 239.095C534.565 238.999 534.542 238.899 534.54 238.799C534.537 238.699 534.556 238.603 534.595 238.515C534.629 238.389 534.705 238.281 534.812 238.208L545.516 230.289C545.561 230.24 545.618 230.203 545.683 230.183C545.749 230.162 545.821 230.157 545.892 230.169ZM545.463 240.951C545.357 240.927 545.25 240.925 545.148 240.942C545.046 240.96 544.951 240.999 544.87 241.055C544.629 241.238 544.472 241.504 544.425 241.809C543.738 244.808 543.047 247.827 542.339 250.823C542.212 251.379 542.773 251.785 543.229 251.441L553.962 243.483C554.032 243.427 554.09 243.359 554.132 243.281C554.195 243.16 554.22 243.02 554.205 242.877C554.191 242.776 554.144 242.679 554.071 242.599C553.998 242.52 553.903 242.463 553.8 242.437C549.335 241.654 546.047 241.055 545.463 240.951V240.951Z" fill="#E34D28"/>
</g>
<path d="M70.9415 54.2816C70.9415 56.5387 69.6847 58.3598 68.1457 58.3598L27.1585 58.3598C25.6196 58.3598 24.3628 56.5387 24.3628 54.2816C24.3628 52.0245 25.6196 50.2034 27.1585 50.2034H68.1714C69.6847 50.1777 70.9415 52.0245 70.9415 54.2816Z" fill="#FFBA08"/>
<path d="M73.2754 50.9728C72.3008 49.639 68.7612 47.741 68.7612 47.741C54.7568 47.7154 40.7268 47.6897 26.7225 47.6641C26.6455 47.6641 26.5686 47.6641 26.5173 47.6897C26.389 47.6641 26.2608 47.6897 26.1069 47.741C24.0806 48.5105 22.6956 50.7163 21.9004 52.3578C21.4387 53.2812 21.1053 55.7179 23.1316 55.4357C24.7731 55.2049 26.1838 53.589 27.1841 52.5887C27.7741 51.9987 28.3896 51.3832 29.2104 51.0241C29.6464 50.8189 29.826 51.8705 29.9029 52.127C30.2364 53.3068 30.5698 54.9484 32.16 55.3844C33.7503 55.8205 34.9301 55.051 35.7509 53.9737C36.11 53.4864 37.059 51.1267 38.0337 51.4858C38.957 51.8192 39.5726 52.7426 40.2395 53.3325C41.0346 54.0507 41.9323 54.6919 42.9326 55.2049C44.4716 56 46.4979 56.0769 47.2673 54.4354C47.4469 54.025 47.6777 51.7679 48.1907 51.8449C49.1397 51.9987 50.0631 53.0504 50.7043 53.6146C51.679 54.4867 53.4487 56.3078 55.1159 55.923C56.4753 55.6153 56.5523 54.2046 56.7318 53.2299C56.7831 52.9991 56.8857 52.1526 57.2191 52.127C57.9886 52.0757 58.9633 53.2299 59.425 53.6146C60.5022 54.538 62.4002 56.3591 64.1957 55.6409C65.0164 55.3075 65.6577 54.538 65.709 53.7685C65.7346 53.3838 65.3499 51.8449 66.1707 51.8192C66.9401 51.7936 67.8635 52.4604 68.4791 52.7939C69.8385 53.5633 72.1725 55.2562 73.6858 54.3328C74.7118 53.7429 73.8654 51.7679 73.2754 50.9728Z" fill="#1AAA5D"/>
<path d="M70.813 44.3556C70.813 46.3562 69.5562 47.9977 68.0173 47.9977H27.0301C25.4912 47.9977 24.2344 46.3562 24.2344 44.3556C24.2344 42.3549 25.4912 40.7134 27.0301 40.7134L68.0429 40.7134C69.5819 40.7134 70.813 42.3549 70.813 44.3556Z" fill="#E34D28"/>
<path d="M68.5816 34.9164C69.8384 43.4319 68.7868 42.1238 47.8316 42.1238C26.902 42.1238 25.4913 43.4575 26.6968 34.9164C27.8766 26.5548 36.0587 19.3218 47.6264 19.3218C59.1941 19.3218 67.2735 26.1444 68.5816 34.9164Z" fill="#FF8E25"/>
<path d="M68.992 60.3858C69.1203 68.2344 68.992 68.337 47.6264 68.337C26.2607 68.337 26.3377 68.2344 26.2607 60.3858C26.2607 59.7702 26.6455 58.693 27.1841 58.3595C29.749 56.7436 37.9311 58.3852 47.7033 58.3852C57.2448 58.3852 65.4268 56.8975 68.1969 58.3595C68.8125 58.7186 68.992 59.7189 68.992 60.3858Z" fill="#FF8E25"/>
<path d="M42.126 22.0996L40.9668 22.7593L41.5757 23.8293L42.7349 23.1696L42.126 22.0996Z" fill="#FFFBD0"/>
<path d="M48.087 21.84L46.9277 22.4995L47.5365 23.5696L48.6958 22.9101L48.087 21.84Z" fill="#FFFBD0"/>
<path d="M53.9756 22.0981L52.8164 22.7578L53.4253 23.8278L54.5845 23.1681L53.9756 22.0981Z" fill="#FFFBD0"/>
<path d="M45.3094 24.6345L44.1504 25.2944L44.7596 26.3643L45.9186 25.7044L45.3094 24.6345Z" fill="#FFFBD0"/>
<path d="M50.8511 24.6307L49.6919 25.2905L50.3009 26.3605L51.4601 25.7007L50.8511 24.6307Z" fill="#FFFBD0"/>
<defs>
<clipPath id="clip0_562_7556">
<rect width="43.4631" height="49.2537" fill="white" transform="matrix(0.950059 0.31207 -0.223162 0.974781 527.693 216.74)"/>
</clipPath>
</defs>
</svg>
